<mxfile host="65bd71144e">
    <diagram id="slJRwEFyC26J4d_4Cygv" name="new">
        <mxGraphModel dx="177" dy="424" grid="1" gridSize="10" guides="1" tooltips="1" connect="1" arrows="1" fold="1" page="1" pageScale="1" pageWidth="827" pageHeight="1169" background="#FFFFFF" math="0" shadow="0">
            <root>
                <mxCell id="0"/>
                <mxCell id="1" parent="0"/>
                <mxCell id="2_muqPNzbiKzWvyuhUvV-2" value="&lt;font style=&quot;font-size: 30px;&quot;&gt;ROAD-RIVER&lt;br&gt;pix2pix&lt;/font&gt;" style="rounded=1;whiteSpace=wrap;html=1;fillColor=#ffe6cc;strokeColor=#d79b00;shadow=0;aspect=fixed;" parent="1" vertex="1">
                    <mxGeometry x="360" y="101.07" width="280" height="120" as="geometry"/>
                </mxCell>
                <mxCell id="2_muqPNzbiKzWvyuhUvV-5" style="edgeStyle=orthogonalEdgeStyle;html=1;fontSize=24;startArrow=none;startFill=0;shadow=0;endArrow=none;endFill=0;entryX=1;entryY=0.5;entryDx=0;entryDy=0;rounded=1;" parent="1" source="2_muqPNzbiKzWvyuhUvV-11" target="5" edge="1">
                    <mxGeometry relative="1" as="geometry">
                        <Array as="points">
                            <mxPoint x="990" y="136"/>
                            <mxPoint x="990" y="336"/>
                        </Array>
                        <mxPoint x="960" y="160.0000000000001" as="sourcePoint"/>
                        <mxPoint x="960" y="340" as="targetPoint"/>
                    </mxGeometry>
                </mxCell>
                <mxCell id="2_muqPNzbiKzWvyuhUvV-9" value="&lt;font style=&quot;font-size: 30px;&quot;&gt;Discriminator&lt;/font&gt;" style="rounded=1;whiteSpace=wrap;html=1;shadow=0;fontSize=24;fillColor=#f8cecc;strokeColor=#b85450;align=center;" parent="1" vertex="1">
                    <mxGeometry x="1060" y="210" width="200" height="60" as="geometry"/>
                </mxCell>
                <mxCell id="6" value="" style="group;rounded=1;" parent="1" vertex="1" connectable="0">
                    <mxGeometry x="40" y="80" width="240" height="162.15" as="geometry"/>
                </mxCell>
                <mxCell id="3" value="" style="shape=image;verticalLabelPosition=bottom;labelBackgroundColor=default;verticalAlign=top;aspect=fixed;imageAspect=0;image=data:image/png,iVBORw0KGgoAAAANSUhEUgAAAawAAADwCAIAAADTkcfDAAAMP0lEQVR4Ae3BC2ocCQIFwcz7HzoXBhqqsLyWrWqpPy9CZmbemMzMvDGZmXljMjPzxmRm5o3JzMwbk5mZNyYzM29MZmbemMzMvDGZmXljMjPzxmRm5o3JzMwbk5mZNyYzM29MZmbemMzMvDGZmXljMjPzxmRm5o3JzMwbk5mZNyYzM29MZmbemMzMvDGZmXljMjPzxqz4j8rMzJux4jdUZmZemhWfpjIz80KsALXi76nMzDwtK0DlFxV/T2Vm5klYASqfUPH3VGZmHpIVoPJPKv6eyszMA7ACVC5S8fdUZma+nRWgcjcVf09lZubOrACVb1Txl1RmZq5mBaj8qIpPU5mZuYIVoPJgKj5HZWbmn1gBKg+v4k9UZmY+zQpQeSoVf6IyM/N/WQEqT6viT1RmZn5hBai8hIo/UZmZ+Y8VoPJyKv5EZWbemBWg8tIq/kRlZt6MFaDyNir+RGVm3oAVoPKWKv5EZWZelBWg8vYq/kRlZl6IFaAyBxV/ojIzT84KUJnfqPgTlZl5QlaAynxCxZ+ozMyTsAJU5u9V/IbKzDw8K0BlvqbiIyoz86isAJW5SMVHVGbmwVgBKnO1il+ozMzDsAJU5j4qPqIyMz/NClCZO6v4hcrM/BwrQGW+RcVHVGbm21kBKvO9Kj6iMjPfxQpQmR9S8QuVmbk/K0BlflTFR1Rm5m6sAJV5DBUfUZmZq1kBKvNgKn6hMjPXsQJU5iFVfERlZr7MClCZx1bxC5WZ+QIrQGWeQcVHVGbm71kBKvNUKn6hMjN/wwpQmedUcaYyM59jBajMM6s4U5mZP7ECVOYlVByozMzvWQEq8yoqzlRm5iNW/EdlXkjFmcrMnFnxEZV5fhVnKjNzY8UnqMzTqjhTmRmwAtSKz1GZJ1RxpjLz3qwAlbOKz1GZ51FxpjLzrqwAlf+r4nNU5uFVnKnMvB8rQOXTKj5NZR5VxZnKzDuxAlT+VcXnqMzjqThTmXkPVoDKRSr+RGUeTMWZysyrswJU7qPiN1TmwVScqcy8LitA5f4qPqIyj6TiTGXmFVkBKt+o4iMq8zAqzlRmXosVoPITKj6iMo+h4kxl5lVYASo/p+IjKvMYKs5UZp6fFaDyACo+ojIPoOJMZeaZWQEqj6TiIyrz0yrOVGaekxWg8pAqPqIyP6riTGXm2VgBKo+t4iMq83MqzlRmnocVoPIMKj6iMj+n4kxl5hlYASpPpeIjKvNDKs5UZh6bFaDynCo+ojI/oeJMZeZRWQEqT67iFyrzEyrOVGYejxWg8hIqPqIy367iTGXmkVgBKq+l4hcq8+0qzlRmHoMVoPKiKs5U5ttVHKjMPAArQOWlVZypzLerOFOZ+TlWgMobqDhTmW9XcaYy8xOsAJW3UXGmMt+r4kxl5ttZASpvpuJMZb5XxZnKzDeyAlTeUsWZynyjijOVme9iBai8sYozlflGFWcqM/dnBai8vYozlfkuFWcqM3dmBajMfyp+oTLfouJMZeZurACVOas4U5n7q/iFyswdWAEq85GKM5W5v4ozlZmrWQEq83sVZypzZxW/UJm5jhWgMn9ScaYyd1ZxpjJzEStAZT6n4kxl7qziTGXmy6wAlfkbFWcqc08VZyozX2MFqMzfqzhTmXuqOFOZ+VdWgMr8q4ozlbmbil+ozPw9K0BlvqbiFypzHxVnKjN/yQpQmStUnKnMfVT8QmXm06wAlblOxZnK3EfFmcrM51gBKnOpijOVuZuKM5WZP7ECVOYOKs5U5j4qzlRm/i8rQGXuo+JMZe6m4kxl5jesAJW5p4ozlbmPijOVmY9YASpzZxVnKnM3FWcqM2dWgMp8i4ozlbmPijOVmQMrQGW+S8WZytxNxYHKzI0VoDLfq+JMZe6j4kBl5j9WgMp8u4ozlbmPigOVGbACVOaHVJypzH1U3KjM27MCVObnVJypzH1UHKjMG7MCVOanVZypzB1UHKjMu7ICVOYBVJypzB1UHKjMW7ICVOZhVJypzNUqDlTm/VgBKvNIKs5U5moVByrzZqwAlXk8FWcqc6mKA5V5J1aAyjykijOVuVrFjcq8DStAZR5YxZnKXKriQGXegBWgMo+t4kxlLlVxoDKvzgpQmWdQcaYy16k4UJmXZgWozJOoOFOZ61QcqMzrsgJU5qlUHKjMdSoOVOZFWQEq82wqDlTmOhUHKvOKrACVeUIVZypzkYoDlXk5VoDKPK2KA5W5TsWNyrwWK0BlnlnFgcpcp+JAZV6FFaAyT67iQGWuU3GgMi/BClCZ51dxpjIXqThQmednBajMq6g4UJmLVByozJOzAlTmhVQcqMxFKg5U5plZASrzWirOVOYKFQcq87SsAJV5RRUHKnORihuVeU5WgMq8qIoDlblIxYHKPBsrQGVeV8WBylyk4kBlnooVoDIvreJMZa5QcaAyz8MKUJk3UHGgMleoOFCZJ2EFqMx7qDhQmStUHKjMM7ACVOZtVByozBUqDlTm4VkBKvNOKs5U5goVNyrz2KwAlXk/FQcqc4WKA5V5VFaAyryligOVuULFgco8JCtAZd5VxZnKfFnFgco8HitAZd5bxYHKfFnFgco8GCtAZd5exYHKfFnFgco8EitAZQYqDlTmChU3KvMwrACVmf9UnKnMl1UcqMwDsAJUZg4qDlTmyyoOVOanWQEqM2cVByrzZRUHKvOjrACVmV9UHKjMl1UcqMzPsQJUZj5ScaAyX1ZxoDI/xApQmfmNigOV+bKKA5X5CVaAyszvVRyozBUqDlTme1kBKjP/V8WBylyh4kBlvpEVoDLzJxUHKnOFigOV+S5WgMrM51TcqMwVKg5U5ltYASozn1ZxozJXqDhQmfuzAlRm/kbFjcpcoeJAZe7MClCZ+UsVNypzkYoDlbkbK0Bl5u9V3KjMRSoOVOY+rACVmX9ScaMyF6k4UJk7sAJUZv5VxY3KXKTiQGWuZgWozHxBxY3KXKTiQGUuZQWozHxNxY3KXKTiQGWuYwWozHxZxY3KXKfiQGWuYAWozFyh4kZlrlNxoDJfZgWozFyk4kZlrlNxoDJfYwWozFyn4kBlLlJxoDJfYAWozFyq4kBlLlJxoDL/ygpQmblaxYHKXKTiQGX+iRWgMnMHFQcqc52KG5X5e1aAysx9VByozHUqDlTmb1gBKjN3U3GgMtepOFCZT7MCVGbuqeJAZa5TcaAyn2MFqMzcWcWBylyn4kBlPsEKUJm5v4oDlblOxYHK/IkVoDLzLSoOVOZSFTcq839ZASoz36XiQGUuVXGgMr9hBajMfKOKG5W5WsWBynzEClCZ+V4VNypztYoDlfmFFaAy8+0qblTmahUHKnNmBajM/ISKG5W5WsWByhxYASozP6TiRmWuVnGgMjdWgMrMz6m4UZmrVRyozH+sAJWZH1VxozJXqzhQGbACVGZ+WsWNylyt4kDl7VkBKjMPoOJGZa5WcaDy3qwAlZnHUHGjMlerOFB5Y1aAyszDqLhRmatVHKi8KytAZeaRVNyozNUqDlTekhWgMvNgKm5U5moVByrvxwpQmXk8FTcqc7WKA5U3YwWozDykihuVuVrFgco7sQJUZh5VxY3KXK3iQOVtWAEqM4+q4kBlrlZxoPIerACVmQdWcaAyV6s4UHkDVoDKzGOrOFCZq1UcqLw6K0Bl5uFVHKjM1SoOVF6aFaAy8wwqDlTmahUHKq/LClCZeRIVBypztYoDlRdlBajMPI+KA5W5WsWByiuyAlRmnkrFgcpcreJA5eVYASozz6biQGWuVnGg8lqsAJWZJ1RxoDJXqzhQeSFWgMrMc6q4UZk7qDhQeRVWgMrM06q4UZk7qDhQeQlWgMrMM6u4UZk7qDhQeX5WgMrMk6u4UZk7qDhQeXJWgMrM86u4UZk7qDhQeWZWgMrMS6i4UZk7qDhQeVpWgMrMq6i4UZk7qDhQeU5WgMrMC6m4UZk7qDhQeUJWgMrMa6m4UZk7qDhQeTZWgMrMy6m4UZk7qDhQeSpWgMrMK6q4UZk7qDhQeR5WgMrMi6q4UZk7qDhQeRJWgMrM66q4UZk7qDhQeQZWgMrMS6u4UZk7qDhQeXhWgMrMq6u4UZk7qDhQeWxWgMrMG6i4UZk7qDhQeWBWgMrMG6g4UJk7qDhQeVRWgMrMe6g4UJk7qDhQeUhWgMrM26g4UJk7qDhQeTxWzMx8C5UHY8XMzLdQeTD/A5cQ00sqVfgQAAAAAElFTkSuQmCC;rounded=1;" parent="6" vertex="1">
                    <mxGeometry y="50" width="200" height="112.15" as="geometry"/>
                </mxCell>
                <mxCell id="2_muqPNzbiKzWvyuhUvV-10" value="" style="shape=image;verticalLabelPosition=bottom;labelBackgroundColor=default;verticalAlign=top;aspect=fixed;imageAspect=0;image=data:image/png,iVBORw0KGgoAAAANSUhEUgAAAawAAADwCAIAAADTkcfDAAANG0lEQVR4Ae3BC4ocWQIEQff7H9oXHiR0M6NZSf2rqgwzmZmvVzEPSWbmK1XMA5OZ+TIV76m8iopD5QlVgMzMF6h4T+W1VBwqT6gCZGY+W8V7Kq+l4lB5ThUgM/N5Kt5TeUUVh8pzqgCZmU9S8Z7KK6o4VJ5WBcjMfFjFeyqvq+JQeVoVIDPzMRXvqbyuiovK06oAmZm/VfGeyqurOFSeWQXIzPyVivdUbqDiUHlmFSAz84cq3lO5h4pD5clVgMzMn6h4T+U2Kg6VJ1cBMjO/reINlTupOFSeXwXIzPyGivdUbqbiUHl+FSAz8/9UvKFySxWHyvOrAJmZX6t4T+WWKg6Vl1ABMjO/UPGeyl1VHCovoQJkZv6h4j2VG6s4VF5FBcjMvFfxnsq9VRwqr6ICZGYuFe+p3F7FofJCKkBm5qh4T2Wg4lB5IRUgM7dX8Z7KXCoOlRdSATJzbxXvqcyl4lB5LRUgM3dV8Z7KvFdxqLyWCpCZW6p4T2XeqzhUXk4FyMzNVLynMv+m4lB5ORUgM3dS8Z7K/JuKQ+UVVYDM3EbFGyrzaxWHyiuqAJm5h4o3VOY/VRwqr6gCZOYGKt5Qmf9Ucai8qAqQmVdX8YbK/D8Vh8qLqgCZeWkVb6jM/1NxqLyuCpCZl1ZxUZnfUHGovK4KkJnXVXFRmd9Qcai8tAqQmRdVcVGZ31NxqLy0CpCZV1RxUZnfVnGovLQKkJmXU3FRmd9Wcai8ugqQmddScVGZP1FxqLy6CpCZF1JxUZk/UXGo3EAFyMyrqLiozB+qOFRuoAJk5iVUXFTmD1UcKvdQATLz/CouKvPnKg6Ve6gAmXlyFReV+SsVh8o9VIDMPLOKi8r8lYpD5TYqQGaeVsVFZf5WxaFyGxUgM8+p4qIyf6viULmTCpCZJ1RxUZkPqDhU7qQCZObZVLyhMn+r4lC5mQqQmadS8YbKfEDFoXIzFSAzz6PiDZX5mIpD5WYqQGaeRMUbKvMxFYfK/VSAzDyDijdU5sMqDpX7qQCZeXgVb6jMh1UcKrdUATLz2CreUJnPUHGo3FIFyMwDq3hDZT5DxaFyVxUgMw+s4qIyn6TiULmrCpCZR1VxUZnPU3Go3FUFyMxDqriozOepOFRurAJk5vFUXFTmU1UcKjdWATLzYCouKvOpKg6Ve6sAmXkkFReV+WwVh8q9VYDMPIyKi8p8topD5fYqQGYeQ8VFZb5AxaFyexUgMw+g4qIyX6PiULm9CpCZn1ZxUZmvUXGoDFSAzPyoiovKfJmKQ2WgAmTm51RcVObLVBwqc1SAzPyQiovKfKWKQ2WOCpCZn1BxUZmvVHGozKUCZObbVVxU5otVHCpzqQCZ+V4Vb6jMF6s4VOZSATLzjSreUJkvVnGozBsVIDPfpeINlfl6FYfKvFEBMvMtKt5Qma9XcajMexUgM1+v4g2V+RYVh8q8VwEy88Uq3lCZ71IBKvMPFSAzX6niDZX5LhWHyvxDBcjMl6l4Q2W+UcWhMv9QATLzZSouKvONKg6V+TcVIDNfo+KiMt+r4lCZf1MBMvMFKi4q870qDpX5hQqQmc9WcVGZb1dxqMwvVIDMfKqKi8r8hApQmV+rAJn5PBUXlfkJFYfK/FoFyMwnqbiozA+pAJX5TxUgM5+h4qIyP6TiUJn/VAEy82EVF5X5ORWHyvynCpCZj6m4qMzPqThU5v+pAJn5gIqLyvyoikNl/p8KkJm/VXFRmR9VcajMb6gAmfkrFReV+WkVh8r8hgqQmT9XcVGZB1ABKvN7KkBm/lDFRWUeQMWhMr+nAmTmT1S8oTIPoOJQmd9TATLz2yreUJkHUHGozG+rAJn5PRVvqMxjqDhU5rdVgMz8hoo3VOYxVBwq8ycqQGb+n4o3VOZhVBwq8ycqQGb+U8UbKvMwKg6V+UMVIDO/VvGGyjySikNl/lAFyMwvVLyhMg+mAlTmz1WAzPxCxUVlHkzFoTJ/rgJk5t9UXFTm8VQcKvPnKkBm/qHiojKPp+JQmb9SATLzXsVFZR5SxaEyf6UCZOaNiovKPKSKQ2X+VgXIzKXiojKPquJQmb9VATJzVFxU5oFVgMp8QAXIDFRcVOaBVRwq8wEVIHN7FReVeWwVoDIfUwEy91ZxUZnHVnGozMdUgMyNVVxU5uFVHCrzMRUgc1cVF5V5eBWHynxYBcjcUsVFZZ5BxaEyH1YBMvdTcVGZZ1BxqMxnqACZm6m4qMyTqDhU5jNUgMydVLyhMk+iAlTmk1SAzG1UvKEyT6LiUJlPUgEy91Dxhso8jwpQmc9TATI3UPGGyjyPikNlPk8FyLy6ijdU5qlUHCrzeSpA5qVVvKEyT6XiUJlPVQEyr6viDZV5NhWHynyqCpB5URVvqMyzqThU5rNVgMyLqriozBOqOFTms1WAzCuquKjMc6oAlfkCFSDzciouKvOcKg6V+QIVIPNaKi4q87QqQGW+RgXIvJCKi8o8rYpDZb5GBci8ioqLyjyzikNlvkYFyLyEiovKPLOKQ2W+TAXIPL+Ki8o8uYpDZb5MBcg8uYqLyjy5ikNlvlIFyDyziovKPL+KQ2W+UgXIPK2Ki8q8hApQmS9WATLPqeKiMi+h4lCZL1YBMk+o4qIyr6LiUJkvVgEyz6biojKvouJQma9XATJPpeKiMi+k4lCZr1cBMs+j4g2VeRUVh8p8iwqQeRIVb6jMC6k4VOZbVIDMM6h4Q2VeSMWhMt+lAmQeXsUbKvNaKg6V+S4VIPPwKi4q83IqQGW+UQXIPLaKi8q8nIpDZb5RBcg8sIqLyryiikNlvlEFyDywiovKvJyKQ2W+VwXIPKqKi8q8oopDZb5XBcg8pIqLyryiikNlvl0FyDykiovKvKKKQ2W+XQXIPJ6Ki8q8qApQmZ9QATIPpuKiMi+q4lCZn1ABMg+m4qIyL6oCVOaHVIDMI6m4qMyLqjhU5odUgMzDqLiozOuqOFTmh1SAzMOouKjMi6o4VObnVIDMY6i4qMzrqjhU5udUgMwDqLiozOuqOFTmR1WAzAOouKjM66o4VOZHVYDMT6u4qMxLqwCV+WkVIPOjKi4q89IqDpX5aRUg86MqLirz0ioOlflpFSDzcyouKvPSKg6VeQAVIPNDKi4q8+oqDpV5ABUg80MqLirz0ioOlXkMFSDzEyouKvPqKg6VeQwVIPPtKi4qcwMVoDIPowJkvl3FRWVeXcWhMg+jAmS+V8VFZW6g4lCZh1EBMt+r4qIyr67iUJlHUgEy36jiojI3UHGozCOpAJnvUnFRmXuoAJV5MBUg810qLipzAxWHyjyYCpD5FhUXlbmHikNlHkwFyHy9iovK3EPFoTKPpwJkvl7FRWXuoeJQmcdTATJfrOKiMrdRASrzkCpA5itVXFTmNioOlXlIFSDzlSouKnMbFYfKPKQKkPkyFReVuY2KQ2UeVQXIfI2Ki8rcScWhMo+qAmS+RsVFZW6j4lCZB1YBMl+g4qIyd1JxqMwDqwCZz1ZxUZmbqQCVeWwVIPPZKi4qcycVh8o8tgqQ+VQVF5W5mYpDZR5bBch8noqLytxMxaEyD68CZD5PxUVlbqbiUJmHVwEyn6TiojL3UwEq8wwqQOYzVFxU5n4qDpV5BhUg8xkqLipzPxWHyjyDCpD5sIqLytxPxaEyT6ICZD6s4qIy91NxqMyTqACZj6m4qMwtVYDKPI8KkPmAiovK3FLFoTLPowJkPqDiojK3VHGozPOoAJm/VXFRmVuqOFTmqVSAzF+puKjMXVUcKvNUKkDmr1RcVOaWKg6VeTYVIPPnKi4qc1cVh8o8mwqQ+UMVF5W5sYpDZZ5NBcj8oYqLytxVxaEyT6gCZP5ExUVlbqziUJknVAEyv63iojI3VnGozHOqAJnfVnFRmRurOFTmOVWAzO+puKjMvVWAyjytCpD5DRUXlbm3ikNlnlYFyPyGiovK3FvFoTJPqwJk/p+Ki8rcW8WhMs+sAmT+U8VFZW6v4lCZZ1YBMv+p4qIyt1cBKvPkKkDm1youKnN7FYfKPLkKkPmFiovKDFQcKvPkKkDmFyouKnN7FYfKPL8KkPk3FReVGag4VOb5VYDMv6m4qMxABajMS6gAmX+ouKjMQMWhMi+hAmTeq7iozBwVh8q8hAqQea/iojIDFYfKvIoKkHmj4qIyc1QcKvMqKkDmUnFRmTkqDpV5IRUgc6m4qMwcFYfKvJAKkDkqLiozlwpQmddSATJQcVGZuVQcKvNaKkAGKi4qM5eKQ2VeSwXI7VVcVGYuFYfKvJwKkHuruKjMvFFxqMzLqQC5t4qLyswbFaAyr6gC5MYqLiozb1QcKvOKKkDuquKiMvNexaEyr6gC5K4qLiozb1QcKvOiKkBuqeKiMvNexaEyL6oC5H4qLioz/1ABKvO6KkDup+KiMvNexaEyr6sC5GYqLioz/1BxqMzrqgC5k4qLysw/VBwq89IqQO6k4qIy8w8Vh8q8tAqQ26iYmXlPbqNiZua9/wGVWVaZexL5fgAAAABJRU5ErkJggg==;rounded=1;" parent="6" vertex="1">
                    <mxGeometry x="40" width="200" height="112.15" as="geometry"/>
                </mxCell>
                <mxCell id="7" value="" style="group;rounded=1;" parent="1" vertex="1" connectable="0">
                    <mxGeometry x="720" y="80" width="240" height="162.15" as="geometry"/>
                </mxCell>
                <mxCell id="4" value="" style="shape=image;verticalLabelPosition=bottom;labelBackgroundColor=default;verticalAlign=top;aspect=fixed;imageAspect=0;image=data:image/jpeg,/9j/4AAQSkZJRgABAQAAAQABAAD/2wBDAAIBAQEBAQIBAQECAgICAgQDAgICAgUEBAMEBgUGBgYFBgYGBwkIBgcJBwYGCAsICQoKCgoKBggLDAsKDAkKCgr/2wBDAQICAgICAgUDAwUKBwYHCgoKCgoKCgoKCgoKCgoKCgoKCgoKCgoKCgoKCgoKCgoKCgoKCgoKCgoKCgoKCgoKCgr/wAARCADwAawDASIAAhEBAxEB/8QAHwAAAQUBAQEBAQEAAAAAAAAAAAECAwQFBgcICQoL/8QAtRAAAgEDAwIEAwUFBAQAAAF9AQIDAAQRBRIhMUEGE1FhByJxFDKBkaEII0KxwRVS0fAkM2JyggkKFhcYGRolJicoKSo0NTY3ODk6Q0RFRkdISUpTVFVWV1hZWmNkZWZnaGlqc3R1dnd4eXqDhIWGh4iJipKTlJWWl5iZmqKjpKWmp6ipqrKztLW2t7i5usLDxMXGx8jJytLT1NXW19jZ2uHi4+Tl5ufo6erx8vP09fb3+Pn6/8QAHwEAAwEBAQEBAQEBAQAAAAAAAAECAwQFBgcICQoL/8QAtREAAgECBAQDBAcFBAQAAQJ3AAECAxEEBSExBhJBUQdhcRMiMoEIFEKRobHBCSMzUvAVYnLRChYkNOEl8RcYGRomJygpKjU2Nzg5OkNERUZHSElKU1RVVldYWVpjZGVmZ2hpanN0dXZ3eHl6goOEhYaHiImKkpOUlZaXmJmaoqOkpaanqKmqsrO0tba3uLm6wsPExcbHyMnK0tPU1dbX2Nna4uPk5ebn6Onq8vP09fb3+Pn6/9oADAMBAAIRAxEAPwDldf1ifTLy5Om25nV5gDGh6cfSo/DHiDWFs3j1WwcQMSASS2M/ypLrXbDTtUuP7O2yv548yHcM9B6kU3RNYjnSVpAoVpACiHIH1Febl+FhUo3krnfWjZHXWV5bvCkW5gMAoXb096sw3Est8lzlsoSQoPXiqlrFE0UJCKEIOCDmtuxsLf5SYRnHAzxXTVw1GKUeU42LDfakbgzpGQWXDKDThPLGryYb52y3zcD8KlRkS4IZ1Vs/dpYVja2mZIlY4OSx6VyuNOL2LV31IJZZjCtosp2E53Z9as3V5epbR28SkbAMMW64pIkjeIBE+XjcRnipLtfJjXG1VHQ1Fot3SKW+49dY1Iyo07kMORhuaX+2tRQmUTnONpAY5qsjRSXMXmEMdoxg8UMFFy5ZFzv4UVcWktgba6k9vq+pKsmxi285PPApq6lqiwGEyNtyT1JHNCrDbws8acn72T0qtJexG2ZVYEd8Vd2lsQpS7k1xqt+UWBpmAAG0lzzio/7W1Ca7Sd5mDIcgbutQXE8axQkwrt9c+1RhzPMC0eP7oJ4NVbmVrFpt9S62uawl35kUpBIwQGOcUL4j1NVcrcNyfmAfgVRkuFS5IcqrZ4GabbGF45njjVmwcljyKlr3tilzdy4/iLUhB5IuWKkk5DHHNOl1nV3tkiDNgAYYv1rNEkbRhUTcONxUGpLm8jtoYxkBM8EGoabd0h6vqXpNc1aSVHmlfcpyPmwT+NRf2/qJmaUTtuAKkbjmqcl7DNcQggMO3zcGmNeRrdyqsK7yflUH2ojqtg17mhZatqEaSSxysxfqC3T8KS313Woo2jaYmPcT9445qlZuyxvIsfzYO4McEUwXkL27qZAemQOtTKNlew7Puaja7ftGsTXLBduFLOajfXtRmu0lMrko2QN3X8aqSGAWsDqiBM8nOT0pyeSZlMkW0Y+QnoaiSvpYTT7liXWdae788BlbaQRmq8mp3AMkzu+5sbsNjFRnVYVv/KYBSegP+NMhmt5DcP5KsQp+8cetTaPNZonll1ZBezyPb+RC5KOxJbOcVa+2XNtpEdlAu7CDEhfvWe83nWyrBb5QffK54pbqdbK2j2EBT0bk1m6MHLRByNvc04te1NlQXuVIYFCGxn8aedZvEbz/ALQ29VIxvOTmslby3lngWR1YnpzxU1w228dPLTdgbVU9eK0hCCjsVytdS7aazqKtJNCWcsBkbulCatqyxPG27YWJ4OQM1TtZVhheXysOAdwJ5FRQarDNbSEOGx1AzmhKK1sLlk+peOqTiBLYzOARhWLmnjUby5uo2kmb5GBUZ6/jVKW4gSygk8lNhbO7dmneczzrui2qfuHnBqmotWsPlb6mhPrOsi+Wa3BVgCCN3JzUn9uXzb3aQiQgBwGx0rMlvgt7smdUIxhT0P41LYy2080+xUZwpzub61hLlUthuErbli41SdIjEkuVdiTg5xTZ7++fTEsooC67cby3eqqFXtldLfeo/wBYVzxT7/UrSxtozEAIz/FySPrXHUnDmtYylCV9GNuprq+RbfUYCACNrD298VmvpMUkrzBGMqZwpbrWpJd2twbYnDhyOhOOtSSeWmpSRxWy7yg2KpJzxWX7tq9jPkl3K/gTRk0i5uNSlhM0kgwIWPC++DW1Ya1f6dfvt0iNrUsTIMAhR+VVbJTHG8ht9s6j51Ymkt9Qj2Ss90vA+ZOefaudx10HGlN9S5eCx1FV8pR5DoQMv0Oe1Y9wkU1+gaPCQuNozy2O2a0t1qdMhkgSPYzcnJyPwqKGzh+2g31mVjb/AFbEkAmpqNRhsTKnNrcZq1/qJlW6svDwDoAFOByKzteisdetWmk0wwXiIBKi4UNz6Y+tbkWtWEWpDT7phH2Tg4/OlgOj3GpXizwqzxx8MxIB5ryq9RrYwnTqpbnn+ueF9OitIYrG2ZBc/wCtYjIAr1j4YeCfB58IJYnw/BfYTLynDHdz3PSuTudEn1Oyt5tH0oyJG3+k7WOAtdV4Ij0zwpqMFxBM0dnc4Eq7icH8v6V5GKxdWC0M6UavtNzvfh5ovw71DT5tH8eeA7O3gkfZZXD26ZzyOpHriuc8Tfs3/D+2kvZpPCVu8qMWgmWNNuwk4z8tei+FrzwFp8tjpuuXkdxZ3s2Yt3RG3evJ6mux8R+GNL1XTdY8PeDbSO+uHtR5LrJ9w84r5bF5niEd0KLqaNng/wAMP2c/hiiXeonSNLvNRktx/ozwp8p3dht+tdZZ/s9eDrDUre5j+G1gln54N1m3Q/LjnA2V1vwa+C/2D4c3M3ihhaeI7eJdxIJJwR0x261674S0bRbzRNPn1TMc0soVw3WQc9q8mOaY6Umr9P1NaOClb3meD67+yj4Lv/C914g8CaDbTRGB8CONPlf6beOleHeO/Cer+Ede/sSbTREyW8bFOB1Uegr7S/aK1nxD8L/BotfhP4e+2PeQPmOJSGB6ZI7D3r5L+PTeKz47WXxBbRwXcml2rzRE/dJiB/vV9ZluZ1YuS6rcKtP2Fmv6/A83tPCOjandm+8P4N0JgZo+QDx9eazrXwdqMOsyTzxps3comQfyr0fw/a6VY6jA+nxGC6kmHnCa3JH4ALwPqRW/eeGBrd+8el2crYTLTJZksWx0yAf8+tftuX14fVkos9atgk6d+bscJp0MVtGkTwjavK4Fa8WzAchQcfKMcVav/D+vANZTaDPC8f8Aq3SAjf65HX/Pas2Sz1xY/KfTpRIpwWEZ2gep9K3k7pNnmSwVe94q/wB3+ZaZzLIu4LuzUiTWsMTeVAu7GH+lZ1vczCRFuGCsDguwIT8Cak/tKNXaOORVJ6huCfpXNNQuZOjVi7SRbM0bptjjAjz81PaaYQ7FCGPHy1Sg1SIkopBHdcjNSPfSBf3agp6IORWbgkxWZLb28MbKbhFLY+TJp7TB3bEA83d6VH9qUNHKzL04JFRm8lN2wB+Zm4IHFOMVYhp2JQFRG2bC38QPWq5+zvuaSNdg6gU+Q7lZ4yu7HzA1Ero0Db147gjFPRIVmLLcWiqiiBdn8JHrUUh3urMqqf4MjinTybYomBUpnoq0huASonCgn7jGtNGUhjpJM+yRE3bvWkjjt7dH8uJS2DvyeaRrlkuipwDnqBwaYlzxKsRQHByDyTxQl7w7sWaVJItsUQCADeainmjSBVVUKdiKa08ksAUKNoHzZ4qKVPLjV1IZSeNo5FUoxGmx8UlrEytcxKSR8vpUgvYPNfbbDzM8DNQymNXiZtuezFahubqSK5dYwNx6ELxRGCa2LWq1LVvK+WMAXcfvK1MeA3UnnuF2KBkA1Ut71pI38pFDqDuHrRa3krwuJM/7rDpUzpWiDvY1EmtoxHG0QMW7KkHvUjtFJcI10iouf3eRxVFrtjawH5Soboq8jipZFku9ouHVQfuHPSs5Quyb6i6pMZWEESRhiw5BNRLd2kaMiW6mQD5+e3ekWIpdeWx/EDg02KSJJZwoQNtPBHXihU1zjTvuOkvIGtRHa23y/wAZHUU0SzxwjyljZCOPUfhVMajJBGHVAUH3gwxRfXczW6z2qfIx/hXkVaop9CtOhLY6cYJPNvCpLHK/NWhBLGJHBgBmAworNgu3PlGRhkdWI6H8qsPdT/bWCYLEDDAcdKXslYVy1bPBGZDtQS/xK9U5MTXJm2J5aj5lHFCRSSFpGK+YAcr6021BeBzICQB90jFS6SURIsi6sSqBbZfLLcEE9afO6zSKWhVVH+rOOKhdlWxjKbSN3KqnIqSK5fKx3Krhh8hPalKmrF3iLdx3dyht5PLBbGGU0ttBFaRkRoplUfNlu1Q3ElzHfCN8gcYKjiprV3+0ShdoYp3XOetc0qK5h3ZbNxC+nJHZwDbj98fanvNaW+nqbNYWTZyD1B+lZtoL2S2CwYCj74Ixmi4spo4RJESyueijkGuSphle9iGrsbpcv2DedUVGWV/3eG6Vpade26TOXtk83H7sZzx2qjcQR2625mG4Fhlin3ee9T3pke+22bAvtXawTjpXP7NRQlyrctQvdmZnh2JP1Ik4FR3tleXt2t3MUVYx86q2Kt21xJqFu1pHAPtcK/MyoDurOsrudWmiu45RIR8qsmM/SsFGLeonKMTQtpLOCeIvGPs7MN3POav38lvNdRyXUKpb5/dYHH41jm6b+yI9o4EnKCP5h1q/Ebye3WO8jHlSDEeAMiqnR5o2QnJSE8QtLc2P2W2jgLs48uRD2BquZrWWxGnzxKb2JBuYnINWrfSriO7S2vIpRGp++kRxg+tQxajolr4qubJ8oVj+WSSPh+vA4rya1KMXZmc2orU2bG9UeG47PQbUBiP9JZRnI/Gp9Bn1WG9i1HSYreWCP/XW8pwxOeuKyvC51iKf+0bN1FvC26cSLtDLW74j8h9NXxToFpONzBZI4YCT+X4V4+PpxcLo5203eJd+HMdxpXiObVfGlrusb92W2iRyRExOM/ma90/Zw0+z8GX+sWOt2wm+1/PaT787VYkgfgK+dE+I/h3S7bTZpJZJh9pAuQIyfLO4dQBx+Neq+CPiza+OPFE/h3wXfwbWtkH2iReFbB6HHFfGYqm/aXS/qx1YOXNN6nu02kaK+nXemQyn+0GQNHNOAAfmHfGKyfF+orcapoV7JYJavo9wsk6wyjMyjPHT3q1YWar8Pn0XxXdM+o2tupW9iOQ5yB96sjW5/DM1npM/iBTBcNMPLG8q0nXjrk14mIw1SDfK9Lfr+Z6cYOL3PRdOSx+J3hubxX4d0/Kx2kkflz/Kyt+I9q+LP2sbLWB8Y7lZ7rYy2NuNqscDCD0NfQPxQ+IfjbSvCq6D8EhH5k8DiaOR8MnYnr05r5s/aG07xTJ8QhJ4juFe9bS7UztGuRu8oZ/hNfTYCUJQdl73V9DmxafIrHfWngTwR4ZeLXW0+dLtrgM0syK6Px2BHA46V1/h/wCH+p6pp819p9lcXCRQP5dtbIse/dzg5FO1S90vQtPtvPuJraYXastwUEqtweShZSPpg16b4E8W+IG1zz7aa3vIRb8q1v5J6DsQM/XnFf0VGlCGHgo6OyPoMbTurry/T1/P5LY8o1zwol5bZk8KXcV+nkgRTFcADGc8c4Fcf4xtLaxv44Rp7K7yv57GBSFGOg4r2z4sePLZPFPnae8KSvGqzwPwV47HB968c+Jmrw3CRvYQiV3uJN0qSHMZx3GDn9K5a1OcKWsvz/zPGqe1pxWpxlxoXhnVIzDeROD5W5N0aKQc9OB0rGPgjQ79pADtkjcBWD8kY68cVl63LeiYxSyHeq43hzjGfT/69Zsep3UN158ZdCrAsRK2H9/asY87W1/nY5vrEk/iZsX3gmyhAFndSkE8sEyQfc4qjfeGvEFtD5aABP4DjGfrUcvijV0mH2UTbdp/dGfr9KfH4q8R37Y/styyBdoafJGPb/61OUkneUDVVud+9axSjg1i3xb3MBypwJMcVI1/sZUeUBz/ABn7pHqK6Cw8TR3EqyajBOWPEq7gcfrVu3sPCevRtFcWjRs67k/ebj/6EMD9aKbjLb+vx/ryE1h5vaxykt6yP5UVwFLHkHvVm1kQqRKy8YyprUvPAVg1s/8AZMkxl3AFUUNle+CXrLn8IeJdPjJW3EkBH/PVc5/76P8An0rV03sTLDxa9yQ+acYGCCo6ADpVebaWEsjgE/dIHSqc+n63p7g3cbuoGcAD5fxzg1FPqflRDdMXOcFgvKn0x3oSjczeHqxHzNP5xUSZJPUDg0LfEI6xxjco+b5eDUEV84YHzNwY8OF/pT3ugUdVlIJ9BkGmuXmJ5Wt0Na9lmiBKYUdQRinMsuxZFmyv8I28imCaUw7ucL/Ce9R3c92sSNCjEE/dxgiiyb2BLsW96wlRMyszfdOOarXMztM8SKob1C8VXnur1pY8q4PsORUfnXjXLoCT/t4rSEbILWFSSNEeNJlV/wCLjg1FBLKhM8j5UfwkUsK7w5JwwByQODVZ7qWCIq8ZXPTJ4NU4q2xVmaTa1tVGSMFS3A2806TUJJZB5ku0typHUVnNNIbeJl3Md33SMGmz3F1BOFdSS3TjkU/ZpvYXKmzViNz55T7SDk8sBTjcoqPHGE3KMk44NYR1XVorw5iOwfxg/wA6bFqV8xlYsVyp7ZB/WmqPvAoO5oX94k9ush2rGp5BAH5UyfUY3tF+yXAxjAXHIrHlkv5rPe5KqD0bo30oaO5FqptYywY5Kngj9a09muxoo3NKwuGsSBPKJC5445FaC60/mNCsY3ED5gtc9FqDtPHD83y/exyR+tXi873TCIsflHzgYxx3qeRJbCcUlqasE7XIcR3ARsfNxwans0cKZJp1KgcqRWBHqOoqHjgiyyg/MBwajtNY1oQvFdwFC33QzcH6Vm6asQ4nVveIFSVUQoTwNtKZoo5lmu2X5j8pA6Vz6Xl/9mhw7E7/ALhHNaAWZmQ3jEhhwCOVrOUELl1J9RaW5k8uG56kHcoqe0vjGhgQKZEHLbc5qlOJ7ebeYyyL/Gpp+lXZnllyWUEHBUZBrnlFc+xaVty7HqbSxL5ahVA+YYxmiaG7nVLi3vAqg/6sr0qqEuhaieJSFQchud1VtS1XXzaq+nWLMGPKE4/Kuadr6oVr7G5ZQtY7WvpFl8z7u5eRU1rdSRTTWhVRIw+V9vQGsCPUNVvIreZ1K7G/eANkqc1bW41G51N44ZG+ZBh+mOPSuNxjJPQnlsa2i6taaa0+nyXHl3DD/W4yG5rLvbe+k1waq18GER5Ur97/ADmpIrRwWikIMyDIkA61CLua0Ei3MBWRx8oLAg1iqEEr2J9lzGqurqUS5NuNhblAnepG1e4M6yS5CMRsC/w/hWfBdySWEQCvuDjMfb86W7k1PTXE0ieYJeFj28rWtRJR2E4xRoXZ8SXatp9tqwaOYghigyKsW1nDNYy6NcRIbu3QEXITk1yn9u+LdO1hZrnTm+yBh+88wDbWqniC/s9RubyXKpNHmF1Oc9a8itTpuWxlOKtqa2pa8bvw3FZWuI/JGZNo2mQf1q5B8UrTUPCnk+HNREF3aJhrWeLOf8a5PTdI8QazYJqg1IRJA24rIOH9qlh07V5b9LzQdAjmkk+WeAMq7h68/wCFeHjafPHRHLyOctDmvhbqXijwh48m8ReKbCPUrHVZyjQrDkRknGQO3WvdfCNxL8JptU1uxsYVs7yMSCeSM5j3EnAPbGa5O61qPQ5tNv8ATvDySCCYHUbcFWaMBhk859D0r0i713Sv2gfBWreF/A0htUNtslmEAO1uQffr6V8njIJ3cjpw/wC5k0dt8O/jloviDwTN4YutXW3M9sph1GSQsGOR3z7VL4h1q/8AFCaUNXu7af8AsecSW/lZHnYzx156183+DvDGt/DLwDdfDTVGbUZbZAsGoJHjnIAzxnt616r8HdZ8UR2Gi+GvGenxxT3E6/ZmkThxyOuP614kqPPdc11sd2GxMaj1Z7z4BW18XaDdeJoLaLTpIrWSN4LjjP8AtDn2r5e/aXWO4+Ktw9zqKuws4BuUAjAT6V7b+0N4U8ca74ag0P4d6yNLlMB+1Ko+Xb3Oce9fPnxd8LXWi+LE07V9c+0XEenWwklMnU+WPcV9HgYRUXFLVF4l3SS/r8T6F8QTQL4Zi8l5op4LgMk9t8zE4PVemfanDxN4tuNWFzpWrsLlLfHlXcWwsMCqHi6V18PRW0WnSuVuQYrizc+aOD1+VgT+IqS10jxZeeJI9S0qabzobX5o7scngegNfvc+eNKHL2W3oe5mM3FfJfp5GT8QL241LVo7y4vEhvvKUTwlc5wOorz6+1Nra5eGIxsrTOWDLgqTXQ/Es+JZvGcd8sTRTLGBPHu3IeOuOMd65jV4Lv7QZsIyPIxceh9q86tVk0k+x8zXxEm7HK6ysU12RxuHVhWS9vJh9seQD1A4NdDfWDRzn5Bz/HkE1QFpdvv2xcY4PHP4VrRkrXODmMCdbhULCIqOu3HWi3uJFwZd/PAQnGK2J9Mvdhkwqn+4F4NU5tGvSysyjnqp6V2KUJRNVURBJbIyBGDsT0IJyKGjtkh2LCwkTo6uRj8Kt/2ddsUVVyoHTuPxqK40ydpmKkDnl+4rD2VKb1RcarWwh1zUklRrVJBgjJ81sN9a0bfxbq7H7LNaDA+ZcTHGetYvk3MW4k/d/i9fqKckcpTf5Y5HIHINL6u4awlY0jXcTpo/F32sgarE5dABzOcEfnVaeLwpe6jumiWON2x8r5P88VgNbFF3yWqsCPuOePz61TZCkRgg0+LJPG/t9OKOWrGFtzqo4j3rnQ3vw/E26fR5n3bS6ktkn34rHuPDGp2+Z7lZEAOMopKsada6n4hs4kGLcqnB+chiPpitlPFUUdsLWe1tmBYcNJ0/DFZc191ZnR7WE97M5wSjJRVdAvGCvBpyvvG7zH44CkcfhXVtp/hbxHYhYbaNJVJ3AShV+uAvP+c1j6r8P9StpkGmv56SICqE9fcYStPe3QTo038Oj/ryM1pFBXaztu/MVVnS+89ljLHP8XpUt3aXulD7PLaTllO0hhkg+3HSq4a+V9xWTGejcMK1jNJ2ZhKjUh0KzrcrvDb1I6sO9QtDO8RmkLcfiDVyVpbhX3Bsjo3SoYrS7MBBUc915zWt01oZNjfMuIoo5EVvmP3WomllS4UzgtnsOoqSSzuFhjCxsGz0Y8fy4oezKTKJFY56gEcfjVKQXVyCbzp5SgZyB1PcVEsl2A8aow2g4fHWrv2ZhcEIuQO56j9KjEEpMhMTnjhgKtS1HFozJ57x7XcwKjPT1pqTSLACkrpk4Kk8U69tL0W5kMZU542jOfqKrXNndPao6rgn7yseP5VorM1VmixHBHDIu1nYsec9vxq7b3FxFO0AY9PvHgisuKGVnjREJC9QOn4HFWjZ3D3JCq23HJY8j6cVKTsLRI0LPUokDxFmD9nUdaiZZJ3N2S2R0HUGqlrbxoX8x2yudrY/pirViXEDHAyehXnP1qGrIzkiwJr4JHMkbAM2NpHWrUn2pdryhmyOQBytVylz9nQRwvu3fdPINOMl8J1tipO77y46fjWM1caauT+YZD9mkuHKnHU8iprWQgNDBuG0E7sVnXNnPb3PmyOCi/3zyP0qxbJNueVskMvysvFYyh7+gaGnHePcWSszBQg+7/ep0upJJbqYi6N0K54rKtraZrffO5Tb93HeluJo1jRY3Adjyp6GsnTuybot23madxDvfzW5XHSpopL2G6e3O4FgCGPUZqCOaSVI44Yy2PvAf0NWJLS4muSUjbbtGWY8iuf2SsJTVxWt5lfy53cekidTQEjkczvIztGOPep7KG4u0a1JJCcrIRio7a0eGVoJnTzJBxtJ/Ws/ZRsVzKxNDdToYr5Ym27sbSOPrV+S5lNyl1KocN1U/wAIqjLp90tkqLEd4cEqeh/CrVtp724V2cszcPHnpUzprlJlKNiPxBbLqVv9kE8gjkOSC3Iqikd3LA2hpFIyRRgpJt5/zxV+aJbe4MnmoYlwSGY5+nSs/wDtjU01WZ10t5LaRcRyoMYNeTiVFM46k1Et6d/afiHTodMgcxtF0jb+M+lWfDdjc2etedJc3Fnf2yHZGOVbvVDT9Jv9Os4PEN3cPatG26EZ++fTrXr/AIE+Hdx8Qba28QSm1h1B8bBI5G4euOvpXhYiEqukVqOhBVZ9jI8LeCtT8P48VSQG8l1OTy7mKQfwk4z+RruPhf4Ys/g7eapHp1ufs+pDzJkYfcLkkj9a7vwjoUWqwwaJpYs5brT5Qb6BRzgHP8ga0tZ8IeHPG+vXLGIwWcUQS4ELAEEZBzXymZ0qlJXOx0Umefan4Z046fdLqGlIumXcQMV7bYODnNc/qzXtlf6bPLfyO2nOG0x3jG0sM4H6mvcJ/D2kaD8OrjQdN8m80iK0Agmlb5k5GPb0ryHxvrNx4FtdEstX09J5L2YCyeNgwBycDpx09K+NrKUJaPocypKnO92eveBLiXxp8ObjxD44u49Nult2QYYbWXnn9BXzP8fdNsrf4izRpdvKv2SErIpOCNgxXd+M18a/F/RY/DkC3WjiGFmuJISQrqPb6V5x8ZPDenaB4vj0o3rTGLTbYNI/JJ8sf7Jr6zLKrqQem3XudVS8oI9s0zXdP8ReH00q5tYiY5AUlSTa6n2Ock+9akF1qWm+ITDp0ksbvbHbKZN3GB+NY/ws1C/gu7bQtQ017q288LulTywPZCCB+JBrrdfsrG51xtRmnWzmW1cIoG9+MYxkCv6Gw9T6zhoXVtF+XzPpMZGjUvGT6L9DmfEOkXOp3Rur8GO5ZMFwuQwA4yPevOvFVleW+6FlwnmEv+7OM12niPwlrw1V7ka1cPHKsWZI4E4z2Ix788/nWB4j8G+IrcGBr0yW5lcHIX5sDpnbxXnYnB2gpKV9GeDXwClrGS/pHn0hie4EJwQp681XkWT5igGB0qXUtO1TSn+0LZSPDt3skZzt57nHJqgLi4uHlbDFV6kj7vt0rjanR0kjyp4WrT3RZCSPl2YZ44A4qC5iUHeQMknOTSwXYCFjMWYEAcf/AFqdj7Qu8SBWyc5FbKTRg1Zala43ptjtkByuCD6exqo9vdMzoWAG7r3q/J5zOqxnIAG4Hoac1q5dg0gCbui9auM2rAnYw5dNncM02SB0OcUqw7IGZcZx271eu45pQ0bvwBhCTgiqTwXCoVE+4/7BxiupScki7lO7jn8sNkfMORnisyVXSYKF3DPQnj8K2LizuDEpMgVs8nORWZc2ckco2vkE87jx+FdMLPc6KctRpJlk8hlBAPGetSCFHIJtIyUHDEDP41DHDJ5p2vxnoW5/A5pVhustvYY7c81E6MJs0U33Jme+E/mQNbpgY4X+dX9K8QXWmSlr24gfYPlbPFYssVwRuLgkf3Tj86IxcxETbkyeo6j8q55YRRleGjN1WaW51UHi7QL67EmoQ2rIWxmMDP51JceDNL1xTdaPeR4VD8glAyfqe9ctCLp4ikM8MRxwSuQamgv9Q0hRI/iDJAxGoi/TrWd6kXqrnTSrRI9R0q5smdLqEgQkfPG4wPrVAXPzlkYEY4ZWrr9M8caLqVg2kazCspYjZPIp4PsAag1rwVp9xZJe6VfwKxYjazHP5bqOeD+D7v6Rc6dKorrQ5WS7llZSmNx468VKbW5eRQUyG688U+90abRJdtxAokIzvD5DfqajiW6CB+Fz1Gcg/wCFVGt3OWVOSJYtNUzlQePduaDCwMkfTb0O4ZpLeKTzfkfCk8g/409rKQs5kAORwS/P862jO7MkjNuopPK8yQjIPGD/ADqpcgTwKdgU9DzxWpLp8nkZcqSOgDYP41XuLMSW6bSit3IPH866FM1iZ4gEBQQIMnrzxSsbkXLJuG3Hc/yqz9mImUDYwHU7uP51K1gHnJXaq46M2f61SmVsUre0W43LcA8ZwQ2DV2xsoIYDKrfMB2bn8abDYS/OpwFx8uX5/nRBaXCQmMzAnHGDg1EpXRDVy088ixpOjAEnkBsimyajFaTBwNxb7wzxUU1hcCBB8ofdyQ3/ANeormz8mZGDKc/fO7iod2CSuPu5re7m8uTIU87S1LFeyqGgjGFQcfMM1Vu7aRJjcRTKFGPkJzn8c0lgszs5kiGCCFy/P86Le8NJLUsR3tzLDukcbh02n+dTCxtZAtxOpV93OG4qqdJu/sYl8wbj9wKcH8eajl8P67c26P8Ab1jYHJIPb3GamSXUiXKzooBDp6RiA/f4PzjFWo5WWZ4DKNhUE/NzXN2FrqNwUV7kOIuG54P+FbFtpk0t0W3qI9o3Dd1rkloieVI07S+hANtsyn8LdDmmQpbvM11jLoPlw1QwwRRu0LEBB91mbnNCQXUQMaOH3LxgAEVyzkrFKKZfku7vyo7obQ5YAAtUkIuXk45LffXNRRWV21skLKolDjBJ5NSyWF1aSr9mcGQ/6zDcYrCpJtCtEWTw/pk91sUEBwCy+Z3qS3tZ1NxpMKAxRrlSzYxVO7sb+yuhfx6gNgIzGADV4292pkvwQ8c69WOMGvPrRTlsZyoxtcrzwXuqaXBHey7TF/qVDcE11fhL4mXNpYvour25t76Bf9Hnhcrx9K5uDQ4xpazXspDKcw4bHNY+rade6ldRbdQENwDw/BJGfQ15eJw8uS5MYKLPbPhh4+vfCl5Dqnhe8Z9Su59t5HM5IdCcfyNdr411vVtDTUvGFlO9vb+Qr3kQk4zyWr5gt73WLu8tptEuS97pr7pBtGJADkj26V6n8MvGGofHPT9a0zxVpqrb29uI5YhJg8ZBr5DMoVPZtM3U0pHb+F/j3Lq/gV9UurM3nh25tgA8YwyHI7/lUUngiTxRp1nrtqZ54llDaY7sW8tuccfn0rgPDGkT+CvCmo+GPD1q0WgkbFSfJZPmAyCRn0r0/wAFWV78N7bwzoV1qv2u31SdQskbAlCS3XjPb1r4x4ZSbd9CsN7Oo05He+DZNM8M+A7i8+Ld3Hb3YtnWKZflLLz1/Svmj9oPVPDkvxHll06VJIXs4GjfepyCgr6N+O/w1tPixaQaJrQkSC1tWdpYnCs4GDjgdK+bPj5o/h7QPH39kaQrCCDTbZF+fPSMD+8K+jwfNBONtuvX9DTFRioK39fgfRcGv6hb6TaW9vdRiMzhY/PG1AeejAcD8a7nTvDVn4okm0W51WGK4ngwJrSUH+Hr9ea818YtqVt4et7iCWE20lwMC9jDxDg8jKsVH410Hgu6srvxVHFqF3BFJ9nGyWzlKL0Hc9/Sv6E57UIR8l+R7ePsl8l+nmbmteCZNIgk8Nah4kaVI1jbc7qGO3kV5h471i9huoY/tEjRQTOFBUEH5epr0LxtYahq2vm3a4ZhFECs4mKswxxyDz+Vea+MNNuHB2u6COVvMHmnLD1IzzXm4yrCFFK589Xny6I4u88fQ2t2LW6tJZI5Lba7NFxnPtxWXdW3hzV0mJZo3aYMoRec4qxrtmrxCKF2EZGMBzj+dctcaBN5rSjVrgBmzs8w4H09q5IYxtu9mvT/AIJzqunotNya68GtbWS3en3JZ2LYHJbg+gGKynl1PTW8m+sZY2YDDBSQ1aaJe6cjQCa7fK8Lu7n271NJrEVxGs17ayboFVWWSIHgcdMc/wA63VWjOWuj/rzNW6dRa6mS+qRQbEmcKzDoGGDTo71XZlkchA3Qnj+daiaV4T8TXkbws8ZEhJMwwpbHbjJ/nVPWfBWq2LPcWkiy2ypu2KrAA57UlJ3utSHhoT+HT+vUo3bPk+ZIMfw57VEkMjQs6y5YY5HUVlm9naZknVlVTj5wRg+2TViG/JDRxOWPueRXTTqJo55UpRepLNC+0H7R8x6kVRuLccMjDGeSehq258xMNMA4PJUc/jVO4hbh4m4zlmA6/WuuEmxwvciWNFl2p0J6dqjkhdi4aQAdlJ/rTlVFkyGABP3cfL/9anCFTneyYPRT/Q1sm7lJtFZom2Hc2Wxxzik58sHjdnlh/hUz2sewqWDEdM9R9Ki8oEKu4bh1YDkU73LuDQSnYY2VQRyT0NJM8kCtAsq7ScgNzzUjW7ttkWZVA6kD+lQXdqrEnzV2+mOD/hU8qluXGbIWee4kAl1ExqvIVB0P1q7Y6q9pKPLvJ5dnLZiP9KyDbhQyl029VUDj88U6z1Bom2mYkrj73b6GuKvhE9VudCquKsdzYeIbPWygvlCiNRvDwkZ/OifwjpeqXbf2Tdq2W3NGYzt+nSuYt3WdzK2qTK56sn3qt6V4nuNMyYLmaTDffEeWx78Vx3nTVprQ3jUTJ7rRru2xbpp5iAzu3IwXOfUiqk8CxEpPjgcqT/Kut0jxXps9oBqxeQSIQWMI+X2Hy8VNc+F9C1GNr6xUOSUASeEZx6jC8f56VqnFq8GXKEJb6f16nEiBZUKyAA4yoJwahmskdFAK7+5XqK3dX0DUrSRjcQ4XcQqlDu2jpjArM8pMhFQMx+6QPmArT20ouzMp0pQ1Tuii9kiSKyuvP3mxTHtEE7FZFCdxjrWkUjkRWDorD7xK1DJDEZi4kXb3Crwf0rWNW5jdlCMFGeNlXbj5c0kUDsjHcN3UcYxVpGhjd1cJsI4G3IojjjMZXcCccAjpV8zsTzOxQuY5zCjmcb88kdqhnEiyK0coP94nPP4VfuoC8AjaZAw/iAwazp7c/aVeOUcfebHJ/CtVctS1FEtuJ9jgYPYDIqW3iikZ42ZQAPlU5qlLJbpdeYGwOhCrwfrxV/T0T5pN6AMOhWpldSFawqOi2gEkm5x9welO+3zzwCOVAGU43Ac09LSCO3xLIrk/dHpT5GsykcJ4kB5ZVwaxlJktiR2sqhHgKqG+83rVyGNoLox+eAmBu9DUttEt3sMUgG3klh1qeSzSe4M5nUIAAwUYB/DFczbaBTsSxWyKPMZlaJvuhucU+3kjKv5aDKjjjpTbC3CLI0xAhP3VxUMfkxXIto5WbeP4u1c7irEyqGgHJhjn89RLvA4q26gqstvLmQDMhHeqy2O6BbY3C7g3ylRz+dTpGkRVY3yy/fbnms5QSRKkNlWO6nTaqkMRuCjvTxBcNdy20rKkIHCkHinJLZJdi4gkYBcfL0BNSG1nS4l1c3gEcnBRjnH4VyVIu5tdcpVtZ1nhWC4uR6RduaS7tYbdSl6I3dfusetSmztoLYzzsZHYfuuvBqW6FmdKSPUJmR8Z3rnIH15rjrRdtTOTRlahFb2CwT6WFimkkAdsYDDNW/Durz+DfEl5d2l7FDE8KPcIpwX6k1yN7qcviac2GnXZje0lyjucbsH6VqeBUOoa3d6t4kvYmS2iCvA648wDIxivmcypxknocjnd6HrFp4juZfD3/CaaRGuoaVcKPPtJACV5HPHPpW1aC7v0tNT0+yWSCdcWwjlG6A569eO9UvCF94Wn+H93qGhxPbWrxgNYJyByOgHSpNTuNM8NadoNn4R1prpbwhbiNj/qCS3J7Af418XisNSd2joo8id0e0eGfiD4V+GXwymX4u6gJbl4m8h5mUPtOeP5V85/HjxDoWsfEGTUtEjDW0tnA0RCseCg9BXpGrfDzVPiDbrp/jp1u7K1t2khJOS2OQCc/pXmXxoTRtP8a/YdN04JDFYW6KoT0QD+6a9PBqThy9vvN6zvFI998S3U0XhOM3DGG3mmADypuUcHnacY+mK0NDtdFv8AxPDoV9e28hktwVnVfLI4H496y/E+nX8Ph+HV7S8mghecGXyskDg8sgYD8MVote+GYvE0L39wrAWoAuGi2Y+UccV+14ibUIW7L8j2s0uvuX6f1/lsaN/rMeleLT4MvbmNlEQMMsgJJ44AP/165DxZpkk188kxRljdsbXwxH9a0tdtjeeJFuLq5DwJHmBpI92eOMHt271i641vqEfmTPEssTsFUHDEV5GLqNwXofNV5XlY891t1bUSIl/dKcDsKwn+d5NzEHPBHNbuuW9u9z5sSdeMHHFYQ0u0hEsjSYL/AHgp71GGWlzivoI6qG2PJl+ME9ao6rbI8LAsxz94ocH86uLa2VuGt94ycEEt/Wo7uPT5I/KdSSOhB4NdySa3GpaHPLYQK6zQGVmX5vkfofU1oNrmu6bbeZJDN5DJtdi4bP41W1PTJWuUuIpNqgAj1H+NNuora5iJvCWXOPvcYqo0m9Ys6qVd31LPmeHb3TngvSd7OCuAMk49aoaj4Ou9PtRc6apmVgWOcAj06nmqEmk6ZHOJbS1k3E5Lecef14q1a6lf2cwt54JFCncoMwx6joRW8Z20qfqdUaikihJBdWcYkvQQ2AWGMEA9KYt0zZ29I/vFR/Ous/4SDRdexb6tZhXUDdIZf5DNU9X8JG/uw+hzllD8gkfdx0ABrqjL3Vyu5usPTqbaMwES3mIkVxgnHsfqKHsY1BLscN0GOKnutOms5AsscqsBuLbev4VGXeJsTbgGHpx/9arjiNbHJUw9Smhq2EKr5bMc443f0qCZIIwEL5YdeMGrqxIytErHJHc5qneWiMoidmyo79fzraM2zJXK1y0R2sJwADzjr+NVJHgVy4l+X0HSrE1ojSAmZht6DHzVE1vaiUzedk+oH863WxcdCsksaK5aVcEcDHFQ+QJbdtswUnuw/lUsgiRnJk+VvQcVGVt3hMUTlQeuRwf1pO9jS9hxs/LsFzfMG/vAc1n28sqXbRQ377T9/HX8a0tkTQJavcEgdM/0qKSKEzqsRPy+nX+dYVaSmtTeEkmX7WawwD9umODj5GwB9a17TW5YZkFs9yUYjD7hg4+prlzYoLrzVL8nqM8frWhpwhjbdM7kZI46V51XCODvAqNRI9BsfEkFwi2mpwykknYSB0x6k1LrHh63ksRJpAjYeSOgUEc+uc/nXE28kNncZtoZcsM8zHk/nxW34a8TNDeFb0yxGMfLH9p4H0wf6VCqtWjVWh0QqplPVdKezdjNMMqwX7mCpxWegEjGYD92pwWA4Nd9Hd6Z4tu1VIp0dHBMplJ5+m/Brn/EWj6hE+0FmRQxMioD0PoDTu4tOLuFSnGo77GARbxF3aQbT0G3io1kgSBsMMkZGR/Ki6VbZvldiWHOE/nUYiWNGSRiCR6ZFb06iluzinBx0ZXubiKWBY2f5vXHNULqTbOPIfkdeOTVu9VVgSJpX/Ef1zVO5MbTIEdvl7Y5rsjJWGlqROyG63yf+OinQtl3Al4xwAOKS5aCSQyqshkAwMcf1pmnNNGzys7AHIOBxVN3kPoWLdgkAEspyehbp+FXxe2sUSJNIpYHuBmqcUVqLIIJDl+56U+bQrN7dI7mSRh15/8A11jLclq+5qvrFvGsflMACeSBzU0WoWhu2cSEqFBIArEsrCFpFBkdQn3c9a0oE09rs3EkxYqAOnNcrTSI5V0L8V9IGaWJgIm/hxkUQyoVZ2IBxwWH8qignhRml2ko3GEFVbuGIyiOzLhWHzEg4P61k7uI+WNtTYjYPbxk3DFt45AqzBPbtLsWfBT7xPU1m2cEZhSwkuWPzAjPSp7qwtbiRYYZiuzv3NKUZENJGgdW01rtV3gkYzgd6eNSt/tU0csn7sg8KM1g32j2KSfa0WQyqQAec/zq3a2lvGDePcMGcfvFC/zrmknezC8S7b3lobTZJKSX+4WHSkvftAtTYPPuH8HH9aitIdOsrUFG3GQcEigPaTOlrfQu0YOd6jgflWFRLl1ZSSktTO1DwrE81mlvdLbyPIMvt5bkelXvG/w/bw9ol74g/tGQNFbq3lohO/8AKq91oo8RTCBZ2txbNutnbPJHI7/Suz/Z9tLvxTdatY+Nrty9uu2KOU8SYJAr47NJKMXYxnBJ6HHfBvxRr6eBn8d6HOcBMXNhIMr26g8d69j+F+m6P4x8Pxa9HdRGS8G1oj/yyJPUH8O1c5L8Knjk1LUbJdgHWxt3GCMjtXTeFdD8KeDtQ0CTwzLKIC6nVIplOIxk5bOM+lfDV69N3bJwlRc1mj0fV/HOi/sxfDuS38VxyXwu4mMBkBfGc8Zx718/fGPxcniHxl/bNlZtFHcWMDqhRRjKA9z719SeJ/BGjePNJXUJI49R0+3tmaACMOit19Ouc182/tAPLF8RJIbXTfKjjsYFVFGAMIB0BFenhqkmmui2/rU7a7XKrHufiGS7j8KrdRRyMjTASi1O6ROD1AzzT7SfR38Rx6ZqBle3ktwWa5i5XgelVPGugm88OwavApeRZx50cDKJU4Pcgkn3zWvp89lbagrahp88lt9nALzoHZTtHfFfs+MX7uF+y39D2c1irfJfp/X+Zl+KfEVloGvroKti2ePMLMBtOR61xmtX+29YTXEe4OwRGPb2Ndj4i8H2smtf2wkjNalMx45AOO4rj/ENvaySbZmUyq58sBeCK8WvZJHy9VJSOR1C+868aYFQM8BmyRWP9otZTLvlQ9mKv3rodT0/zXVhAEYnoaxX0e0jaRwo3tw/atqEoJHKrWK7XulRqbUzKEIyXzkfnXN6p4qtra5+zJIzfN8mRgH8a6yTSLQQfZ1IMbY3NgnFUNW8OW1qimCwR9oO1mA5Nd8KtOK1FdJFCS/W9kt1dxuMYIUdRUF20MM0hZuQ3Azz+Va2m2aNAiazAkcoX93hcH6UxoLMyvOyguGxtxk4rSFZdC1JbmA0Sx7p43Y7hzjt9ahESujNMvH+9wa2p7ZZUc28AYnqdvSqZ0/MLLIoVe5FbucJI2U7IzTZ2rJ/o1ogbtvkwPzpmna3qmkzCaHyo8Nypn5I9Bkc1Yu4IootkcXy44JPWsORYJLgxy2aOPR+mfas5QaV4npYab6nf6P4q0TW4Ql/Ei3DpwUk+ZfqSKqX3hGRYZdRhZ3iLgAxcgZ9eP1FcvJGlsivDZ2wBPzKTh/0Fbej+NWtNunn7O6kgGIkfL+GKlV1LSro+/8ASO3RmfMlxCx8mFxliCdp28VAbmEt5E4Ptk8H6Guw1Sx0q/09GsZIoZDuLDzMAk+wWuV1HRJtJBW9jfPlggs2Qc+ldUW4O/Q5q2Fg1eP9fgV54rZkRvm4PC55qo/2RZGkO7cB0xyPwp0kTMgD7gg+6pP8qhZIJXz5bFhwAeorupzUupwuDi7FW5mt1LujsRjkqvT8KqJJC1qxRioPcc5qzcWSqzuqOx746iq6RxrEdsZUZ5K9/rXQrtDAukcMasHxngsOD+NPFzvmVQrAgcLj/wCtTtlr5aoysBn8DT2iiZlQIwA6Ken8qTi+pfNqSRXSy3B3McjrkYI/CprcQK7yCRm4OSB0/CoobZGn+eE59+o+nFW4Lezh3SYYv3yORUOJnz2KzTpEMq0nPRl5H/1qsWTacTsmtAWY8GV8A/jU62tsyExoTkcso/nSPpkYjVY4RtB+9ng1yVqNOe6LjW5S7pd5qWnAS2iQRLnJzPj8iRzW/wCH/FOhTKUv5N7yKQ6pNj+dc3b2drHEI7mzVwR909DUs0FmkBmtNOs0bIBDrhvrwK810505XiddKum9TduPBi31rNq2kwufRYnzge/Fctc6NqyM0xtpACSPlBK/nitLS/Feq6NJ5bz28iNgGBW4UeuMVv3F1pGu6fi1McMik5IfAbPsBzTjJVPh3OpxhON7Hnt0FCi3nVgDyD2NVLmG13p5bMCDwM9a6XV/B9xp8YuL5CUMW4NuyDzXL3cETS4EbKqNwpPBrenWa0kc0qfIyAXarfEPExI7NwRUtrdK0kjCNzkHJH+FVBE0t2WNqCccbjz+FSQJ8zyFGDAc8811KXM7ozaRPBIVtSIoyd3Vs1di88W6RzltpPBPSqFndQR2xWJevVgeatC7uPLSMWxMefvZyDSfMZyL720biNW3DH8IPWlcWsV4XZGyFHBPNNiXz1UTwsoHQA8H8adKlo0rMyMZAvyqxrNRbRCbHNqFuA08DMTj5wo6fhiobXVlnjkw2FA+8O9OsIIIhJcSAu5HKE8j8KqPchLsC2sgIh99h1/GnyXiUzQ+1RxWUbuGGXBDMeDVldQFxsUKy4Hy+/41nzXWmiNI5QdhPXIxTrjVrcoI4k4X7gzwfxqZU5W2Jlc1UvlluRFI53ADhjzUoa1N3JmVnIXlVPSuY/t3UjctnSzv4Ck46VoWqwz/AOmzGUS/xqDiuOpF81rHM3roa2k3thb7IpELI/DHIO2rF9HLZyn7Od1q/STcNoqpCbSPTY0sCTvH7yQ84rq9A1DTNL0uMT2UN7bA7piSCc15eK51HsdFOS+0aH/CD2mraHphaeKPzZ1CkScn5h3rrIfh7L4d8Tumn2bT3BtoyiQv1xk81kfCTxRp+tX82meNbSOz0t3J0uR8DD5OOfrium8P+PbTwP4vv4Na/eTqi/Y5w3BXJ25r4TOJT6Mp8spaHU33w4bUfCf/AAmGmKNP1yKEG6tS20n14PP6Vz8WhQ6hbwahBqIje4Xbdo4yCM84A5rvrbx7Z+MvC95JayWs+si1BMS/KSMj/wCvXm/jia58QDR/7E0p9PFjKP7VCdGXJzwPqOtfC4pKb5l2/r5kxpx5rpHfal8atN/Zy+GR0bQtMbUjdodn2cbxuOeP1rwj42+JNV8SeNhrc2lSW7XGn27mJgQRmMH+7XungD4VafrGmSeKNJuX1O0W1faCdwR/TBPHINeM/tDyag3xKlV7VIyllAu0gcYQDuK93A+29naWi6GtZe4r/wBfge2a4wfw9HAs8Ms3nBZbNpRG4GDwCSM/XFbulXlvovimO1u9Injs5bUFlZt4zgdzWXrelW914Xgu42Vpo5My27uyKRzwpBAxW7Fr88epCa20fMAgUNHA5JztFfteOajSg9tEe1mlrfJfp/X+Zz/jMtbeMFtLFmNhOgKmIk7SRzkCuU8RaNaabftHLNJvZiYyYztI/KvRdU0KNtQXX47bcrRnC5IZDjniuP1q6sJpngvmYyliY5OMD0FeBiXaCsfMVtWef3SMbwmf92c8DYf85rHVYLgzlTuKnBDKRXU6ipncRyBA4PLKBzWW8WnxwuwjG8HDbl4PvWdGq0rnGjIkaILiJG8vI3EJ3/Gqt75jRYAO3JKsQa2pYoDAxigPkjG7CjOar2V26I8cCRyRZ4DfeU13KrbcTkkjCvVszd28F5cfM6DYCvH0zUgtLaOSRlXdJv4Cj2rSvdAtJLhZrwEsyAgDoD/hT9PS3G9GgzMr8bR7VrCoCepz+pNBaxM1sjFsHeCMYNZjOs1hIZycZGcCulDWVzI8cQHmAncsi4zWTeJEDJJdhRApAIHrXWqiaVjWMmYl9bk2aCIKExkcZrnpLad73c8eAD8u48GuxuxasEFuuISMrgd6wr2KZroeYoXn5Cw4NdHPoelQlYoCbbdfvEjJDD5W6mnW7RXE29DBGVPPycj+VTSWs5utjsu4tyM0yOGGFnEKIWAO/wBaiUVN2OtSs7okXxNBpd+puL+GdV/uQkY9uTXTWniHSfF7JZSLAm5R1UnP68VyU+pPCMQJHt4BbZ0/xpbe6dlae41cBfWOD72PYUlKVCXkaxlfc2/FXgyaC7WCxlgZHb5VSXOfx3fpXP3On3OnnZNEN4Odu8EgfUV03hzxzNE6RX8QmjPAYowG31PPP0q5qOj6TraSXVhsbbEfkJIB+hzmumnVjN3g9ug50I1HZo4QzK+4+US3cZ5qFxbvGSI8+u08j6itfVNMEcxhht1BXA5PTPpmqklmiFo3wxAHIOD/APXrto13LRnnVKbgykptViQtH8oPBByKlFxaK4MkZA/hyeDT5YYUiDCMFf7wP9KY0cTOpaEDPQ54P+FdiXMrmPUkGoWq3GwxkHsCefwNPiubZnfbE5OOQeGH+NQsi+cIzb4J7E9fxqe0S3j3D7O24E5UtziiUUjPoWbadGi/dxuVxyVHI+op8lwioqjO3P3uxqa3eN4cxQnaF+bsR/jRiMFXC/KD1A/pXLLWWxDloNd4GWPzFz6Z6Gm3UsO7LRAnstWWW1SNHliByOPSopZVYkCH5uwPpWfJfoXCRURUd1kHlxHP8Y5FWP7ds9Kukkk1CCTaedkJBHtyaZAoMzERqGxyD1xT0u0jdlWaIIFwcJ0rgr0OV8yR6NGvyqx1Nvrvh7xbax2LhIZWGFUjJP5kCuN8e6DDpt88MUMYXzAAVuFO7j0zkVcsvElhp0jTXAkkA48yO2xn24rU07WrbxjeR2l/MkcQcFd0JAb6kniuKdVSXK1b+v63O+L5o6bnl6G6tJHZosfN8qu4/TBpYxLcCRxtVschnwa7Pxb4PaAyw2TJghivUg/iTXEnw1fwQmS6nAYfwFj07YNdFHEuNotnPVpcqutie0EUVpvkUNj72081bXWbWK3R44vkz1Bz+dVLXYLIWzLlVHzcnNSMsKRI0SIVB7ZruU7o5XG7NGXVfOEe2MYzkc8Glkvc3bARqHKcAnrxVNXRnVpkXB+7nNPF5HDckNEoYjjvmqWwuUakk7TyM5IYD5lJ5/nUMd+GjdS3TsDzVm2YSSu0aLvPUMf60y5spLxcoihV6gHB/wDr1cW7CukROyGyWR0Xbuznd/OmNfwQuou4iq4+RgeDVmOOCBEM0QKbxyM1Ncpp1zMjXcIVP4T2/KtHe2gNspWXjHTE1RbSSMjGPvA4/A1tWOqWFxqEpSLcFHRziqGoraiI21rZxeY2MPyeKfZNbqqwyQAyoPm+brXJUjJyMGr7GxZagDYhLSzJTH70rngfjWVqHjey8NXHmbXNvIeVHOD+Fbel3dp/ZflWtt1X5/XFYzQxnU47lLOKaFHy8T8E14+Np+5ZkXcXqbVn8VdFabSLPUEU2M1xkM2QqHcK9a8TSeG/F3hzUYPA0EGo6klmvlMkwyhAOB714Rb+BDfajJca9bMun3YZYETOI2PA/WvQP2SNDsvhb4g1vQtfjM63Kg20zNnarFsV+f4+GrR00JRctjr/AIOajIvwvktvFM8lj4ps4AJVOSW5HTH4969V8AT6F4n0Cx+320sdxcShZmZTmQc+oxXN6f4U8K3j3um2l0y6o6ho57mMBT8w6HGOxrrNUvxJdaJKNPitJNGlV7gwkAzAZ4/Wvl6sKKu5LX+vxO+i4bWNr4seKPEHwQ8ELp3wm0Vrxr6Jg0cakMCcjJGPfrXzT8cbvxVfeOBeeILcQXcunWzyxluhMYP94V9kaFplp8SvD0/i/wAOQFljtXQxzDayt+XtXyb+05aavF8V7iK7utrrZQDaCeBsHvXo04uKb+z07foc+LcVFHt3iK7itfDMSLehZhMN6XMRMMgwejANx+IrobC/utP1+LVoNMjkt1t18xLRsrnaOuK57xjZ2F34SimZ0W5ilDM88QZJBg+uSBWjpGsapLf/AGixit5gluA0CLtB+Udq/YcwaVKGttEermj935L9P6/yHeMviJDceJobbT0EkUiYeNRhkOOeD6f0rjvEFrFDqrIySkSOWSZWHH4ZrW1+fTLfW/7V8uNZHTDQSLypxzjtXO32tfaxJaeWWLMSspY5WvCr2cND5iqveKJ02VroyX7OBuxvQjB/WsSxvbFnu1lR49jYUygHcMdetaU9zqElqunTXe4qeWAINZN2BJCyxfK6tlmHO4e9c9NS6HPpYvJqC2cf9oPab7XGGQEAn9a4Xxxq2tafcre+HdMIgmfJwenNdzd6iktrHi2xGmA6LxmsPxdpr6na/wDEvuNsTDBTb0NdErxsY1NFoPtbrUWtLDULpHKvEAzFsgHHpUT6oz31xZ2sGZd+VbaB2+tReH5pvDmmxaPeyNOpQbS2ePwqR72YvJDDDiYycSbcdumeta0k2kSr2RHc6dJMwu7W1KTKvzHrmsPU0+x6ZcXmo7jh/uEdefStS8vNQuZ1FvOYXUc8E5qtdwvLaPc6gxkVSNwx1rti5o3g9DGa7hnsYZ7dsRkcIB046VkXM8rXDCdQMn92Sa3b1Yk2SQQ7YmX5UHGDWNcIqXP79hkn5T1212Rud9FsoRGcXpMxI+b04p0ThzMkW1WxzletF7azPc+SlwPvckDilW6G14IIwSg+c7etXFe8b8xRnimkhKqoKj72Rj8qfDcGxjUu58s9GWLkcelTTzTPFmOPC4GQabc2he1STzzgnGAvNEoRkdNOWgyXxDHHDHi8uQV5CxQjn68dK0tO+IeoadCIItNuV+XkvbAg/oKxJAdPCxo53yjClV5H1p2r6lLBaJb3k9w0gOMRkBce9ebOFSnLmTOiFRHcWTad4m0eS6Nyv2vIJimjBYfkOK5rV/DtzCd0x2EsTiRSrY9enSsTQ9ZksdSxpMd0HONzsQQw7gV20OtQ63bxWN9bOWGdirEuRnuTiu3C4yNTRuz/AK8zSUIzi3Y42a5a2YKYgw6gqORTo9QhbDtEoz0ZR/MV0+veD/7OiE8ERYGIHmHBBrl7ixmimeaVACDjIHT6ivYo11azPNrUOV3Qp1ALLsMAAPoPlP8AhUsV8i5RbYAgdGbg/Q1WRg7BSUwe4Xj8akREjJAVPofumu26kjhaL1vqoMeVhO0DlSQCPp60PqQba6wkrnsfmH1FVYnLIQYxgdm/oaCGChkUfT+KsvZK5DWho/bowibkGSOGz/MUrXRLlVh5PTHSqKT+SVLRqx9R1/EVZhvpHJTyVBz94Hj8ah02hbA7u25VhCtjkVFFbko0hUHAyQRU+5n3LtVTjk9QalgKiElsYC9GrGcbotTcQttU8q3w7kRN97y0GR+dZt1eqQsqw3hO/wCUpCDz6kDtVq5mZIxKi/IOiqORWaNUb7WIrmSRUYceXjP415mKwynG60PRw1eSehu6Frl7eQvb6o5jYxsqtLCCCD0x/k1HdeA59Tt3ujc+WqKoXz4tqv8AQheao6o1taGG305L0TyYwRjaCfWt/wAPeJdZ0xH0rW7WV4SoG7aCWP8AhXmqcYz5JP8Ar7z0ZNT1scdqmhPY4jjKMAdrArjP0qD7HlU2soVTyMcivQNY0u2ngS7htH+aQ7keHc3Tsa4+6025kuVkYbFAyEK8iuiNWUJW6HLOlZ3W5BNZhPLkZ0AJGG21DcQol2QZEJK8FF46d6syhfk824AIPQryKrznyZyQwYkdQtehTbkjnZBbsC8kabA4HPoaW2uJGgYEjgfdPH5GoFuEbzER1R8cnbwaqxSzLGZWkBUdiOD9K6oxdiJamlJc5s1J2MA3QDkfpUd1HJMyGcjaw+U9CPwqv/wkEcMSt5IYbum3mi418TSr8mCR8uByPwrXldibSL9lbbbsQyR8AD5gMg1et5bOG/kUqiYXjcPvVi28uqT3DQJdqNwB3Bf51px+WsbQNJG0sYySBXNWbUjJs0tIuJ0QSwQqY0GZFYAZrI8W6xPCg1XSNPLbjgxomTmrFr4iV9KZUiCqi5I6ZrL1DxjDfWayaNMUmgODBJFnmvEx8rUzJ3vqdBpHxEittP06e9ikeMzYuB5efL+YdQOlekeG9a0vx14juNN8By27F7VA1zKvCNz0Pbmvnb4WW3iHQ/Gcmu+JLWS9sdRdo2iWPOzPGcdutfQfwY0BvAF/qc+m2LfY7tA/nSR/NHuJOAe2K+Dx80pP+uh3YOMpvY9y8J+ERcfDx/DXimJzqtpbgpqUOCJCCP4s/XitCa106LSNKXxLZGCdpAEJO1pRzweeak+HOraTfeCJ9Ck+0wLLbKY9SdtwY7h3/CtDxfo954s0/R/7XkEn9kXCvAYxjzsZ4J79a+ar1ac03bW36/1qenBPsZvxI8Z+OtJ8MJoPwSC+ZPA/nRSHBT3Jz0r57/aBsfFq+P1/4SO5V7w6XamcomRu8oZ/hNfZ3hPwZp3iLwxceJbGz+wTJaSI8Nx+WevtXx1+1jaLB8YrmG61IO62NuCwIx9we1dMYThT5pbPbscGNsoo9s8TXUNtoa2pmmt5lmDC4yGWTjqVypH0xV2fUNf0fxLDq8Ihli+ygONm3PA7ECoPFVzbnwqIwZY5YJQVnhOWJweqjjNZWpaxr+rauskV2wlWAAJOmCeB2r9izJ2pw6aLY9PNNn6L9Cn4q1SDV/GkN7BIQsiYmhf5RnHODiqWq7bC+aO1s0lhkYkyAnK/pUuvW01vdLdrcmK5KfOnY8c81jWniRrIyWU3lusjHcWAyD7V5M480FY+aq25rsp3IurW6b7TEXUn5WLGse0vLpmuV+zNEQ3y7STkfl1q9f37SyfZWbKg9Saqm+naJ1ji5QcEDr7UqdJqN7HJa4+Ga8uis8keVUgbD/8Aqq+2mX9xatNYW4derorcCqNo1/cSC52DcuMRMOtWLG9vIZZbi0uHjcna8eeK0nGyVhJJmBfeJ4bPXIrH7BwABI2clT+Va6vcXBeOC2I3Nnc3/wCqlu9JgTUFm+zq8ky/M3U5qayuJrWGXTjH/Fy79BU00ktQcdTF1O81C4ieG0swskYwCB1rGW61RNPmtr23+csCAWrdj1eUytYzW2xgSUdOM1nXkjxGS7KM7A8J1zXdGz2Q4toyrxrl7aGQq5xxt6YrKkjmS4PmtkseDjla3rye6nVJzHgOPuHtWPew3EcuXVmyeqjla64x8jsptlWSCSK53y5IB+8CKitppJTNFsKjGQw6GrIJNwIXlYgHPPWnPPJKGSLcoQddvWrUbSNrldreeWEOBhFHKk5zVa7iumEZjUlSfu5xitQb5oRLnGAPl9ajvBGLZZFkYE8bSeBS2NItme/mmWHajEYwSOorM1iyvJ7treO5cejk8D61vCR7dI4YA7b+pHUVBLp7yPJDvIbP3+/SokoyibQk7mX4dtY7e4HnxyyyJncytgH+VaPlazHdm70bRbhdpyBJc5znuORTdPsUgaRZHcFcnzF71JHqgVJZ40kYhQAgc/NXBUhyRvsd8W7aHVaB4pvdTSPTtf0+YlVG9twwv0AIJqv4z0i5N0DbW8rxSS/ISi5HHs3P5CsfRbvxFbWTX0ejxrHnhXmPA/Gtfw74qtftyDWUcneAuJSdv/1q6cJinOPLP5A9Y6HFXVjPpcm+VjlmySqfzGaZDdvKx2MOe4GVNdr4u0Ke7uTJbo8qeWTlSWI/KuXuLBdPbZGzKw5b5fX1Fe5RrONlI8yvT6pFdbmcDGzAHZhwfpT/ALRctGCkWf8AYPX8DUsSvIrA5Ax07H/CpPJmCABSM/wHp+ddl4tXOOS0Kxupww+QMQfT5l/xqxHPdFtojH++O31FPw6sMLuPow5H496ljknLlSO/3wMEfhWcrGbehC1zcncgjRSBywHDf4U+3ubhIT5kYXK/dPIP0qR3JLcgH+8o6/UURzyKhbGBjgYyDWbSaJbYySe4aBXVDnOApHT6VHY6Zcrdia7cOsh4AX5lqYXl4xRljGScBSP5U+Z7uMqZJMgnkY5X8a56sLo6KU3GQl6j20waQM+1gVZWA2j/AD71INVuZbtpbbSHkJUASPP8px2/yaz7nULW4uvsf2tyCRk5wRU9s5uJTbI77I+Q/TNeZXwilK6O6GIakmaEPifV96xX9vLFGz/6oyjH51seIbKHWtIS50MsyCLDocDnPbJz+f51yVzbzTymS2s/lx8xMp+b9eKtaPrM+m36S3uI0A5jSckD3GKwpxdOXLNaetzrhUVRbmXrWiT2LvPeTOChC7SuCuR9eazYbmYyMAzN2Dgcj616Vd6VaeLSjwu5DkFg0xOAPQVyev8AhyPSpmgtmlY5bJK4Ix7V0Rbp69CKlLmd0cuyuZZBkggffA4NVRNdQWbNONqkcMx4NXbtb2IEyiRQerhcfmKimgN7Y/POwwOCOhrsp1VI5JRlHcypNXtzAkEbMzl/ukd/Y5rO1vXtR0KdGit2lL/wAZYVo32mC0to57TfvLcgjqarzXNzBcxzTQGTIwynt+NbzmuQLHHal8SvG9hrQlOnSfZRjc6Njb9alsvitqkGpzXk9wwjkT9268qevFaXiO2lu45rUNJ5MgyQB92uYl04LpsmmoHfyk3RyFa8+rUsYnf+Eb7xFrOirq9xqIijjOQshysntxW7aSape6zaHw/4WWe5ncK8IkUFue2eK4XwHP4l8QeH4NOIIdf9TG5OJD6CvQvhnH4mtPiHZvcaPc2Gp2v+qiUkhxkHI/SvKxslKnqdeHoOU9j0TSPENj4b1TTkufCQkaN86hBuBeMZHPPoM9K92+GviDwv8cdO1XQPAyPZWgg2TyeVkhuQfcfhXGfDf4cXbeI5vFmqaKbm5vh5d1HOedpGO/tXp/7Pvw2X4Ta3rV9pMRj0q7LPcQ4yASSW5/GvhMdTSl5P/I9WhhpQba/rU2PBuj23hP4ST/DW40+W8jtbZVi1JAQc5AGe+a6nw5eX2kaVoWi+LbDElxdKtt5kZweuOcc/nXSaQ2iXvg65hGgwro09upiu4eedwx/Sl8S29uYdHfVczPZXavprPGNu4A4H6mvnHLkk29dP1X9XNo8ydmuv6f1cxfj/AOGPHniLw6mi/DbU/wCy5Xs5PtBx8oX16da+Mf2n/D9/4f8Aij/ZWr601zcx6TZ+bM0+NzeUM8bx/Kv0WQxa/wCDbjWNfeDTbtLORflYYK+v6Cvz8/bMs9Oj+ON0puGm/wCJdakSb2+b92PSurFQUY+06Pb/AIY8XMpfuldbM9c+Il2tvogtXspSEnHl3Fs580HHf5WBP41Vkj1W61WPUbK6lSWK3HyXAwx4H1/pV3x+bO/8Of2fNArNHMPKZX2yA4PGSefrWdBot9NfLEk80F0sIMas+SRgen4V+xZk1yQfkj0s0s18l+n9f5nO+MtY1S51+MJGUkCjzFOSDxycZ/Kse5F3FP5kZQxOx3jHIP51reKbxINY+y3MZF4FwSp4P1rH8y7lZoJM+WT8wx0rhg04I+ZqpKRAxmt5MuyEE5Ddf61Ui1O/dJo3tx/0zYDgj061cMVurCFeVXuOahkPmI0a4AXpk8VcdUczSsImq61ayJdLtSQYATb1H51DqttrkpGpwX4Qu26WMqePXvUjzOjrM7/vFxsWn3Lw3iGaXhiMMCe1XKOw42T0N4TPfaVY6lps8EgjULcKAd3ArGmub261WYMFigZuZOT2+tR2d2ulwi001jscfMu7iqgNyzSQhh5fmckHnpWUabbuypyUkSavdmFGhlljyowjAdvzrLN9cLZyKpSRz0AGf51Pe6XJf86ip2qPlbdimRW1vZWryp94Y4JzXTFSiZK5SuZL6SGOQQYk7qf51lyy3sdwYCzMGPzAfw/jWzdTOdk5ZcuOVJrMmeOGcoil9x+f2rsi+p103Yz5oJbW68+SUFQeMnmpFjnkWQ4bBX5WHANOurO3uJxEV+UHu3NNSO6dJFUbUQfKS1Xo2aphAlwIhJK+3aOAO9LNH5sayK3zE8hjxTltrh0EsjYbA2gd6fJawxQrK42uTz81ZyKi3chkS6Xy1toGYfx47fjTTaTmZ0DbVJ+8TyOKuM0kKRxW65Dj5jmq6p80ltNMPL3dc89Ky0SNoXIl09Z4GjdzlRww4zVN7aKOJooVHmAAjYev1rVsha+U8Uy7lAJRulUzFCA88UWXAG3BqGozjqdPtHHYdif+zFV0Uu4w0UhO0/rVL7JPZlJFhs+RyGJXA9qsSwTfZ0uZgBIx5XdnjFUmtNlwGKI4YdHxgVlPDw3tqaRqX6nSeE/EFkinT72JXMnyh1YjH1JFW9S8IQ3UMl+ikpuUL9nHbvnI5/Cufe3htyolNokRIz8o3fga6Pw9q+mmH7Ck0LD1YjA9K66NXaElr3/pFStNXZy97C9rORbIwwxGdpwQKarzyDcflJ6Iehrt77w5pcNl9ruI4i7MzFkcAYxxxXJTW0Rl823OAVyQSMNXoQqOErPY8/EUkldEDeeqqFU/7pH8jio5HuvM2Akj1YfMP8atCGXywABnuGPH4Ux7SUsPmGP9o8j6V2RknucLepW+03TOVd2GBwwXB/EUsd1dIhYnnHVUyD9fSpWtXclWdjgcHoaasRiRm35OOq/1FVaLRDGpcXwRXjBD54yuR/8AWpzrqBG1p2IkPKlen41F590Aro3JPPQipftDo6jc5yfmHb8KxlEtXUjPh0IRakbma4yAwIDdQfyrX0+xLSyNKSyHJDdMVTltobi7x820EEgnvV2xF3NI1uciNc4JPNc84+8NTlcjnsJHG5XKqvoPvClg0uML56aVbs2eBKeP8/jV06dNLECzYO3oO9SJBFbQCRokMmfuk8VyVaaaOqjUa6kOiXE+lzG5h+zxEn5kEp/IEjoa6fTrCHxZE9xc6dGu2NgPKlAbOOv3a55YGZAtrYWxZgcl1BFE0PifSow0GqW3ldfLAx17VxutKhdPVf15HqUZczMfxj4avkklgihl2Rov3H3sPrhRXKXi/wBnIVupSgPAIbqfcYr1XTdRt9V0iay1BoPNKj94pxg56ZrgfHfgtTLFfy3kSxvMdrLIAM4PXNYfWuRc0dip0uZbfM5W81RJUjtLeJgxb5sNwap6815p8qPZ/O2AZU6qB9az/E2o3sd2LSwsASoz50Z+U1W8G2PjDx5cTafpdurmJsTAg8Cn/aClDV2OGcJKWxjXXiC7u9UuLmKVWtYB++DMfl656da5PxR8TI9Kjll0+xa5jlTbHMvY59K9BtPgpZTXt/Bb3yjAb7TG83Q85xz9ao6P8OvCun6deaZLbpPHsBR2xuU5rGeLjJaMhRdw+G013ofhWx8V38kkN2ZA9mrDO5sdMHH8q+o/Ai+J/GutaHqup6Nbwau4UxeWMF0z15OfSvm+C3m0TQNPt4hHJIzAWYLBvm57dq9/+F3jTxtdavpNl4p0jydUiUC1khbblM9v0rz8RXXKr6nuYGpy1LWPqn4ceKLS51CXRrOztzfWAVr+2kX5sYzng+gPWuj+H95pfxMvdYmdZrTTYC8c8duNoYgkNnnBrzb4RXU2ieM7rXbSFlv5Aq3qS5bcuO+Paut8PXA0LUta8d2byw2Cl2urZHwpYE7iRXy2Yy9o091r/wCknrQi25W/rU9c8M3uiaJ8LJtD0u3SfRIrRBBLKOV+YYHXHpSeJNZi8K6Z4ch1mFpTe36LauQCASGxjn27Cs7wH46j8VfCVvEgs0Ph+6skaMLHgjLDH9KteJ5Ei0XRy9vPOv21Tp8rEtsbBwR6d6+fqc6vp9nT71+BySjJTd11/Qy/jf4S1z4o6eujWOs3GkkWMhmltiRuXjgDd1x3r4p/a28L6V4c+LzaMt2J/I0izVpZ13MxEQBJOw/zr9ApvEWhJ4LuLrx7qy212llKFkXKEp6c/hXwJ+2JrHhif42XMtnLFLG2nWpSQspyPLHrTxFCKi5vVt/P7jwc05nSjdbM9o8bRP8A2MLOa1hktmmHlKcIRx0DBlz9SKh1nRo7LWIbiG9MMothiNZgwPA5yMf1q1421e3HhY2dz5bQl8QiRcJnB6MBwPxrDu7GK8vY7W6uEEjRr5bQyZUDA71+xZtNKnC/ZHo5m2428kYHiqMXPiCO9eJVlVfmcEHIA9/WqU8M10/2yzlPlbiJUxx/Kug8VRabAsenSFWnC8SAYJFcxDLLbSMkIOwN84zxXDB88D5qtfmIZLZ7Z/OjmGxu4H/1qpx2V6Y5TMwKucozf/qq604luNsYygP3RURSYRyB5AqjlM1pHa5zWVig9tcoAZZP3g+6oI/wp6WQvomC3ixzIPmVsVY/s+S8cRNP++I+Rs9qhlNvpytFqEkYlDY3DvWsptJAlqUUGsy3qxQDdHGPnzgAirw0+dmkkMq+XuydvXOKsI0TvH5I2oyjJI4xULyRW5mje4/dq33R60QkEovqU7q11S8haN59qDiNiayWsNUSN7IXpZmPG3FaUV7qMMpiuGBgfJUntUbeY8UkluQXB+9jpXUpaCimzMuNLvo441Z1Ei/e5zVc2hin2E7gfv5PFac0coEbzXI8xs7sfSq7WgYtLBKpA/1mTwa2uzogtSpPYeXIJ7aZWXPTHP8AOks9MvSkklwo2uDsLHkVcSSyF4kSAHJ+6o71KxLpL5rBQoyo5rNy940s7aFN9OnSESSSfOB8gU4qvd6dNNCsrXIRxywAzWl5iSW48yTMpHynNVbuULb7ZdpkB+YrSuy6d0yGO1nuYYntyCIx8+TwR+dQtYh7hyzKIifmxVktKgiWAKisPmz3qNVg86VGm/dA8ipVrG7dyNYoAGidhsAOwlqjSJ3jaGIhmIGDjFWQsMIJkCtGykpu5xUdpcARSNEnzD7pI6VOyKV7CmzkSFI5lUyg84PtUE1jBBIrqFJYfPlsip5S6rE/nDzXb5sD2pzxxK6vG+cD94KvnNaaaIJJBbTLFA8OwuM7lB/X/wCvTzcOjhbq5hVc5Xy4/mB7c55pbme2e7EcJULkZG2m2U032hhcXMaxgnYNpqJpM25rG1perpNF9h/tCMBhyzx5OT17/wCfWrusaFYWOliSFEd1iAaSMnk59MnH61y9w8klwXnv5G2j5dkPQfgOa6Lwzdx3lmbS41Jkt1PSWIjA981vSrRdqc+hE4c6sYZsZQjMihR/dJyKja1dV2I/HdSe/sa7HxLpVs0KPp6IVkYcxocH3NczPp8lvEpYgAscjPHWuqlVknaR5lejyu8djKuLW5ZmRnJHYZwR+NUns7vB/fsx7FWwR9fWtuWMSDaxG3srdjVeWyYKQWLnHHYj/GvRhUVjkvZmK9jqIiVlkKt3bP8AMUj2tzHtKytz9478g/4Vfmsp3VT5+CDjcDz+VQXOnsAHjlA/vHd1/CtLpou+o6yspBIZPtBxx8hPf2NX9Pt7gSsz7tuTjc3IrKsJYEvPKLgZIGzdkE/0rYjB3srMQBnA3fyrnrKzuRqaEFs7RBpZTkL8uOKSW2KqHV13E855osxmBfOkYttG35qlnnhSMR4HmZ5PeuGW44ScSs0Nw4SSHbgfePakv7i6vYjaWuopFFx5jbAefrUs/nPBGtuVUE/OTnBFVbqB45HW1lRYgo8zI61x1oxcdj0MPVk5blTTtIkW6aGLxCsxLfLH5IJHPXJPNdff6fo19psGmeKBEsgP7mWaMfNx1wB/jWR4dshpE8Gs/wBrFYfMOFjGSPevWfBvhLTfF93JqfiLXXux9n8y1CQ/MnPYY6da8CtVhRuuU96jf2Tu/n/X9ep5fN4B8M6bq9nbLpVlc2kyfvLpyELDP90Ac/T8643xh8KfG+m6tc6x8FrJbOPrOuzcjDHPUdetfRWs+HNPm8JkSs1jHAp82ea0O/bk98YrmdK+IOl6hp914Z8O6zAk1sygRrBnzAQe57ev1rwcTiY01zRd+Z/cRUhKSs1939bHyNb+Dfidq2q3vjO5mRLe1LLeRktyVyGI/Wqevar4i0Xw5JrvhvSTe215Go3tGd0ZyMnNe/8AiPwzeXXhjVbya3toWSR2kiXjeMnJA96w/Athpek+B5nn06R7W7tgTbyRA7Se470UczlKN3tf9TidGpB7M870Hw9br8PbK7uNOaTUZ5AYXiYko+O45/nXf+E7f4i6h4o8P+E9UmQX8oDQSkbRtDYwcKB3Hes3wt4bSHWbPRNHuAq3915YYdYiQT83p0r1OT4fat8OfGmjad4svYbqSZd1vqDMAqjcOCRx/wDqpV8Wmk/Q7cPOSq6Hc+CvE3iC08aXfh2109m1PTY0adFXerjbn+7joPeu5/Z51J/jDL4hvPGmh+WlpNNGLMybT8pYE4255+lZHw4+wW3jie5t0jN5GI980RBWRSOme/Fdd4P/ALA0rWdX8bRpDBdI0n+iFwrORnJC9yfavNqvmmm9td/8J7VGU2pW/rU7XwmNZ0L4W3lvo+mva6CloixWzxnK/MOhK5x0q5rU+o+DrPwtYSq9zDqOpoolVslSQ3UbeOnrU/g3X9Y8Q/CqfxtOrNY3NihawZRlcsOcdaxfGN1f22maSNPtI5oZ79VjZZAXiODyeeDXm1eelJ6fZ/Vfgc9SUudrz/QvfHD4T6f8UrdNM1+eeGKGxkZ3hYKXHBx93pXx5+1Ro/hzw78Vm0XSd3kW+k2aJg56RAddw/lX2Xc/FfwJ4H8AT2fxT1hftP2WQxtO6hivPH8q+P8A9p/xPoOs/FR9S0KLzLWXTbVomRGII8se1KrGm4uStdv5nzmaSk6cU11PUvifd3NtoJkZ1a2klGxZ03Rg46j5WIH41UkbTLvy0vJYRL5SiKSLIUcD1z/StL4g37w+Hm89HWGST5Wkjyucddp5H0xWctjp5kSxvruNjJECkmzbjj0r9WznWEPRHqZj8PyX5L+v8jn/ABC1zc6vFby3GTGvyyAkcD3FULyFGJv0kI2E7xuPPv1rW8RNPbagmkRKX3D5ZSnUdqzoLCSGZ/OkGVPKnqa5KTXsz5yvvYqwtaqq3UJZlY/cycioJrW4toJJPtB8uY5X5skH+lbGnQG8uv3EA2g4CnAqsUieK4FxuGxuAg3YOP51DqpatnNZtGZPo10ojiMxMzjKuGPH61X8QaND5A+1s5nQAkqTg/jXRLZxz2yQBsyP9x24xTdQsbuKAW1yuZQRgkcEUSxUdCowbehlaRaQalp8NxETFJAOQ54I+neqjaUrTy3k10WiLYKZPWtufTpYb22t5isO9eACMnj0qvNorx3EzGRvJVuUI60U8VT7iqQkjDvkgs42SQEq33AASRUdtZvd2zQW5YFiMMT0zXRPpEdlB9saRHQjOwAZFQNJA+hzXcCLlXHIIGOa6PrSXUzjGTRg3ujXKqlo90DIg5KnqKz4dKmN6fIb5V/1hJPP+NdLeQW0sVq6SN5kg+Y7eOlRf2aZrlmsSFaL7wx978K3WMjbc6YUps567srK0uFurbzM7sbQOPyxV3+ztkTTPMAsq8DOTmtOOFru+UR2wOOMNgVFFapMly0z/c4CIM4NR9cg5XubuhUtcyG00QKI5XLuRlcnpUdxa28gWJiRKOpHH61rrpi+WqzyZZwNhPai/ij0+JbeRQ7f3sVTxMXsxQpy5jJ/se4vTHIkwTyhk5PX8O9RTacjyPOZMx55AHFbNxjzrYBQqsvOMEmq7JbpeSuoPloeVZevFEcTDuaulOxlpZxrE3nj5P4RjNVok3StYwsfmHBY10EcCW6Nd7gY3BwoXvVJLdzbzSmMISeGOOKbrxtuXGnOxTOnMkSWTThpVPVTzipI1tBjyCS6/wCsOOv+NTPYRPDbqs5MrHlwOOlOjtrdpcwLh4uWbHWl7WPQ2gnezM2TyRe7o1IG4ZGOP5UiQmBpJp3G1s7U29P8Kuz3MdxqgZIDhSMkgAVDAgDz3E8hZedqbehrWFRNmk4vdGLqF5fW0okN64OAEB5wPatTSNON9aNd3F1fSTD7xCckeh45rO1Fw2BKp3NjZuWtbSJblIPsjz3AkY87eDj61jUUXO6HT5kdd4P1CyZYEvNRkCwnCLNGpH05HWjxZ4fS4mBtANuxmJEeE/T/AArBk0y0gghvUt7p2IzIRIOPfrXR+HNdtoYVQ6g7mRSo3kNk+nWu2jilNOM9+n9XJqJSepyeoaMbJgHcFdoO01We0aTKZOAvCk8j6Gum8Rae9zcSzSEKg2BsnP8ALpWNMiW1xIkbq2TgKSK7KVWcXyy3PHr0pRd0jDudKkZdnm/MO+cMPy61nahos8pDxT45+Yg8n6iuhlt0uH8vzMnOPcVGNPSRxtx8vU967o1kluc6lqcxbaPa2t59qLnJYDaD8pPvxW/aWqkl8gBh0Jz+VWRptqZfMCjg4JAGPxqWPToizFmUA5wF6VNWrGXUV9RsGnqIwsrszYymW6VOLSPcqySHfnqOtWLPTkSMRvyWX5d3arE1sIV8lQC4PUVxSqRvuKJWn024njRraUIE5YnvUT2YuXaUyDy1wJFxwa0ZLd5IY0Rwg/iPrVe4tIo5ZJUciNVG4Eda5alRHVh7qRZ8OQ2SxP8AIxh52xgEgH1FdB8M/EVpb/ECHStWurswTwhFeB2URc5zzkVjeHLuLSLd9Vtoy6OCBHjI/wDrVu+AbqJbyZtWjUJexbUmdMGE565xmvn8fytXsfR0pT9kfQdjolnqdrNo15pE9/axx/K7tuLj0Yk81474t0Tw5pni7fomk3OlsLlFZoItsTnP3WORkHv/ADr1f4ZfC3UNE8Jz22peMby5W7O+CcM2VGPu9OlHgrwt4b8VaVcaNc6NJd3lldhvtBk2lgCTn8K+PzG0Wkk7t/1ZijOXLbt/W1zw/WLi81ux1KRjC80bugh+x7UCgkcHfk5HSuG+KGk+LrP4U27+BtO8tWCLco0ZyvIz/FXt/jybQPh7dTX8d80M26X9wzrIrY6gKM8/WuS/4WDf+NdI8/wxo95Db+Uv2hrqDerHPKhQvb1PFcCqU5JRi9I3vfvc7I0VKKilr112/r8OxwI0yCf4e2Oh+HtLt7jVmYCeWLAeJsfeJDcVQ8Qaf8QJNa8PfD3xdr5naQ+Yt/cPu8rDfdLbuOv6VpfEqx1yz1/SI/DAkRLm5EV64hMYTgnJJH0rb1/wxeeE9W0i01TUxPE6bxeTAuUOfcZ/KuhRklGXoTGlKnUTR2Hwh1S4tfGl94PVFa/tIYzb3iPhZvlzgZbJ7Cu3+CMF3Jea9rPjX7IdTSedbexnJyygnGAW5z9a4f4cSwXvjW4SN1N1bLG9vcxgqZOM4xjp0rXT4gkz6ve3LRx6zAZBDAsLEuFzjoMD8a6OVppv+vdPSw7qapf1qew6RdeJdP8Ahbf+JZozaW7WSbtMV+Fy687Q/HX9K5f4o+J7vw9onhRNAuoLm3u9VRbld2WhyG5JLcVD8Jte13Xfg9ceOtavN1wbBPtGnOxwp3DORjGeawvG+pQTaTplzp93atbT6gqtCyn93we+P5VxV6dS7S6p/n/Whx4iT53fuXPH/wAP4PiE0S+N1WezgspHjYyn5uQcEhv0rw/9oyDRbb4jC10nTFEEWlWiIFTAGIgP7p/nXserftEeDPgf4Fk0bxpatO80Dm23h39e+PevE/jR4vj8VeMl17T7Ixw3GnWzIrIBgGMHuaqNGPK2tbs8HMJNxSv/AF956947ku7PRW1OIzrFLL8xiBIHHUqCBnj0ql4hu9Jkkjdbli5hUCXYFxwOoGP61TW91HXtKkmtXfay5AMxJ/EBTn86pXnhbX23/wCkZUgYRmcg8f7tfr2YYX6xRirX26ndjq1KrpF9F+RX1m7vDcxC6LuqDiR14x2pIPJv7gXZcq6DpwC36U+78O+Lms47DzC45O2RHAA7Y+WqzeEPFGV2yNvVRyVfcPoNtee8FNQsv6/E8qVKEkTTyxLerdWyurk/Mg6miOztbOCWVZXxN95FAJB96WHwv4klvBMZWwj4aXD78Y6n5ajj8M67GZpnlbaVOAm/5j7nbXJLLq7W2v8AXmUsPS7ouWs2m2tqtu0LMSwPmcYX8a0H1LQdRtm0zV7KQ7UzDOD8ue3Ssuy0DWYdNmtJmXbIwwgLbT+O2o7bwxrtvbCya5MisxKxy7gq+4+WuaWXYq+i/r7zopUqEXdsyY/DF9deIRqd3qMqJbD9xuH3hz0rorF9PuI5rm4DsxP3GAyfwqvqPhvXpDbwi5LbYxuLbtyn0A20QaFrKauJ4pCFWTBkyxbGOpG2iGV14a2/r7x1KdCWzIorSwaylExkZZCQ0SnkflWBY+HtOtZp7S3kf7PK2WB6Ka3H8Kaul4+oQXLRhlO4RlzuPoflpk/grVDaTf6QqbypCK7bT65O2tZZfiJaNf195jDD4dbtFKXTLCHybIXDSLH91iABilWSyi1ANFCy7V4Y4G76VLL4R1OOxitROHbeTh2YKB7fLS33he/1WCG3afE0UYwzFgyn0Hy1P1LERWn9fidUKdBLcz9ft7LUCt9psE0F0G5yTk/hmq+jaJHptpJczXEhabIkjXk59TW/D4S1a4u0ka8OYnAacsfMx6421Vt/CWqw3U1w1wdu1gNhY5Pv8tR/Z2Ivfr/XmdDlQatcivNPsYNOVUQsWx8wxhfqapa3p1jc2K2s4lkAHyyZworZtfDmrxWE1tOw2S7cICxU/U7arxeB9Zgt/sRuC6O5KxuW2L7j5av6niv6/wCHM4xoc17mHYaPHOsS3EzI0C5jZhyfpUn2Cze7e7KuSD90jk/hWpqXgTWiYEW6LMsfIbdlTnoBsp0fhPWU1RbuJziNxukG4v8AltprBYiGq/r8Sn7B9TFtDBDFLut5GViQY06/U4rLuNMSZ5ILYOkL43LkkD611MngbWpL9tTtrh48hg4jDfN9flprfD/XfsczeZsDhSFQNtY57nZVfU8VJWf9fiXF4eK3MNNGtLWOLTjKzqhyrHhR+tPnggS5jWKFl2r9/AGfpWmfAHiAWSWxZnbzCcMHCjjt8tSX3gXxHfWkNsS2+OP5WZHypz2+StY4bFRSt/X4mf8As76nM3sMbX6zx28qPuH3icn8M062sIrVZLoyuzSZDIo5/GuhHw+8ST3iSNLITGygysr78f8AfFQ2/wAOvEMN3LOZX2kOPlVyT9fk4rSOHxKd/wCvzLcqHc5e7sbaOAkxFmbHQZxUs9rnSkt1t5dwP3gcAceoNdBF8P8AxNFbyRlTtdVwAj7Tz3OynR/DnxRFB9mEjEPIdqMrhAMdjsrZUcQ5a7f15kqVFLSRzcWnrJbRfaprj5UOAJCMc9uanuNMtbJku7a2nUMRukefBB+hOa3rr4Z+I5YoEaViwjOQwcY56AbKk1P4eancyKHUtsKgs2/dj6bf6VrHDz5r/wBfmZTdJ6pkWkataS2psZZXff2MxP8AWq914TIR7suyJI7bUzkD8c1LbfCbUBOLp2SKPcfmR3zx0yNver0uma9pyC1liS4RxiMCQ7V+vy1201zLkm9e5xz9l1aOQaySNxCkgfuQf4foasQ2kUirIc8dwK6RPhld3luklvOu5uNu87R9DtqCX4a695K20cxyBkAhsg+3y81cXJKy1OOWGpuWjMWfT7OYLNFGwfOBx1p1ppYhkLyuQTwVA61vQfDbxGzKFkc7CvzFW3e/G3pTm+HniIXLSCV9oz9xXJP1+Xiol7Vg8JHuZdtYwwIygEkj24p80Nu0HkyRs2B98dB+Nalp4E8SRxO7A4eMfKFfBOehO2mp8O/E8amMyMVd8BCjhMev3eawnCu3t/X3lU8JBNamVDZRzIm+YoFyVJA5qSO2s7q5a4cE7AAVYDLfhWlefDjxK0UCb23BTkMjjHPQDZSjwH4mg1FLiASEoE+Yxvu9+Nlc86OIe39fiddKhRg73Kun3FpAkslvp7dwYwo3H+tJpusw+c1lBAyRTRgXBZcleetXrnwV4rmvnv7eR4jlgxjjfcR7/JxUFr4F8VrZ3MzOU82EcIj/ADHI6nbXDLBYmcbSX9feenGpRhomd9oHxd8QeGb7T/A2l3stzZTMMXBgBEftnb/OvSbS80YWMZDDcSWaaI7MtnvgYNeF2Om+M9F8ONp9vMxMkoI3I+AMdjtq94I8R+NP7El8LeKJHbczGCd1ZdnJxg7eeteXisllU0e/9aAp0ZQtc9S+Jngrw54p8PrrUumRfac7POeYkuOnt19q43xdpWg+E/CX2Xw9ezWFytnH9qhgnMjOAeg3A7fqOapeJPHl5Y6OlpLezST2jRmKRyQTgjIA7jiuc1bx1cePLyTUdX0m2s0C7GnjJ3vj+8D0FeX/AGG4O8YpLr/SL5oJ35vx9NPTy/Ai1LxNP8QBbaPossscUJ2yedEryHr85Yx8H2rgbXSNdj+MmmeF73xXczaUVLSsYwwjYMOPuc9T3rmvF/ifxH4d8fW0nhi0eSxmuc3MCSNjoeSR07da3vBuneItL19NaivSYJ42crFcKVjOegJbOa6qmXTaU9Hsl5W/r/hjsp4jCyVm0ref9fqddqGr67ZfEO+0HQtRGxIkNpe7NpZgvTAT145pP2cfE2rWXiXXofH2tOurSSyi3862yrDLbeSmBXGReOvEOn+Ib+11OwkuFLq1tciPJU898gVm638XPGDvJJDptz9oQfu5hbjccf8AAuaUsNKlPa/y8rDVanFuz0Ppqx0x9B8Gaj4r1PXle7kskEmnwEEEbx22fyriviRqWkW0Xhm98LeIGW1fUUa/tmiwIxhsn7gJrk/CPxY1LUvCcWtX0dzDqcdqqTxeUMyc9Mbvf0rnPHfi3xLcyWuqaVayujShp4Y4e3PJGeK8+WHqSqO0NHc87FVHN6Pses+J9F8N63HDc61Gmo2kUDNbkQhkVuv93g5rnfilfR33iWOWxsRHEun26IgXAGIwOxFVvBPxb1Dwl4Dn0c+GGle45VCuVXOevJ9ax9f8WaprN+L6WyMTGJAUDZAwK6qOAm0zy6/M0rvY/9k=;rounded=1;" parent="7" vertex="1">
                    <mxGeometry y="50" width="200" height="112.15" as="geometry"/>
                </mxCell>
                <mxCell id="2_muqPNzbiKzWvyuhUvV-11" value="" style="shape=image;verticalLabelPosition=bottom;labelBackgroundColor=default;verticalAlign=top;aspect=fixed;imageAspect=0;image=data:image/jpeg,/9j/4AAQSkZJRgABAQAAAQABAAD/2wBDAAIBAQEBAQIBAQECAgICAgQDAgICAgUEBAMEBgUGBgYFBgYGBwkIBgcJBwYGCAsICQoKCgoKBggLDAsKDAkKCgr/2wBDAQICAgICAgUDAwUKBwYHCgoKCgoKCgoKCgoKCgoKCgoKCgoKCgoKCgoKCgoKCgoKCgoKCgoKCgoKCgoKCgoKCgr/wAARCADwAawDASIAAhEBAxEB/8QAHwAAAQUBAQEBAQEAAAAAAAAAAAECAwQFBgcICQoL/8QAtRAAAgEDAwIEAwUFBAQAAAF9AQIDAAQRBRIhMUEGE1FhByJxFDKBkaEII0KxwRVS0fAkM2JyggkKFhcYGRolJicoKSo0NTY3ODk6Q0RFRkdISUpTVFVWV1hZWmNkZWZnaGlqc3R1dnd4eXqDhIWGh4iJipKTlJWWl5iZmqKjpKWmp6ipqrKztLW2t7i5usLDxMXGx8jJytLT1NXW19jZ2uHi4+Tl5ufo6erx8vP09fb3+Pn6/8QAHwEAAwEBAQEBAQEBAQAAAAAAAAECAwQFBgcICQoL/8QAtREAAgECBAQDBAcFBAQAAQJ3AAECAxEEBSExBhJBUQdhcRMiMoEIFEKRobHBCSMzUvAVYnLRChYkNOEl8RcYGRomJygpKjU2Nzg5OkNERUZHSElKU1RVVldYWVpjZGVmZ2hpanN0dXZ3eHl6goOEhYaHiImKkpOUlZaXmJmaoqOkpaanqKmqsrO0tba3uLm6wsPExcbHyMnK0tPU1dbX2Nna4uPk5ebn6Onq8vP09fb3+Pn6/9oADAMBAAIRAxEAPwDyjxfrH9nzXH9lCS5Z5MPGj/d46Vs/B/XLp7WaHxPor/Y2O0yuQxXPuQcVxzeOtEt9fn0/R5FlnMuJoHXPYdDXU/CPxXoNpdXi6neFIZHw8DqSM49+lfnM3am21fUWMvGN0z0G38C+CNVE5ubljb+S0kEolG7IBOK4XQLbSrDxKdblaSeKBysVurjD9hnPXrXX31jp99rtjYaXPF9iuUbCwuepA/xrq/Bnwt8CaLJNYeLdKZZixayclsN6V8jmGM5JWtY8SrOpKSSZxuv+J9WsIW8QWXw6fzGb5IvLXDD6YrhPiXotl49sU1+y0G7sbjzALu1G0D3wAK93iPhm71k6Hq+oPaz25PkRvG2G+nasrw9rPg29ttZj1qxRZIHIDSKQXGOwrylmtSM9jO9VtXmzwzTPgXZXfiWz0lbm6traRVknkmPTofT3r6rHgPwRpfgG103w74Ztb1reKPN6gQszYGecc9K4bxVosesarY654W8KyPpJg8u9mjdvkOAPT610Wk2EHhPSTp+nXUosrpg28KzbMnJ7VU80qzs2ehg4zctWej6F4Y8E6v4Dh0rxt4Vg0+9kZhZTpEi+YMcc7frXkvxg+DXhvwt4ZbW44BFeK+zarDB4zkjFey+FfGvw+EWkeDde1+C7kc/6PJJwE+U98+1cT8c/CWpeLdN1ax8MBL6aCctDHG/X5RwOfesZ5o1BaG2LThB2Z4p8PjpGhpc6fb6IdWvLkZ8olSEGOwI4qSy1qfRNVmtNd+Gcn9myKROzRITGT3BxxXqnhfwR8O9G8Kr4q0TTJU120QfbbcqzMMdePwqSHxH4J8U+D73ULOd5LtWK3NkYGD8ZB4P49q5f7YnF7XR5SVa3xng+pfBXwdr/AIle5s0uRYTw+ZAQ4yrYJxwPpR8EfhL4cHxETUNdvmW2tLjEcErACUAdDnr1r23VrDwdY6To4tNJX/SIzuiUsGBKjrWTovwmtor+6tfFOhy2kLXBbTpizYYdu31rto5vOcbF0o1ZySuWvHdo9lqkN74Y8KRplcLGqLh/fGKyNebTNbkMljC0FyCguIAyqBxzxitmfz4dRt7HUtVa2FuuIWaIkEZ9aroNB1KK/v7J4pLiPAZzwW4PSu3D4+bkkz36eGny3bepx+r2P9nyCyjuXw4LFt/T9KLu71BtOis7O2d1VR+9LDOataxo1zPNDeramWA/69lJ+WovEU2m6DFE9pIFgcDLjJxXqQxylJWCVLzM68urnUYPser28sbK37t1IGf0rnrjw9EYJL6GSYyqcbd/69K6eW+0q5v7aNpVmSTkMCQBVW9eNp7m3sbYGTPyIhPPFelSrU5RvYnk8yP4daRb6DaXFzP5lxNKeI5HGF69q1LDXb6wvHil08tasDvPB25/CqdhbRwWLXX2YideHVmORUTataG1kllvFPOGjAINdEXB9DSFBtbli7htrx/3M8oiKjaWk6Gs5XeTUUdppQsT8KG6j8qvT3Fmljbvaqmx+rA+3es+LaL5hdwFVJ/dsScGu+nCja1jT2Opem1TVBd/aIfMGFxt3daifVJ5HeQ3Uyucbhv4rOm1+CO+aHeEweFIPP0NRWuq2cvnyCLLAHqea9Ojh6U38JcaWhfuNUuEt/JjvZirHJIbNTpq19Hp6WqXU3C/faTvXMy6yzoFhUlf4tvUfWp5dVWCCMltoLfezkV2/UaT1USvZ9joR4o1JiqXd3MCrZXD9fxpkniG9SXzzfS7gpGC/XNYS6nbSzR+eQwxwc8VNd6lbCUqkYBwMCingqb3iLlZetfE17HJLN9qnYuMYLdKcuvaklswF1Ntck/erJgu4UZneM5x909a0dNuLSeMx7sjYCeK1lgqMd4hy2Gw6jdTKtu+oT7ccEvxmrcGpSyPHP8AbJF2OAvzYzVctaxIAsGQ/TZyc/Sp9F0SXU7xYmKxIULZYkL19QaSoYe1lE0jSlI1YtW8Q3kqTWeouNhwV3EHH1ro9Oa+nsPtq6wmQ5WQGXAJ9+MmszR9S0vTrqfTZpYXkwux2j+6cexq0HnsHaZbi2uFYhmRAPl/U1soxirR62/rY0bUF/X+R3/h7VEs9OiEuoQ8xjcfP4U+3H86dqfjS5uLxLa21VpIyMq3mnIHp6fhXGSa9bX67khRGHBEYIAH0psU8MbKwjxk5LrWrTSOWpiOVaHfv4w1WS8imn1F1CrwEm5J7ZzxWhpetX8jPfrqDFmyAizcc9c5/wAmuFguLWaFGZAflIySavaRrtlpQkiu4h82NgDGsfaNO1vyMHiGkdXBr13bpNC9+zzSHBQy/Ko7e9WrbU9dt9NMUN67KBuZjLyPpjv71yovLNlNwsYZyxwDmptJ1uKOJkeTIKcpk+vSs5YmUXt+QvrDT+86+HWZ9REKxarJtjGOZefy9PajVfGGpWdzHcz37hFwBl8kntnt/hXOQT2Dzb48Igcbn3EEVFd3WmalkLd/IpxgqSc/lURxlWa/4YaryenkWdQ8XapJrC31rq86jnKiTg5/H/8AXVzRNfb+0GS41oI0hywD4A9+Ko/YrSOBn3p5hC7GEXUfSmNbSpbyzJaq8jYChMAHnrmtJ4xpWT1Xp/kV7d9P6/r+rHqdvc3drosEmm63POGi3sZ5ORz2xUut+f4htYYdK1cq8a/LhgCfX9a53RvH2kaZplppF9okqsLcLIxkJzz+ldH46vPDkFjZ694LiFyqlTKsEuGB9COtTHG1JVLbrboX9Zk6ZiLceJ9P1GOPxJqPkW+QEnL857Z4xWtF4U1WcnVtP8RC43sdohmyPfORxUXhO+tvF9rdWPieD7ND1jaQttB56nn+da/wR8T+DvB11feGvEFutxJLM/2WVZiV2knHeuijX52otfl0FSqVKjsc9f6Td2iz28muL9qbgxeYdgXsemfwrlvEA8Q6BC8FrdPOScvmTgf7uByfc19L3/hrwHP4Au9T03TBLqwTeIXU5PToSMetfNHxM+Ic0uu2Oh6f4RuLW8b5Z2YMARk+o+lc2JmoVGpL8F/VyMTWnRnZl2Pw5Z+IvDCX0GpvO4U4iR+M+hH/ANasTUPh5fTTh30h0OxeGhB7V2/hLU77QXhittIivPPwWZVKFD/ukc13XiS0ju9QWeS3MLNbx5jEXQ7RXRLD040VOK1/ryOvD/vEuZfefnjd/BzSJ9RXxH4NskW8hlDXQfOH/wA8VlXvw78X+IvGi6jpkENvaphbiGJsbjxz+hqTx58aV0C8e30NntpYn/esy/LJx9DUPhX40GWwm163jaZo5V8yOEc45yfevha7r+z93uzy8yb9laJ6p8LPhrq/gbxXHrniCIz2LwuYELHhsf44r1H4c6nYR67ca18SrtbWF3b+zjOBsA7D2rzvQ/2jLLxbBpNha6RLcbQySBYQSpIA5FdxqPgTXPiTow8Na9pBETvutZbQ/Mq8EAjPHSvjcwU/ae8eGpVXJKKOd/aD8QXetaha6L4WS3/tD7RmG5gb768+lP8AHHhOw8YadZiHT2h1CydDqOFOGUDJOfyr139n79m3RtS8WWdr4t8O3iJp5CLcsg2OR6k59a92T4PfDKKbWnurOSyDJtjEkQAl+Ucgkc158KFaa5tF66HtU8LUiuao9T55u5rSbR7LS/BWnO1ha2gOoiGIsSQo/wDr1R8NR+MNOs9U17R7a1utJltzGlpIdrxsQQTjqOSPyr1v4ZfDyb4Q+LLvxZdGO40WZHWWwkA3MDwCoxz+dcX+2VaTeDPCcfj34c6Jd29jfuDcQrb7dg4OSPxrCUG4uSeq6eXf0IqVYwXNtY8F8JfBLxcbm9n1gyF9QmeSxdJmPlZ6cV6P8HtC8Q+A/hhrHh+63XHiF5CsTl9xBwO3SuS0b40T6E3hvXLeCW4spnxcXW3cqHYcgjjHaun074h6r428ealD4MslEkj77a4dR5e7AHUVMaftY6nDTrxqXcT0f4Ma94O0vQ5tJmkto/EW8PcQXYAaQDOevXtXjkniS+sP2jLzx2mkQJpFvbyR31nFIcMdpG7HfoT0rrfEHw51nVdcj8cy6HOup2KYcW65WQcEkHPt7VT0/wAG+G9H8M6v4v8AE2nX6XxVj9jliwxBDcgYyRWFalOD5UrI2jTq8uuyIbJfDOrfE2D4jtahdFmgAhhbI2uASf5irvjDxJqF9JNf6jEYrKW4I0yTy/kUY4yR0qpd674P8W/DvS9G8NXBF3/FbLFh4+BwVxmut+GrQ23htvhl4/sY75p5T9heJN7RDHG4duhq6UOZ8rdjqpTg7L/hjyX4lr4/8ReEYPDEptnlk+aG6hk5Iye4rFNiYNDWwtowl5blftDFicjvzXQfEqw1H4aeOYtH1lLuKyY4t5RGAmM9M44rmpPEctjJqdu6FJJFzF5yfeGOoNexhKC5kpHoKta0ept6/qSz6VaR6NbgwRxj7aw69B/9esbWNfsxpbw6ULaWIxYwfvKfpWfpuo67HZrNCuYjkXCOAMg1l6zpc1qTcafaymOfkmKPJU17lHBxcri+OV0Zvhzz9JhltdfRHE0mYGDnitfRLtLWyuU+zKbxv9Vz+VZ95Pp9nNaqzl8kFndPun3qG/urue7k/syYF8ja6rx09a9mjhY8tzRRilqatvdX0Ks0TRLcZBZJOMjvWPqtvqepa4upzGMRIuJI1bHbrVuW/m1iyYxW6m6hX59q5zXOxa/LCZbe780S/wDPOVcfl61008KrmiVtjooZ7aG5id0XyOowe9MuryOXUTJdRKkW79yT0xWNLrHn2NuI3GA3IUcjj0qOW5vJT5d3Iuw/cbuB9K9OnhNEmXZSYvim4urqA2VmkSsWzuU9aoQuWh8kRAyKvzgN7c1Bc3cgvCjsVAPUD5T/AIVHbanGplCmMHaevevXo0eUXKyWaRxCFhjJUY3c9KSS6dIVAVSM8Edj9KzbjUJzDujHyDqG4/I96rTas8WwbdwLYyByP0r0Yw02G1oawdojukXJYcNng1pae6u5DRYfIHJrBj1iJ2jDIOn39vP5Vt2F0PNG1RnK/dGQaLKKuhWZrRWMSEs8QJwcgtU1pplxeBkggKrgfw8/hUukW8t65la3cqM7toHb8OK6KSFdP0hZLQSgvGN22E5H4kHJqX76u9iowW9zPg0bT9B8j+0Fdy0v3ADu6d6tTXP2u8S4s9W+ypENqARkE/U5qGbUT/rWvHJEfO5R8pz06Vnz6jO8zPNKrBjnPr+GP8aiFCU/QJyjBWNR9S8yMQyIpJJy7Kcsc8HOaiV5VkyGY4HQtz+BqhDenzdjqoUnjDZX+XFWBcRO7KI1B9C/H4V6EcOoKxxTnKW5rWN3GoGATwN/PNaDzo4SQA7c9QeR+Fc7aESkMUBAHIZwP171rq6KqeXGSpPZvmH4USpRT2Oaexr2l+sESmQE5BwR0qSG/geUlo/nyu047VnxzQpGsj8/j/MVLHOjzGONRuOCCpyMVyuEXHYzeiRuw6irgxom0nO4N0q3pgjKsxKkeVyCPeseNxHHhcBxknc3FW9EnkmjkHmlR5WDke9clWCtdd0RL4kbi3MBQ4Kqm7nI5HHaon1LT2jQzBwEDHeF5wPSqu1DEd07gBueOv61r6LpUE1n+9MjqyNj1+g7VjFUqSvI0V7bjn1y2vbSK8s7u4KEFQFTHTrxQmoRzqrgEAjjc369KgtNP+z3O0OXQA+WvTB9DVO5uJhcmwntxG2SS+f8On6Vz1vZ1J3h5Fr3YtGvqWu6adFU2sDO0cf7wL2rO0LVtW1CeHUtK3Cyjb97bzzbTnPoa1tM00yaLDJb6YrpszK3QMP61yXxW1VrGziu/Dtm0Kq4EkUjYYn2Hf8AWtqC5ZaLVnNO6hc9A1PxQ7ptui0dpOApeGTOw9D715z4VvfDXgv4jTrf3rTq0m+GRpzwCTisqDVtcuNMgkubgqCSSI2IPXuOP5Uy/tbF5nkktIppZY12OV5B+vauijQtNSkRSnOLTR9SaT8ZYJvCMul+GnJvPLxukYYbp3ryb4jeLL3xLeQvb2McV3ZrunAbBbk/41leCNZksPDSaclgUuo+PORyQfxqLU7k3zLOsW2QJ+8fGNxzV1oJ1HY2r81Sd7npvw1K6tFHfWdwzXJKhmkTBQ+wxzXpF1PqDSKL2aQyKiqTsAzgV4v4Q16/05YrbSpGV3kXJk+/+HNex2T3l7aRz3bSmQoAxB9q76ij9Wtbr/mevg2lpf8ArTzPzX+PHhnTvEenMumQrBco3zuVHz1z/wAGPC0+i6gdQm23MMbASwbeCO/Hep/FfiTXPEXi59LtNPeJo5gFkPAfj0ru/AmoHwnZyp4k0eNZ2I2o8gBIx2HevzqvUlTotebODHL3OZ7HWfDf4g+C/hv4ybxNe6Kv2Se3dUgeHhX2nkDp1Nej+EPiZq1/YXPiPQorsHUJCILhQWWEE+nbGa8+0AfDr4l+J7DRdOWXz2RxMjD7pxXqnhTxPrHwSmk+Gnh/w0mux3xLK0ajdb59c/SviMzxN52kj5+dX3ktkdx4Xi+OkHhK28NQ+OLaVb+YP9v24kj49eo6V9JT6BP8QPhVDa2epxf2lpJRpp4znzcAkg89818MSftC/FD4a+Px4X8ZeEja6RdTbbO8aU7Bkd+elQaX+1n8Wv2d/EOt2fi7U5IYNWlB0xBlkYFRjBFcWFxDjUcakHKLVv8Ahj0KOLjezuz64+PXiK20RLDxJqlpm30e1Bu7WBsGXABzgdeh/OvAv2of2lbH9oX4WNL8H9bCWtunkXlnNDgxkYU5H51qWCfFT4o+GLT4ma/4niMbQuJNLmIxOjdOox0Hp3rzfx34S8QWVnc2Hwr8A2xt5cTapCl2isnO5m/nWlWnKq3OKsnrrbp/XoOpQr13o7JnAfADWdQ+Hmgf8IL4lsk1ODULl2hlEIZoSVH+Fd23xNsfhv4Pu/CltaiC+mn2R3oTBUY9eorhLX4/eDtC8UaVbLparbWb7NSdX3PEwUgg56846V2PjDw7pP7RHgzVNa8BXTQQxMWS628Dgdec0leC5pK1yI0fYQaW6NGL4x+K/GsMPgLw5r8mmX6gEXEy5WU+mfxqfwv4V+Mk/jZfF3xM162uLSxjMbW6qAsy4xnHfgfrXmb+Ivi3feEk07wZ4C+0alph8uPUI1CrKw6fjxTfh5+0B8XfE/h3U/hx4p0g2viSIM8dvNNyyrkkj8KzcJzi3ZNdddf+GIhKMlq2fQVz4W0Twb8QLX4r6bbxR2F7ahBZFBtVwpJOOn8Q/KuYg+MWj/Cvx9P4/wDFpeW21C7Y20sfzC3BHAx2/D1rzTU/jl4y1uz0XwK1y631soWeEk5GQAfbsa0LvwtqVl9osfE1zDqUF3OWjibG6HjpyPauuhhoyktDeEZSa5UQ/tL614l+L0sE+m+KFa0lPm28uz7oyRWLDrVzqWnrpt2FM9qihplj4YAUzUINV8PypPq+nhbCMFYpknGAM5xgVVsddDW91HNG0e//AFTryGGK97CYampJM9Wnh7LmZa1bxM91LALUiOGFMSJtxuOKhuNZ1S7j+0aZqgCFNpiZORWXqml6nH5WqRPsVQco/O+sfXr/AMWAIdK0otGRmRc7SK96hh6cpLQ1Si2bGl2cumb4tTuEn898qSvK0faHt7K50uHYsrniUjpxXPReIdTupIJssEj4kAbJU/1oefVdUu5hDOVGf9ZnGOO4r26WEhy3SLSsbmka9a6bZSact+I7knJJGQ1clrFnqVz4jOvS3ylVGDGw6/StBEmETEKjzJxvxw1Z93fvZxtDcR+XM3IRnBz9PSumOFhHoPkujSg1FY447gxAgk8beQcVBNqc32g+ZMBuORjqPwqu9+JrWGLJLZ+4Rg9PWqdxHcWtxuLl93RQMsK6Y0opFK1yW/jmuJGh+0jBOcqOPxqBHURvEgTKg544NUo7zU/t7PcxEIDw4OPzFSpdXBErM5GQcEDiuqMddENdxs0wNtuGwAdm/pVd74MUjCgqWwCB8wqBjfNGWCkA9mOc/SprOwu5pVD2z+Xu6en411pKMS7XNTSLSKZVyoBI+9jn8a67RNGvDPtVOhXDKoHGPes/w9olxEYY0hYZjyAxOevaurW5RN8ENv5kgAyUk+Y8dyTxiuZN1WUorqOaJ7axdLYyCUtg7GGeferFjMum2kccl5LvGS0cuOOPUiq0dumnW28+bHMzbv3kuRyfr/Wqd5qM7s6yyZbuzcg/rXRTjKTJqztp1JL/AFCCUmRChOMdgazbi8DuqZQZ745qvdNt2kTZOeEx/Lmo3vnjuIw/II5B5YfrXRGCirJGCjrcl3XS3e1JE25BO3p+NXrXUFjcjbESM/Q1TlW+a486MAoADuB/nzUcF/IZnzs74KrkH9a6ob2M7aGzDrjvtYwxqoA+Vz1+hrVj1aQxq8SJnPQN8wrlIZ7+SHPlIo7BxwfpV57zVlt0FraIfm5XGD+BrRwi0jGcU4nTwXrrGDKiuT3zg/iKnt9VdHaMRIDxhw2cVzkOp6lsRWiTd3BHzCrAvdT+0FFjQggfOoxj6iueVJW1MXGyOvsryS6jwFUNkjrkGtHRXkgLkOw/d4IP1rm9Cur1UxsTduOGQcGtiyvLs7y1kR8nUP7/AErzq0FqtDJwvNG7HqQWMxyRuVaUAgDk8VqWl2o09I1sZPlfCjdgnJrL8M/vCLmSAjbKNwLY4/EVbVbcSGSNzgSZKGTI/MfyrkqSoxi49y7NO/Yv21xM75ZFUB8BWPI59RVnWLaJrR5ZriNH7OT0rAfXtYS4eIXEZQuNpC4IGf8APeoPEXidbhnsbuRUUj/WBeM+4/8ArVxPCzcko+QnO8mdRH49TTNBsxJDCY4UwSnHmdfTrUXxS8PWXjHwtB4m0CBICg/eRP1J56VxNj4lS5t7a1vfKMMBym9DiT6f/qr1Nbi38a+C1j8P2cVsyxYe2PVz7HGcV60cHKFhcv7o8QsItQ0tla/cToWYMobDDnuO4rc/tNIVZY7IMGRcNjgVQ8VQX2jaotlcW0UhRiWjJO5ffPOfzqyb6Uw+Xb2oO6NcsOMfUURTcFdHPGNkka+i6jdPblEjEbbzllbg1dF9dXUJ3b/3aenWsbSzeyReWYlVlY4dB1q/ZG6eIrJE6/u+u7rz1rKcEpM0e53fg8NcyQwxxypllBDnn8+1ewaXbzxWKRyCQkDqXrxbw49y3k21vC0QZ1Bw2QfxxxXtGh20o0yITRBjt6mSu2b/AHHz/wA/M9fBO0v68vM+Errw1pfii7K3eLOa3lBhlQ4ZjWNL4NHivxiurajr8zSWmERGPBAx/hXB/FD4j+MdP1OS11SwMEKSf6PMBgnj6H3q58KPFOu+ILKeKwmX+02kBiSQkl1Gfx9K/M61OrKk2u7POzG7ppI998FfDY/DPxRB4/0rc0lzbuvl4z/D1/Wu88D/ABCsvhBqE3jPxDp329NTc+c0Yy8Of/115b4R1v4neJ76y8NR6Wq3FspM8TZJ2kDJ9egNdrP4ea0gnsINfSdBlry3nc7YW7gc9iK+Tx+HlzqTPAmqiatoZn7SnifTviUtl4Y03UbgWVxcebG/kjdHwfx7VS+Lfh7XPij4GXTrhDLJ4dRXt7pUG5gq5wRj3rEsPiFoHhWafXfEGpadc6fazFI5CSShA7AjFcXYftV634Z1XVLHUPDrXFtrMnl2NzGp2kEYA5A9O1cdLC1XJW6FUZfvLN7nunwO8TePvi1JFp9nchrjRbBlisXJBk2qP8P1rrPA/h572bXvEM2s3ml62Yfs89jKDsI+ZeM+uTXAfBlL34P+NdH8bPPJa6zqUbfZbI52yq+OoOD3H519beO/gNqfizw5B8QEvdKsNTlgSe8hO75lwG6Dn1r1qOEWIg/Z7o+pwdHngnJ6nyPon7JkWn6pJDLCZxrk7tcGRTwxGTjI9q9B+HHgaD4U/D3UvgdYHaLuXyzPIuAAQO9fSXg7wtZeNvBOm+JfDyabPFpErJqCRRnIYLgjp7ivO/EHga38R+ML7xPqjxWuiPLhrmLjyzxznoDXHi8NWoRWt7/5GGJoOkpcp5b4Q8d2ngm//wCFReKNBktX3+Za6jAmVfHr/wB9V4R4rW5f4+XXj3S9ZkkvLOJ44wIxtdcYwcDHQV9N/Hnw3p9p4bn1Ztf0/ECBbG9kc7zxwP8A9VfKerfEHTfBEN5oYjtL7XLwF7eWDLblOTjOMjgivPpqftLL0Pnqk3B2bNu9i1K08V2vxQ1K2KT3KBGjC8DA6/8Aj1bd1pes/YJvGKyveW93MWl8oktFkVyPh3xlq/xFsrLwvNoMkGoW6gywueowOR37Gu8+HV2ul6zP4CtLkyrPMRdQSn5Yz35/Cvcw9FbM9vBNSs2cpqmm2Oo6VFpJ1yd4ZAWMcpwyHPpVdo/MsmsQj4tsES46gVvfE/wtYfD3XYtUm1CzksmbGSxJU1g6grWrTl4w8U6BoZIjxgivbw1Hlmk0etokSahqMurW0DIQot1x5f8Ae4rP1TVYbm2KxNJC2zayE4FKmneVHHcvP5UgB2ov8Qx3rI8SlncNHIinbl1ZuD+Ve9hqKc7ke62UbLTxpLGC2Z5RM2SCM4pXkuYfOsVl2Fur9xxVFtX8x0a0DOifeCdPwOKrXss1680zl1jB5dh8w4r3qVJJIuKsW0ufIRomncMOQ6Cs24iSa4OpPcOzqMDHINOtfPvLJhC7EjgSEVSmuDYkWkhHnPg/ICc/WtZRSRcoqxoiaSPyrhlIyeEYfrTnldbkSNISCM7R1FUJ7omKKJlIbPKt06USeXFIArsSRyvYH2NOCTJJ5llubhlZ2IByCeCKZHb3s0jqpYbQfm2/0qKCe4F3hgWG4bS3UVq6al1JMTJA+MH5h1/KulNQ1CKE0nSndiZ4sLsGfQ1vafoUZaExxMImkxyeOnamaXprXKNPHanChdxxnPPpW5NJ/ZaRpbwxqzP911G78OMA/nUtufkbRjpdj40js2jsFt1klK4A8w569OvAp1rokVlG+o3NoySyZw6TEmpYLKBS19d2UPm5x8j8qPbCj+dU55ZAciR3yeVPBH6VUYzctUKdTl0GzzM0mGnYgL1IPFVZ94RthPTqOhqQGGRmaRnBAOGxj+lESoIywJ+7wR3/AAxXSpW0Ry76syNRW6SFWhVs7vukVXt2vNwWRWOR3XJH41s3EEksalIH3buhHB/Tiq32G9jmEUEbfN95ccD8cVoprqVdCQNetMbf7S5j45xjFW7aARFmRy2M/MUqJdOvrecyTvmMEct1/lVkRTKGYFyCPlIX/wCtWnPZmbsSW8zPb7nYJ/wHINX1mH2ZfLIzn7pHFY1rBdSRb5mZcDggVeXzzEPLYglujdD/AIVXNcxkro0oNyKmF3E9mXp+NWYkkeRgwHb5guCKzorm+jVFRGPqMf1q5vu3bYucEA8jkVDk7GUloaunSLGwXd0J+YDFaNpO7liiclOBnrzWBYm6Z9hkDcfePBrf8NRiaRvMVQQgy2Dzz261w1ZJSd0Cjrc1bPU2t7SRGtgpHK4PU1GNTvnkMZgUDG5QoyPrUmpWdtLOfLt1Ax1UHH41TuYr2GQzWk+dwwUA/r/+uuWbp1X7pStBtWLTT3Qk3FA2cc9CKztSkkE0jOEOf49nNSqdSDEO24YGQ45FVNSbUg7bT8mPvAcg1tTVpdOhzLVsoz6/dr5Us7Kvkf6pfKyG9sVqw/EnU2tkvIL8W8q/K0KJhWH9KwjZa1OyzSNtYDMZEfX6is/VdL8U3KpJJMImDfc2YVvrXoxVOelxyS9mdNqN+9+6X1zMszuCSsg6fQ0+3u50do44kwVHO3GKxtOi1N7WKMToWQnKbcj8DxWlJBq5cLGowVXcWHIrllCMVbQyWxsaa80oKu6j5z8y8Zq5b+c0bMwPyRkD5uvNZmlWeolTFNMpAY4bGDWjbW12sBEkSY8vjB681zzS5n8inudt4PAuWijaFEQuobaw2/jXsujW0cGnxxqIiAODu7V4j4eiupjCuI1QOuWRvlH15r2zw8gj0mJDNAcDg9a7J/wGvM9XBfF/Xl5H5rfGaytfFcB0bWVVCj/uSvB/P8ah+Bngs6ZK9/pMTpd27ZjZmyGH+cUmq+EvFeq+MDbeJ7gxWc0wFu56Dj1z9a6Tw7bQfDXWX8LS6z51zc4aLylUgjHQ/mK/OZ1FTpNX6nLjElT5mdG3xb8S+BPEA1uDT1N/NbtG6IcgjbjP61r+FbHx18R/D9xqqWH7q5Y/bcPgr681B4Kt7f4geOINIuNFRJraNjKzKMMAOvp2rs9K8M6zqHiC50L4Zai1vCjEX4K7kBHXFfLZhildI8KrL2jSex5hrX7JfhjxDarp+lXN2IpX3Tx+fnB/PrXY+Af2cfCXibwvNpMcwL6LKHgeWQbgQM4/WrF1p3jP4NeJk8S6r43Fxo93PskhMa7kJ/HNS+K/CvjX4K3Mus6HfPfWXiSVfKl4UoWGO2a8mWIrSla910Clh5Qmny/id54qaHwx4g0nWLqeOXVdLsgdOgbDCQBVOMfgK7WL9rFfjP8AD65i8VaVJoeo2REMpSTaJFB28fUA/nXC+M/gnoy+FtO1/wAX6nKNea332JjkHAIBwR09K8gu/Bep/EDWrzSLfx5/Z13psQlliCLtlC5OOoGflrehiqkU1zWueth5zpztI+vPgh8VtN8CadaeFvANyDBqczNqMVxIDuYryRz7CuA/ai+M83w78M6jYWDhNNkuyZlDDKjbXzD4a+NHjm28TQa5oumSzDw7KyXKE/LNgEE9eOterWmr6T+058HNe8WeNNFNtaBDuG47hwOnf9K6ZTqOmozd0vwubYmsqkWos5LWtb8Y/FeWPw/4+02caBcqptbyGTZjgYJ9Rya5Ff2ZvDXh2+k8XaVrlxcvbORC7T52jPQ8+1dr4B+B/wAVPiF4Lbw7beMDpmkLMI7Cd0y6g5xzmqPgH4d+JPC/i+8/Z+8V+PjezzRPNbXioozgFsHn3FOjRcFeD+Wp5EMNCXvMls4D4bubTxghC3U8Ox8P1AH/ANc1Da+L28P6lN4j0O3+0yzzFrtW5wfY1L4i8I6wPFVr8Pp2Be0jBaTcPmGMZ9O1Rat4X07w9eS22kS4dZCLnc2VzXuYXlSs0elSXLZWKXjCPTfG4ij1MuqyDc0Rk5B+tMgE50+SxPMNuB5TGTngVmXsdzopGrw6qsyFseTsH8wam0+HUooJXuow0c4ypJwQcdK9uh7PmPSgk0UNW1a5edHZiXVcIqnrVS+t7e/thPdxGJ+hJbg1s6z4TVYIry4k/fYzGFOKxdZ8L6hcxreSausARcsuQQfwNevQlC5UVFuzKMWnx6dKkFguVfqd4x+FU9UvEt45rSaXbGeuSM9O1T2BN+ovrOYP5DbWBIw368Vh6jGdQa4lnJWIH5lz147HNejCaNXyx2LGm6zGLV7eONioyQ2eaqSxx3Un25BmVem04/OqaWUklg0dqSq9j5nNJE1zHbizLh34+YYBH19aqckzNtSRfuYboRx3btgk8/NxioprgrKuw7t3By3H4Ux5bqVEiXbuXqQeB9afFod/ITJbMoL8HIyPwx0qVJpXCKbZp6THMLhYnAbLqV3kZrtNGtY7+Ro1gA2xn5ifQfrXLeGdA1iK8S2uJk2lxyVLY/HIr0GER6Vp7eU6tIQQGKc/XAp88pO9tDohDQeZbbSNPVo1iDuq/ewT+VWFWG7UzaikJcR7kzjj3+tP0lWa1huNRu4JwQcK+QQcdcbhUF7FbyuXi4LD+Fjgn35roirtJrQmUlHyKN6DC58st16bhg/jUE0jsdqH6hiP0qy8R+XdGDxzh+D+tNeIJIdqhVyMhm/lzXbG1tDnbb1ZWtYJJC3nq2BnByM1YtYIFQljzgYwRmpbWzkcMJEO052kvz/OmGxkTKF9xI4Ctgj9aGiW9CQqVRXjGCW6ZzSJO1u2EXdn72OlSLp9yY0AQKwbk7s8U6Sy8ggoASfvndxWM5crRF9SrdpHcTbJVOzg4Jp8Cs26KMkKB8pLc0tzBiQyBht4wCev0ptpbzb2Z4/lIOPn5/nVxqWYWQqW8jQgyOd2ONvU1N9n8qMMSQxbnniomhlWINLL8wHyhTgimS293cxqyTAHd8xDfzq4VW2TbTcvx+bGF25weuDxVlWYNsdzg464rJj07U3K7ZtwA5+f5f51cNlcxDJnwMrkHkVblaO5EoXRuaZgEF33Yzgd63/DN7Z26EXzRxSMnAwOR7VgaDC8kqxtMhGTlivNdGLeGKGJYlRtsYAXAB/E964Z1Y/aIlBk8AluzFKsqPvztVSATz1+lWI7JlhJMmc5yM021t4neIqoBT0OM0k6zpCPJbLZORniuNQS1j1JlO5FJbrFKQWyDt4ZqjvXjXcAnH6iq7Ldi4ZkfapxlWOQfp6Uy9gvHc7C2zkEZ6V08m132ME73GPemJFkKtkD5Ag5q3qbJqGli6uEcSDgHGB+IrKj0i/YKbi4diRmIK+CKupYXt1AILy9dJFPys3T8RW3LG+jJl8BQtbVLBUNpuUuxz3U81qxwX5c/OApRc7uo+lUbnT7yOSMQXDMVz868qfw7VqQw3pXHmqqlF3DrWbk1DczV7It6dYMnyzzAjecZNW40T7O+NmFjO3B96hsYgMwy3GU3nG76VKhCRMDNGRs+Ube2awbbk/kX1Ou8MMz+TLdsmwMuWCkAD6d69h0UxR6bGIp1KlcghK8b8P7pRC11MCodTkpg49hjmvZPD7x/wBlReVcNtxx+6/+tXoyf7hrz/roetg7c2v9bHxBBq3hvS5yPHDrJDI3+jkLkJ+X41Z8O6Z4C1rVn1R7WGbZKuydf4R2rwr40eGvHXg6wfxHqWtvPZXDZhjHzBOPQjjpVL4D674j8YCXwQdYMbXEgaC6Q7dhHQE496/KcVh5zpOUX1PIzWcnCyR9w3Pg/wAI6THp+r6BcW63VzA6tIBg42jjp71ly3Ou/DfSpfE3w0WO7unlK31vuDbjnnjr3rgvgv8ADvx94i8aReFfFHjRg2mRGRJzIQrIBnHvwK9o8NXvgGxvr26vYZIbexdhc3ETkecRwTjvmvjsdGpCZ4kI1JuLk7I8+k+GXxL+NXjDSmHhdHsbpw9xBGCQpOew6V9A337LXjDU9GutEmt2ljsEV7WExFhGwUYwQPepfgb8Y/gVoGnz+PtI1m6Z1m2rp8khzjjouK+gLzxR/wAIj4WHjDTbqSa21t1Dh23eVkYH06Vjh8Kqkbzk9NXbou/3n0tClQow9138z5h8EfCzXfi14iuvA3iy7lstRtbRlsJWyF+VcdTx6Vw3jj4d+HPghZ6ho3xV0a3e9dgsGpICGkGeBnGD/wDXr6z+Jul2uhS2UOkQxNqGqRB4tRiwHhzjPzduv6V4L/wUG03wDpXwpt4fHPia4k1O1hEsdwzDLvgEAnHPIrnnRlSm4ST5k9/XpbucWKrezTlbVHlfg7wH8NLu7sP7NsEt/wC0SdxZf9blSc8ilu9F0nwE2q+ApY44NLaf97HFkfLge1eefs+6+nxx8GW2vaPrQ07V/D1wyxws+DOqqADtxz1NeieDNLhs7XUvi98Sb5bqAnbNpzfx9OgP0rrpSnFuMlqctGrOtF2Vv61K/gnxB8QPh142i8NpbRX/AIXuxuSR+fKPGOR9TXLaz4bvbvxnq3i3StGbzIw/lXu0/uuvQ9K9o1nW/hRYeEm1y5nuoba5KiOGJt3lZB5HBxXkHibx3out3s3wt+F2uXM0GoxMxvpiMxOBkjdt45P6V3Jyb0Z0qMYQve5S1eW40jRbHxVqd6JL2Rdjz7OSABx+pqn/AGXF4j0WTxF4bvFedZT9qilb7xxzxWdo2heNm8RxfC/xrqKFbOISR3QAAdSD3xz92tPRJbeTxrJ4f0dDBbW05W4mi/5acdcd+1e5hZWWp1UqjsnJHPTPpM00dm+npvI/eKi8ZzTJZIxBNGxQJGMovpUPxi1fQ/Ct6NU0a7naQvh4v4f5Vn2Vw8tsbhbpWjuFBKtzgkV9HhuVnfCa2LM+px3MSLcTEyqP3eeMVka1qCy2+y8KAjjKjk1evo7CzWOK4lDyMuVJJ4rK1iDTZmSa5vGQqucoME161OyN1Ix44BHeommhI43P7zOfm/CquuDSYLS4ZZVVAPnQHqajk1CbUpGvbO8WEWzEYbq/1GK5b+3m1OO8vZ3/AHaZ3xjo5/KteeSegnJdC5bXlubRkRkEX8JLf1p9lLHfxGKN13rwCeMf41mw2MWtaI0a3Cwxsw2KBjB+tV/DunammvDRri8cRqmY3IpyqyUTNt3sdZZ6T5MCXImXzc8kDn8q6DQbK/8AKQW8e9j8zFVzmquneHdRaOBEuCxLctt5PHTPSu70WO307TIw0dwLxU6jH6AD+dFOdSrodtKPfT+vUdYQNYrJJyHCj5fLyc47AVY0l544DPdXbMTJnypI8E89vpWfodrLJHcX+pXNyjPkxxyINpHpyP8APvVm41F5x5M6xsAowuB2+iiu+lFuKaXqE3yrXcnv7oSStKuw4PQcVFBcxcBk+YngjNVZpWcEAJg4wGXp+OKsxlCEV0QMG+8o5/lXSkoJJaGVru7LCxCdlkUDpyTn+VR3dttkJTAXI455qzZIsoVoCAQOWZf6YqeWwU5maQBcjK46/pV05GNR2KNqZApRkG3BwN1CFdpMgDNjjnGKtixjRWyE2t0UCq50/AKBt3HG7t+lbKSaMXIVXZlVxKAwbkg8VHeOPJL28qkj75J/pTm0maRFiEyAhuq8HH5VWudEMkgWGQAj77etRMaauVv7XtRciGUjnHyjnNTpeJIXUuqqAcDJzXO+IYLPQ5zeOXJ3ABVHB/Sr2jbLmH7VG6bZQflbnFS372hS5S4bqJoF82bc+PlGelWYJyyKpK7t/JFZ8lpbQRqJ33MR8oPQfSrMIikMag8huoGDSjOxVk0a8IdQjrIgGOTnr+FXN8KDDzgLkZA5zVCG2EsamOTkdSev5VbjiAuP3YlGdu7C/wCFQ6zuSoRejNbSr6K0kSZ5mClyFwucVoSXZeYt57n95+7QKSM+9QmOJNNWBoyo3kkFCfxPFWLRbYQJbucjtgcCueWIpzSiLk5Xdalq2cxyMDNhtwxipGuJMhd7E85NRrp6yXA8y4HzONrDsKbJY+YzGJ2LI3UtyacZLlRySXvsPNxMfLOBkZxzT55C5ZQ2B0xniqAtJPtDSK5XkZCk4P1ps9pcNI0inA6Fd3H/ANattG9+xik9QuGnVFG4yPj9382NtRy380Kp9tyHDDDl/m/+vT4NB3xKJZd7OvybnPy/TmsbxL4Ua0WM3c7ZDZDK53Ct4+zb1ZLS5DpobmKW3iaNsFt2XFTqXSRitwQhRcgHrXI+HL+LUYltoZGBjZhuLYPB7iuiawMx3/bDgIu4K3BrKUFFbkLVGxYtEMlpsoXOAeRU8coa3c+aD+7+T5ay9MgtbcH96xUucc5q8jEQkrPIfk446Cs3FJ7mltTtfC86QrDNe3DHDrgMo3H2Fex6FNE2mRtAZSpGfu14j4cjlUw+fNMfnUhG5Y+w54r2rw40TaREUinxjoW6frXZJ/uWvM9XCW5v68vM/Nnx5r1hNYvpuo6gLmGRsbS+Qh+mavfAT4dLqcN3dwXUKKjfupQAjKcHGKyJfgW2h+JE8TteTajb3c4+0QRkkxjH19v1q9qsg8KeLE8L+AtNuTZ3CgyzPGw8tiBx+pr8wxDiqTUWeRmSioczPSr3SPiNoeo20WiajcG4ljdTcHliuOn5V6T8KPCEGt+ELhvEPik2t9ayEzwydZcY6ivPvgJJ44vfiBFpnjq5lWztYWe3lkU8jbkD9BXpekeF9I+MPj+5N3L9jgsWKp5UmwzYzzxjNfFY9y9olueA3aSludj4H8afCuNobRY9PF5ZviaJVXDkDuAa9K+FH7dHwi8X6Fr3g3Xpkh/s7KoAMrkL1Ge/NfF/7S3w90f4UaxB8Q/A0tyuotdYuLTLEOuPrXH/ABd8K3HhiwtfGnw91V7ePVnQ6tAkf3CRg5z9Kyw0qlKpeMrc3l+f6HbRxlSM1FWPt74oftM+DviX5fgfwhqcyXF1auNP1BY2AidRjqM9yPyryDxPpnxFu/Al34T+PHiW31GeOQf2Y8uN7ITxz9MVofD7x58OvC3gnSfBGnabb3s91a+bc3siAGJsAnnn1PftVmTTvAHxD1bUbDx14RuZrSwsFew1KNnK+ZtOBlW9QK1dKGIbcnqejDCUsU+abuzxvRPhafD/AI90Cx0rxCmmTXE2Wgt/lMg2n7204/Ouk/afsNc+G3hC61g6hJLbRyb5reNcqRj24ry/VPhp8Ude1268WaZqMlncaTcuNELBt0iAcY554J61798ALTVvGf7Nusa/8XZvO1QxlRaXC8scD14/StaeH5LO/N3HHCxp80Ujy7QviRY+BrWy8e3vi22utDu41NxYT/MEHQ8Hp0NdJoPxW+DGu+FL/wAUeC4baEM7ZkVQCpyfunNc7H+xd4V8TeHp9X1PWpbmCe5xLp9tKcRqc54FeQ+E/hz4c+E3xkn+Hen3lw3hq5ifzvPifEbkce/UmvRpYWhUg2pO/wDX4jpSilZo9v8AiP4/0Oy8N6Rqdtcs91NFzNt+cjaMDOc1w1tr+o+IUe98NTta31rMRK5Ugycd/wA6bfadZHx9Z+HTqHn6RaxqbeUpxwDx+gre1fWdEvdTmg0zTlRIpSFeNApfjr0r18JQ5DdQu0Y99fNrzxpqUMc0iriV9nGc9xVaxtreKO4lFzlRwqBOAap6xLbWULX2lafKl0W+Y4P8qZCslpbtPDdMDNjzU28Zr3KOktjspqKRHq11EkkcMgJdh8rP2+lUNU1CBVjtLmcM3Yd8Vr3yW0VrHHwXcfeIzWNqeh6VNIkt2ZGcDIBH9a9SnzNGqfczNQtLa4v44raYxjPzKE5I964zxnNaWcVwdMj4B+dFTAJx3ruWS1SL7TI5SSNvkXHOP61xetadqM7vqsJJTzcNGy4zWqTWrE/Ig8MW10Nkt7MY7WVQQD0z7V0mh+Gr7Ub97yF5CoAVGxzj2NP0PwfBryM8okj/AHX3Y2z29O1df4Y0ay8JQqv2eSWN14V5W6+vvUzvPQ6IU3vLY0tBEWhaZHZX8bvMDmPc5yOPTv8AWtLR4ZdQu21KdLiLy328sMDvnGeTWfa6VDe6ot/d2sqpBGHjQSkA547t0p+paley30i2N3IED/6vJz+PODW9GnJx1VmjVvlWpcm11rjFrLcgxrkDaPl696qrehHZhsYY7LxUNhDNKxecOGDfeUkf1q1aRSIjlWPfPHH869aMoxjYxcbvUjO9wGBAzggMOPwrUiBaONJOTu5IHPSqERhBEO4gtj5jyP51u2MMMkYtroO2Dww71E52YBZyLIVWPjaOfl5qe4EfLBjjIyBTLCF5JNqbk2/dJHNXXsreQtcF2OCMiohOyOeorleFoo4zI8ybSOmKgOoWqxNtkUnHGQKttpsbxtKZG2t/Ao4rObRreNjHEzBWHJIyK2hJPqYtIiN9bO0f73nfycVIuowTS/6IVDR/eJHJpkumWYaO2e7yA+RkVNHJZK/lwIAY+pC/MampJoEtTD8QwnVbr/VK444C9/eqnh/SLiO5lLz5Rcjy1XgV0t1PpaxtNHaObjIAGCP61Ut9LazlOoQSFXmH7yMD+dc7m+cuKVylc2tvFDGJV+ZuhYdKtW5jSNUYjcGGCVq9JZRpaKZ8EsoxkZxTo9MikjUMGYg8Zpub7m0VoPtfJbYUYlsEkL1NOuL97C+a8ezldIwmYlXj657U6Cyi+RmjZSqkA7/fpWy6W9taszxdVU5D88d+tSp8vxESinqJYahDrMT3bWUiIFACJgg/U5rf0i1hQK9yM7kBB24A9qxtH1OGOEiOSQhzx9K3E1H5U2SdIgBgYArBpTd4mc2+SzJgYlvUgA3KW4bb09qdc6RKZ98agAHgkgE1XtL4w3sXn3BKB8kkZ/Crj6jb6zE0SyLGYnynYmtFTcUvmc8ndmTdPCtyx3gbT8wBA5qjdajbGVw0sY9g3FW9ZhtZSzhT5qnGV4/P1rFGjRi4a7edFYj5wB1+orrpxi9W+xzrqW4tVtUijgSeIvION54FXtQjaXTfst5sYsflxyfzrLsvDen2sIeO6V2lGcsowD/SumsP7ItrVbHU7cTIfuuvb/61VUlTTViW48tjlDo8Fu0KoURjuIbIDHmtldOjyXZzgRrnnANM1bQLLU7iOaIGNEJ8vcOR+NTR29s5IklyURQcnrWEKjcdyEkS6fHZwKZF5UueAauQupt2IWT5kJHtVWwWzXc0a5BY8LUyoiIWWN+Uyfm6Vb1luaqx2XhvbZpC86Sk71ITdnP49q9m8OlZdJidLZgCOhevFvDVtGoh2xbjuUhUcYP1OK9p8PbW0mI/Y0XjoXrrk37F69T1sI9V/XY/PdfjB4b+HV3Lc2k8d4zvi5hZssnHpitH4efE7w94he58RYjW3aUA+aAcHnpxxXkPxr+FGmWtu/iDwpKbq5lk/wBLg3ZKjH0+laX7Lnhm8/tcaRr2mvFo1w2LozKG2t6g9B1NfmNfDU6lFu+tzxsyjzxS/rofX1z4n8Atouk+TdQRTTow+SVcnIH881W8YeH49c0iK20G9m0rUIG/cyq2zzQO+c896vfDL4NfDHQPFPna/fwTaPFbGazkMoOHC5xzx1xUviv4v6TaSXN2lvZ3ccGU0u2CjJHQcnrXyOYUXSaZ4GIpckU5s4geB9X+JPiuxsNR8Vo8lkf9J86XnIzz79a2tM8D/DTxPp3iXS7jW7YyWqFPMM2MNsHGMV4v8VPi58a9P0q41DSvhXLaaxdXRa3uo4VwQR04GT3qLTf2cPHHi/w7YfETSp7y1v57tDrtmjbCVOd3CgdgOteW6KilKU0l01Iw/K5pQR7v+x74O0KDx9N4W8faeZNEvbWZY9RnGREQMDnGB19a9ql+HD/BSDUNK0/Uo7/QtSZPsckjBguWPTj3FcSvhTTNB1Twx4c02+Gn6MLMNrE1xGM7sKTkjAA+91r6n8a+JPhzpPwmhg8O6Lp2r6clkiQz26ox8zaBn064r1MA4V6cudpW631PrsB7OMVF7o8X1X4M6VKugXr3NoTLKSsSkc/IeOleYfEvV9T0PxreeHPDmk/aBbS7mtYeQ44HTFe3/Cb4geEx4FudD+KcdpZ6n9qk/sESBQSm0bQOPr0rxn4g/FnRfA+j6lr13aRxeI45ysJIGH4646mt/Zp8rhs/M1xMUk7OxyHiPRrjwN4i/wCFj6FrcltbFB9u00uAA2B1XPsa8Y8U65beJr2/8TXs0EVq8jAlWGScmvSPG/7Qmn+KdFuE0bS7PUtTdl+1WyBd2NvPGK+avGWv614m8WgX3hZ9K0ggrcxxKqjcOMkYx616+FoKUr2PNjqtEekz6noVpo1klsPM3DKtuBzwKLbVotatmhFu1tNEx2EDBIrivB+nxaV4kjgeSSXSfKDQSSEEZweM9u1dHpniKG98SyxXREdukhFurNgMPY19DQjFLY9GnpFNkv8Aa9w90InlDbOCWPzf/XqK3uoCk84LuehOeBWZ451eVLdk0nTAJ9331Izj2rJ/tpktt0EUplK/vMNz713ximy01c6R9QVYAmwEN/EDmqN1cxOwhmdg3YE8VnR6+Y4FiBYbh8xB/nUEkyXTou31wzN8pNepRjaJsr2NOax0+5eNpX+6eV3Af/rpuoaZp+qXS29nb7nDAbS2Dmk0zTVurVYrqMb/AOHnAxW9Y6Tb6MZryW2UupGN4zzj9ambcvQ3pwbRQsrOy8M2p1EwIJM7WRm69q6jw/Z2+vRQnVrNUhkDFGV8ZIGR2NVNI0dfEKf2jrcVvJbmVV2gAEDOMcgmrmpwR2M6x2PyQoSsaI2Qo7DkcVdODekldf16GsnG13oVdZ0y5gvfIhnbYUGFB4xn1xUCWN0LpVjR92PunvVkPesyvc8x9ASRUsEscs4EeMqOFDcH9K2UnTjZErmk7iQxXZlbzYTuBGB0NXLa1aOJ5QrEkHOO1LCl60rPLbAuCCobqPpV2Cym8szNG27BBHpVKo+YmehjLZLHKM5G7GWBrdjzbokDglc5DHoajNjEHjSBCAwG5xWlc27QQrCId6joxPWk5tsz5kNt5nZ443Vh6KO9STXccUrssRyCPlz7VBp8cjoPtsRQD7u09alna0VnnWMtICOCaIqTRzzYx5rh1NwjNtIO4AdKqB3MbMXIBHLA1PcTTlC8ETNleQe34VWt4mdGEkRUEDJHWrjzIi+hA8VpiEybtvmZ3t34pz3lpcBoItyMn3MDlqdJZWCbISz7d+RuNMEUZuMbWCr9wdjVyUiovUyotQ1CTVcbehH3xg1oWq3Ml1LMjvIQpyAeBUGr3k8G8WtgDKSMbgOlWNKvlaPzWjKzFMOPwrJwk5FJ22JILi4MCxuh5QZIGcVaQvHGI2ViGbjPQ1Db3YhUbUJ3LywqVWmKDMaBN/DE0uWadxxqLqSmLUJ2iaGxyERmGH44NTnUbnUTtGn4MaEGMMRzj6Ve00/Z7JfPCAMpXBzySfpVVhEGaWC0IJyuB09KJVYpWaKVuguimeJFuJYjncRs7L+dbCXH8SoBle5rM06KVQHeOTcv8JIx+WKuxszHPlgfLz60QS6GVXclkvIkIWR8ZOc5otb/AHPt80IAflVu9QSR26sFcHaTkkHinWogdSj5UA/KOxrqUU4o438RLLfQTzFmcFhgYJxTPtNjJKzSSgtznHp70yWJHY/u8sCMbqa9pEkpkd2LjPbmq5UZK+patNR0u3iSGOUbXXEj9cVS1jXbewl8uG63Rs42/LxV2ztbRLYMmfmX5zjpRqGmWyQq8Nv5ibgSx6VnzRUtSJWUQbUUvbC3SWZRnOBnmpWNpDI7yMARGuAT1qrpzqsATVbZYk3N5eBx1qd5tOkmJcfMqLtB5zWUdtBJ31L2my2hXz4PmJc7lHaptoWFv3YBZDn5+RUOl3cbZe3hydxypGMVOctGxEKA7ctzVP4jVHV+FpbeyiiMUccjeYuAsnyj6817X4fmM2kxSBIUyvIzXifhiGI+S0PlOd6kEE4B+ma9p8OzTDSYg4iU45AXiuyV3Se+562FWq0/rTyPzB1L4g6LJrsunaH+9mSTFxAR149c16h+z3e+GLq1vZLxWtkLANGykgnB5yelZeh/Bvw/rurrrngO0UX8Mwe8WQHa4/H8K0bjwF488R+OPP0C0jsbGILHd29ux+c4HP6GvzLE1aUaTV+p5WYTjCld7/8ADHeaz4b1PXNZsvD3h7VYpba5RtscEvTI9q7Pwd4W+GXgfQZfCnxf014tRR2bTptpIcdun0rnPgn8GPEPwo+IQ8aeIZJLnTprd2t0diNr7T/Uiu30jxD4cuPF9z4g+K1yI4Jyw0t7gDYo5x/OvisxnLnSiz52pKN03+JzOjfHb4XeIPED/DvUkeO6sXIt3mgb5senvWj8BP2g/Cml33iKy8S2HliGbbALhCDJ8o6CuJ/aWtNJvorHSvBlnZJrJuA8F/bSjLjn8KsfGPwX4e+IOkaLc6fYPa6tpMsT6tgkCUAZJz9MV5MaFNyum1f5/wBXOrC0+aonFrTyO6+LPxC8eeJL+38QWPw4nTwtNavFe3MW47eAA3Q9snpXmUn7TVn8BdLufCfh2+vb+y1F0aMSF2WHc2T16Yz7V7H41+KcPifwjY+F/AdlMun2GngalHAu7cwUZ9+xryDwp8HfGPiK61/xp4b0m1v9LlsxGLaWQq8T4YE46jqPyr0cNCPNao/+CexSap1dNSbw7+0D4X1rx3odj4mvBKrzF4pXlIVPkPHJrn/2udT8SeOfDGqah8OdJ+2TWhLrNDJycD/69eeeF/2ZPFGj3F9a+KxceZqVzI2nukrEQkjI/lXqnwZ0HU/h18B9b8AayDNrEwaOK4ZtxHA7dK+jwqoU5Lkd9jvlOFRNPQ8B0zxD4a8LzWvj0G9j1iAqL6yUMTkf/qr0TSPEnhr4p+DZtZvLdg29t8IiZWAyeTn/AArpfhp4Z+HF3qP9ktLCNciulkngu0AMgHUDPXtWFqPis+B/jjJ4pvNLgh0e2geO5sonOHO3GcD8a9b2lJvzFQlSjDVFHx9H4f8ACegadb6KEdJoAQm45DFR+Ned2f8AwkF3NPH4gtXt4Y5Cbdw3BFeo6z4fuPG/jgfEzS9OP/CPzwjybclvlYAnp17iuU1Gbbrd02tQrFbPcN9m3D5cY6V24askrGVSaVjntB8XW1/fyWzTkCH5dsoOW+hxWjZarpDw3E8VsN+cctzWbcaR9o8xIoIk3NlSv8QqxDYQsrW9rZAMB8+TzXp0neV0Om22EURuJisYBQ8kr2+taVhaeXJHD5SsGY7WwefwqXS4FhyoU7dqjJj6f411ml2lhb28M9xByrHZthwTx3r1oOco2R30o3RLoWm2sdvHcTBFKxZAKEL19+v0FPsri51h7iY3MXlxH/VhCOMeuetP0/U7zUtUOy6aKJFwgkhIBH51cup1MQVlRSM7TzlvxzVxj72xs7W20/r0K97ZRyIJbJREF2/u42xz+dR/Z5mUiQBu+Qefx5pq2l7dMZbWQDHXLHNXWt7uaFf3i8Abh3oc1TdkUqbnG7Kr6fcqyB3XyT6HIqfTdMto7vMi8/wnsatGymiEcjsCgJxg9DU+kQo9wzXoXH/LMnpWM5N2sPQaJZIp2EgUNkbQe9WbS5nEcjeWCdpyGNS3imRjCNgfcMGlh8iGJlMCtKAd2D2qkpcxjNorxTvKqiKPggb9vUVbuZTb26qwymc7s1XklARUt7ceXj94R1FTw3KrCFjCPFngd6pc3NYw0I0uY3MYchgegB4qSe4VZXIjG8EYFNgtIQRLeRqc/d+bj8qnaS3ZnCwDzBjAropptGErFWS6hiRptjB9vzKTzVCPW4XidVU9OQOtX5BAGY+WvmEcgnmqD/Z5CSYF2gcgHFbqLBWaIpdRiEEbGLC7+DnNRHUJZ5MOhUfwHPFTyfYQqeXANm/se+Kr3WWcFowq/wABJ4qnB3NElciN7m7IdTnA6/0qXSxbtdPIsfzHOdzc06KMGQgou4kdTVyxggjkJSEB+c/Nyalw1FoPhlt4o9qrnC9fSrKwTXRjhjCMDKBgZwOKIYAVYwPhQvzEp0rU0pDBaG8VuFbdjZ1/Wspc0NUJJNWKtm+tTsltfNDtV/lA6Yz9asJa3SPJcSGPIcAFemPzqGbUP9L3mNSVPyt0zT3u3EZEyAFiCOTWd41ZNWsNJrQtRSsjFvKG4dt//wBeiO5LSgdDj5sdRVG3kkndjGg3d/nq3ZR+YV3L0XnBropwUUZVFoLJNFuAPKk8kcipLcop3SbwuflIXipBBbRyhjENu7kmprQxOGWdRg52GtG1Y5HuVzfwifaylG4A3L1pwvITMysjswzwV5/+vViSCIkp5aBiRjjNPMFrBkeTucdjUtxIRXt79HjEcMUhXbiTavIqxc3KJCEiDFCRyV6VLbJEbXNvbYGz58CpRPFFGDHGpTPIYcispW5iW9DK1G5s1FvHdE7XJxheOtXlXTkdmaMbvLXZgU+4sbO5VLi7Qd8YFSR/Z1LKYfmCLswO1Zx0XUlXZLYXKhC8MJDhjuVh7VJFOJIHQlNxT5him2cz+Yxij2tvOdwp5lYxtgqMJ82E4q3Zs1WrOs8OzLbww/ZNjMXXDNGRg/TFezeHpp30mJpZAGI5xHXjfhWRZ1h+zuM71+d4xkH24r2bQDdJpcayzOSByQoFdko/uX6nrYXdf12PzHvP2nLbwbqLweHVmtLmGT962w7ZOPoc11Xw1/aj0270a88Uv5kt0ko3wQId2MHJIxz0rifij4P0Lx/ofk6Fp6Wd9bPl59gAl6/4iqP7Ovw6udO8UNrmpGK6gtMrc2aJgOPcd+lfnFbD0KtBtnj5leUbP+tj6w0v9rPTfiXpmkaBoOmy3UuCkwEHMeQByPau6uPhlJ440GPwV400TzllkL2s1qMtGvBAIzx09K8y+EXi74XfC7xrcePLTQgYLi1ZBaSxD924U8henU12vhr4t388Vx4t0y3vc6hOwhuFyywZ9j0xmvh8ypqFROJ4MoU4yTlr/Xodx8Kv2ZPCN94ws4vFvhe7jh0xgsV0U+VyM9+R3r0rW/hp8MLs61nTprF8bLcSw4847RyCRzXIWll8VdQ+G9p4dPji3ZNQIcX6jDp/wLqOletax4ej8Y/DW2trO6hGpaM6PLcIR+/2gnB9c5FedGMaqcYLVa6r8P1PeoqmopQjY8Y+Dvwwufgr4zufHPiWKGfRZ4ZEm04rhpAwwCFPXjPfvWH+0i0Xw+0mbx98IdAvLXTdWAN1bi2KiMdSSMcdTXqHx28RafIlj4n1axDRaLabrmytnx5oABJ2jr0P51418bf2g9I+PPwovrv4P6zHDHBbfZ7uwuoMmLA2nj8/yrvoxcU4z1Sfb+tAjUdOXIjyez+NXh+1m0nVWWa7tXmb7RdJHuWJthyDgYHasFvGPij4l+ItX0vwJ5EcLuWtryUADPHRsYrhv2ffEN/8JWufh14w8PR61Z69dOYp0g3G3Zhng9unau88Xy/8Kh+Et5oWn2iQC5Y+XqJTDKMf3ute7Rp06c0o69jupKTTcjqPEnwp0+0EPjSTRZf7dsjGJGgTKzHGeDnnoK888Z+H9B0N5fFHjqGc3UmW/s50IYqe+3qeK7Twr8ZNO8VeFf8AhFG8QGy1GExvDcSncsxC9M/jXm/ig+Nr/wAcp8QfGN1b38NhG8a2iRgiVcYBx36V0SfPLU0nUj7L3UbHiz43aHY+G9LtvBBCwmFUkszHgxnAGSuK5KPRNZ1tZ7jxPNG0M92zWyxryvHQjtVHxD4bubvxbH8VhFb2mnTRKP7PePAUjJyF6dx+VLb/ABAsNP1FtXkvBJb3N22wxnIjJHcV14enNfDqcLu3qc/c6j/ZupeTcFohG21EK8NXQaZ4gtGcslphjGSw8vtjqDXP+MJf7XeO4eRDufKsq4GK6LRtl1bPbCCRZBBgMU4PFe3h3K510Yy5zf0u0udThD2yyOBtYqsPQdanhu7i78QRab5txHCG/wBa0e0A/j2rKsLufQ7uNfPmk3oqsoUjrxxXbaNDpSuWyxcxD78Yz9Oma96imopnoqSkrE5ht4lkjkulkXzMpLgDPHXp/U1UntiyHAyR0yM/0qa7ghkfCThQzZwygn8eOahuohZxOizg5/iA4rVvrYIJSZDZ2klxBIIJ1RhnI9RVmziu5Ap80kKAGDDFR6eqXNsyQSKjAHcSvBq1ZwyFllWYgKBuVu9cVRyZ2K3IXLgMEiCsDHnGAORxRaWDicPO4CtyjVYklSPZMAChJ+Xb3pttLJKxWZwN3MbY5FPWyOSb1EeOb7QUkbByMECnwMYxKAV3hT2znin/ANnzi42NdAncOQtTrsSNoolRnXO4he1dNNO5yynqZcd/OmGW3V0AG9SMVFqFzcRxCWythsc8BByK1J4xcRI4VVjUZcEYqC/MTwBrOUBegXb0remvetYzvoU4tQmEUbTRjpyzdvwpLrUrhLh1jj+Y4xgcUyDdYqBM6yFjwCvIqUyvK7RrbqrcfNiuunTSREmU2nuJnLCBQwB3LnrTIrgmNi0XAH3SKsxwu7FN6AgHOBwafDEuwvKVKqo4YVpPYEyjJdL5CSKg2hvuqvIqlPfSyTFZowAR8pP+Fa93JC0YdIF2k8YXGKyp4m+05ldRnocc1NjdD7SWf7QVwOozjnNadkZBOVEag4PHWsxLaWKf93MOccqOtaumpLJkBCpAO4qODWdVNGbaRctEvLtDBb3BRig4K8DmnyrqljdtYtfb4XbGNuAD9Mc1a8MQ+ejzgny1QA7mHJz7irMzvJdC43YjPZx39uK5J15QTTRSs3oVJtOKXTXE91uAT5CyYC8dhj/GnNDKVIk64+Xj/wCtWklhc4F1MysGPRkzxTJ7RoUfcyncOMDpWMJxb0KevUyrLeN6Kih1yT71c02S4kI/d8BeRjrUtlDFNAYUKBx/Ft61PZ2rFw4kGEXkY4NdkJaanPVkNkuigBCZGeQOopsMjBzJLGcH7pB/pV1ioYME+XPQCo4wwc70zu+6e4rWMlY5H8RGL2QSbXjYHjDAZBqX+0QkpTyjnk5PenCFi+xj1x0FPuY1jykUQLA9amTVyERw67OsamGyJRR+8BIGaoa1r9+zCay00lGcAgHkVpwRedagrEo2rlh61Le2SPaiWFggU/dC1HNFPVCfw6FW11iRrSFp4HzzuBPT8Knn1HbMcRsxKLtwKy7aK40cBriUzCRmIBHTmtHzpWLZtznYu04xUw5ZLREppotWN7cSjAiKOG571YjkbymDO3CfN8nHWqdiL2UlWGxt3JB61biil8piZH+VOTiqaSbNkjrfDmoOkcNvZySIzSKPmUFvw5r2vw79pk0iJpmlZsYJrxbwwrzCFI1mQF1Bzyfz7V7N4dgmj0mNGMjY7l66pfwn6/11PVwrs1/XbzPyS1n4i+J9Z8RNodjpM1vJHOBFMoxv49M+9elfCXx8PB8E9v4s02IXzfwSsFYrjqBjB7Vu+GvDGh/ES6jsNat49OltZg1tc9Gc/wCTWTe/CnTfEPxIfV9X8QySTWeEhWQcOox/gK+CnKm6TTVjzce1Gld/1sdl4N1jwt8Y/H9poPg2aRJBGwu0Y528c+3rXtXhTxbq/wAEUufhfpnhyLxBDdsz70Hz25Prke1cn8HPgMnws8Qj4oeFGEc97bMskO3P8J5/Wu20nx9Y/BnzfGms+Gv7QTVpmW6kijy8JPX+dfEZrCMqiUWeHLkhaXU5G3/aq+IXw0106N4/8KvbaJK2yyui52j0z3xXMa5+238Rvg7eaxZ6zez266tKBpgViUYFRgjHSuq/aZm8N/EbwrpnhS1lnGn3bCRMQDcnXn17VwXxz8Baj8S/CkGkTWSf8U5sNpdBBubAyAR+NeZh6WF5otx33/r8zppzlKS1Z6z8Mbb4ueM9PsPit438cxSxPbShtIuTxcI2MdiOn860bzwuZZb+w+Gnw/tIobiFJtUiW4QFRyxPT61wHwim8f8AxKltbJ71JLnRtOkFtYSEgyBVHQfgK634Tanc6vrOv6vFrF9o2rw26W93Zuh2FQWXjI5zzXrU6KtaS0PoMvhByT5ThIvib4Q8HeNraS08KRXOmWUrDUpwQzQNtOck8+nT1qb45Sab+038CdUsvhtqgtLFULrcCDIXjHsa6Wz+Gtxpdtd+HNA0r7ZH4iuJP7RmlQ5QkZJ5HtVHQ/B1r+zp8F9U+HA1hHsb3IkmZf8AV5Hc11U4qk04vVWOnFw5FI+YPEh8T6P4Ut/DHhzS3utUs5URb2NMCQ84rr/hDrPjXWJrTwnrulZ1VA7vbyn7y9T146V22mT+HLFJtA11Vhfzklsr+FQVbjjPHvXC6l4o8TaB8QD448Pak9xe20Mkdv8AIMMuMHoPQV1qvGp7rWvc8KOJnH7zW/ast5JX0uy0i6FrKtuq3Vqig7DtwenWvP8Aw78MbTSvDr6hdX5vBJdlggXlDgdeK9E1HwhrvivQj8YvGOpyRXs0fz2uM4GOD+prndCvLa18OPfW00N39quDuXeA6HA7V6mElFRsmbRjzSvYxbuAJLBY3WiOdoxFKj4BHrjArc0DU30y1DXujTDc20NIeD+NYlvF9r1R59QL+XFJhGkJxjGccdK6vV9DbXrRILWIIgChXhkJHI6c17OHp6qZ6sIOMbrc17fQ/tLw6g1nKisCy/vBj8Mn+laKNM1z5hm5CBQoVc4/Os62TUdJs7e2S/lAiUgxsM8AVahuQ80cyzN5jD7jcV6sZQdmn0NYxktLli4mJmUSSsARxxyv61A2wtJB5pbJ+/nGKlYyzXoVt5UjkDtWZrDSRXDQQs+3cMvnBq5TTRqvdRr6PALxWtEYq4zhh0arD2s+n3CxXSmNtowGb7wqPRB9otE3lozGMiQDrVzUYTqt1HeXVy4MSgKAcg1xyXMaOVoEk8u6OF42dgXwUx7fWnW8strMFkQkMOABkipRDLAYrqLdsY/d/DrTY7o6ddGa4YyLJ/CBytbJWSOOTuyld6jrEN8Wa2Yxbh8+ccfnT7S9vX80AspKkjA4PFWL2Z7yTyVZwu4HOaWK4v2RreBGwgOHK11xSbOdvUZbSX08KGT5VVRkP3p97G/kbrZCVJ5XGKkVb64hWU5G1R8uM5qGS4lUbxvTnlCKuCakRYznvpI7mNBEf9o4yRVpvtLyOscRJIHzVMk6xhTGGZmHpnFTW9xKzvbnrkfNjpXTGVkS0ZjC+2MgQBgDyq8GoYJr2OBhNFtO3gHpW0MOrRu5yM/Mo61V2ksZwWO1flGOtKdS6HFeRmXX2qW1RgrZ3fdK4rOeG9S4BmPBHAxkj9a6V5J5FSR0YbmxtIqpNG6z7pGJ46Y5FaRmrGqumVLSG8SUEx55HzAVq2MFxeO0bwOGIYAqePrQqrMqwBM5YfMz4xWlottaSXpjWdEEecky9TXPU5r3Qmo21KaeFbmAwzm7uAFjG7uD+RH9a6C20myM9qzXcuVGCJDn9M/59aqalqfkFHEgEcfyjYT8361YsLhrtVuoZnBXgLXHUqOclGSQ1G0tC9KVt4FEczbc/Lxn8etU3URyPvm3hsZzxippJnRVZQxJ6iqWsSTeU0SFsHaSQelFKEUibtImsESR2tBGFYn5WA6/jU13FLpvzXC4BHG49ahtJpJrSOJnZfL5VwvWp7iSTUCpu5WOxflB71ukzmmMjujOiyRxsRuwyinoZYG3tDkMOBzkU6MNHtkjTjI4qSORkfLDOQcg9q1TsYNalG4uNQjuMG3Yrxgr2py3V7JMyLEADnBAPNXZhvOwbiDg9aCZfmit0GASd1VdNbEJOxUsZNRnVS0QURryGzzWpJaXFwu6OPjIyFNQW6XdxArOQpVeAR96pJppocyKxVwQCBWUkuYFsZ2rXT2VxAiWRbk7+eRV15XYFhA3zIuM9qUyrGFkZd7nPU5xSl3jZk2gllHU9KUFoJRdxbL7TLmIrtZWPI71LEJVjZHEnC8nd1qK0WV3MbdNxwwNP8pwjsFY7U4+fk1btc1itTsNBjnnhht7eGSNS6g7G4P44r2bw5ZSRaREjgMQOrSV414RhkuY4t8Kom9Q22T5fxr2nQLWKDS4ow0ZGOPmzXY1+6b8/wCup6uGTTX9dj8hfiL8TviLpdz9j1HSHgtxJiznUFSfxI+taPwm+KviC936LDE0utO26FJyWLqOw4z3FbfjFdP8ZaemgeL1jjRZB9lcYBz9fxNP+CvwysPDHiI69ptpMb+1y1tIzbww69voK+PpQpzoO6OLEwcoq/8AWx7r8FfHPxo+L2v2/gbSdFNpJpqBr6IBt23HJ9egNez2Njp2mXU2gWfiC3vbeN3bUrW8yVifHIGDjgjvXlHgP473nhHULzxDpmnRW2uyWjRzLGNu9QpGf51FoGu/Ejx74OvPE2iaN50UtzIuplB8w6Z5/Gvkc0wyc04nl1KcYpcqu/68zT8W/FrQ/BEk3i/X5rG70S2kMdqY8ny/oCMd68U8fftU+ONFurqC78J+Za69OI9NulQ4IIwOqj9K9D8UfsxeC/FXgm1jhnvRFcqGubVp84P09a6nTv2fPD/iPwjB4T1uFPI066jNhNKBvQgEjk/U15NP6pBXauzqpYarOa0sZfwV07VPg94h0XxzcX88XiC/tJPstlPkrKr7eCODjkV9Sx/BTxH4xDeNpY9NsL6Wzjnv7eHI3Ljd06nPNeBfEXUtP+Hvj3RtHhvYrnWbTTmbTVYrJuAVeO59K9A079rGTxr4Pu7HxRo0+laza2yRTGByolUccfrXXCryK807HvYKfsZckUepfDO7i8T6ZLqnhzSrCSx0i4kh1IBCGVlXB6DHcda+X/2htC0bxxfanf3OsSw+HJSTI1u+BHz19M1tfCX4oeNrPV5fD3wvR4tN1C8k/tlJ2zuyvzEEfQVwv7TehaJ4K8Bahq1pr7nTJctPAJh8p7jHrVxl7ScbbmeYN1IyMj4yJZ23gE6f4WmjlW3EYtr5mO77vQ15Np3j7WVEXhzSNBM2qRxu5kA3BxjJro4PHEF34fl8P6lavPZXBjNrcqCGX5f161h+ENFuotck1Dw6kkd1HDKI3dicjBrtjSTjaR864VJ2Ll9478W+JtLbSZ7eWCWKACe13YUcY6VzfhaEeHUCRvHcOZy0ttcMeOOgAIroYo307Sp9W1G/jTVpGIZXk+Vlz2H4mobW/sl0CbVLS2t7i9JIY4KlW9q9TC0Y3stj18Nh48qm2Q3+i6rrtnLb2EMUb3AMkO13yB06Y616N4e8LXPh7wtb2niXTlS5MsZM0eSCOwOc5J+lc18JL7V7zw5cXmp29viCM+XvOSvt7/Sut8U6reWtoi626+Q4TYYx3xx3r3YxdKKcep3UoP4rFrUbOxSPz2hYADAIA5/SqaPozSwpExExP3Wbjp9Kp3iauYoNoDRSf6vHp71bl0nTrSW3kkTbMevzZHSt1VjJJI6IUuVtk5mjs5P3alyfvqp6fTiq0ywXCys0ZCA/fY8ir8EGnpJ+7UHd94FhiqupwxRxSwrjyt3Pzc9Kq94WREnbct6bHJcaeY5mKqo+SQDGafa/vX+zSTIJQBtA/iFQabqS3Vp9hnt8RqvyNnBpYlsvtQucDzVA27D/ADrH2cmtwc04mpcpfmOBYrdgysdyk+3WljhFrJuuJS4f76en41BcajcDy7kFQzE8bs9qjtw8pOV8xX5cbuBXTGm0lqccndkouMXp2OrIGAGT0qSCS7YyZRyCDtfGKij03To7kxgYyQeWqeKUOskMcm1YwSCWFdsFZ6mLbbKrT6xAqzbyhA+UAZzUd7Hq9wgmM20ufmVjxVzzUliSaV/mVRtCnOah1C4WeDe8JVicH5q0jJJjRVt5rp4l8ltwThgmf507fqBuXWJiqnGWbORxUNrD9nwlip+f73zcVP8AZZ5WkieT5MjJzyKbceXcdnYlEk7RmJ5iSgOG6UwXNxHCcAbio27STmn2tnCqkTkkAHaxPNMSFGUzKcsoG0Z5rnnK5pFaIlSW6eCM3EBVt3Q/Sq8p2SYeYnJ5UDj86ult0SPIoDE4I3ZquLK3Sbez5DdQTxVqTtowektRHkjSQRRnfhlxvfGKl/sG6itBdWkZO+Vi7NNjnPYYqWGLSxqAjuXiCjaWO3oK276SyWwcwzxvChBUgAE5PFYzqVKSTGpwkii1nJLY273lihk8wnfv9vTb1/zmtOyhh81E8po3LDCseT9eKq2lgmrRL9pYxvHyiswGa0YtOtbcwzXTESg/J84PFcM63O7rRm0Ip7j7u2e3YGJS395VrPuFd5JVw2zAySOlXLmeI3ImhGTjDDcORVK7aNxJHEPlOC3zVtSlJRM5qK2CFtQkt2tW3BAP3cmMVDbPcwSiCecbyvy+9XbO4N1ZfZJYj5Sj5STVRrW0F0J3Qbwvy7X5rojJnHNInkm1JYVMULbg3IYdf1pLe6u7d9zv977yen61K8krqkgIDbsBS1Vvsk5lLp8xOdyg9K2u7aGHKrk017cRy5Qq68dT0po1LU2nZTCdnOGAIFMWygjlCjjONwLd6kleSUtDG+1F7lqqL7k2uxkeoa15aOXEewfLx1/WpbuTV7sLL5gUswyGJGahEwNshnl5A+XaetSXFxHPbhpkw4IGCaV9RpWQ+O/upY1WAo7RthwhzS3F5ciU7FXlRnJJxVOKEWKqNOQlpCd43VM0FyJGTcpyoJ56U4SQlFF2wluH/dyyjAYndnFXYnYKU2IRs4+Y881n6TZ84unJTdwxNaEEFu0Tt+7+VDty1Epq5rGB1eh/a7lYY/LjCCRdxRyFA9xmvcPC6Qx6LCi3EJGO3NeLeGEV44p71oQiuvzHgY+nevafDq2iaTEILhCpGQVXiujR036/10PRoxat/X6H5Caz4T+Jtz4jit/EOU0+7uQtpIScLx6g/Wur0PxPrvwi8Rr4CE5nurlA8TxAOCMDg/mO9ei+AvEXhfS7mGD4ozrNZSSj7PlciI+vT61b0jw14D17x3Pqel6XFcorZt7uJs7OnHIx/wDqr5enWtRd0c2J5o0tF/WhW/Z+N98fPjKfDOuaJ9kewgLTbl2iQBTzzx2r2S30rxRo+u6j4e+DFxLZ2Vu8g1MPDujZhnOMjjn0ra8KeB/AOmPF4hSeKz1V7ZlM7HZvG3AHSnahH47tvB0viT4VSrcXMdy6X1sxyZRwCcdT1r5bM68ZSWh5zk1GNlqeUa/J8T/g7of/AAti/wBd+26ZdvtNsGG6PPt1/StH4h+IPip8K/D+mXk0j3ln4svIhby4AMO4EckE+nfFdxrHgHxL478MaTZP4Oik+0xqbuzjydh56jt2r0p/2bdTXTLa08aF7jT4LiNreHZuW2IXg8dMc9a8F4mi43aPeoUuaKbVjyTxV+z/AOHfCWo6H4p8StdS6/c2Dy2U0cu8LuCnkDI7jrXB+JfBXjbxf8RLkXmuG2NjYRzSJsCCUBSQPTtX0n4h0LSvFHj+z+G2jawZrttNlNlcQNlYtqjgnGPT8q4r4jRnwel94O+I2iRvqcVvGsV4VwZVPA7c8VMsdyW00/4JnVnKnK8VoeG/CPxz4wudT1TxtoKGK30S4lS8hdgRKAMZGT79qq6DceHv2k/Cet6xrltKdPWJjNEJsEHIyB3rpvAvwcuvFmvLY6VK2m2kl5IL2EceaNvOQRmsXxhd+APgff3vhvwxbKlu5K3UIJDH14rqo16dSp7m+lvI82riZyT5ylqHwvbVbFPDPhcG3tY5oxbvIvzDj1281j+DtA1jTfiQfCWu6mbM20EjLMAGDjbnnjvXfzya9oniKK2sbdp9NuxHJHI+P3Z2jv8Aia858Y/bLrxzNqZuJY5zlI5VjyB2xxxXr0m5+62RTUptNLqXPi7oNhruqafBpfkM0YJmlK7Q4x34ABqDwpHA7HRNBvIoHgmJmRxuVlxjqcD86vWMdvcWv9nalfSyXQAJaNck59qu+HdCHhxrjUrOM3JLkSJJCRn9K92hh50YKV9P69f67HoRpx50uhp6X4V0O+8NyNdajF8yk/uDgk/99Hn8aZfDRbGx+xXlv9oiXBRt2SuPxpmgSWbae+2IQAZ8xGJ6+lalm2l2+nSm8t45Aw+QHn8jXoUqUVHR9TqTd/dZDd6pp15a29nZyAyhAY1UAFeB70+b7RctDFdQqlwvV/UfSs+fTxa6jDc26gs4BQdMCtu5dpPJJiAuP4mC84xTukbwm3dMjt7JWbdbAMw/1gJ4pktgv70zhFhJ5Gfar9lGWlUwqEY8SEjr+FV9VtcTSQGQGEuNwA9qpSSgY1ClaWRgb7NOQsMh/dPnmo9QifR79bAXInZ1BUqoGP1rcTQ5tNhS7uvKktivyZOSKhhGm3jtOLcOyfdYp938aITbM23Yrx2V5dxQxCNFkD8nPbHfmiPTb23ujDaTbjnEnPy1o3MKQCC5WVVdjggA+lUZ7ie2uTc6UN7dZSTkGvQUtDBtcxRv9H1Oxuv7SOqjZvA8s8/1q5Y6PfCKSeaQMsinaS3OcfWpZT9rnUTRjDEEoB3qwlrIyyRyTKsaqdoHWrU7yArRaXJFAsl1JlwPk2nFOntjcxKwZVkzyOtWoI4p40imnHmbR5ZJxUN1J9mUpdbGdW6r1rPmakVFFKKxv55VNuikL97nANXfsT7nBZVQ43c98U+GcFI2gCrkfMWFJvj8+WMzfu8jIpp3W42iB7cNG1v5o2gHaWbmoYbZmjMPmAkKCADg1b3QplRt2EHZntUcKhkYqy7to257UuVNalxlZEwgK26h1G9DztPP41EnleYuzG4qc7uRVy3TYgdpBv3dQKdFB5bRqj72kzgFa0jHsTJxvqVzoFxK0t3GIuGTEjqfyrY063aO1dpBCOAMtyfwy3+ferVxNFZQGNk+8oPI7gVTgvIblGgnjXyzz8pPH4VhWrtJRaMoQd04/ebEVvaJBHxGMxjA3dT+dVr+e3iaKK6hAlLfIytkfzpJlhtbRDCoIKgIDniqWo3OYoVliXzd/Dqelcacea6OuEbSauOm5kItAGcfew2Bj86qNItpPJJMVSI435Ydaks52llDwhQ44cnoRWZ4lsrm7kkNpMmwbd61Up+7oRUvE1bUS2ePtk/+h3J/dOxHB/zio/EkSeGbmKP7WJvPX5NhHH61nwaRrlhaw6jqUsUtgq5WMvnB/wA4q8lzpGqkTNGsjKMoMfdqIzaOWcroktTf3MCIIVVxIMZbk08295BPiGTc5++u7irDxxLFBcpKqPvAAANVrx5/P36a6tIo/eHdwa74zsjDS5Tv9N1KK4N9HqAABGUJ6VJDYai7NdSsDG44LN0PtVmXE7oWwS2NyqM81K0EzyNE7hIwDhe9bqSbHbQz49NnECvdy8r9za2KmMZcLulVX3DvnNTxQpNbRxzTAsR+75xTJ1S0BS42FwwwR1o6kWGtb6jOUFowJXOecDFW/LmLEb1GUAfHamRXZMKCDC5zknipNyiZkWXIKgsaURWLGmxxR/u5pQYw3BY9KuQNCpKmWPbs+XIqpYLDGQzuDGXPXmrULwGOT51GU+TKdOaUjaCO20SFLmKE3E6bVdfmePBx7ACvavDH2VdGiEFwSoHBCV4x4SuILaCKbUbvpKu0MnzEe1e1aBJay6VFJbmVkIyDtrrXL7JvzPQppWR+N3xU8B/FDwusOv3OuGawvZf3aqNwi/DHHQ1sfA/WPHWoeJIvh1pWrZN2N0d9AQoRuOCT9f0r0XS/EvhrR7ZbfxXdx3ttM4BVmB8o+wJrS+HGkaLPq11e+H7qz8hsmGdU8t4z2A7mvAoNOg7o5K6tTX9dj079m74WfEnx38Wrjwt8S/FTQJo9sJYZppsJMoUnGR1+6Pzr2jSbmO81a+/sq1m0210yaRZpoJgFusAjOMnOeteJaL4s1nw8x0rUNUlW9nhYQXagszgjgcc969L+C/gvXPiJ4EmuoPEosdR067fzIJ8jzlGOSMfXrXxOdRvLRWOH2jVlFHf6b4z8O+C/hTL8SdH1Vp7xuunyNlwOOg/+vXbfELXNc8J/DHS/Elh4iN7ba/dxJdLIwc2oYEdhxjFee6t8RvDradZ+Gjb6XJdWkQF7GI1wT6muu8A/FD4aal4T1GPU723mtYJlDxsdyxfL1Gen4V8reM9GvzPZWJuld/195zfiq6Hwk8b6RaaRa2d9canZSPFqltjfblgvG49Ov6Vz37Q/hO21m9j1/wAZeJ2F3DYRyQyTsu2RtuQCe9ch8dPj54W8TfGDT/ht4DX7THe2cnkXqRMPJcBQADj1P6U/xjefE2y8Pf8ACD+OL+0nukjj+wySj5ipxgE454qalKcEnsjy69WcpPl2Oa/Z/tH8X22q+PbvxrFpl5pOoTKtp5oX7QoUYO3HOc/pXm+t26X+t3XxC1q3srm2kJMttOo3Pz2z9K6KP9nzXde8S2F0fFkdjNFfM1zbWshXzBt7heDWd+2Zax+EvCNhc+GYkZbdP9KijiOD168CvRwVOFSqnF6s87Vp3Ot+I3ixrnRW1PRbaa3tIoU2ptDLGdnVSDxXlnhLxHb67rx07UL2eXfFK8LI6hlcDIyCD3p/h/xtq3ijR5NO0ZZ4UvIVURyy8E7cZAbFZUui3Gm63ZCadpGkYo7RMoIIIB5B7V9Lg8NBO0z0aV4pJPdm1p/gzVdO8Zp4p1LxFLHGkYykxOH68cADjNaOva4+oXFw/h+/hWUSlpsIB5n5A4FamojSZbhdBuNTlfNqgAfOScH8/rWHonh1bHVZbfTJADFISExkn9a9KVSVNOKloelFKC5Wh/gLUbbXtLvLi7iaLymIeMrw3H0rZSC4tdOJtHVoZDgK3OKg0u4LNcmawWAl8ME+6TjvWxNbTaRYM9sWdXXO0LkdK7KFWKW502itia1tIHjhtpjulKAqx/h4q8gtnnS0mH79OrgdqzdNsb+W5ia5dk8wDazcgV0xgW3uIrMrvkJz5nAz7VM60VrcUdXoVLKFbyQy2Y2SQj5y4+9+GKkTR1uYLrWLmYNCh+aML14rXERtL6GGSHb5g+bZgk/kataWdKa+u4UEjQRuDJGVHIxzxXJPMaVOL1IcW9zO0vw8suiPPfMxtZB+7VRnFc3psen2muy6Dtl8t1BWRugPPrXoLaHrdif7Vsbgvpkg5jAHyn6VlxaLLfpc30NmAiH/AFpZeOfzpUsyi0rjjQlNaIyLzw88rQ2Jul3IeGC9seuKrLZ2NrMzWygsnEjY6/hW5qGlyi0tXgklaSQ8OMYxiodO8Pm/lYW8pSWP/WBl5Y160cdCSVjnlh5c2pz4Fr9rM9srgbhxj/61XYdMaKF7p51CSAjaeSD/AErWQWzaqLEW4Lg4IyB/Wq4kgb7XFOGxHnCIAcHmto4uPNqxeyktjDvNJ8gIHk3u33DnpUeoaegjQXTtvBySorWt/Jmt44pclnH7tmHSl1O3u7O2FpON75+Vto6VpHExctzSNGVjA05W1BAY5dnlnkv3qW5t497zPNhMjcFHWrbWrb4Y2xETy2AMnmknsYfNmcljGuMrjrxW9OtBomVKS3KaGIIVTGwg44zTrdj5ZTJJKjG4dKsWYt7eJpUA8sg8BelS2nktbszKclRtJXiqdRdxWaQRNJHCkZHzl8BlHI/SlXTb26g862u5EIQkkpk59qku8W9mjyI5bf8ALj6Vfsr9be2iUQ7i6FSd4z/OrjVnTV0rmTlFtIzbSC6nWRZ9UchIzucqCen+7/n3qbTLe2srMXDXSyKSeNoyx9+Kk09XuDNKHA25EiFOo/8A1Vds9MtbTTn1WDc6dPKEea83EYqDeqOqjh5T0LgjhGmRyTOv75fkyvC/pVC6eOOSHS52VmLfLIFPSta50WWfRbS88zbFKAcnotLrsMdgbO0SMSl24lGPfvXC6/vXO5UHAx5rMTP5GnqFmQZZyPvVWsNJu7+S6vrmVfLjUB0C4JIBrpp4TbXUJlhC5HDcEmn20Nhc3V1HbM67EBZCvXg5rJ4uCT1OSrSuzAh8LeTpDX9xMz2ci/LDvJwfp2rI0NNL0vWxpTwS+TOMK/8AdrsdO0jV4o31SKfdZEnMW37tRxaY9y01ytspRVyHO3iksWuXyOSVCUldIp6joMohhsIrxc7sxken1qulhbwTfuhukT/Wsc81qzadJNZ28sU8pdpAAwHA696ms9BS7uDbxy+XMoyzMOWrsjjYaWMPq8ubYyIksZZ/PtPMVlxuUjHNJPpN3HLJqn2sBHyGjJya2WaCLUksngG8EAngZpJlt2v7q0mUgRgnYmD/ACrqji431ZpKi7aI5ifTmijV55C2f9X1qS4sopIkS5Y788Mo6VoRx272iCZSfM4QsPu1PdWkllafZnXex5Q44xW6xcejIVGTMK1tnvPkilKmNj8z96syW+5i4mJVVG/Aq5PYyLHACREWPJ4JNJd6Yn2hxDKwUIpcEdauniYtB7CS3G6c9rESwYtGW6AE1cilRlJWVwCnAK9OabolrDbj7ZCCULEMoXOKt2rxG3nIhkBaM7cDpRKu7nTCjfQ6rw/aSlYRcXEpHmKQhGWI9M9q9t8NTwDR4gkUwAHRjg15D4cMWiaZHc3izOTKhWNecj69q9f0OaO40uKaK1ZVZQdrNyK9CFWPsnr/AF95vGLil/X6n5O6v8D/AOydUt9fg8ST3qXs4FzaRElox9M+1XbHwBqNr4/i8HeE9cuDY3Ee6SSRGXym449e5r1rwz4Dl8DeJG163sbu7WaQF4fLLYHHTH0p19pmpaT4pn1ax0O4Md0hBXyuFJHr2rwViHSpcskcdWlKdFWaF/Zt0aXSvjsmhfFXXHls7WEta3ToWU4U4HI9hX01eaJ4c8R+IJNbfWEsbK23C2Nt8jT4B9AM18+ar4lutG8NW2m2XhySW63MzSlOmcHGa6a6+JVx8RfhnYeF59Iu9N1PTpCVuUTaWAA6Hv0Pavj80dWvNcsfwOKWEqOKSsc1+0Z4fsNM00+N/h54hvrLVXnxPbvE2JV9sjFct8W7bVPhr8O7PVPAvjO6nl1WWNtWs442yhIIJOfau2+IfirxH4l8JWto9ncyXNiv+taAeY2P/wBdZHhHW59Ot73WdU0KeWSVNohkizk4647dK8unRxDiuant5FRwtXmTuj0f4Oap4F0HQtJVJIr66ltWa5uJrXDQkgHqQfX9KvfGnxB4HutSjndrvzls18i9jiZgjbenArzT4e/GO+0DxNPpl/4BlewvYHQssGQhIwOe3WtHWNU8VwxyaNpcFzPbXHzRpIgKxg84B9qj6liG9IDnhazho0VPCmkPpvhW5+I194ylk1KC8ka3jKEF1wMcfiagTxxceMNDeTWdF3NLARslG3e2e2RRYaJ4pvbi00ifSp5Ft598hlTaAMY49atfEseJ4NeW8s/BTvBbkHcobJH0A5r2svy6XMpSj+A8LhIU0+c8h8ReGLbRLr+1LWykjaScD7MrhgPbjBFd74J0HQkNtJqVjcrNJE78TkBeM+vNadr8MLjx+665LojW4P3kRmyp9CNuauXXw917TtRDIk3k+V5aoitjpg/w19XChTjHklG/zO2FOhObd/Qw5b4P4o8yGF0RF2+cvoM9Tmq2qeHZtQ1oa5Z6nLGUbehST7/+NdJH8P8AxHbW4sRDO0bliFeJtvI4OdlTaD4A8UXFsul3NlKk8PMTGJxg+g+XmuCrRqW9xK5306FD7UiPT9GtdZ8Pza3c2ssd9G3yxnOX49KmFvex2RkZJ8MAGjVOldHb+F/HEkiztHOWgcfvDEwfbjrjZ/SpE0bxhczS3yRzR/IVbZE+Se2fl71jHBYqTu5JFzp4fn0Zk2sEX2eOxKvh8ZbGdtaWp6JpVxbJpbyzswG5Z88fTIpsPh7xbbrIZbeTZKAAEjbBPfPy1Zs/BnjK2jWAyTGORiQjo+wDsQdtKpl1ecdGhwhRT3KnhzSzfxkX9xKstocQy92+ma3PAk2jx3V1rmo+a0sbgCJhy/Hpmsy98O+K4jFYu8wYL0ZHGD6L8tU/L8TaT4gTUbaWZhFIC25G3Fe5xt5rz6uSVbaSRajQa3PRdG8YaEEkW50+V45CQ9vGTwD3xXB+OtHhfxWtj4NM8NjcqDcICTtPU5545q00PiHU9YHijSJZrZgpEwjVgzHtkbe9XLi18SQQSagu5fNUD92rEMe+flop5LXkuWUl/XzN4+wpr4hdKitbK8tPDV7czSQocrKeg46Zq1dQaUfEa21vJLHHGP8AWA43/j3rFl07xEtmg8x8vIWAIbYBjgg7asX2na/r2mQaVsl+0xx4V2VgQ2e3y81308rqxjbm/r7zKaoTVmzM+IOhaLPfJq+j/aI7uNxncT8w796W30e0trQ6mkkvmSLiaIDPbqa1ovBviy7dRPLNI0LD966t5gHfHyVWtvCfiX7XLcmS4AAcEqr5Ppn5O9bxy6tzc19f68xpYfuisbTS9P09ZUikkZ8dBnb/AIUupzWNzYLBPbTPzxIGOBx61a07QvENjazxTLJsmUAKqsVJzzn5eKbD8PvFUEH2eOWVo5pCVjYN5YGOoO2t4YTERfxL7/8Agm0ZYZdUc7b6H9tmjaaeVBGpKEj37c1c+y28sjNIshAwCD1P4VqX3w+8VM0FpicuIiNpR+DnoPkqRvh34vfUVmjjnbyyuWKPv9zjZ2rso4erBXv+P/BMp/VpdTnIIIVMuIJApLfIo5qvb7AskWSuFGOR6/pXUyfDLxZeXrXiC4TAfJSN9x9M/J3rNuPhl4kCSI0EgdlXorYJz0J210qnO/vP+vvMKkcP0ZjXtidQEUIllRVm+8pB3cUullnu0tHtJlUclg/PB+v6YropfhlremW+ZTICZMrwSuMdQdmKh0vwBrd0N0d20Ug42srZz7DYP611qo5RcUvx/wCCebOFPn0aLHhq10mS2ma4MyDzRiNuSeT6k1sS3yafpksmlySSMAQYWTP9c1Wi+G3is7Wt5Z2KEEnY+7342Utr4G8Zw3r3cUlwPvAssbkn0yNlcFXB+0lfb+vU7qDp03uv6+RDHqc+taRFpNwGjMiASBeg9+vFW/7JtLOCLQLy5klR8ETE8L7Zplr4J8coXungkAeIA7In5Oeh+WprfwF43WMxt5pSSXhSj7MY6521xVMtqPSP5/8ABO1VcPKV7le1037RcCzlupNsJzFKe/0NTaXNZJqs13ctKWiABUrjdipL7wd40gtYrNo5ScHgo/ynPb5ao3XhTxZFqSTxvOTGEyzI+7jrgbe1cdTJp8u/9feTz4Z7M37HxNo0W+6W2lKO5D2y8H8utc/4/wBGtZZ4Z/CEk8aXIH2lBklfrzxUg8J+JdQ1X+17SaeN0Y73RW3Edsjb3q/B4Z8WwWs2oOHXfD0jDfM2eh+Ws1lNeUeVtW/rzLvhop6kOi2VvpK2uj3V1NIhcNuI4H45rTv/AOy11aK3haSMKpPmjAz7ZrIHhjxOLIs5kzJKCqneExjr92rN34f8Q6npcOlXCyeYobaWV/lOeMfLXRDK6sUtfx/4JjKOGnpdFTxlpOl6nOl5a/aI7mIjazE/N9OaZZaXaxK2pySyiUgiRMcn6itJPBPiy42W8k00hhC4eQNvX1A+XtVdvCHiJtVkuDNOVRmy4D7iPU/JWqy6pe7evr/wR8uGta6Ifsmm22m+d5UkhZeg5x9fSpZm06awEE9vK6kjDK3C/iKXSdF8Qack7yrJtljxtVWIJz0Py8U2y8D+KLZJPImk8q4kGIiG8sjHX7tX9TxF9Jf1944xw173Rlrosd7LGks0ixpuKMx/+vV2O1tJ5yH8z5FAO7+L9ean1TwV4oitYLNvNDZb5SrbRk8Y+WopfC/iWK8j2mZjEiZLht3HUAbe1XDC1Ya3/H/ghKOFl1DSzbWd1KYreT75/djqfwqAzxQTSvDbzDfEd4B6c/pVu88LeIdT1M6layzIUkJeRVffjHU/L/SoJPC+vx209xI0n7yEg7N2SfQ4XiuhUallzSX3/wDBJ5aEXo1Y7vwu8MdlHvt3dfNRgsbDb06E163oepwT6bG4to04xtL9K8F0JNe0DS2WJkcPKhVGkIXocn7vatmy+I+padB9lvLu2jcMSVMh6V6VKrHk5b6nHVnCKWqP/9k=;rounded=1;" parent="7" vertex="1">
                    <mxGeometry x="40" width="200" height="112.15" as="geometry"/>
                </mxCell>
                <mxCell id="13" value="" style="endArrow=classic;html=1;entryX=0;entryY=0.5;entryDx=0;entryDy=0;rounded=1;" parent="1" target="2_muqPNzbiKzWvyuhUvV-9" edge="1">
                    <mxGeometry width="50" height="50" relative="1" as="geometry">
                        <mxPoint x="990" y="240" as="sourcePoint"/>
                        <mxPoint x="1000" y="200" as="targetPoint"/>
                    </mxGeometry>
                </mxCell>
                <mxCell id="14" value="" style="endArrow=classic;html=1;rounded=1;" parent="1" edge="1">
                    <mxGeometry width="50" height="50" relative="1" as="geometry">
                        <mxPoint x="640" y="160" as="sourcePoint"/>
                        <mxPoint x="720" y="160" as="targetPoint"/>
                    </mxGeometry>
                </mxCell>
                <mxCell id="15" value="" style="endArrow=classic;html=1;entryX=0.001;entryY=0.49;entryDx=0;entryDy=0;entryPerimeter=0;rounded=1;" parent="1" target="2_muqPNzbiKzWvyuhUvV-2" edge="1">
                    <mxGeometry width="50" height="50" relative="1" as="geometry">
                        <mxPoint x="280" y="160" as="sourcePoint"/>
                        <mxPoint x="360" y="130" as="targetPoint"/>
                    </mxGeometry>
                </mxCell>
                <mxCell id="5" value="" style="shape=image;verticalLabelPosition=bottom;labelBackgroundColor=default;verticalAlign=top;aspect=fixed;imageAspect=0;image=data:image/jpeg,/9j/4AAQSkZJRgABAQAAAQABAAD/2wBDAAIBAQEBAQIBAQECAgICAgQDAgICAgUEBAMEBgUGBgYFBgYGBwkIBgcJBwYGCAsICQoKCgoKBggLDAsKDAkKCgr/2wBDAQICAgICAgUDAwUKBwYHCgoKCgoKCgoKCgoKCgoKCgoKCgoKCgoKCgoKCgoKCgoKCgoKCgoKCgoKCgoKCgoKCgr/wAARCADwAawDASIAAhEBAxEB/8QAHwAAAQUBAQEBAQEAAAAAAAAAAAECAwQFBgcICQoL/8QAtRAAAgEDAwIEAwUFBAQAAAF9AQIDAAQRBRIhMUEGE1FhByJxFDKBkaEII0KxwRVS0fAkM2JyggkKFhcYGRolJicoKSo0NTY3ODk6Q0RFRkdISUpTVFVWV1hZWmNkZWZnaGlqc3R1dnd4eXqDhIWGh4iJipKTlJWWl5iZmqKjpKWmp6ipqrKztLW2t7i5usLDxMXGx8jJytLT1NXW19jZ2uHi4+Tl5ufo6erx8vP09fb3+Pn6/8QAHwEAAwEBAQEBAQEBAQAAAAAAAAECAwQFBgcICQoL/8QAtREAAgECBAQDBAcFBAQAAQJ3AAECAxEEBSExBhJBUQdhcRMiMoEIFEKRobHBCSMzUvAVYnLRChYkNOEl8RcYGRomJygpKjU2Nzg5OkNERUZHSElKU1RVVldYWVpjZGVmZ2hpanN0dXZ3eHl6goOEhYaHiImKkpOUlZaXmJmaoqOkpaanqKmqsrO0tba3uLm6wsPExcbHyMnK0tPU1dbX2Nna4uPk5ebn6Onq8vP09fb3+Pn6/9oADAMBAAIRAxEAPwDVm1nWdGsrbwhb+B9Hl0i2QpHG0rgqSTlgBjb9707VlBLO0n8q48I2oj81S72lzICMD/azkZ79a7FdGMsu9pWLd9xP9al/sVwmwICv+7XmOnCT1R08kOqOMvNe8FT6Tcade+GNfjgmjdJRa3COGXuo3L75qlayfC2a0j0jTX1m1hRSIRcabjBB+8VVeTx2Nd7caVM0QgXy1VSTgp/9amSaXGyCM2MJAzuIiGT+OM1LwtJ9B8kOxzWk3/h+509zdfEJRcRsqR2txaSw7k2jk5zhgew4prJ43urWGfQ/HdtEILjDRTX2zMR5CqOoP19a15/C2lSTCSazmKqMbA5Aqs/hK3lZwtoGBGFDKMDNZPCUn0NFTptbF2x8R+L7DZKJzPmMf6xI5CGwOcHP1wRUOu61PfW4uLzw7ZT3ETKqzy2AUup42swGTj0zisfUPh/pc65urV4gRtQxMyYboDlcduKfB4X8UafcrBoWpXYWODBH2gSKQAB91u+O/Ws5ZdQnuiHTpPobtno/wX17TFs/G3wpu5y5LltK1JYMksNrdiMYPAPaqHin4RfAnXVik0m88T+HmhOXFvJHOpHQ5Unnt/Sohf8AxE0qRTeXdtdR7h+7lslBHA6kVdi1TVLiUyalodoSwxmIsmPfGcVx1MowzeqIlhqE1qjAm/Z98O6nPFY6F8cdLTDKFj1DTZUafJPykqML/Dz061lfEL4TeMfh9aBtNXTdVvmfy4bbT75kkdgctwSMALznPYiuwlvNHSVnulu4XVd3mWuDtA56fhVbU7bTPGHkQ6R8QNNgu7SIPIuprLHNJHtbaqsPlDbgM5PQ1zvKoR+FGDwFBvY+S/2hfAXivxP4gsPE8GhXdnPbOvlXM0RCBUQJtJXk8Y5b614JqcXj6HXYNK1HQZry5e5yhspDG2AchSkeHIH5HHPFfoYIfinpUMctt4UnvWEm6RbeZZ4/KPHzA9+hrmfGnw28E67cyXPxG+GunNfTSIYbqW38iSJh2DLgYxW1PC8isH1Cmtj87dQ+HviX4m/EPS7TxHZ3sL32oiW+jtbZY5XGcjbuX5cuOAo6NxjFfodqMH/CAfs86NNpfw909fF1rcJH4Tmv2N1cIjyJ829yTnaT8rHCntmm6X+zd8Ab9Uv9F0efTby3KmOW0mQrG+QQ2TznIrR1vwlcalapPo/jhppbKcJbjUIwGide2c4APr1561FSnYn6tys9MvvH/h/4U+FL2Y+C4bXXvEOmiHXPEcermSW5iYBjuJOIju7Y9gRjFfP/AO0V8e/FWn+FrjUPDOn6Z9svUMF1qcU3kyBd24rKxByPm4A55wMVd/aH/Zw+JPjzw1oGoeDLuzv9GsG/4qWewcoVEb8RuZCd/TAYZyQTXnfxd1GyuLKC+8NWF9Z/YdJvIVh1JFmhd8fPKH+7v3AkcDgkCsFT1LpU7S1Rw0vhPWIP2kfhZ451GCx12L7QzabHpt42nq5jziKRpMNkZGf7/rXv/wC0x4fs7Xwx4d+H1hcX1h4g1qE3XiS2sW80Quh3KkmDhlKkcdTgc818NfFbVvE/xh8MaPLe3+pTWdlmPTJJSRJFcbiRIpB5AJ4Br6nuf2jfGE3hDwn4N0rThb6l4Z8OxWmq6nIqvc38u3iSV8Z3MDjjnAFYYxNRR4mZJ8+gzxbpln9lsdC2meHT0P2uOWyMSksMABD2APf1rP8AD8ejeNfFMsGraNa3Fr4VnURWquxtmlxgtGG44ycr932qz8PPFGv+J/ELadqPhLSYjGpuo77UlkZVmQErvbdlhgZAbgn2rJsPHOt+H9bvjqVtbXlvqnmJcXFrD5fls+f3oHTAPPGOtefCUnueTGm0rs2b7x3qMPiaDWPFui2F7p11dgm2sriQtAsecEoGVzyuQBhQTjoQKj/Zh+I2q/ED43a144ktGt9L1TTrldNntELqltFkFAByrqBu2NnknrzXHWXxQmT4AeI/hLeaVHfeIIpJB4e8ZX22CeNGwMBerYAwD6c1wv7KPjLWvhp4H1Y6jeIsukl1021tpzEuqtMGBd3AySpJ4yM13UlC25tTtzG7/wAE+vH/AIdbxrrPw+1nxkuj6HpWsm4bV9WHlR+TOhLMSOC7ORhcdwOM19S+Pr3SvAmm2HwztNFdkvrh55EF2qzX1njcJvIC8nBbgjbjoea/P74epr3g/wAJ+K4bPRUu9S1xUS6gclofLiZdjYxw20Ek8HHHUV9SWf7QniHUrHw749Om6RBeeG/Df9kofOMup3UQCsygyKx8rC4AGGAGMjkErSgpaHp0+Vs0f2kPjtZXHgvT/hrqurtc6bYpb3/hu7srQRzpbKVZ4iBwp2KwyBkHGK+mvhf4I8O/F74d+F/ip4q0iC28MaNoBi0HSNKPmLezhyTdXjzZLqdoIHVeRgZr5ftfgzpeg+d8X/iPrcknhTU7CObS9Mm09hOZyxJhJMh2IAGy20A54xwK9/8AhN+0Dp/iHw5pXgbV9EHh6LUg83hvRbSVPIeKPlyehXG9RsIGQxPPWuWVSNjaXJymd8NPhAnxqm8T/tDSXC6ZfR6oulNHDZgiVVRZGkLdI0MZGAMdTiu/1LU9X8M+OYdP0TxvHd65pPkwfZIXL2q2zACPLqAFXDZzn61f8X6Ra6R4Tsvhb4c1ZtAt/G2opJ4h0qwK+UkajbG+8/MpZcCsWXRrnwbDN8M/hJ4Rj1LfrEg1PxBBcB4ra1LbYWfPLnBAI6jvXmV7tng4qEnPQ43WvDWteIf2xbX4lWHjk3mseH7GSz0e58IbUSwi3NuRzMCZDkkFl4btxVX4jfFLxR8I/Bmo+H7WaTxDp0d7LJeaJp4DX0E+TukcEHK5B5rvPgbZaf4f/awv9O8XaLc3VrpVqkw1eKAeTEEUq8YyCCBIvfnivDfGfiLxNonxo8WfGHT7eaDU21C4NlfGFFtLmEl3VJcDAzxnitqVOTS1Cnh5S2JPh58XfHPhf4VWLR3Vhp2m6jeyXlhpGmKPtKRkl4mc43BgDyucZ4xXmPxO+KHh6ePwpDqt8s+oz+NvM0KL7IkfmzY2skqIoV+ePnB9etdv8DfEGpfFR9N+J/irV7Iajd2xXUdQsrGFYdAwM+XHGqhJVboGkDNjnNfM/wC0nq13o/xQTxHopJfR9duLjT5jGCIpmkb96FIxz1wQQK9GnTT3PQp4ZLoereI/2h/izaeL9U8PfD7RNN0GwF7Amt6fpWmKubqLhwZI8OW3hhyecZPavM/jgmoeJvjT4q+JGrNa6brt9pMF9e6ZqBntxIFjKhkaMfNI4wFjJ5PUZre/Y2+Inhn4iS+KvhQ6ai/iPUGuNWur3y1AWTBk3nbhmUEjLZzk9OaX4d+J/h/8O/j3p3xZ+Pml61cXHg+Azsmq2yMdYnckq1q5GHWMjksc/U11zp+zgOcFDY7T4U/Eb4t+FP2ZbTWf2lfCGqtowuRN4eudV0wedp7RnDlC37yJMjlDxnODxXa/ELWvhH8XfAlheS/DnS/E2oShPJ3osLPHGwbcWQASq2Bjd6GvBvEHjHx7+2r8dE+Jnxp/4SDTvDE+mTnRdGSd1dzFhYS4bMbbsZIwRxX0b+ywsWhfsq6ovh7wlFqvii3uLi11+S4iVhptuikCVMfdBGOF7g1w14xUt9Sbu1jc+IviDwV47+Ivw+19PG2s2fjrU9Zt9L0ayF4sumeHYWTGQCSoKKCNowMkgDivqvUNF8I/DS2uvDvwe0GbXvF+t3QlvNW12QGeXAyZUUnO1R6dhX5f6f8AGfQ3v/DPgvUPBs8v/CNeNl1G6tPD9kypqkfmgbR8xKN1Jbpk5NfZ3xA+Nmo+MNLl1zwPpE0+qS2rRaVovh66Emp2DOwUtM54RM7ssDt9K5HY1pK7MD4n6TBq3xBsLmzvfEHiW4tw0d3Jas627ynlF2biYwoPUDBxzXbfB/xB4V+E/wAIvFfxm1jx7rl/cNdNpUvhi0vQiJdDIDpHHhnLFjk5wBzisXwH4I8feBfh7ZeIfEclzN4htrx7e80Lw0i3DKrnkXk4z84A5AwB2611PgjWfG2meOtP0BfhVYwWt/am6gs5tHDG2kII8+WUHJDHkjA4xU7npxS5TL+HXir41eILbUdEW21e3h1hY2t47YqgihY/NFKWyX5BxjrkZrsfEujaHqeinwT4w0O+jGl7vtryTeXeXMJyFSPb8obnn8a6TUPG+meHNe03SPjH4t8PapqoUtDYaDbC2hVeibXUk5UY4zyTzXnnirxZFH4+trVLDUfEWoSSF1V5PMhtowcEybegAPJJyTTSuYzjdkvwC+HXws0L4lT6/wCJbRZrXQ9MaXT7G+ZvsumKuR5jNjMkjEfw8Z9q4Tx1+0b8Tf2sdatL+91q4060OvQ2Gnw6rrLWZXSUYqZlG7LIEQbfL5P8Xeud+LR1Wz+IOt/CXVPE1xpsuo2pNloenTl7q2s5WjZJixby9oxwi5IB+bvXnPwI8UfCnxz8cb/4M634Z1DU9J8LadcHUfGfivVFCW4gTZHJEkeACWeT5cYJPTgVvCkmYTw8JHvd38QPD3jX4BfG3WLHV9V1DRNI8d2Gm6JZ31wDMkrbY1jUgZ2yPlw3J298Vxnh3X7zQ/Dni79maaaaTU7e1h/t3X4IlFyHlOZIkBO04+ZS69OMCvGPhR+0FY/GX4oar8N/hXo0r+H7LUoLq5vERmW6NmF2mcJwCCvysTk5r3H9nPVvCPirUvGPx88R2llPfX8wLWsF08c0RaMsFGesmTyB7cVTpOLsCw6itDzbwF4i8M/Cn9qu4tH8KX9ppF1pa2dzpFywk/0ZF3vKk3DBmz85BA5xW3+zb4Yb4j+C9a+JV1LJb6bpvjG8uNAsbWZo9mm2yHbFG3Q7duT3bJzmvNpdE1v4vXv2fxJZ3lpDNqdzfprjqwvjDuyLYqP+WSk84HIr0zwx8WNH+H/w80z4ZfAu6kmk/wCEbvV8RahLDmKORk2s8KHqQ2V3dcYOc1cYX3Mp0I22PDPgJ+238S/h7q/j/wAH+BfAFlqVx4/W5ubnUoQIprNd0ibkaQEZ2PgZHcnvV34KW3iCTxnpPxFm0DUNL0rTNCvWhl1BQFfKOu8zQ/L5je4yAgrmNA+H3hxf2WvF3jrwnojWOuWVzaaXDI64aMSAFnfzDksV29A2ea634VeGdM8K/DlrbR/jLqMdzZxvf6haS6X+7iPlsShydrJhnCrjOfvGsp00tTldOzsdt8MPH3ib4tQrJo1vH4j8JTia0h0CPUTC6XaHmcyAgsE4yDnP0r3nwXrHhD9nzwpYfDqy8W6dbSR2y3F6L6+dGkmk5Z1EZACEAAdzgknmvl39mzxPZ+K/D/iXX/AWj6hZmSwuLyztrjy0JaF9pdeFSNSBnPJOMHNc58PP2mdY8W6A2p6z4K0q9ukupIJprcb1yh2gZ+bnAHGe9L2fcunQUtT9Z4/DWlX2nskumRFyx2To5BGenGcEe9UX8BhpvKtxubZuA9v89q9c1HRPD13LNdp4eFi2weTFaSlo1bGCfm5wR27Vmv4S0K8MNxapdW8sOdoZgBnt+FfoVkfUpu55Dc+G4o5WiaOTIzlinGaY3hyNYQ4UV7Za+AtJ16Up4k8Z2Wk+RHlWnsGeKQkchnT5h27Gqlp8Fr7WJI7PQtU0LUWUFWaPURb+YeMMvmDoPT3FBb0PGJfCtzL8yxZXtxSf8I5NEhZYcgcEjB5r2O4/Z4+KumK983g2a4hi4caVeR3ZXoOVj5HJA+tc3deE9QtQzTWE9sySMssGoWMls24HBGJFGfqKajcL6bnnN3ozSJsdQwHbbUJit7dvMbTEbHVivJ/GvQ73w3EbiRIYEIB+Uq4IP+NUL7wVcW5CywYLg7QDx19e1RJNMDhLtLDULdYpNP2mNeHXPzGs+a2t5idq7fZl612134OuIpPuyR7VyQFyKZJ4SmljLOEXb1JTGfwqWnJFJnn154fgncyRxbMjqpHX8qqah4N0u+Pm6hAz7RhQhC4/Su9uPDMscfnJaMykcNtIBqpc6LNCmZLcgFRxjOD+FLkT0K0PPLfwVdaXubQtQuomZiS6XT/KD2I3Adaak/xVs2Kz31newDpDqenx3Ab3yclfzrvrjw9KjAIqMrJu3J29j71DJo8qAEJn8OlT7NdAOJltvC2pln1z4XWtvPsG6fSbt4wWIPPlk49Kwx8NvDt4wvdJ8fz6S7AjytVsTLEZM8D5DnkEckV6JfaakuVaBc9nA5rJudCito2W0cxsRkSAcqfbNZSoxe4WOQ1vwX4+8QfD1/BHh1bbxAvmTTS2Oj6i0bSfOrFishGE5YhRgZIHSvJfEuk21/Y3mhfEvTLnQbRmjWWzvtOMc0kQG4bDt2sD04OBur2DxF4WGpXYvXt3SWMYgniJR0G3GDjgjp+PNYkkvxP8PaaNOtdaF9adI11mH7XsG7JClydoHHA9BWEsProZOLWxxfgz9lb4H+LfC6WmiXd1YSCYmIpIJ0i3IrBtqj5Cc8+mM1vfFT9lPxN4X0rR7bS9ftdUgMccU7xWgFwEGBv4x5jDdjnngVFrnj3xP4K1qLxP4c+D1hes8kcWovol5LCZwzAF5Im+UEKOcHHFei2v7RPgvxP4atPh+IDot9p8MlysF0inaXdRgSr98nbj2x71yVsI6mrOKrho1HqfOOq/D658Nvb2mq6xBYQPK5mN/Z3SmQhcj5hyOQRjp04rkY54NTSWe1uPtKq5DMrKEjA5x7D0r6y0T4r6dp+vxzW5MswgeKUT2qSI646HzOG/DnpjvXnfifwZ8E7bwjrWrweGAniaCQXcaae4MN/Ju+WJVAG3rk8jhTzzXk1cLKGx5lfBcq0PnvxT4WstfsYbyawW3mgkMltdOcgHofYjH86zdY+H2lRabDbxW8KGJC9wTbmLBJzkEnB79K9P0vwV45+JQutK8PaPp5nW0LX1rPdCL7PkH5osAggYJI7DFZvxF8N+J/B2jtaePdAnsbYwiX7TIQY2BIwoYdT1461yzpVIbHJKg4HH+Hfg9daxbR65p80dtYRQCSGdJMOXDYJIH3h6565rX8J2N74Z8bW/xF060SbUtMj8u0N8FdUEi4LbB1B7E9K6n4et4d1Pw/It4ZXfyP3XlxvsCY6kIc8joa3fEGh6Z4I0mfTb3TdMhv8AVrFJbJrtvmWNWAKxn7zHYM4PTvzXFUrTg9TF1J03ocF+1P4p+M3xc8LTWL3kL6Pa28TzXst8gngcryqKv8IJ44xj9eo8LeKotJ+AHhPXfDNkdf1vTYld31mF3khc+WsvkqMKCDjJz0XjPQ4enaTpEOtppXg7T0aaWHfeR3cmVZBgM27uBnoaTxNpnxJ0jwxK9vrzwWE0QS0fTpVBcMMyDYwHr1HfBHSkq8WtTaNXnjqfTEXxw0y08OeH/iR/whOmanZuhsIb7UbkteXN6vyMqQp1QNna5XpWNq3hT4w+OviZo/w30i31nS9Y8TLLcINNlFvKx2jdtBAVRncTuAP0q3+w54X8DeC/hjdfGnVfCRsJNDRbZ9ZvLs3cku9CylEPypLnHI5ro/Bfxs1/xMw+KvinU7sa95pttHvJNqmztsndJIOOo78nmpjKNRi5VJkvibVPD/grwlB+y18LNTN9r89rdw+Ibr7e1xPBgs7b5Aec+xyM9TXyp4V+KVnpf7Lfj7xd450i+ubbRvHi2Wj6Mb0+ZqLyMy/MzDhfXDceteufEfUZPgj+zhr/AItfbpl74/1a5trrxHZhfPRY8eVGrEblVgTwmGwRur598beEdZtf2TNL+KfgjRLmDT9DvLY6jayR+fK9zcMP3jiRmKuu75igH3TgCvVw1JM7KFJFv9nH4g6nBr8nwhhtfJvGv3TU9N0/TTKDEF++TjBPfA49BivPPG2taB4y0DW/E255PsGsvppFxHskkdZCnmFQBtYkZK9AeK7/AMVXt18IvGf/AAstr6WxS9hD6dcafdyLh2U4I5ywx0DZFeWx+EdH8G+EtT+JPj7V57u3vr+e90+0lfb9rvXcyA5Ugk7jnHQ+lenCMF0O6cFGKscX8Kdfg+BH7XWmt4z1u30yzyLTUr/yWkKBtgGVAAYlmGQcqAOuM16R+1x4T+GmkeLdG0TxPrt9IseoTX99Z3dxF9m1G2mlLEx7TlPnyeMLhSB2rw3xjYeI/jh410/xLq2lm/1/W7vytR0+BCjokbh95UACPIByRhcYAr6v+P3hX4gfGP4YaPaeG/hlpyWtlLaJqmpX9qnmmWL5PLgYjMm7duxkqmMYGcVGKqQpxVjz8Q7LQyP2btR1z4kzeK/FGh+I7mXSvDWmzW/g2DUEWJLJGclYwp4Y/wB0nk9zXVfCD4wXFoLX4T3fie8isPEEH2rWr+3to1RUdVJWYDDAlmIODjjjil+DPg/xb4Kk8SeDtDsNOn8Q6zqH2TT9Av41i+0Qbsy3POAepCsePQDFavwS8D2nhP4q+H/2ddU0TTb43Wsz22r6vZXEkrGBWZTCgIDMFYBdzsRgZFfPTrc0jjUtDqdH+Gnw6+FXjKYabANAbUJMya1bQsyXatjDZPIjB4bHXFWfhRc+H/DvxF+In7Rfhq4nttN0bTP+EdNrcQGOC/upHIjmSQ/wBeQowCMEknmuk8ba94Gt/Ex+DWk+AJNSk0iSQT6teXc0iaYmPvGIKSw/ug8DjIpt18ENOvv2fbn4feBPECajPexmbUNKluXaWfHRxGehHJ6D0GMVyqtJS1NKVa0tTuf2LfGPiHV/FXhnwt9s03R/C+gLPe+KJ7eSS2W7R1+V53LHzG+XjnFdpougfDzxrr2rePYPEGoaZeTRzKNUm3l/L5wiqG2bD2G3vXgmr6t4P+H37M2o/Dnxb8R20xIrC3juBYqskkpV9qIgA3h2Oflz0xmuz+HV+fEPwg0yXwba6rZTySRt9u1MfPMB0dkbhFwASuBzXVTfMekpKSujQtPgv4a1XwtB4+/4R+e9k1XVFtdFt72VhPIX6ThQRhScHaAcDtXE/tm/EB/2cPhXcfCf4bzWMd8NWEviTxRpgm+ZQVMVvnqzNkDC5yG5HBI930XxHoVteDxj41vbnUrmztFhtJpUEKPKMLHtVcCP5V5JxnHWud8Q/DuC41W31341Wlvpmn3ErzxW9zckopAKZcdCcHAznrketdMY2Yzwj4heFLrwNr3g7xh4R8QDXda8WeGCmoyyyCV2vBEAsIAwIxjjHWvItX1Twl8Ijerc/CNLnX9Vux4aVf7ZVI7W5nkxLJPGvLAZPOeMV9FeE/g74G+HvjbVPG+tfEC1ubAm9k8K+D9OiZVlnVsRl7hy2AMBjt618vXv7QLeDPitqvjDxD8OLPUdb1i/Wa/1K5slJE4YhoYICpwSQcSHHAJBFdVJK4Hq37SVp4P/AGe/htrfwO+EN1Z+FvD2hGNNVl0PL3eoXEvzXEzSffxjaQxyBnGMVyo+KfgXRPCHw/1jw/8Ab7LUpNWctp91YebLqRiBWOaPIyGIwSABwar/AA2s7fx38APiT478R2d7e6x401SGzs7S9YGSGGKIbY4UPzryNuSSWxmsb4F+H/G9rqegeLviB4JuIR4UupJ/DV1r1yRNFdOAotoIAQzMmBkybgR24raST3LUj1Xxf4Y+JWpfBvxp8Sbm5j024ubO0jttSmmFtFa7sFoi3G5z02ABmI5NfPk+uS/Ec6z4gtor7WNR0/wXBZtqOmZt4tPSI5JfbhWJydxKkn1r6F/4KTa9o/g39nL4efs96/qhtZNQuv8AhJPGLSXJ+0x3DFpEJPA2bz9zooxxXhvwu8P3/jT9kvxHP4f8RLpWt+KL0m+trXTWLy6WmSRHuG15Gxn5Ofm7VCSSuc1eSiR/s3eI/D2t/s2eMNIW5jv9QvdZtitlJdHyo4I98aXTKfuhEOCQecZIJqbwH8Hfih8TfhPpviK71a8GjXVzPYSpaJDGIIw777m+OA0ETEko/G5StaXw9+B95+zt8MR8RPhdp+meKNR1y6a1tLVWJOn2q/ekukcttyCx3HgEcV6B8Ovhh8PH+Cx17xh8Qn0yK7vZtJuNV8OR731GDpIsu9XBIPygk8Y4wOK5a9RX02OGVRSsS/Dz4DeG/BPwInm+HVir6VaT/Y9T1ubUfNWZCxMy20ZG6UfMMsOB2q74d0LwamnkfBn4ap4a0MyForW+hklkupDy9zmPCgOTnGBjHNejaNJpafA238BeHvhpfeHfDei3if2dNqSK13fAb97gjJVWKAYHJx9c39F+G3w98Z6bHruseIdX02V8qLC0mZI4VBICqoxt9ce/vXK6jb1Z1UZK2h+mc1jasCCoNV30m22fJGBzyMdatyoedgAAPrUJvE+6UPXuK/Skj6SKRUn0VXUoillK42sgIP51kt4Z1KzmWOO0G0DqEBFdMLvAC9B9elSwsXOFl4PqaT3E9zl9K0VtCuzeWdxcwT7/ADDLbTPGwP1U5xz06Vu6z4/8c+JJoV8SeJrjUYoFIRNQgjlzxjksvPHr7elWp7SBnJd1zjHWmtaWgiIkiVvQGnfYSjYxnbRbuaS81bwjpU5aJgsaJJCVJPbYQB9OmBWXJ4R8OPIXSKRGx86BmZc+2a6lbbT2+X7Jt9/SnHS7dx8hAHpRIp6HC3fhG3JK2Um+bGIRJwoPoRVbVvhxqQkI1LS0Kv1eJ+v5cgda7m80RUIIUc9CBVVtOmjjx50hx/tnP50raCs7HnN78PHaLamnruUgIPMOcfiaqv4RtreFmNgArDDSYz3969Hmius7iocL0juFyCO4z1qZNO8D3KI+o6DfacxbEt1assyov94I3J/+vSFdnjer+GbZGLW7gZPzK3DfXFZd14cfyiI4uD/d65r3F/hN4f8AEcki+EviZol/LCu549TtmspiccKWLFep9O3visPXvhN4s8N20Oo+IfD8un20khjW+BWe3LY4zNH8i5/2iKAPEL7w1PDJiQiMc/NJwDVC60k2+VmiHB5O2vU7ux0+9nSBkivEZcBldZEAIPO5Tt/A8/lWTq3hOG6ZvJjKsBh2B5wD1A/SpcbjTseXXS2Gz5rZWzkfSqTeGotVVRbPDGN2CGxzkHpn3ArvdS8A29wBcIqMoT+L5SeTzj61jXXhi3tzi3sgxXqpFS0UtTz/AMQeDNa0Y/ZdS0VTG4BkEQ+U9ic9evpXKeJfhxompSAjTvIZ3+USLwAD1yTkf417G7analh5jfMOd43cenNZ+qeGLfVSJiBHJ8oVgM4H096lxFZLoeC3XhjXtBkF1pd08nlOvlRXX3N3GQCPxFcL448CeD72GfXbSDU/CmrXQBuZ9Ike6ilkDD/WBj+7ODkEf1r6L1nwlrltcM21vLDHmOMEY7dv/r1zF/8ADFL+Zp2jmDZywV+D65B61zzw8ZLYicYzVjy/QfD9/Y6zaRQeNBql48aGfUNMZQ3mOFTy2hXAGF37ic8sDWt4A+Ily1zf+F59AvNX1bTLgF9N1TZLBAgHzOscnLDqe+M1tH4GR6fef2loMZsLrcXa6tjhs4xnH4dqZD4X8R2Goy6p410e21yJ02m6Vjb3UQUfeMincd2P/Hua4KmCcjllhU9zlvC3g3wb4v1vxTZ2V19i8WTRSLo9hIrR26BAzZKjAUZAHBAG4elcg/h3WNHeHVtX8P3dtNDCY72S+BuELtjPlv8AwrnIxnn3rtPFPwdvfG2oWXiv9n34xvp/i2KPyB4S8WkvBeJkHbHcAAjIO3BOeMnrXafDjXviJd6kfhr8WvhNqFtdQywR2hAie0k5wzLJkeYg3MBnvXj4rL9GclXB07Hm/gPw5pWm63L4i1K5kMtxAILeK3gX5VbGV56ZIBz/ALNO+IXh63kurjSYTbSmK1BtL1mOXdwuVRQfvLk8n0Nej/HrSPgD8MbGGx8W6le6JPqGp/Zms7eItLK6thysik7EBPHtmuG8VfCi1tPEUOl+G9SkW3mtRc22p3MjsQjDIBweRzxk5Arw6uHlE8ipQcZe6egeG/EdpH+zppPwpfWlsLKO4Ml093GFXzMHMuOrEnAA7Zql4Hkj8Y6ZeeHtPvFh1CzfyNP06/tvKnuCVJ3YYZ2nHyn8qp3/AIqk0XwtY2WsjSZZrfTRbR/ZkLuuABvJz97jOe5+lcX8Lb6Twx8Sr7x1q6XOrwlma2n17UB9ojwCA4fIGMHIHYcVz0pyjPUxTlHc6T9s3RtasPhx8PPAl9a3kBh8RPqGp3DRLNsAhf7yngBsRn5sEnNfPHi3xPrnjDwsvwU1udo9N1TxDAt1AoWCPZG26GSUpyHULH1JBP3s5OfpXxn4g134v/DvVdQj0yN7i3aE6fCk7fZ7g5/iYg/dCk5JxXhXxf8Ah7ptz4X07XrTU9O0y81Zx5cl7IfLYoMMWKA4GR96vfoVVGNz06FRKNzn/iJe6Tq3xgufhTrFz9s0HS79U0u8tgzsDjcPUN905yQO3fFcb8cda8UeLdW8KyXdlnRvCuoXMyaLFp+JLnZLlpXAUMW5I2j5VxyDXr/w3+BPhu1uL/4r+NPFjX17pmlC9h02wgJhkmCkowYj5hwpIXJ56ivNrHxPqnxisrjxNb3yjxQ11M+p29pbPKlsJAVCoqkMm5QevBbknOK6FibMqriLLc4Pxj4fhj1TUfjfoT6lpFlrc011Yak7+U9s0hy1vI2FAQc9FHUAKAK+j/gp418OfE7wZ4T8D+OLW/HhyxsUmtrOx1qS2+3ucubhp3H3mYdMDgAcV5Vq2hav4Q8NaboXi+OJ/DFpqoedrq4+1Mt1kZBTHbGArAkkHNT+IdL8a+Ovh9r7eIfCE+iWDXJfSNT16I2kk0KZ2TR2/GEK84GPauavVVVHHKp7TQ9j1bSfAXivwVL8STrEltd6TqkYe5v7r/SmReGhhL/Mg2jGBuXv3rC+HP7RF1rH7XGk/GdtFvtB8D6TYLBZWSuRJPMGwGZc7ShPUgZ71yr6FoP/AAingjUNZsrW80G/06MXOviN5J55duBEoP8ACOGbpjgGvWdC+JXwyOj6fJ8Wb6K+vfDVmbfwy8GnxxQJbyEtGZAow7ANjnmuDlQvZ2R1XgTxj4Q0Pxp4u+I1m11qPi7xrqM8ZMl4yWtjE2QEXJzLjaCOcgmvO9B/aG+KPgoPe+MPDs097pV3IIL2001opL9HYgJJKoLIi54J9Sa3tO+IXgXwf4ei1Pxl4ZOoRXtyJLTUdYmES6YxUkeWigFfmK4BOcHpXH6F8bNQ8G/FbUvCVtYWss+uWQnt9Wgg84wH7ywymU+WN4PTqMVMKUZMUILmPOfijBeWOk6fr/w+jEuoXGvvLeWuqXOFtllfEbOpO9gB91sZ4y1ffOh+IPB+mfs9aDN4a0tXn07RIYdUuLT5pdVuuC7RKT85DEgt0wK+UPidFpXxM+K/gO20i+g0ueyv/sviDUf7OAiu+c7ZCo2yjJUEjGAa9k+GXiHSfEf7SEGmalfQ3Ok6dIzXWjaMzQWUIwVVUzj5cgHHqa7o0oxR6dGB6f8ADHQfFXxB8U6Z4X+Kt5Bp1vM6anLbSnM8dtEcoJFX7owDy3y889RVT48fEnRfizqV1d6RNPquu3/ikW2j6Sbby7NYo9gZ2cAg5G4kfdI9Kf8AtI3L6TrWit4dD+H7945LR7+2LSXNyjdY9vQphQADkZPSuH1tBo9pbW3gy0uoLyeHyZZtavUVGVziaYBcFCEGNuOd1J7ikmpHYp8afA3wU+Gniz44/EiSz1G+0hJ7fwxZ3ejg2aajKMQpAkSfvSXBHcc8nvXyJ+2Z8Jh8Bvhv4d8ceL/EDj45eLbOTXfiBJCFYWUk2JI7faN0cQjWTG2PaMjpivVvjloXxZ8SfGjwB8N/BtrBqT3OlGXQbWZVNlo6gqZLuVHyGlGBtC7Sv1JNdbrXwG0Hx78dtS8JfG/x2uu7tMN1qOr+WYFmvCjhUxJlpTsGAqnnCk8811UdjWnG54D+zFpPhSH9mzT/AI9/GLSde1i0j1V4oNS0q9ELQzSYXzAnVpGkJ2qPujpXu2peJtN+F+qPB4W+EdzdeKobPT01vUNeuBeSaXC6FvNdSxEcmP4gN3HNeAfF/wCJPw++Hf7Lmh/Br4f2M2mx23xBghtdN1O7Et3exF8m5YqA0ah9yoCcrgda734D+J9U8EeEPjR4m0KaOddftxAgupGlvrl4kClhvyxbcSBwBhc81rNFSXK7HFftuW/gzXtE+GnirxVFbak3iTVrlGGqXBZmsSduGdCQSW6dxxkCup/Zx8c+M9K0CH4SeNfE9++ufD/UbiDwb4Qa1aaaTS5UBJUooFxg5ALBsAE9BmvOfGvjHwN+0j+yb4U+HELx6b8QvhTrC20+iX9oWGo25lY+b5vTMnDHnK7cYGaj+DHhqf4s/FjxJ8T/AI03Wo6PrelTwroCSyyQlfJALiMLhtuAFUg7cMc5BrnrXUThxK5nZHQ+H/hh8TfF0fiTxh8J9Dm07xTJdS23hibWfFMUH+iMmZZ3tQNjRAvtBfJPOMYqt4W8GyWPwNi+CPwS8NpH8QfC1wlx43vZr9ZNPlnkYZnUyfKwIZQu1SxKnJxXU/tNfF+21rw2NR0u3tdNv/EcEOnRX39qAPa42pDabICWLHbkkgDA55NdaPgD4E/Z90TSdd8W6vf3vi28so4rnVBEyx264DeUyAYKgfxSdO9edOq0rNHnyhys0PiNZeKfh5+zZ8PtL+L3xRtNPe8vEvdR8U6PF9pAUozCGOLGM5Y5yMD0Fa3h34t/DnwJo8Ojaz47825kBnkubqwBefeciQ5U4yMcdsVW8b+ONe/s/wAPaj4O8JWeu6h4gjJ8NzvcrLbpBG2yS4MRymxWJ5QDOKd8VviFY/BbxxefDzxz8TdE1nVbNt15enS40BZ/m2gLwAM8Djr0rFU5T1OmjF20P1Rls4w25Rz79KimtnHAUH0wKtSahHDDuWMuOACTyPwqKPWtNkcIzlG/usvSv1C7R9TdooT2l0g3JDuPoDSrDMyDzMqfQGtqKW3k+VSD7VH5ELNuC/hS3FuZv2eToG47ZPWnOrhdxHTvWkbSLoFWk+x5Hy0AZ2XVfnT8qbDJtYgP9RmtMWhB5A6c8VXmtVWQlYl68NTux3ZXaYk+w6c0FlJGI8fU1YS33fe4zQbZj8o596GDIpI4DGN8anjNU7+xSfaUOCB1FXltZhJhlIHsM0k1syNkZx6kUhGJcaFhCq20EmfvbkUE/jimW194g8OWI0/w74gu9O3SbtkTgovXqh4YZPQ8GulthGVwQD6ipbiGwuE8p4ee3GKBPYoL460DVdLe1+JPwQ0fVtQMaxtrmgSNZyygfKsjRfd38ndjrya5G88L+FtZ1Oa206WW0bcTEL7HljnOC2M59+n6V2w0SJjvhUjjpjH51WudBS4LLLbKy45UKPmx25oBO55x4i+E/iOzsX1ptLM1oG4uogJE5JAXcPu9OPaudvPCCArHceT80W4sr8j2Poc17n4D8M+MYEv/ABD4dvbW0trcbrvT5b5VNxhSfkiY4IHfFYN1rOj+JrNbvV/C8NtdEDz7q0jwHwAeU6AkEdPQ0FKx4jqPgtwHVUXAHynAII+tc7daBfWdx+5h8xC2C46EV7lceE7a9h+06QHniOTgRZZceq9a53VPDcEhjlliaFcj5XiIb0IYduf5daTQ27nlNxpd7bYuEUE55j65HuKz7zwpDeI76fGsTldzo7Yyfb/PavT7rwlL57SReWoJwF61kS+Hhaal5c6Z6bm25Xnp0o2Rk07Hkk2hSRzMoOSG5xUGp+FodT2vcryibQSg6f5/nXqPibwfBZvC9hE5Em7eHhwoOeST1H096x59AeGQxKkTMy7iiyAkL68H3qXZguY8a8R/Be31LItpIh/Enl7w6Pxll7ZqlpPhHxZ4MgjstZuZtT0+Fkk+z3O987GJxjIUfeU8cfL7mvbv7A2YYN9Diq91ZeXC8UkJbcwPvjof0rnqYeFRWFKHOrM8a8dReGPHXhm20G3+F9lOBN9p1CK2VjcypvbCoWY7XO4DI44rzY6h8QNM1mLwT8O/hF4n1y9vpI0bwuImL2UQG3fJKQcFsfdXgZ7V9C+Kfhlo2rR+bo4nsbiNty3UMu2UDOcBhjv+VS6R8RPiJ4S0yz0zV7/AtZFKa7p9sBewoMnqf9Z265PPrXhYzKpS+E4p4CW6PnS6lsvCmv6p4c1jwtDp+o6TOtvqulXF4xmtpNpOxRk72OMnqBzismG/0bxb4lu/D9rawQxxQBpLaeQynec5TYfmK5woPOfXNdn46+Cnw48TeLrr4kWHiTxDp/iO5vHnOrLIrszO2dzIwIOefl5xnjFVvDf7PXijwbe6l468P6vZtfa4oi1TW9ctgGIb7ohKH90MjkHIByRjPHzNfB1aE9TyMRTcNGjP8D6/dv4rg+DUFxpayXtoJ9R8PiRoFc7ARnJ3AYZn4IAwQOwqhq+heH/HHw2Ogw6BDeWEN3DZrGZyOZGAYBxhjlug9PasLSvhb8aPhzc6/wDE34u+D1MIjtbLR77w/exX1w+/jzSQSwUbeRjitrw1q6+GZdHn8NPaSxQKs0pbDSGRWVgXQgrtYr/F8w6UozlFHNGcoml8aLm48F+EtVbwVrVjpw077JoscsFsS0KbIl8xAOvDkEADryeMD59f4b2XhjXn8PeHPGBvb8LGNWeyQW7XRK7t4k2KTgnBByB24r6Dlt7Lxvq2uSapqBsn1ItcR/ZLfesNwNu11DluTtGQfk46V5N+0ZrFyvxM0KXW4YPsum6dve5VGV4pHYAq3lj5iADxyvP0qHiGnaxlVqtuzOVm8G+K/ix4isPDGp+Ko9J0TRN1zLaWcStuuFUGN3bAEjZ5Ge5PPNVTH8VPih8XbZfiz4ivtTt9ESRr5L2+8pGT+CRf4WfjmPG1QRgV32iabZeNVuLjRNehvYYdMNxMiR/ZhD/cDFgDL0zwOuQcVzvgjR9V+I/ji91rRb2yt9Jtmg0/Wp7tttyxwykwkDHVctwe1aRr81gpztI2tI8Yau+q3PhvwJqj6dYzWTWej3p0sTJFcuPm2hwVXjjOMA16d4L/AGU/htonw1Ol+P8AVmW8mWCe51y4ucTWsrNu2RwpgM2T8rc1rPqvhnT18P8Aw38NCVrhVMGn28MY3TH+KVjt43Y5J6kdBXXfFzxC5hsPCCeG7eO40jTmub6TT5S105Y5/eBvlzk/L7V0rlcDuVRHmP7W1jpOqaT8PNJ1CQz6d4VvZHnvryMSPqDbQUE6kDeOBjvx6V598F/D2oeI/GB8feNNKnutJW3uI1TTYRFC0jjcC6NlQRntggVrfEHSvjb8U9c0q11HwZdyxzXKIn79DcRxY+aQ8kMxABChc+9e+eEfEXwt04p4Xj8JX+v+HMTQQ2wxbS2cirgXMiKN7lsAHPHpTpJXRUUr3Rwq/CzRYP2ern4oQeG7nSdQOrSwabDGQftq8lcJk4BXo3HTmpv2ePDHiCDxJp3jjVNKuLmy07O+3iYeVck/dMrdflPate8+Kngnxzos0NjrizalBrTaXaaBFKWlVOVWXCkqgwVyrYYbuehrvfC2l6X8OpZPDN9rccYhLJfWLXA+fP8Ay0GP4eCOtdM520OmFblOq+LXw41/41eH478z2cGqM32jTytwRKCDlRwMKnYY6nNfPvj/AFa9s4LD4N+OPD1xbznWludU8QXB3edFEN3kIM8Dnr+de3aD8XB4V8Mat420O6TWdKs5IobWOOWLfE+SGBGSQoIb73HHHWvkv42eA/GXxM+L+s+ONXmvLzR9YmVNOvbN3SNY2DKVhiByAoI3Pjkr15qYNM1jVi3dntn7J9jHPr+sfHfxrHOkl3qlxpXhfTZpi8FnYRg+aBk53MQpDA49OK8h/aV+ONz4mkvNb8OwXNy+jatbQHVtMIDWSSSYMig/LuUHBJzV79rr4rvoHwN/sfwRA9v4a8F29jpEWoBik0wwqSXE3AZz1+YfjXj3gjVvCuo/B34l/s+WWuLpwGn/AGrw1r6XSPdazO6q8UaI2Mj+E8j25rrp2Suy/bRWxD/wUSvNU0vTdM+DcDQ3nifTdVi17RtXstMWO4utOZVCG4YdJg2TgHBIJ711v7ON9ca3M3jHT5r3UBc6DND4ut3jD6jFcIw2TQBjiNCucnBPoah1rTdV+OX7MXw5sPE5ksvHuoeIV0LUbq/yk9rbQyNuikRMEHggNjkYzWXf+FbDwF8Xb7wt4dn1HSLubSkWyezJd7uTYomid/m2qXD49sYFVKpzLlRhKtzT0OQtfFGneKP2jb62+Gvhq38NaRcWk7+IZJLx7k6tIpxFJFuXKOGVsqMg46GvQvhH8W/iV461SXwj4k8JW/iMR6PPDoeswRmKbLN8okPC9EBPy5yCPauV8PeBbnw78XdPGs6RZXJ8P3f2jQTp0vnefI7M7RswIJO4npggnGMcV7lLoupx/FPw5p8mi6m2o38kkt4Vtoo49OMn3Hk8pQwQcfLn1yea0jS9pFXNlDmV2cXefBDw/wCI/Etpr/jjRLCbUXtoYrTyne3h0+dZVff8mVkYAbuVBHPPOK9h/aS+IXi34l6Fc6TpvgjUJzp2jMdQ1WSUKl5GgG5EBxuZkHUc4FegeEfB0MZtvB95qVtd3dxcbb3UYbERqMjACqeewGcnPqa5z40aD4e8OQ/8I1d6hf397bS7GsxbjbGMnJUdWwpTI/2iah4GEmYulGUtTjvDmu6lb/FLwP8AE/xT4dj0PwN4L8A3ljaKilWit7ptqblAJdgwLMRz6Niut0rwn+w4kLz/ABPVvFGuTyGS+1uWyuHa4OAAcoVHQDgCqWnaVr/xT+JPhv4Z6dapp+g6oytqk8NoT56xdIevynrkjA56V9VC8+DvgEf8Izc+Hra3eADdFBaF1HHrk9hj8K7cPgoctmdNOjCKPqE6fqLM6NYTKVGSFi3A/iDUUflsxt5lVJAPmjYYIzW9Y6pbwXqzpp88Y3ZkFreGMnnt1A4rYu/EPh6eVRbPd7XfbNHrVvHOiDGARIoDD8q+iPTOMexjEi5O3b3RqtwsUHByPWug/wCEMu9RIbRLayuSMkpp14AMdjhsE/Sqd/4dubKZo7m2uIRGoMhuYtmCeOvTFAFGNwR8w7U9QQflIqQ6XMsfmGRWAONyEFc+mfX2piIwwCMemeKdtB20HBWfqKayADbtpQ5DAAgA9c0bw3OR1pCIfLBOCMfhT/LAwcdfenhCGyF7etSMoZAu0e9AEE0fQGNenY1BI8ceVZMA92qxPAygtHKVPoD1pq2xl/1mDx3oAqCOMHckgPpg0kxl4AjOQOTirLaJGsm8ADHcGpRaYOG/nQBmLNdJIFW5IHcY61cQzuuVHbHFStp8JBJODQLWWMZUgj60CsV5bSKaJoniXLLtZguDjuM9arzeHoZbQ20UhRc5BI3YJIz15rXjWM8Og/KpkhQjaBQM4nUfDF7YXbajpU8vmRk+W8czICB3AJ/Q0238QXbx3i+OdITU5ZcJazxYilijUDAG0AMeMZcg9T6V201okibPL5qhcaFG3zbB9aAOJ/4V+b2Jr7QL8XcfG+3uAFmj4HvgjOec1iXfhZXn2XFsRtf7uOc+legX2gBZVZFfAHVDjmqj6VcRuqXNuHBOWDHt60nqhqx5zq3h6W6by7mVlJXALglvTH6D6YrLv/C84hFuLJNpwqyi3xuPpuA647Z9+1epSeH44S8Vh5jxyLjBUcHqRz2zWbqGj7d0bTOrDB8vHAI746Z7Z61DVguuh5Tqvhi8tV8ryd75OIyMZ7Yz/npWPe+HboDeyY4yVAzivW7jQFklD/ZN5ReHIAyAcBeKw9R0SxaVZDbKrDICsflP1qXcpWZ5VqmlTRNtMDAFAwDLg4PfB7Vh6ppt20DJHaoynhd/Qj1HpXq+oeHEku2kWdUiZcPAo+U85PXv79axb3RtK0tJmvImli6AW8JJjzwCMAk0k7A0eK614Gt9T/dana8SDazJxgfhXKeIvB/j/wALLHa6HqDatpcbqo0DUZOHBUglXUHIy3CnnivctV0uC2leGH3XaVOT19vpXN6xocGNwRskk43Z/KsqmGoVviRhUw8J7ng3ifxFYtA2k614ctfD8CzGVrKONxJM2VyAeVXJ7gAcECsG/wDB+meG/CjanFqls8+o3kMekWe0K6QuOWfAyMEMMnsOea9n8Z/DjQvEVqy32jCdimwqW2Z9Mkcnp0rzlfh140+E8kuofD+x2m7t5Lbzprdbq4iiZtxEYfPJzxnkV4GYZUrfuzy6+XK14nG6Uuv6R4vn0248KarAJrBXluUgDwhOGBVwc9Tj1q/4x1LT9N8M6lrUulrqOuwzRbLRLceYoODh0Y4A4GT1rtvBWp23xQ1CXw4PFK2WpW9uyyRaijRyhlGSzKmDjv8AL60668ERRanLd+NNa0aQzxktfQW0zrIgXG4q3zE9hzXytbA4mMtjyZ4GpfY8S0TxT4k0trZ5rO2sb++t3aacRxTizJYkxLuBGMEduo5qx4S0jRvAWi/8IpoUI1Br+8NxqN1cXAaSd87iy4wsZBJPygccV2Xi/wCDek39u929lI0NtEzWDaRbPlGcA8rx1HJzmvM9nxT8JvaeJdd+F17qcVpepdWuqadabFltUOBDcI2cKQOo5NZ/V68FqZvB1Vqet2Xi7ULrw9cL4dmQ6xGQunRai3Rwv31MY3MR7nB5zyBVTwZ4MluvBVnrHi3xXJea/Ldyrd2UyujsEJwDLwWB4wrYwMdap+FPFWgfFU3GteC/DOq6UI4We9R48Gzm6lYnOMoMnr6Cul8H6rqV9pEdlLrq2k1jG9zDq9xAkv2olslXBAJcg9egwK55YipDRnNKU4SKek33iDRvjPL8V9SsNItRY6GLe00fUJ/Nis0YZ3gK3Mx5HOQvaq37O2geDPG3inxP4zvNbn8/U79rG20qyuiblCqqI2YcHYdw24xwpqh8BfB2g/ErxFr99411iWG3trpUsLSa3DXOqyIMySccKiE49Ttr3iT4M+H7Szt7Dw0bKaW5jE8V1ZweVc3CxA/xJh1KnIwT0Ar3cuputTvc9XCSi6d2cV4N8Fz/AAQS48Oyrpz65qGovfvHZuiNJzkHa5IVflBPPfFZviCbQrl7iPWNZ0ubXLuITJE14BJEpIJDEZBOAfl4x0B5rQ8ffBy21LTZ9f0G6uL/AMSahGLSwsZI+FcD92RIx2rkBs5Oc4rA8IfDfxl4PvH1X4h+Er608XaaF36PdGJg0JLbZ2aMspLEHC4wcZ44Fa4ihVj1KqQbldMwINN03WdK1bRvD2vXLaVDGW1C2sdFeGWVoyQSGwSSOp4IOetXdIsvDl78LNR8bQXV1O0MQtdOgmlKTwKzlM7FwV3EdACB1NbGtaX46t0TUra7nsZ9Uu55UlN2sLTBiQyYPVTySBzgCt7wV8Hr/wAJ+MNEjvPG2n6xYX9iRdRXVl5Js2UErHuBAkYklSTyR0Nc9OckRzW0Pjf4taX4u+K2s+N/2VNSuJfCWnaZNZXmo3Oq6hJdOI2Hmb02N83mlcAH5V38gY49c8AfBP4Z+N9Bs/hhZ+BNW8K3dhZOJ7e/01pRKQysh+1ZKBeOgORjqRmqPxj8J6D8NPEGo+N/DWiajqfiLxUHi1CzknVo5LeJyotEGCM9SAfu9DWr41+IvxAbwto96nhnVtc8Q6/p0dut0JfItNNtyDlWjR1RpRgqOO561viKtTkUY7f8MYYipOKsij4e8QSa98RtT8E+G5c32g3SxXV3JaxywRBQsZkWYgqJGAYAZ565FcB44t9HX4o6p4YsPHPiDTJTYLLotusds4vnC4eN5cFlx6qefauq1K60z9nfTk07Wr7U7WXxXGv2/wAM3Fgzn7UcLHNjzFaJG3A/eJAySPTi/E/w38S3v7QHhjwxo2oQavFchJLq00RwP7McIWbEhJLow29emSMnrVYVybsyMJOcp+8exfsM/BgeObu4+NPjeONtQsJYUhsUhMUcMqj75VieWAOWGAfavckQ6r4mudYl09I72aIQ/uGwXjXhM7cA8cE9+9a9ro+keDPDjXPh2BIr57EboI1AjwFAweeSfWuS+EGneMbLxde6r4thktIZpB9hMLbxFg/dy2QGY87T0r6ShGKjqe8nodpaDTvA8q+ItQtRbLAPndY2cSZXoi9WYf56iuC1/WPBlt4su/il4ktbKylN3HaWQ1NxLfSSMMGVLdG8wJwC3ykqcD2r1XXNIfVfE9hfz2MQt0BZLi4bjDD5iVPyjjv7V598WfCPxb+NfjHS/Bvwss5dVm0nU0uNWv59QJ0/T4F+55JLf60oCCB7irSjJ6FRR694X8Grpk9rrGvT6NY29gkNzpsljE0YaR4/3jsXIc84wMc56Vq+G7nQr61nbWLmYTx3TIZUgXEwwDv5HfJrT1bQPBB8TLp+rX11c2Cacu9bU+YTMBwGY88EdAe9chMNTSVkjsHEasREWT7y56j2rrpw0NT7YFuoOQecdqeUwMsufxqdYdi8jNBhkfpH9K6m2jsIoFQOCqbSDlSvBBrRj1rWRgJq9wVB4jdtyfTB7VVihZeGUflT/LY/dPGKadwNH+27KYJJf6JAkyNxc2LGJz9QDtJ+oqQwWV8zXVvrCO7n5YdUhCvnP99eB361lJBOrZV+vUVPiRQVYcMMEY60wJ9U8MyWkaXl9aXNmh5ed4fMhz6h14I96q33hq8tbT+0FkgmgBANxazq8eSMgcHI/GrunanqOnq6WV9LEh58sSEoT/ungU63ubFXmim0tSkxDNJCdhB7kAcVLbuBhG2mjOSc59KTzUU7ZGwfQ11p8N6RqN4I9D1aOTemRDesI2UgdAc85PrWW3h+SPV4tD1Mrp11J/qIdUxCsuecCVvlP4YobZXKZ6KrR9B09ajaNA2FGat6poOq6NN5Go24iY8jZMki4/3kJFQR27g72IIPctQ2+XQE11GlVAwxoZDt+XJp5RWfaF5qRYyBjt9KaehJUMbO2MfjiniBhwD+QqysQXnHepPLB424pgUpInHLR8dMgUR5znP61ba03KW3VA8G0nan40AKrYwCMe9LkEfMOM1FhgMEZx3pRLxg460ENu45reJ23Ej8qr3VtASDgE49KsjJ5UdvWmSEH0wex60FrYy7u0icjK7QP7vFULm0EkjCW2Ds3SQk8elbssQcbQmc+1U59Lk+YF9oPY0nsCVzDl097SMv5YcDqAMn8qz5tLgvEMy2oIznay9v6V0zWbRRHDrt9CearMti0bQ3VkVJfKzxj5l9TWcrlJWZyd94d8MyTH7fYyIWOGMLn5SB39R9MVz+oaBbpcTtFaMsQXowByMnr35Fd9NoK3sjH7XIWA+WTHJ+tZctiYflm2sCOpIyago82u/A2g3NnHBHaLGFYlTC2Byc/wCP51z3iP4czWzBoo/voxjz6/hXr1z4c07UGitrbVo7YHb5itCC/A7DI4689en1rBl0nVmuZ7HULTMcD7YLoS584ZPO3Hy4GO/59alsDx7UPhvq83Nqvmoq5O2M7h1znHpWHffCy/v4V8yyuo5EkXy2II2nqCe/ODX0DZ6Dc20/2iIcgEHJPIqrrmg3NnDvEu+BiGZFcBg49OM9z3qXruB816l8DNZsJm8UwaesKrIqCaMLuBbO5Tnk7ufpVN/h7YR3EWoWd7fW8yr85jmyoBAyoB6CvbvENpI88aI8bRwzb8TSfeOCCCO4+lc1qPheebIg8mOPyd2Iw2Afx/pWToU27tE8kexwt94b8Ian4YufC00F7aSXpJfV0nDujseSAwO3sOOMVykEmp20l7a6/eRRjTYFiuL5JVFvdrg7d25sBhjkDivRdY8LyadGZbu8RVP3VYY3Vm2MRTTbzT4LtG02/Qx3ULWkc0TY7Kr8KenI5964MRgoVV7qMalCM9Cn4Ej/AGafG2myaX4su5NP1mKVZLN9BuUKycAbXTo65xknnArlfjt8JPEnwR1oW/jfQH0vRtWh83TvFdxAfs7BjxHEVymQQVJIyOOea67wT4T8DeGby20sfCrS769ltrgw6kimPyl6kFFzjA4znOT2r3L4A/EDwvrXhKX4WfGHw8/ifSrhNljaXI819P7AKGyuAO+MnHJNeLXyOM4+ZwVcsjPU+J1g02zuv7W8NFZNVit8iaK53l4jyCCAAPX19a9B8LeLtOazsZbCWSe7+xmR70MYzaNg7o938ROeT716V8cf+CfGqfD24PxN+AHiC28QWGpQLFFbX0hjNsgG0BsfKDjP5V5J480Cw8CaRF4Y1lZY5Xj8mQ28gUk/3wy9jx0r5vGRx2VO8HoeNiaU8JsXNc8aXQ+HGqQ6LrMS6vcMXMDzs+NuTmONVOGJ755rX/Z31+5+NXw/8T6TrMcUrWWnop+2o6XUl5tJVWD88dgOBzXmdvrumeCIIL251aWAxzfK4YmQbsDrjjI9a2tO8dX/AIK1/R/iHomg3lxaSap/xNUhxuuVKBdzOw5IAHQ8e+TSw+bVKq9/c41iJSepteEPh34z+IXjV/Ad3qWnafqcsElxDqupBHh02IjJGduEZhnbnnNcT+0F8GvhD8F/gJ4p8R6r8TrqS0hvoL6TWv7SlESzCQskCkMCGcnBbHAIxiu1+LfjxNKnvdG8K2zWtv4qt1W51U2JZYPLzhSA48zd/eAHWvmPx14Eg+JFv4g8GrpGu6rawaHM32a5lVwrR4DzSRN1RCGw2CfevRw1WNaojrpNSZ0XxI1u5+GPwwl8cXuqXMMHirS1vtGNihnW2mcf8e/mPkuCxAEi/N6968w/ZI8Z6P4Y+HHihvi3Pql941kv2vvDWlXrSSjyl2mBYlVSA2HZsN+hxVLwL47+Neq/Cbw94V8G6TDdaH4akaLSPEmuQytDboSNxV2AXcWxgc7Qa9c8I/AlPAtjD8TJdRnj8QapPAJLyxha6jkdVYBQpOVyrZJyAdoJ6V7tLDRnozt9jCa1PMdK0L4meMNT1P4geNl1HUNTWJ1HnWEkzNCQzeSzKGI+UBdr4K56DFdT+z18Bfij8TdAt/izY2mpXNzeS4j0Xw/MYk0u3UlvJZiAJiBkEg+2K9++CHwy8QaHLqmuQtBdTXNwLPUJL3VZGt7qKYAecsMJDM65KluepPNdz8GvhFH8LofE1z8KvFflQeGJVtr2DSp5XisuGZZGTG4lgSMnkg5PNejTwMYbF08PCBzp+Mvgn4mSeJfBHhezOnXfhCxt11S1ewbzoo3yVdgD8w4/h5GeawvCfxDSwtbjT/FdwdN2TG50iNrnzjdyK3zDKjA9QDW5YeMbvW7XUtda0sZdZ15xA8tlD9lkbYf43wTgbRgEknvXtHgj4ceJ9X0CAan4S0HQ3msQZ1kuoDPfOox5kaEZGfvEEDgmu6FLodSaR4wnxJsfH2j3HhafUbpddluS+m6eYykd3b7eQjjqRt+7x9TXefBa503wF4fs/DmoW01st/vcR2I3iNCx+dstndz3yeata/4BW01Z7FdB0601SFUjlu7HkrGD9zg7evcdK0NZ8NeCdelg1nXPDr295p7KLaS2maToMbio4bJwcVtGgk7lmtqUEmgE38rp5Ej7lZnByPer+oeHtW1/ydV8PXbWlvLACYBtIV8ndjK561xPiPUtAie2vpJ7m9lNw6wwi1cCNwcMzJn7uRyKtaf4g0Xw3bnTviB8XdP02+LtIlr5BwsTElMcHj/CtGmti07n3kEKn7uRT2ALZwB9KYdwYso6VIrg/K0ZB9c10HZdCpGCvIHSpFgYcqBz60sTKvIXn3NP8xgxxQMaY3zynT0qb7IZV4U/lTFkJbIFTxzFU25PPtSd7jVupBJYiIZD1H5To2CKvCWMjayZOO9I3ksdx6UWQO3QrqA+W9OKv6X4o8SaHbNa2U1re2jEf8S/VIxJFnuQDnBqlOwYlYs89zVLyJ0k3G4JHpipkroaZtabL8NvEN75KT3HhS+lP7qK6tjLYytj7uRgR8nHOBTtY8Gat4elLeIdI+zwSOfsmoafILi0mGcAEqMocdd2BmsuMRsCjnAPXn9a1tD8T+JPDbB9D1mVI+kttOPNilHoVP8APrWaUkU7MyJdIujA15BbebECf38UgKnH41WXdnBHPpXZW+q+DfE8xFxFJ4U1ORsxzW7b7C5b0aM8pn8MVna3o0+k3xi8Xxx6dHK4FvrVrma0lPblcFM+hzTcmhWRgAFG4YjnnBp4IOMDNW9U0HWtFkVtQ0zNvKSbfULeTfBKvYhv8aq7cj5JFYAfwsD/ACq1J2Fy6j0AIwOM0j2pIznrTV+XB9/SpIyx7U+YdkVWs2LFQf0pjWLKxxjmtKKJXyc85pr23OVyfwprUykmmZcsE0X3v51Ezcgkc+1alzbFs4GfrVdoAv3kGPrRqylsVYiQ+cdO1SGeINiWInPtSvEoXK+tQMpIw1D2GnYdLaxzchPoKjk02Fk2mAbiPl3ZxTow6/cY4HvTi7v99zx71DdxXuzMltjaTiLbP0Kjaig5PQ+nHX8K0tMtPD+qfZ/C+uvDaXE0khTVWgzGhOTh8YOMjj0zSxwlSWkk3k88jpTmsorg7mZs5Hek9i0Yur+ArrSb1nRobq2Dnyb2GRXWReSCCOQcdjz2rPh062uS8Lwcg4ORjFdpbTXlraPpTXLvaySCT7O5yqt6gdup6VXfw/FcjfYW7hy2NqLksfpWL3Gcbe+FW+4C2wchu1YHinQ4YEjsp4Lx3n+RZba33xx57uT0P+Feiyx3ltJ5U8boBxmmyWUdzCYsttbhlzgNz3HekB4Trnge70q2ll1a0DxwsoW4iHykHoMdz2PpWTeabcLZvq8YT7PbsATIQScDgFRz7dK901TwrdNd4BWW3k5ZO+c/lXMa38PVF+91cXA3soUhBuTA4zgnr70PQd1Y8lv9R8M3DIumafBb3EMitI4t2d8kcZV8joT1H4VzOraZYX99Paf2lbwQwxE2s04cG4I/hwR8p6jHQYr2HU/C0t1fmDTwrSSkIqsNrsB7jpWBrfgy80hIobuxjZpU3PBJOcp2/iGD+POc0lJIR43pOv8Ai3wXqf8AwkPh+eSCS3LPI/lCVWRhggj+IYOKLTxDEhl8Q2pu9M1GFy4jVvLadzyuAP4PUDsa9C8UeBZNUQ3NtBNA0EaxeVDCNoUL0IUAH/GuK1D4ZyRaol5NqMlvc3RYQ3Vw25bfIHzsGztHQDFS7MqNj0r4XeLPFXxn8C3Og6L8R5dD1fTGkF1pUDKYrqCPBLRxtgncM8v8oGe+K+Wf2lfiBbaJ4kKTaFO2t3F0i6fbvaIkcZ7EKCQOOeMjOa9m+F3w6+PPwq8a3nxv0uLS1htpFsbqS5n83+0I36hkUfu0wMhutej+OfAP7Nv7c+mXHgX4ka/Z+EtStytxoniC1hLIZVUlhHKgxtBwCDzXhZphYV6bTR5+YYaFWB8UX3hnUNSMtv4htJgSVe4eWMopycbQccnKkDt371eF19pis7J7os2mM72MEjMYlyd0jlOhbH4dsV1nivQvEPg/xd9i+Jem2qWWnuLSHVbC43W92gUFGVmxlj0Pf5TXGanbG98WfaFtyUa2d7eCzclfL3nDtjqcDG3Jzz17fn9XDOjVbR8RXpypTdiO48beBPDviTT/AB3431qwtoC8v9ll9PWVJZXGI41UAgZGeSCM1xTeBvi/o3iGTxt4d0vTW8ReLjNYx6peSeZ5NgQzPEYkwIl7gkgEjFdTL8OND0K+0vx1rfhK2k0L+z3ENjDqBl2FmOJGhGcHJzngjpWV8Zde8UeD/Dq6hpvgu4s5tXtUW9a0n+zJPHEGGd82AFG4HoOh5NOhiXSlc54YydF6m38Gl0jxh8AfD/7OWh+G7e7k8IeIbu9ttSj0mYNMXILJPIX2OOCMbMHAIfAwersvGfwy1sR/DttKvLLVY7J7iSeOQi1Mi44TDZ5B4FWvGOt+O9K8Cm+8CaLBa6AvgyC71CS3uomuN77z88kbbCqgY4AYkHmvPLmy8R+MvCtunw/uNNsjaW0d0lzHJtnuYdpU/eJbn7xIAAxxXp0s2rRlobwzOpOR6/8ACW78NXPglPEmpQyrbHUza2iKuySXG7aEPBAyF55z681H8Mrb4hapoXir4M/Drw3bwaz4uu86lqOnzHzZU3BUDMMt5i/NnPy81538OLe++FPwou9d8ReP72yN5AqXGrXNjJdJYDf96JPKkO5SQDhfdTW5+zVr2pa58SNCuvBdzpt09680uqjUUkIvdvSUmVQI2b5cAYPJ4HIr6vL8z9ukme9hsUqiVz1bwN+z54W+FH2K3TxjNrN1ah49ZguIPLRZ8jLDoRIGBB4xXpMsOneJ9btPEmo2k7S6fCRazWShnt0Axll78fpXJ+ItB1bR7y+8Sa/Ckd2l1sa0tL1XREYEhUUAAgY4xVr4fDWmtrjxLBod/DaTYEl1dK0JfI+ZQT16DNfT0knG56CszW8RaR4b13WLe706/kFskLl79oyGnYkkMR2BHsK5/wAR6VpbW6wW+pSpNNKPJCnazEcYU9D1rR+2TNfS3Wq6jJKzRrHZwwxgRR467/0APes/xR8Rr7RNEXRV0XT76zjmZbe0uYA8kWedoIIKndyK2siuYyvEXwu8UaJdPrV7fNa/2VCrXOpW0xI/6ZnDjaASfmPeuJ+Inwh1Lxhr0fiHxd4/sba9uLOIvBG6lUXb8uCMg5GD9SeK7Lwx4r8XeJvi3pdh4tm1geH9Osheahpg1PEeoBWB8p9ySZHGMYGMdT36b4onXPjz41u/iB4K0bSvDunybYI9La4Q+WUUAnOE3Z9QoFKyGnc+02teevSkFuxJwO3PFUrXWIpL99MuA1vfQgGexnUpLHnplGGce+MVda6kgJ52nPOaZ3NNAYZhwq/pQqOD8+QaauqHdj5mp41C1kO11ZT1ywoK2Q5AVxtGfrTjIydW6UkkkaJvEgIA7VC1wsg5IoBO5K905+YDJH61E12SxUqRUctwqrvY9PSommhdeWHvz0oGWVmyN2fzpwk3qFP8qpeeq5VXJ9SBTobqPbxKCccZHakNFt3MR3D6Uq3DE43HjvVRrlWOA4/A05JyBgkUPYe2xdd3kXbuDDHRuf0q/wCH/FWseH91inlXVhIu2XTbyMPCR7A/dPuKy4W3Ec9Km3AdQKzaugTZ1Ok2+mzT+X8OtYaygeMtdeFdRkMkLNjnymf5lzkkc8dhWXY6fpPil5dE0fUFsNchOToOoyeUzIOpDEYZiOwGKzoZQpDxThHXG1kwGU9jmtvUvEnhHxZaR6f8Urd2uLdwbDxFZQfv4CBwXPUj8eMVjPmRcUmzC1PTdQ0qcWWs6bNYz9FiueGkH94dmHuOOKr+b5YAI49hzXW6hf3+naLDB8VrKXxR4ZclbDxJpkheaFCRhpCPnGDkndxWPrnhC70nRk17w/qUGu+HmA8nVbJczJjIKyoPu4xjI9OazWISdmU4maLlVIxT45Q7YdgAe5NUJWSZPPgcsp/iHSoTPIvAH511J3RlJO+psSPBkHBI74bNQyNEScDjsKyZbmVcsHyVXO09D7UW2uRM+FAVv40ft9KtXSJLc5IGFX86qMDghh1FWmuVmOdoBPNIVDcEcGqAqyziIb3OeOwzTrWeO4TIBx7qR/Onz2xIyq5+hxVaO5MTFSCaVkBPLAxzhscdaS3vWjAWVeB3pVvY3Qb1wT1J6UyWNZmzG4K+wqXox3ZoW8sM6hgw696uWbtYXS39hdPFOp+SRGHAx6Vj2qNEcK31FW45d3esmlctbFm/gkupfPlk3M3LMRxmsyVZIn23CeWCMqXOARWlHE4bLknpwau2VxYwP5WraRFqFm4/e27khx/tIwIww7dqVkBi2+MAsByclSOatWsGlSTeVPCnzggKBgmrWueArmy8Of8ACW+ELk6hpzTbWQHM9v1yHXOQB681hWd2j2+JlyzZGG6isXe4Esvw7sQGuILTMZJMgznJrC8S+GrEyqHsxNsXH73JC8fpXW6F4gsbONdLu5xFjOwv0/E1b1HStO1a2ZpkDrImDsJBINOwHmjfD/SpIkVbraueEtJdg99xIO7Ncx4u+D9rqDRzxbFUxlDA0ORx905PWvRrvw5JoE5USvJB/wAs/PbGR/8AWrMurnWLi2E8EHmrkhtpyEx3ye1LlYHhHivw9rvhUtoM2sajbrdOJXitcpD5fA9CGfkc9cVz3j74UaPeaXM3h74tabp1y9uJSJ1mVJmYZ4VkIWQdwoCsee1fRy6lZQ2bafrljHLHLwonh3iM+oPb615p8Vvh9Bq8QbTddt5HQD70qsY19FUjGB7c1lUpqejE0mrM+afCWh+PTo2s/Drxx40ttZ0nWYTH9j1OwgZFYkjzbeRUBU46Fhxg9M15rrf7LHiTwGlhNoGkWt7bxWph/tJbuW4NmAQWSQFj8xySp9O4ya+lvE3w61rTbJJLmwj8hG8pXibyi468ZznjPQD0rAtPFvxA8NTvbXt84tSEWOzktNscij7vXluOMkCvIxmWwlTbijzsRgKU4tpHiA+D8F5pV9qc19qqX+kXC3Fvb2l5bwwzoTu+Z2O1Rhc479qw/GPw8+IH7Td34f8AEviXwcmgaBa3jDVvEvifW2lXVQP+XSCKJShUj+IDFel/EGw8MWN9F4VvfCytJf3LzWNlYws1rdggsfOB6smQF56HHrXNePdYudE0a08O2nh7U9OSznJltbB4x/o4OTCilgI92PvDGBkA5Ir4LE4WpSqNtHw2PwcqM9h/xp05dcWD4NaJDLo1rc2MNvLbIVSNo0YGJ3CgfL1wSO5zV7Q7Hwn4X8WaX8NIUh07UDZn7ZeSsqWgeMHczSE7QWP3QODVn4OeEbfU/E9/Npjpc7tO/tC80k2xibTRs4HmE5kUkE4HQGvPRFrnjfVdR8b3niyO/g8owW3h660lo7a03sPmBYZnGB8rDPc1xwUmcEY21LPijxpqHj7R73XdZ+IniaLTZb2G3je0SOzsop17RRoN0hbu7ZX2qX4l6X47+EPgi2u/DujT21xA5uE1aNVbzGdwdhwflzz+NavxZ1j4YWGi6BfeJfBVpfaPpMP/ABPdTi1prc6B5eCCADtmZwACCpwTgYrmNOl+Jn7Tni+7+K1noPieHw3bRxLoegaZo84ivV/hMzGMggdSwzzXrYOu6LuduHrumz62+E/x7tvEOnWug+INHstRWHRVuU0zUgE3y4BYKwP+s4716JPqejfErQJb+9ntNLSWNGi+2XbmHTY1OGTgYO7uT7CvijT5o/H9/qt98OvD2qya/p1pCmo2V1cRwWttcR8FWEqiQuR3XH0r6e0/UdUvfAem+GvD/ijSLeae3hu7/T3vCGDAfMowcMB3yOeCa+3ynNI1Vytn0mFxKnE6fXPBtjqclm99rdgbZBDFpEwG0McEO7+ncoPQ1x3i/wABQLJFqWu/2fZ6al60Muo3cwInJzsVgucuQePQ1veEfFM/h/xLB8QZdAg8Qatpckr6foOsjzNOLuMGVkHH3SdvPpgCuB1lfEGp6pJrWm+HLfTtMbUWm1OGyheSC3DEHPlyNhWHHNfSxd1c9BNMvSfB/W9J8PXHjC21O4e3t5Yo4lllG51JOFx6YNY//CL67ds01prenFN5G2O9ChCDyCD0Oc/nXrK+M9Ehjh8HTXKy6JcFbjUX1FPs8whVeX8wghSO1VdEh8WXKXNz8Bvg/PrnhuS7drXUri0guTM3G4iRVAYZ9PerSuF0fVcvxC1LXxFpPxm8EWPiuxUDytRt1+z3tuOmQy4Lt3PQZFRaj4Q023EWofD3xbdavpssbH+y7+DbeWW3rub/AJaD8zXO3OoSW+A4Y845PWpLPVrmK5ju4jLDNGf3cofBX3ppXR6ySaJ476KRzGFdHC5ZJIypHtg0lxeSQ4GRzwcmtbTvEOn+JVkg+KVi9wYQVt7/AE1xFMQTwX4wxrPl8K6vLolx4n0+3kvNMhneM3CAP5K7sKJMdD6+9SIyptavEnVdrFGPAC5x9a0VvmCAnPTsKofZFWPKIBzkgVE7tDLtc5B5GaadgVkzW+2owyTkHtUEzM7GS3Tbt5FZza9awt5ZlRjzlCeR+FOi1qAkKrFVYfKcY596bXUprqWJLq7iZmhRtyDIAQnFMj1K9ICTWgYZxvXgge4pI57e4lNwoLc/OS3Q1M4XO6EfLjAqSR8Mhb52B+tWYXEj/K31qnHI8Z5Q4PenbolfaZcbhkKTgmgadjUimboV49jViF8g4X6DFY8N5O0jRocqvXirUc0jDP8AI1DVir3LwBX5lH1pxmEgKOF5HOe9VEdzxmnkOepxUavRjWhd8NeLdd+HsjXPhd0a0nBW+0mePdDOOpOM/KTyOK6fw3Z2l7dTeLv2ddQ/s/UJvn1fwRquRb3OQQSgPTJJ5Hy/TNcUFZeSeMdKjlthcSx3Vvdz2t1BJvt721k2SREeh/p3rhrYT2z93c1jO251L6P4b+I99cS+CreTQPE1muNV8GagNu7HV4ufxGMg5/GucuIJIXe3v7Ga2uIm2TW1zHsdGHUEHr9Rke9dBYeKvDvjtrPw18Wl+x6vbH/iU+NLQKrh+g8zIOOTjBO0+1Tazpf2QL4N+ON4umXly+NA8e2CtJa3uTlUl52xOR2PBHQ1lSrVMNpUBxTOLugqnaImYE9jjH51Vnto3YlFKk9+K3vEmgeI/BWoDQ/G2lrFLIT9nvIG3W9wB0MZ69McHnOfas6a0J/eKcL6kV6VOtGqrozcCtbyTxAbnyBwKuwXMUmEGd1VGiIohtykm9HI5zWydzO2poA7h8ufxqtdwYJIX8qVJip2OCDUhcsOPSmNqyM9o2OTk/Sn2jCBiHIwfWpLlQW3EnJ6iq0jMvvU2uyS3OzHLxtxjjBpbe/ijQmRce+elURLI67QMc+tSR2yzfupHwD6GoaHdmomosx3RnKgevWpY7qJlDs7A57HFYkls6/LFMRnpU8F+0cawswLKeWI6mpsyk0dLp3ibUtO1SHUtMuFiePILIuN477vXNSal4YsfEQuvEXhiKK3ufM824svtHLZJJMee5JztHSueW/aReSBjuBQlzHBcie1lKMTng9PX6VDjdhrcnbT1nwt5C2f4hKOR9ani1K8sma2mmQoEGzYP0OakjuYdTyJ+WY5J3EHpVW8sYWPlyqSu4Ec88dKm1hlTxFbf25CIjdtEwPDLyQfxqrcWtsyeRbcgDDMq4yc+lX5IkmkwGCn1J6U22tpfOyWyM+lAHP67ozXLw4vHKkMvkbPlGQefyrkfE/he106ODTI7QvJOxlSeGJHdAD0Y8qB7Eg+9esTWkUlu0RiB3KVfIGSpGOD1B96zdH8IaLoWm/2Rp8CvEo+9cqCzfU96iV7geYa5N4n1KxXTIrBzZOYw5iiCksBjH3iDxxkcHrivO/G3w/8LX01xaeIr+XSr7cFsPMjZ1dvcID6GvpD/hF7RoXQTFH6xhBgJ6EVyHj34b6/eW0dzokltKBOWunlRvObKncIiG4OO1KzcSnbofJt9pngbUfFEPw6+L1tq2naZdfMNe0+FyYyv3AAvzMrHGR1Fch8Sv2b9X8L6vF4c8GQ+Frqxs43lurjxBfXLDU1ZvlfygQ8RQdzX0l8RbHRte8GJ4kl8E6X4UtbUyW1vZQancXF/qcsbBftAUk+U/Qlq8U+LP7NWrXGhXfijx1441rRtSuUN1ZPqOrI888qn5VAtxO8sDA/eZ4eDyqnivnMxwDqJ8qPHx+BjUicNqcC/Bj4dv4k8VldY+07lWfwislxaqhHyxl+GjbkKoYEHPNee/GXx3B4cuPD0txNrGkX82n/AGgeHtQ0/wA+6sdpxEP3fyAYY4OCDur1ee78F+JL221a+0175rHTTZHwfazCOySVkC/aXwdzk4JwSSM9a5NfA+veL/F2jad4o1/T59W0m0uF0i7vLqaSGwszkxW7TDghRjAPzDGCTXx9TCTpSs0fE4nDyoyscl4R8D+HPHHiSLx1+1FqdxdresjaT4SSMwW6nKlDdqoRX+YjI2sTn7xxz3XxN+LjeBfiPLouseJtO8O6rapHcx6XHI7acIHZVDMEOUQll7Dr0wK821u9+Kd7puqanDHpWuJp1wkWoRR30j/K8qr5sCt80p6kKM8/Su08QfCy2+HviLWbrSdG0zV7u/0xDLPKscr3agIywyLKT5QJAJXAYYxnrWErpHJzM7L4g3qP4xsfh34V0v7Ve3ei/wBsa1rumTtFaRY58hMMBKPmA3MM8cV598PdWk8afEqx1zwf4xgh17w/aLD4ktbkuWs7Mnc6P/Dk8DceQDXU6loo8deGLOHxl48fR1bTpUm0zThDFukYZjij27Qm0gYOHzj7pzWb8PPAHgv4beLrPxbq3xZ1pdC16ySS/hlSJW1OWIbFW4YRLvYnHy7QGGDt9M6OMqYapeJcK9Wk9D2PQvi54a1G603w5YX2pWcviwyHw4tpZF7eVI2IeTzNuAOAAT1HK8V6J4S1jxToWnXFvBp8F5Y3EDLILRxMY2GAdyZJzx35r5rbwD8MdC8Rp4+8K6bd6B4i8QRNJAkpCW2lWyYO4RqpKxODnAA57ZFdv+yV+01ceLFk1DXdAmksraXydQht3Np5o+8twqkCR1ZVJycD8cV97kude2SjNnt4HMOfSR2utalZaY155Hh1LkatEHa1vNSm/fN69SEyP4eg7CqHw4+M3xB8KeF49E8Hao9tYRTSGKCx1srHGSxJUDtgnGPavQbD4VeGLeC41HwzZ3txp2rSvPDfCcOELDd8hbO1l9O2KwF+DV5dEz6Vr0SRMQd0tiWeQkA72KHGSMZ+lfYwqQlG6Z7cGpH1D5kbHA596VohtyGHH+1WX9rbaQ2ffmpYrs8bySAMAd6dz2VZbllnZTjdjB+tT2moX9pBJp9rqckdtKd09sjlVk/3gODzVQTo43qpHPemhZFy4PbtQ12K03RO5gVi69+tV5pI5FKyx7uPlJ7VBPPIUcorEgcYqMaodipqKKjHgAHNCV2JfEE+n6bcS/aZI8sBwwHOfrS32nRJpjXMLEOFO1ck49/8KbLNHsBQjGegPNM+0LOTGshBZcHPpTb6A5WdjC8Pa7qFn4guEvbKXyZm2wyPwOBzgZ5OOa7bSb211CzE8NwsgY4RkOeh5Fcdqrz2OoyT3EDuh2lbpFPTHKnt6DNQaQuraRrCv4Z1ZLi2uCTLbPtJRs5JAHIGfxqQPRoYA/AUH60S6BDO6zyxgsr7geetVNJ8SadfeXbLOqzkAPGRt5x1APIHpmtkTFHMLjDKcEZoArjT02gO3QcUjWDKx2TDjoKsud5OMdaaVQLkkH1pNJjuxYlVUGVJPsKcWBGQv4UkbR4yYwfxpwC5OBx6VLVhp3G8fdP50gKqfT3xQy88GlK5U1m9HoURXFvbahbta3UQeNuCGHBHpWp4U8cT+DdHm8I+KdLHiDwnOu250u62tJbrjkx5HKDrt7dqzvLwMCkIIyhGQwIIxWM6UaytIak09TqzZN4G8KwXWjGbxp8M52JntmLSaho5ySWjJ+ZlHXb1GOODWNr/AIbTR9DPjzwdqK694RvNjW9/G2ZrIsfuSrgHjIGTyMc1V8Ma34l8B62mteCLsRSPgXdpKN0NwnoR2PXmui0ee01q6vPGnwJigs9afL+J/h/eyn7NqROCzR5wiyEdCvBzz0rx6iq4Kd47HRZSRyUtvGUzGwcEZyDxj61Aqujcj6c10d/4T0rxlZT+LfgxYzwyQE/8JH4MvDsurB88mOPbk4JPGdpAyPSuatb+x1GIXFk5YfdcdGVh1BHVfoa9bDYqFePmc9SFtSVl5yOOOcinIzeWAxBqJ5drANnkZp8UikZ7YrsTsZaivGjjOzmq8sOOQPzNWTMB90/Smlg4wDT5h3KEiFTgACmbA3AbaW4q3PakukgYjbnj1qB4MnJbpVaMQKr4AdiQOOtEqsuGEOR3I60iznBUR8DrUscrHgDtU8rAjju9oK7OD7UqPF5mTMAf7pNPkt/MUOmMjoKjNq0soEibTnAYCs3F3KUkT2+pS2zEoNyrncoHJ+lXYL5b9MOzRupyoI+8PSs8Wv2Ul1m3HsKbJJ5mDJuB65U81LRRbnHznkfnTY724SRdoBGecCnWCS6pcRabNLGjbgqzOcd88moruxubS5ktyM+W5GQwOR61L0YGqsocK5PX0qOVQfm3VRtrh402k/rUjzEqPp1z0qJaoCQOkk3kOTk/xU27t5jCbe3nYI4y654zUC7lclR7g1MLh0+8tKOwHKT/AA08P2GpHxFbWsSanbRstlMyDaisMGMqABt9q4Pxt4M+IEN41loXhGzfSb2F1u1WBXA+bqByVGOoHGB0r2O5WS7JLoDnuKxdf0zWZliutF1OS0uIchC8IlilYnhZBuU7cZ6Gm4qS1JnHnVj49+PPwe8KN8R7GL4PaKFsoIFj8QeITCsdnZ3IzuggUrl2HHXGMAd68u1zwpZ2Iu9WvPjAvk2efsmkbVSW7ZuFlf7qx8cYwf519tfEPwL4k8QaRJpup6L4anuXnWe2voJpLUI4Jz5yGN0fjA6E/wC1xz4p+0V+yt4t1fxTo/xsOj6XqVzoOkS2ax2S7/s5cggtFtCOvXDbQc+nSvGxeWqs7ni4zLfarQ+b/gX44bxD451zwwgtFg8ORfabu8MmYPK5CxyMrKUdicqygjrVfwBdalLr9zoU/gcXNhe6w8tjKJHlGXG4I8rfMUUZKsc5xg0yb9m/4k65o+s+JIPD1lpz2TKl74uub9rO3s+SQktumPtCgYG0GuT8eWXxl8UeDpfHXwdsfGB8TaLC1prXia80J4NC+wwqP9ItEJCjL/KM5yFJzXgV8nb2Pn62UVY6o9Puta8X+MNQvfB3hC70qwZbgCO+fTo7jyQoA4zkKemeOKZ4L03TNc8R+LPAVz4m1bV57b7O2sXk+mkiG5jAA8kDKoW5ztwOmBXK/AbXvFVx8FLbxp8YfEGlaHeaterZWWnaNZNDJeSRMVl1AyuQWZjuIydoVuhrQ1yTxFqml23gj9lf4Z+IIDJqbXMXje71gw2+qXSOd/zZJkTIOANp2nqa+exWXTpSPIr4StTepZ+Jmj6XpM8E2ueMfEd7bFEGk6ZawR+ek2ARCxbAlDc5Q5Azx0rvPiR4h0nSvDkGp+M/BbaMs1ii3lnaYEtlGy5Tds+8TjJArw/4m+Bf2hNa8eQ6j8WPFeg6ZDLOn2uz0a4SSPTwuT5sZbcQ3XJOTyPWug+Evwr8XeLvEV98Wviz4u1jUfhhpMbJ4Zk1i0aBdT1JcgL80nmFVAHKfKc8CsKDlRlozCi3Tlc96/ZU+PVyfhl5nibw7Npvhiy1FoLH7Wu24vZAMeaI5NpO488Hn0r2xfit8L9fgh1CPQbi0YxASot+YN7dS5RRwTkE18c3Bv8A4j/EfR44dA1C8t7O2aYJKSbXSnVflyq/My45GT7da6Hwx4g0rwpBdWniL4jw6xPc3jXCz2lpPbpErKoEWwk4xg/gRX1mDzqVKFmerTx8oH3t5sWCBnj1FPjPcfhg0i2rMDtJ+mKmjtyyABcEDvX6G4n317ihGbhXJ9c0/Y6gZP4CmgGJsM2cnGQacJSh2uSSemTSu0CbWwNEsi5IAJzk+1Z+rWEqotwU/wBWMEKe3v61qIhK7iBzT9kbR7SvynqMdaI3uNJvY5V9Ul06J5I4DJKnKoq/mOelaek6nZaltYOquQAUfAIbHIHrirlzpUVzJK0Sohki2t5nQe49DWVBoek20z6ibeQ3gwsUithVx3x+NVKLHZLVmnqNqdQthBIcoVxt7daxrzwrqFrbGTw0beK6H3TMh2sPTK8jmt/S55vs6QamEBUYyox+dPu2iiO8MHUdT2qBnn2t+G/Ej6nIZtENrcSWuyWeG6ba2OVIK8j2HWr/AIH1LxL4cRrPXddku4tw2SS7tyjHq33s11lreWU6kLEpZj8pI6Vmaz4PttU3NEZYzI/7ySNiQB9KAOp8ParDqdus0Ehkznd8p4wcGtCUY4z+mK8+0221Tw9fk2cTRuxwXYnGOAM44z3ruNN1JpIFa7aPcUG5t3JbH+NAEwcgbScZ6GgSOOQcfSpjamQb1AIFJ5QA24pNXGnYYsvqxqRSH4HWo3RVOSPyp6yIi46EUnFDTJCABknBFAQuCcYx3xSK4bBxShircYqHYoPLIXcDzjGRUKwXMN9HrGkX72l/bvuhukwGBx0z2HbHvVpQMZI7Z5pkqNuDAfpisJQhNWZcJcrNaDWdQ+LniuC90e+tfCfxA0191nrO5lt9WgChWjdAfnxkEqfTK8GpLzQtP+KfiK/0y108+G/iHpcZGo6VMnlwa0oGPPiyMENtPI9RmsOW0iu8bgUdDujlQ4aNh/EpHINdJD4i0P4gpaeEvibfyaZrtqyL4X8Y2w/erJn5VZuz5PQ/Kw4614uIwtahLnpbGqfMjg4571b+50LWdOmtL+zfZd2sy8xn69COnPvUqm4gLAn5SemK73xJpjeN9ai+GPxQMWj+PbaESaJ4hSPbb60i8AE8BiR95DyO1cZdWWq6Lqlx4Z8SaXJaahaEiSF+Q4AA8xW4BUnPI6V6OExcqqszOcEtSISAruyOnTFIHHWntH325B6GmSR4HCj3r0TDQGkYHKHtVaeMqwZHJz1zU+di5YHGOwpCN421UWIp+ahGDcgMO23rT42dxliPwqQ6WkisZIRgDlmFIkKKgSNSPbFUA+OdkG3samSbzUG+PGOnNQ+WQBlf0pQ4U4YGpaAdL8o3ZwKSKRdwAOePSp/s6PETC2fTnqKgnh8uMuGbK9FwKkbY2dlAKsqsD94Nn1p+nairSS2+sTQhJE228oB3oR2J7j681Vy7SAMpJbkH1qO8/dKSY1Y54Vuc4FS46j5i3M1zC7RkggHlkOVP0NTQys65PQ1DpV8I4/7M1CBYbQybnlXmSHj9Rmrt/pd3o8qLdREwSDdFcR8pKDz8p9R3FS0kUncYFGCQMfjTWLMCCPxo3lBuVvqaWORWyc896hqwCRzMg4HXg8VHPNsUrg4bjI7VK7FQVwOnek8+F06duc0gM7XrDTdQsHi1NUe3UAyLKMg+3vWBqGgeHr+3AWwmECj90kUnlg/T15rrA9jPmK5jDKeoK5FNudM0bU4BYFWURfMioxXtnqKBux4X8XfgT4E8b2S6C+ry6TPLP9ruNTQFmtwi42jPytJxwpBz6V5N+1/4N8S+JLm28PfGvUfFFj4TTQbe18D6bZ2ki21/hWLTXKw/IuTjdGcMuK+pfFWh6Nb+JGtobwtayRRyvqEyqTuAw0f6/erk7X4jeMtPuYtH1S3muvD4up4gb2GMWsduuAZs45PJyScnvWcoR7CdmrWPlPxjY+APHek6T4Y8deErWfSrbTotMmtLKx2vsCbVkSWQ7UYY5zjjqcmvPPHum+KvhLJpnwz+Hd7o+y20qKz8IyG7e4k00N8qLK4URozrnguwXB56Gvsb4y/skeEfjFNfeJ/2UPEltrGpWlm8t14QVlUampA3eQ/8LYyQR9K8S+Feh3OmPdeAvBuitrGpS2Dxa9oupaTI0Oiqx2yeeWGZZkKgDaTjOcGuPE4OlVjseZisJTqx2PKbDwHqXg74f6drHiG1gvfEmjXJFzHcakJreTeCpkZwSspU8hOnTmtj41eNtE8NWGg/DjwtYT+Ils/s17qXjrX9HzpWlnlnjSFM4YZAJHBwKb8WfD/jDxL410z4DeEdKjutNhlEkmpWGn+TDJs4ZpG9QM/KQMHrzUXjrUPF/jLxHL8BvD3j63sreLSpTd/Y76Mxalbxkcyq5AjKOMZGDjivzzNMO6FVpI+Gx1CVCb0OeX4n6j4SOpeO/iD4+vrnSpJGFl4lt7JrHTBOULQWgIwzgnHy4x27V5r8Rf2UPi7411qD4i+MfiLZSXXiWxj1NAup3MISOTIVdkciqMbT25685r0/43WeveLPDPh14fCD+ILzQUjtDpU0cT2m0Y3XWxyPmGOMcntxmvV9Uv8AxFoWj6HHf6f4d1gT6HBLbTR2ZhEEWWRYdjDI27D+deZHEqJwKdz7eMcnVT1pjLIDgE1aJTGQveh9rH5hg44r91uj9TM2Z5pCYioGTw3+NN824iZVALbc5wcg/nWiUi5Vk3DHIIqCOxJlKwiUluig8Cla+wCWOpsk227iKow+UkcCtGaExw+Yjqy9QoPJrNMTqfs8yZKjj2qQX72kS27RM6g/e3D5aFoO7Rcii85MiLbzg7qjktY5WIbB7HI4p1rcQXUayW7E5GSrAjFTbl5jKD8ad7suMU9yjNYzqSyqrcdN1RIA2UdNvUAnt71dmQM+FfBJwKjkgIXYV59aHsNxtsZ+kaRr/iHx3p/gvw3Z29xcXWTHLd3ggQBVyTuOAST0HWrdzB4k8MeIZPCHi3Rjp+oQrmWGaThsd0bowxiqusadbX1r5crsnlsHikibDxuPusCO4Nd14W8aad8bPDqfCj4zaxBbalp7rLoXix4lBYDbiKQ8BWJyDnsR3qCdUcqkkc53BSPoajumnmVYoCV5wzMMAirOsaHrXgHXpvCXjCykt7+N/wB1mE+XOpxhom/5aD1x0xTXTeCVBB75HNAJpmjpVxJEQszg8dc8ZrQkO9NwI965uyuJraXy7hWKnBGcDFbNteJOfLVhk9lYGgNbkjEgAHmmEANu9ulEkb/fHQU0uNuWbp6UDHo4DgE8VOc5BBBFVV2E5Vs1Ijk8Vk1cpMtqx3eo9MdqlUnHCnryarROqn7wzjoamSQAdR6Vm4lDnyOQuCe9RXqWmpWh06/iDxORvHcY6EehpZJOOG7VGdrL83XvScU1YpScdjbudds/F/g5fh940jW+ggw1hf3BbzrJlGFZWBDHBI65rRhvU8UaRN4A+LMxj1KwgJ8PeK47dnFzGv8AfI+9njI6c5rltiBB5Y+uRW54f1nwvdQy+H/HBmha4AFhraylfsshOAhA6KScE+hrFU6cJXRXM5qxzf2a6hzHd2bRsspRRnO8AZDde4OaY+CMhc+2K6jTPD19pmryeBfjHdjTrvUwR4b1SElraR8khdy/LkqPuk55/GsDxDoupeEtdfwtrsDw3aKZPm4WZN2N6HGGHI6HipjiqTny31E4dSiU2npxT44FYjGPpT3j2j5sZ74oUAHOa7FJNGdkNa3UkBqVLNOoqZGBGMVICdowcVd2S1YgSzYD7o9yRRNaLGN459ql80g4x0FIxOMjuaL3EVIxIj/KML6CrkTiTGUHA54FRsisDluaYoKvkOce1VZARzWsQbMCYyehNRTRRcBo+h5OM1aGWyDRLDuwMD6tUAUysUiFWQYPHSrOmahJp2IZk82yY4lt3Y8n/Zxnb/nmqiyCGbyHZiGAAyf1NDiYOECZTNFrgS3z2Wn2q3Ed1E0buVVVkLMh5O0jrxUUF3HdKPLjZT3zTn0myibzFk+8wLxhMdupOOakbTmt4ftcKiRGOd8ZJA9jUNWLTuHJG0/jxTQiZPFSiMoq7x/FyB6U0oVHAOalpDK8qlGJQ/nUUzSowBXr19xViSEzAgttIHUVRuLW+WcCCUEL98tUAXbW20hRvuNFgm45QrgEVynj3wDrerfDTW/DeiawbTTLhyZrGG1DhUY7mx3U8fezXTRXEkQ8wJnHGKU+KNTsYwmkrGkhfM3nDKumenbtnvSeoHjPhjw8b/dqXw0vJdHPhy2jZbtJBDdyqG5VCnb65NafiK90D9qrQNc8PX3ju18KeKrC6/4kmvWKvAL0EDMN2UwCzEbd4zzyRV7xi2r+E9b1HxXZ6DLqNrqdxFBaLFCoFpvGGdyp3EKST6HFc9qPwq13wHpUNpaXa6oltI093MG2/amPPnIvXI4wPaoa7j5VJanzR4xsPFnhrVNR8O+PPCT6L4l09AgSFmDsuciUtnEoIJO4dQRuya+eNY07Ufh98L/Gtn4j+HWq6pqk9/cakt/Y3jxSWsAkPlwp5cDNLlACVMiqD1z1P6HeNNL8F/Gvwrp8fxe8YXWkAeZaaN8QYLbzpbC8znyr6McrCcgBsDOCM15j8Xfh18fvgfox8N+LtUsLvw7rpRbjW9H5tdUiXGM5JKnGCAeB0rzcbllPExb6njZjl8KsdDx3Vfi/p08nw40DSLK+urXU/CtlcalqOttEGtLpkTZBGVUGVhg53DH54r2HXviBHpl1HYa74Y03U7iK3QG6ntyGxjO3CoQMZPT8hXlPxOXx+njGxfRLfSNV8PWitcC/vh/pEeOQIwPuNknnpx1rrPCOmJ4y0GDxFZfEKK0iuBlILmwW5kUf7Tlic+x5r84zPKK2Hqvl2PhMTgKlCeh9xqwVMNjJFIJFJwV5x1NIzrgArg/SnIPM5jB9/Wv2k/TrJCmMn5v1p0DtE25eD600OW+VMdfWpAqseG6U02S7EUtsDIZOpIA60w2BlbY4BDdVNW1ictgnI7c08RHoood+oihFYy2zMI2OM8qCc5p8V4C4SUFMEA5PP61Ykt2Pz45B5x1qhdabJPIXV3XBBB7mqSGpNGgVRtu0g9xR8ufnA68+9UFEsK/venYknrVuzhZSzydvepu2XdtC3UEdwpQW6c8A5NZuqabaSWzpcsIxtxuCjj/6+cVshAR939agv9KjvoDDJGCCeOf601sD+E3fBHjDSPid4bi+Bvxr1FF1CNingnxWZVE0Um1SqSYPUHAyeHXiueuNE8W+Ctfm8E+OIQuqWgIaWMfu7pB/y1j9VP6Gobbw7Fb2cljOzmIkEAyMwUjGCAScEdR7gV2PgHWtH+NUr/Bv4sak8fiKyy/gzxMzbXlj2jbG2PvMCCGU9RSe5nsYJi+0JtyvyqcFuoHtWYlreWc0kis0mWGGkbJ6dvyq9LHrvhvXb3wZ45sfsur2VwVlBXCTISdssXZkP5jvVh1Jyp5pGg/TruaeELO4LAYOR+lSzQsDiqkHmW7pEi/KPTsKvm4kMgUW+UP3nJ+76cUAQqrLyFpQzBscdal8rAyOM0gVVPzEc+tZjEEgznqfapdzBchaWC3Vz061J5KhPx5o0Y0nYh3kryDn60F92MCpVi3DBI/GlS3XcPmFQ9ylsM87ZnYaa8trcp5F3F5iHhkYcHjFSy2wVsrj3pjWjE8flUpRa1Gm07m74P8AF3hzVPDg+DfxcUT6LdnGl6lPJ89nJuO0Fjkqf7rds46VqXOlTvJB8DPjrfL8rA+C/GMQwZcfcidj0kC9efmAri7vSbTUrR7DUbfzIZBtdcdRW54S8TaVqek/8KN+NCG80LUSsOjawX/eWb87ELdQwxlWHpivFxuDlF+0pmqakjJ1nTde8LeIZ/CHi+xEV5Cf3VzHkxXUZ+7IhPcjkjqM1A6SRtgDIHpXZW1pPaSp+zv8d9TLyOh/4QzxkOGucDKqzdPMUcFSfmC1yN/p2reF/EM3grxSjLf26IRJs2pcKd3zpwMg4BOOmcdq1y/GykuSe4pRIwwODTjMpXAHIonhdMN5ZwTxgVGGjXKnJ3AggGvZujFodknn1pdyAZD4/WoDMm7YpPHrUikKMnpmhO5L0ELuMkHvTRI2SMY5pzlfvZqvcuVXKcntngVaYibzypyT3705bkkgtWb9t3yFQ7ZHY1LHK2fnek3cC4xhkk8wxDIpPL7qvXtmoonAO7OalRyOT+dIBcYP0qxo2o6jo90bnTCMSfLLFIAyMPUg+1QSkKwGfc0QOiklgD6AigtJIvXtppMxF3otzPtwTNbyR5KnrnOM4P5VAgini3xuDn+6cj86dBquqaVdw6ppNx5VxC+VJOVK9wRjkVb1WXTtfnk8RaPB9mkZVF9p4PyJIf44/wDZOCSO1Q1Zjvczriz8oZPfpUMlvbMuFPPqDzV1T9pTBKkA9VbioJIwrZ2n1BzUtXApR2XJBJA7CkbShvLK4x3GKuDa6YHWkWykZN5lwD2qAKjabB9nNtKp2nIJQc/rWJdeGNNilkub26mmZjuEAJwuB0UV0bRs48vzMHNP1e2MmnMInWByBiSBd0uM8gD17UFp3PLpPhcmpXk2uxWzyQyQ7tT0y5Cot1HkkBgOWwce9c34d+Iej+F9G1H4b/GfwQl34RaV7iaWCE+dpwPBBj2kgZwA6jFdl4x1i9knS2NncSxOoFnMkUgmimU5zJtXBHHY9cCqml+G9Z+MMcUevPaw3rBTJr1uhgkVEOCk6SZypHBAx75poGk9zJ8b/sFfBz4kaNDrv7NPjSO1bUdNSa3s9ecuZPMUNiORRkEAnhgK+dbX4a/tH/Cq5vPBPjX4Z6eZLS8f7DLYSKRLbHG13L8l928HHHAA6V7n4b1qz8LfFvUrXw/4wtYNF0i2MEetapewxQT3wGSikTByvBC4jOM9+teo+CPj0da8Px3011pNjKWYSwu8MylupZWc5KnP55rjxmBhiLNo83FYGnU1sXHTI3dcUgl8sgA9uaQvg4wfzpVUEc/zr1zovcVXDDK4/Clh8yOQbj0pm4IThcfhTlJJBB59qBFxGdj8i547VYjx1NU4ZWTOBViKQZ6dau/cCQ8ZYEcnvUckZkGdoye4PNOJOcY71MhGACn40JoClLbsIyAvy8kgk1Bb3YWf7LJGQBhg+DhvWtORSRkCo5rQSAM7oCMkY6H8Kgd2OiaN13BcClK5Pyiq0UjowjY9ehxVhWG0seKAbbJUhJGGAI7iqup+G7HUoV3loZIpBLb3ELbZYJBjDow5B4q5C5I56elSrKFYHbkfWgR0OnXC/tN+Gk8BeJrqO28eeGEa40rVfLKJqEQG1ct3DZG9exGcVyMV5Mb240PV9NksdVsZPL1CwmHzRP1yMfeU9QfQ0+/tLhJ4Nb0O5ktNTsZRPYXkR/1UignLf3l6ZXvXZ6j9i/aO8D/8LL0mFdO8d+G4xFrGnwLiO8Hy5AZgpZWxlW5xyOmDQNOxyATZghDmpYrlrYk9A3ByP8aZp7T3dqk1xbmF2HMbHleenFTPa7uCAfrR1LEaYSH7vP0owWUkgHHrSmMRnJOfrSkBudvX0NQ0A6EY6D9amjY42HpnNQIQpxg/ianjc5wozkZpDW45oCXJHT1pfKA6H9KarOQd3SnoHfLAdKzLHJCnG5vzqRbYOM8c0kSscEkVOCm3G7n2qZAQtbAYUH6024soriExzwhwAPlaPJ4OeCeh96mXGQf61IrhxtNKzasxp2ZtaHqnh/xn4fj+EfxciFxau+dM1Zvle1lP+rIYfdYHOD+FWbm3kv54/gh8cJ1+2FGbwl4t2hTcbcbF3Do44yv8YBrm7+ySWLeXHzAA+owcgj8a3dB1Hw74/wDD5+FXxbuHlt12/wBkau4CyQyKfl2vj7w7H04rxcXg505c8Gappo5PU9N1vwtrknhPxbbBL5TuhliOYrhOzIT34OR1FVrizAcvtGSa7+TTL/V5k+B/xquguqxN5nhTxSi7ftYwflz/AM9F6Ff4q47VdI17wzrj+EfFtj5d6m7yZYFPl3SA4EiZ5x06+9dGDxynanPcmSsjMWFN3TkH0qQwbjwOo7GpntZEYLgACkaMxnNevGSRi1cYbSONeSTnrx0qCazVyWB6VeQo6ruB/OnNGhIOCaq6ZNrGVLp6TLkrz/eA5qJ9Klx8kmdp9K2vJG3ORj0prRp0B6UBbQyIrOVDznH0qYW7EbQx/OrZhCHOcCmmQIccehzQNNIri3PIOc+5pUh2tu546Yqdn44xSeYFyAn1zQG7K83mqcjP0NT6fdy2rrNbFVlQgjeuQfY01pUYncRz605YwjFQPfFJq5SVjSuJ9O1HS7zVozDazQNvkszGUGD1K9j/APXrLiuY7yNZUSQKxGDJEynn2IyKdpxvNK8QWXifS50F/Yh0ieeLzYmVuu6MsAfrWtq1jc+LdYvvGt1ftJqUscYuYAVRCqDAaNB0/nUDMR4W4IGOO3FIECLtOePerJBUYK5/CoZoWb51GBSauBXlmKtw2PTFRySyI6Tox+Xnk8GpDKoZkMPTjcf4j7U1mXoU4qbMtbGdqVnpOqW7afe+ek8gwLu3l2SL6flWTF4XsU1Tzddmu71IEYKZXz9oU9pMdeccjH1ranshM5lBwQeBVOaxupJf9ey+4bGKQzyrxL8JPA+m6hcXeieB9EtbuWUum+13iN/VfMYrkepGcd6ks/iRpkkRstTtPAGlS2TfZ2h8Q2W25l2j/WYjBUKSSBgkYHpXomu6XC26KTEyOvJkQElhwe35GsO88M6VdSK13YWcpVAqmRCSFHQU7sDrXTGc8YFNU5G0D6k1fksyeSAKryWhxnbtGetdZxkXkebwpGacts8RwT+VKEMfbtTo33AAigA3bDxipoJIyuJevtUHlHJ96kC4HLYx60XuBaAA5B/CplXA3H8aqQzANtLjH8ql3kkbWGO/NOO4E5GRnbxSDjkL09aZFIx+Ut36U9lkz8p4PaqtcCCeBzG+yQKxHyMR90+tQ21zNu2Twjr1z/n/ACKvbSB865Heo5YUAGMZI9KlqwDomAXIqZCW7cVWRWTq35ipo3cDikBKE3EAjH0NTfYrOd/Na3j8wbdsgTkYP61AJTtANTQTKjYoKSRMVG7G3BJoaJsnPpnrUkJD8Fc/WnqExhlJ+lBRBtVlxxmnLCrH5gKe4UcrGcelCEPwo57CjdARtasTuAH50nl7CDz07VaHC425phiJGCMVD3BCQMJGKBQOe9TG2KtgsOfQ1EGRX6D8KuwhCu4nr79KmyHdlcRN0HOKcsUgGSvFWRFEBhep7U4Ku3leKl7lLYqhSRwMn60+OMk4xiphD825Rgd+KesfPCg8dazu0JNjMDyym05xVaa2WZfs1wx8vIYKckA9c+3SrUnyt8g5oOWHzIevNEoqcbMrm5Tf0O+0n4iaFH8LviHNLFO05OhaujDzI3BypDnOHB6dM9KksBqHjC5f4M/GImz8UaYWbw/rkK7E1CILgFS2ScjAcA8n0NczfWjXsBijIU8FWHBVh0Yeh963raaH4weG2+FPxG1X7DrUTB/D+uwMBIuCChDdd+QMjuK8PFYaVKfPA2UlJHOahpOraJrEnh3xHEtrfwR72iByJVwMshP3lzkZ+lVbmMjomARzXZaddf8ACe66/wAL/i/bR2HjXR4caVqMb4W+gIBLoeMhsEMvauav7S+tNWm0HWrb7Lfwkme2I5CliFYeqnGRXbg8Spe7ImUUYxLKxAqWKRz941Nc2wj79elQhVU5Jr0rmbRMAxG0GmyKV5I/KpIWjBDM1TskbrgNnNWmJ7FFg0i4xyKhMbLwVrQFq2Scgimy2h9M/SmT5FDYmc4/KnGIlSQD7VK9qElLHkUMNg70BqjOuoA6kiMsRyoBxzU8Uks0YlmUKxABGehp0yfeOO1RWwIGXP0xQF2TRxlLgNuOKHknjufMiLjBzuQ4IHtQkisTmnxtlumQRg8UmrlJl2BbDXbGS5ivUt9QixvsCo2Sr/fRs/mMdao5DLgnHtRNC0hM0YAIHJA54p1oIrmI28srRSEnZlPvj69uagZG0Mfl4YD2OKqvCPMJHr1q1JbvCCkgOQcHFRMhDEEH60MuOxWaEY3KO9QSLtUKeOOeKuzBgqgHjvVaZN/VfzpNXGZl/HFBcKk0qOsoBRh0wex9Kpz6fEZWw68HHynitiXTo3wSgPfAA6002MqHCRj1+7UAf//Z;rounded=1;" parent="1" vertex="1">
                    <mxGeometry x="720" y="330" width="200" height="112.15" as="geometry"/>
                </mxCell>
                <mxCell id="2_muqPNzbiKzWvyuhUvV-13" value="" style="shape=image;verticalLabelPosition=bottom;labelBackgroundColor=default;verticalAlign=top;aspect=fixed;imageAspect=0;image=data:image/jpeg,/9j/4AAQSkZJRgABAQAAAQABAAD/2wBDAAIBAQEBAQIBAQECAgICAgQDAgICAgUEBAMEBgUGBgYFBgYGBwkIBgcJBwYGCAsICQoKCgoKBggLDAsKDAkKCgr/2wBDAQICAgICAgUDAwUKBwYHCgoKCgoKCgoKCgoKCgoKCgoKCgoKCgoKCgoKCgoKCgoKCgoKCgoKCgoKCgoKCgoKCgr/wAARCADwAawDASIAAhEBAxEB/8QAHwAAAQUBAQEBAQEAAAAAAAAAAAECAwQFBgcICQoL/8QAtRAAAgEDAwIEAwUFBAQAAAF9AQIDAAQRBRIhMUEGE1FhByJxFDKBkaEII0KxwRVS0fAkM2JyggkKFhcYGRolJicoKSo0NTY3ODk6Q0RFRkdISUpTVFVWV1hZWmNkZWZnaGlqc3R1dnd4eXqDhIWGh4iJipKTlJWWl5iZmqKjpKWmp6ipqrKztLW2t7i5usLDxMXGx8jJytLT1NXW19jZ2uHi4+Tl5ufo6erx8vP09fb3+Pn6/8QAHwEAAwEBAQEBAQEBAQAAAAAAAAECAwQFBgcICQoL/8QAtREAAgECBAQDBAcFBAQAAQJ3AAECAxEEBSExBhJBUQdhcRMiMoEIFEKRobHBCSMzUvAVYnLRChYkNOEl8RcYGRomJygpKjU2Nzg5OkNERUZHSElKU1RVVldYWVpjZGVmZ2hpanN0dXZ3eHl6goOEhYaHiImKkpOUlZaXmJmaoqOkpaanqKmqsrO0tba3uLm6wsPExcbHyMnK0tPU1dbX2Nna4uPk5ebn6Onq8vP09fb3+Pn6/9oADAMBAAIRAxEAPwD87vFPiX4w6X4Us/CqNY/YJLYpJG+mRgoDnc4kK7iRyMg9OOwre+Fnw0uvEHhX+1JrOK+vmvBbefql8Y42h2DB6FsAEYz+uBXUw+EtG1P4fnxb48Md3ZafqflWcdjM4Q4IAJBIPOemOlel2Wr6ImoReGfC1pZ3Fs8AMN4U2QQ7VyMevAwCcZ9q+Dr5iowtBa/15n59Copwsr3DwfqGm+AdLGhaksD2cCKsUgkdYozj+735+lXb7W/DlzLGtibl0aNjBLL8sQk+pGSB61mS3ujXvh+XxZqf2WbT45zFqts02JImBwGC4+b8KXwf408N3Sz6Zayi8hRgsHlQnf14GMZHavKqVq1SN5PU9SE5qmoSOXig1aXX/IuNVurWa1hZzHJiSGTccKc9uc9fpXQ3mmWei6Wo110adcTHyuSxPOMdu1SRfFDw3o7JoqaXbte3935U8bYPljpuc9gPT61nad4Y07R7m5svE1uNdvprtnVvtwjWKPr9ScGuR4mrDf8AIzbqpuzPNvix8NH+J3hvxB8QItTa2udEiUWtjaQn97E33w23mvnzxR8PtU0LT7TxTqt7I0cTpts1U4jyec885NffOliy0i3TS/CunW9vFeKWmlQ+YAO4bP48VwGt/AT4Z+LNb1C48WeLUGkAlTFBbFmt3cAKWIwMAnI9B19vQwGeOD9nLYmFWafvanyxPLFNb2N1aOkEVy/zXB+YoC2M47d6u6ZqekS+IJoJtVIiSMxidlIVz2I9DXSeK/hn4lsfG2sfDj4ZWy3o06PzoL2VQVnVB1B4HPb1x7Vk/Dr4ea38Y2utIt3aC+0/Ml4Vtl2gAc7gSOc+hr6aFelWjzdDWLbepz2rfELwjH4S1mG28WvHqibIY9OiZyLxd3OeMYH557Vl6Bp2peP3gW8E0FnZRgySqM59gc+la2p/s2azpdjeeItWliUxKWVXi8slScKck+/THQd6Z8JvJ8Kwaz4bv9ViTfbmSLzB8rSAjIGPr16V1wVB0247nXFUnC/U9jtvi/4J8KWmjeGfht4VaPRrMrPq7Xyqtxcy55XcoxgDOMAA+/WsXxH4vttQ1Aan4Xj8mwnvDcpbFg0vJ+aNu2c55Fcd4g1fUrjVdImtIrJHubSGzYxD5ZSOB06VQi8Q3un+IoPDWqaTcW80V4scgZTl8OASuB82OvHpXDLCRnPmW5zTpc7u0eral8RLDU/iNpHipYW05TZpYz27zBgc8AkdAME/zzWt8ajONLs/BiJ5q6fN5sUSgu2QckDnleTn2NZOjaP4AfUNY1TW9bjeO5f/AIlrSRFJHdB6DpnaRmsHTIvE19OvjLw/qEsf9ntstTcvu2RvwU57DJH4VxYileSWxxt8tQ6P4ZapqWl311oemi4Nrqe27ezA+ZpUBAQDPIweR7e1U/jafC9zq6aPqXh24so5rMOVPRJSMkAnsev41D4msL/SorW/t/tkksF/HNc3sA+ZFJ+bCj16Cu8t/FvgbXvEulDxJq0OmskpGn6zrkObdjt+7JgcDPX61zawleJg4qcjy2HxHaHw9ZeEPMgsdQifOmwvZeX5qscBzJ/ExPevUTe+OG8DW3g34y6RpWmQRwuml6rpoBIudwZnm29MKCM+pqt4rsvEFpq1r8S/jZ4e8MavptlILey1LR7xDGnzEAqFJzg46+nasK4+M3gKXXm+H9vrO+zuDJcCeOZXA3Bi2STnOVA29SGHFdD+sVVpE0lGry2ijrLjxLc/D97HwnpmtaPqul65L9nPiCwud6rNGF3LISPlPXjjjFdBrutaH4A8RaXrd3oelXuy08qIIU8sIxO4ljnPHTHNeRfFi58Aa14a0rUfhLaXQ1me4LSSQT/umlXjMsbDhsgjHB7GrWi/DyaXwPbah4n1261PWklk32EFsSmnoFyDgD5yT6YxSWH5dZOzMlQbjeTsyx8UNc0T4wako8P+HtOtJ9Jfda29tYmNBEDzkcAnPfvXn3imy1u6tZNBn8QW9jAFkmklgXDD/YyDwD047nmu+8NeHfirc6E3iDRfDP7mCby9QM0SpMVbILDdjC4z+X58V8Zfhl4qbWLeO31rTo4JbVmUaVdmVyN2fLmXjBHXgEfj066EoRqK8h0uanLSWh8/a/Yvo7TtYhJorhwrhh86dDmp/DvioX93HpniTTgYYseSY3JDH0Ye/rXoL/BCQ3BuF1KWYz/M8SJhoznGORz61zvxA8C6b4bmh0qynlXUmkxOLltoUdiB37V9HRr0pLlufQUcRRklF6m58J7nxQmv3+j+DWkhieLdqZSUqFhPQE9xk9K7630y2sfDlxBBqLR6fG4kkhS5O1pc4Jx659uleUeDvEfiH4Z6zKLS2S4vLtQkjSNkSR919OnP4V7nolxZ3ngaafwJq2mS63cxCXUrDVX8tbeMLn5c8MQSDkc4GK48XS10Ssc+KjCOqRHYacNA8F6tNpXi6KzlFtvmWQlPOAGdoPt1rqPgr4r1X4ifDvVPFQ0uzf8A4RG3Zoy21pGliQOQeh2uAcZ6k4ryO08feIvDEOoaT4p8K2V55kQkjgifKxnOcZx0xz+Fcn4Q8J+N7mxvtWttb/sux1ANuAkIEidcYB6Z4zXF9Qpz1mcbowq/FojW1LxFrnxS1TUvE3iGzXzLsl/LDBVG08YA6dOKZaafJqkMUul+Yy23EloPvEDrg96l0mHTrOKWytEZ7xEIVHbb5g/vCoLjVNZ0KweW5ElrdTIyQOVxlccj+dd1KnTpwUYm8aPLZQLeleDdK8VeL9P0PVvFdtpVrdsz+Zej5V2qTgk9zgj64r1HwT4sj15prS0uQfD+k4s4LuRBtLg4Ur6gnmvGtHs/D/ibSl0fxlrgtVVt7Xstu8ipgH+4DXqfgmfwL4a+Gt9YR/EXT7zTp7uFPsltA5uVCgkMq4DY55yOMdeaqvh5ukdrw7lS97c6DT9Gu4zqGjXngoXM8dzvlu7a6I8wDoNmMAge9dLZeJvDsF0NG0jVbzSFh8uRopNHnldeAScxKxx05x2rk1+J/wAPte8Y2Opal4016G0+xpDPY6Tockk7umfncZGQ3HQ54r03wj4x0XxFcHW/DOqeJWtovlhi1HRjb85wQq7m3D3968j6lVk7zic0cDVlK9tDQ+EfjCz8R674iuNCsLub7dLFHfXgt3WGcKPlIEigqQSeQOa9r8I2kjacY4NjtEoDhhyeK4PwneeJdTvWuZvDmoxWoXHmSRKiv/wEHP5gV33hKe4nV/tVvtk6BFbG324HNe3h6CpwVj28PQjRhZI7PS0ysUyyBCRhgfat+x3uoV89ThyuKwdJ0yGcxzA7mUcIz8A+uK6SzhkUAyOpPUAjIzXT7qOqzLtvDcLIAERs/ffHWrkIe3kLLFuDkYx2qCC4aMFXjVSw6r3qzaXpVRG8DH69qOWIr9C/bxEKJkG4g4A9TV6NjMTJGQ7oMSL3T/PrVO3eOP8A0meYhSMqhH4VPbRo16L6BTyvzZbqMU+VDuy1FskK7xgDPWtG0BhTGwYHcVXt54pV8wKdw7Ec1aG9BuduG9KTS6BzMckoeYvjgt0qaMMjFSBj3qCNcPtRjndjfircUkRXG0eYp/iPBqkJsQQKwLFSAO4oJJdUcFSepbnNSQtL5rblUKRnHapY5cMIrkrmQnD44x6CgV0yITIYmmh3JkYxUv2lFlWIgk93BqVoWXaoQbOBn09KQQlnOwD5TyC1AwV41Jw+FJwBnqalW3cqGSIYPTLgVFJaW8bb47VmlBycMMD35p4eAD94CT3p6NaCeh+Tur6z4a8JlNDlu7dLaeB2SyQ4DsRjJJrI8I+NoPFkllqHh7UbtNNhkaLUdGMhxtHHyEds45rgpvBet/EzW31W9nTQLqe3S7srS/fFvNCG2sEc56bcgDPQ5xXu/gHQfCXhDwamlf2JaRXUp86+voe4zkFfYDHAr5athKVGm5cp8lhsFKjFyqblqDw3p9zpreGdDWR7i7ulmTegBT+6tZ2q+KH8K2uoHwR4gZdYtbdxf+TbfPEFHzAZ4JOCM+9ao8ZfDhNWj0+8lvbhTbGWzvIMqwcdBx2+tcj8Qbi1t9mreHLoW+oah+7vJbmPcXQgkDgcH1NeC6dqnM1+v6HRFJptPY5vRfHMF94wiv8AW9GJCIEntlA3owyRIT3969Su9U+HN1cW2paNdNPeNbk3U6xN8j44X8qyrz4ZfDDUGaLwjrch1mSFJLlPtKlCcbuMcgkmqEOu/ETSr28Go/C2GDStEgZ9Y1lLkKAgXKgDH3vYZJpV4e3kuRf18yIzVTY6PSviTcCxk02bXF+2WoLWapakfu++ff05rDk1q30bUl1KW6lMOohWumeQxwlzhQPqM/zryfWv2ktT8T6ZaTaLYnT9TtNUMtnJNbqYJ7bBzHIT1OcdjwT0PNFv4x+LnxG0+Hwp4svLOO3tbgyRpa2cUKB3z8z7Pveme2OBmqp5TWkry0MalOb6nrT+NLW8lbSpvIkezlOI4ohkoRwAe56VQ8BfFL4cQ+NbvRtH8M3keu6pELeVFAhjiC85bHHPc4z71zPgb4WaxqGpSwwai15cwwlZo7SQIqsegy3U12Nv8MNf+HUunazp3hwx69GjCKIzLJ9o789t3alPD06O8n95lyRjq2yr4i+CVh8UkfTPHviubTBC0gWSFfMHUlHwCAyjHQ849M1xnx68DzfCH4Xaf8M7Tw7oFzJqEblfEdppuy6uVLsSc8kYyOM4xj0r1TUPiXqdl4WL/Ev4XXmjTXAdItQjfe7kAnbtx8vTFedeLPHPh7U/h1FdQahdaneGeSEQakm2SAjBymf4AMDP1rpwlapCaV9AtFPQ8f8Ah38OvE3ijxJaeCrG+txLEEljnuF4TByOD6Y6V9Ka78OPD+ta1aat4jnjv79IEha5gjCmAr1cD+H14ryfwbMvgSzittNuopde1S4/0i4uodxt4nJ2hf516f4Rvta8LaNqPhW/VrqK5j3xa+YuS2PmQE/54rvxWIqWtBmjr1L2ixNP+FUOgWmqy2VpFql1d2pj025uPumYKxXPockdPSvEptW+N3hnxxY+Atd8JrYwWRd7mHyv9dGGMhLHvwCK9sm1bV9U0mDUtCuTBZ6dtZbWc4cuABux3xyayfiV8VdZ+IV7Z/D6CG3Gpwaf9o1K/uAEeRAfkjz3HOcVzUK9SVT94rjg5ynzS1MbxB4p0rVP+Kp0fXDEL90EttbNkwnGDn2P9a07OLQPFvg+21m9s4tsN3JHE0ycfdKswXp3447VW+HXgCPw3ayX2vywGa/dNptXDGMf7SjPJrU1nwheeB/Ac9ujwahH/bC3MF7DOdlvEeDuBGAQTirk4xloaSVJu7Vjx/xd8ONPuteks/D2qzT6d5+63WZSqzzBeQVzj2BxVPRfgZb6jqk17q+jLFHDag+XFKdyk92Pb0H4Vs6+viPwb4yuNR1NbSeyuUjYwXEpMcTDaFkUx9+M5/PpWx9t8e+LIxb+FYLa3iunWV1nmWKKYdCWd8cD0bjgmu6NWrCCs0clSpJS9x6Gn+zR4Rt9P1a8l8U6rd28FjxpELRM8d02TkjA4wMH0PrXoHw913WtL8fy6o3hbUpbQJNAm2/XcxYH5jgHCg9BXmmn+LPi9+zbJP4B1Dwvp7/bwWtL5rmSSIMwzmJlHXkfKOPSus8LfF7wLoFjNNqt5cJcHT86rfXMIUGc9I41DE5bgcgVx4mnXrNNq5lW9pKKtqW9G1zx9/wk13pt1BcwM11tuHuywhkt/R224Zh2Ixjv75tz+zzr2l6/c6z4W8R2epWcUwQQwSbHBkXPKsBzwMHOTzxxzY1f9pTwze+CobrRZJIo7iT7PJbXJDRryNzMQckkEYHApT4vt/FegT+LfC32bw9caLBtuL6CbZHcMFxtyeRknjv+Vc8I4ilNcqsY8tfmWi+f/DHmWu3Gv2/jI6UdR+y/Z4dsUjAFlk/utjvk9a8e8ReH/F+ofERrPxFaqbjdlbh5flK5+8D34rqbL4m6ibWSGLRzNNcqWa8nn3fMTncPWorIeIPGOrW2pareRP8AZo9gBbBce9fR4aFajC80ephqU6T5pLX+vIut4N0XR9VSKdnv4DAAt8CFQSN1UA5Jx/Ot3VtB0W61GDWL6/YJCqQSHHQKOCQO3v71uPp9pcaFFpuq20Nu11b5s5gvCupzwPfFFvpN5pmvxSawLeKeOKMTpNEWiYFdyhsfdBGOfU0q1dX1NJVZSdrGX4k0GXTLN57XzbmRW3yNbRfMIs8qR6c9a5fXNV1ttNgks/D1w2nwSGNnVDgHGSM+2fSvZPDl9JbWBW01WOFIbp5IpYo9xljI3eWfVRxitq7vLK2lkaXTVFtfRrNcgKBC8gAG7HYnuB6VzrExg7tExrqMrSVzwrQ9Lm13/RWaW3uFZXglMfCqOSta+rSeEL/ULXSPHmuxzafhsx25G+GQjgsRz2GfSuj8ey20Oi3M+jSx2s9uAWtpQQsxY8EN+PesH4Z/CzSPEiSXF5dW8NxK33XcqplOTjPPFejhqtOtHmSsevh405+9Yp6H4BhbSllXxStzZz3PlR2UDcuexP5+nf3r3jwd+yj8L9M8Drrfirxpb6O1uC9zI1vLLIQoDkYXtyB+H54Hhf4E+MbO6iSzt9AaS3O5ruWNwsRb72CPvYx1wDxXd+BvhZ478L3cuoab4yt4pZZGM0sUbuHB7jccf/qr0FN2seioRtYoQ/Dv4ZeIo9R8ZeBPiy0+o+FtLOozWMnh2e1N8M42RtKVAJJ25I/iBAOTjsPg74w8ReMNJjhuPCl4ro4JU27RrEOvVsb+O4HFdDYeEJbq6i1XxFdRX09uu3zRaqvXscdegPNeg+GbOWCEqGOxiC7YwWNS5O25cIqOw/RdPFyixSR4ZsYJPAx1rasvD8Tus1mcbeBtXGcGkfTUtGWSJtuD8m4da3NKtZg22NyCRkhhzUczW5TS6D9Nt5VQNDArSIdzY6/lW7p/lXI3xYxj5kYc571S07fBKpnUoCcbsd81qQWYjfzXPKvkMOPX/GpvqUi9a2AukKsvzBeAKdFYTltiMQwbDKTx9afbQusYZidr/wAWckc1bSOQnyghG0ZEmOtUmJq4gs72MiEYZQORnGalSyvnCw2YYuvtwP8AIqeANuXfKQQePer6ROsglD7W6n5elO7IK8dhehBNG28gHcoHpVyyiaOLYx+UnLA9QakjYKjSMWODxgVK0KygNHMB1ycUKydymroJDcERsoAAbJx0Iq67W0beakIQEfw1XgnEULQMUYAcFutOt75FZY5IQM8bye1UnciUbEr7Xf5uBnBJPX2qYwJbRqqnKhshmOSCahMNtcL5rbiScjPBBp0KR2+6RnUZ6En5sUxJNMtQzyNC23p7HrUix2sf+sRN5/jC9qqkb3/duCo5AXg/jTyzFFdomJXnYRk/WgouC6swzKp3KVyGC8g+n6Uzy1XlrQMW5yT1qtGJFlDxpgdQT/hTpFuS/Clsd8ULQGrn5m+FvBGoHwlZ+C/ijbW2oWenyOmlmGLP9nrgktuHJ3Mc4P1rL1jwf4Rv72FoPEUubRGxp8ZO6WIc789K6jTLXxD4k1H+0dQ0qax/ti13NapcBjJgcZA6HAz+NcP4h+HXhXxXrM3g+71yLwwLMF4L+7kkbyXPXlCCN3Tr1avjHiK0m1Ueh5vLzU7S1M6L4lfs5eDl/tbTdR8RTTxS+U8T2O/cfYkhQO1WfDfgvRfGlpP8SdYbxLJp98u6ARYX5Q5AGCCAP58+tcv4s8Dab4MZvCE3iK11YaVatcLfaKzvHdbgWVGLDAOSe5z6ivMvEXxe+Jmhrax+H/E066d9ja1Wz83cqowxsZeVPXg4yOMHitYYNVdYyPNcfZzcWjvZvG3w3v7rUbLStIvbzXb68Frp7yNtVyMKoDg4AB+ldl8ePAr6N8ObGy1n4iW2kaha2Blu4bi7IjnmUZIAA+cjoB+NfMPwz8T3PhrxNLcXuoStsDvEgXcFmIO047Y9a9P+KWs3PxS/Z+0+bQtHuhc6GjXeva5fsVFw5kx5aFicjDLxx0AAraeW+zcZFunZc2xwHhvxJr9nbT+IIJoCYoX2rcW4aNuCOFPB/wDrVueA/iJ4zOq2Gur4fglkXKzrLb4Egx6dOlWdB0+K68N2cQ8q4LWKNcOvyojEcKBgdB19810+hWU8sF3qA1uCC3jKQtHPBgu7fdWP6+1dc5wjGzVyWoPRm3qnin4jwWb6/b6Da2UF0MSR6fIWlcDvgHj610Xwu8W/E3xNo/23wZDbrBo6lr671B900ZwSAAeMkdD179qzvCnjPVvgjpV/Y6vp9pPp1zc5WSdA0sbFfmA9Ac8VhaWn2DQtR1DS/FdzFomtxl54ISA77SRtcdtpJx7V5FWjSqyd4iqRpuNmjr/Ftj4svdK0vVNS+IV1rGn6jdvNDpMMzSSQH+LKjtyaxPFHhaz0HX7LTvHAbTIn2tbxIMy7Ou4r1Gc/rTfsmtafNp8fhzxvYaHPp1k1xZ3s9wBJIAA2MYwW9q8g8TeIPHGv+JT4y+J3ie6kkuJfLOqk9ugIA4A6U6OCm5aOyOP2TctDtvD3imPR/EVxqel2L3ivfGG0a+j3MEzjdj6f0rpdT+LHirwJfQ2Nxpi60mSIbVnICMT1HpXnngjw7PqmpprMXi3NraPuS7ZSMMOg+pOK3NT+NsfgXVbrVn0TSNWlkVd91c27iVG4HyNnC9SSQCenvXZLC30bF9Wmne56lc+OfCnh/QrHxh4y069hu7gq15pcNuWFmpJBOTxnGOM98Vwnxh8PaT8R/E9l468IeILKzuLslFtUu9spjXGNygHAwO/eqfjL4s+PPihZta3dxBb6ddgF0Nuu5R1C+Z1Jzms3w9b+EoXj0y+SKK5jG63vWnxwP4QamGF5NepV2mkz0LwFdJ4e0eXVbfQk1a+uH8uVWnIVMcE4OADjv7V6Vp2peH9K8K22jXHhBZv7QMkd4omwmxgSM9zg4GP/AK9cZp3ib4Y2dhpumNexwW80/mSMW2+m5ywGTnp+FM8VTFdY0y98E6ncnSb/AFaOOT7HG+BCRtlOOQvyk9e/XiuHGe/7rRvia8ZU4rk+Z2PxA8IeLvGGn6VpGm6vb+HLR9ONrqp0+ED7TCE44wSeABkEcMcjmvMNH0q48KC/0fxdbpqGnpZywae9zII2jQbmBBGM55wM56dBxXYaXqnijw7Y6va69pkt3ZW8KYuDORJGidcE/LkjGBXKWXxh+GOraVcXXiXz4b+C98vS7Ztsm/HRy3AGO+M1zUfaR91LQ8mvHmfKkeVw6PafFLxZaQ6r4/h0OG2kysmpXDhUGflCqASWJ4A/UCvT/Evws+E+n6S+m6xpSXaSpH9p1iGUvJK56MCDtC5Hp29a808W+L/CHxA8cL478Vu1tJZsILqWzt9gkKnh9uMHp1rtLb49fDA6loWn3ENiNIbc2rWtzLk3SqfuAg4UlSce5Feu1WnSj7NNdzqiqkaKUUVdU+Jv7P8A4C1tPBdj4e0jWrW6WKB3urJS8cuRgMe45Gc9fwrD+NfjnWPF/h+fwH8O/CS6X4eN5Dd3wjA2+b0LR4/h5PHPP0rjvi3F+z54l+Ki6x8H9IvLfSbmL9/Z3eSLeTuQe/Gc/Sui8BeGNYFldKl7E2nbWW3mmfCocEg4PUZFejToR9knLc3cIxipu9zkpfAmn6Y5Ol6/IqS/I0tyoAwe4HoK0fCHhXWo7iZ9IjbUobbJluo02pjv1/lWkPh1deKtSt/Dc1+j3Dp5v+hzBlU+/PAr0TT/AIf6j8LrLT/D+ia1LqNvdFrzVbaAgsoXAIC5zk+3HFKviuWBrUxH7tak/ge28O+ILixu4tFaK1toMBLps7Zwvzn0wSTiux8UX/wz16Sx8XfDfU0dyTpvijSZgQ7qD8rgN6EDGOxBqzD4KsNagW40u6jOmZQtGikOjEjP1xnt615L8RfC+peBPFy3dlEiwtcLJbyRMWUlW4OeM5469zivC9v7So1c8+ftJ9bHY3kXhi3immu/Beq2UNtKIIJElCjzPR/UY71m3lgdXFtpd9rkdrYQN5sNrNIA4bp1HbPWovDXxn8Ra58T00LxR9nl07W2ihltXX935wUAHnO0kgfnXoHjKT4XW/h7UtO0Tw7ZX2o6eolvbSWNRPEuRkKc8r/KipOpBp8tw5KkbSepgeIbz4e+I9Ei8Nap4cuLy7GA0lgN5Q9AwwOR/jXcfCr4Vado+n293DpSK2AGFxbAu2BwSSBT/hB4F+H1tpkfjvwvpv2K4v8AAWFr5pDGMfMAD2Neo6PpReFJXkZg5w2Dx1zXs5fVjKDSPo8BJTg9NSGy8OidFUFNv8SbeK2tP8NtNJ5ssatheIjxgexq/pmlCWRwvyqhwCf4q2rWx8uMBAAT3UV6vNfQ9RNGfZ6FGm1Y4yGbqB6Vs6fpMsJCbQMDNWra1O8sBxjGAKvW8QwoxjBqr6FR3C0s4CFNzbgleqk5/KtNLQOBc202GU4Ax1FQQoHhCt8rK/TPJ/yKtW6lC2yQgk5OTU+8yrpMtW5EyAXJBD9T3BFaloI4ytvLLvR1w7EVm2ifaB5ZI+VgfqK0UkeACQwhgG+UCiw1qXLYxRP9kBG1ehI7Vq2wEq+Uu0gr61RgnhmUhEBLDLg8ircMAkBe2TaxwPlqlcTdi1FZRAgCUkf3hT13QzJsfcjkhs9RimxQvCfJD4kdckYzipxH5SASr8oHzEjqe1aJJkEsEkrbmkUEcgOre/ep7YKI/LRAOc59KjjinW2cA7T1VfUVPaK5VUfqVzu9aGuxSZNEsTht4ZQP4lGaWO3hZVnZwQBzu5xTAfImwI+WHzHd1qRjlNyRKFY/d3YoVwbTEt2a3fdNI2xjkADrVpLGLllUAN/DUA+z3KMip85AO7PFP+WNfLCYPrTZKHvYxAApLtfdypGBUn2CaFzEztvIzgHpUH22aEqqRq7Nnbv5xxUo1cvIlrJbCEMgIdmzk9xn60yfeHNHI534yB94+lNxdDgMCOxxUrXAwscjED1AqVpbBmLRyce4oKPyhufgVpHwk1eFfBXxVv8AT9YluAn9myyNIbuN+AQB0PXvW34w+E3iXUb0+BZfFVjDHDEk8txqUgiaTI5UkcnB7cgV5x8UPHHxB1vxPDdGxTU7jTQEV9OspWeRl/icxg469zjiuSB+M/j74n2ul3yzW2o3gU2tnMhCFMZJyTyOCSTnvXwUcHiaz0mj5ZKsnyxl+B9G2/hHwF4WvtLi0DVlk1Vo/Ku2Cl4jxkMQeB659+xryv4g/CP4LeN1ubTSNd/4nN3c+WreSVDy7jkodowOvfGT70/UbX4z+GUtvEPjrS4YovOeG1jtCP3rplRwDnDYOCQPw4o8Tf8ACO+NvDdrrvwv8R6jpniTTJS11ZXkCCKJiDll77hwM+1bU6VejVs5IzqvE058lRfM8I1PwVD8LvixqXww1O9trgqiM86MAUYjlc+vY0mq65qVrb3vhnRNTufscoAmtlmLRO4GFLL0J5Iqt4s+BPjTUNMuviLrVzcGdrhxc3AQsCxPViORk/z61q+BdF1f4deH/wC1Lu5E/wBphWRl8jeiegJ7HmvooVISppc1zpUoRpK8tTR+GetWV7aJoE2nR2U8VtyZpMmZ+5GBxzjj2rq4bLxVpuhXuoa/ND5GsD/QLdEz5Cpn95n+E5796808B+MtWj8ff2zqljbCPUrgJGrIo8slsDnt1NfQXjTw3qAspPD1xOsQZgIJy/BUgHav+FcGMcoa2OXESnBcyRwulvpth4E1ex1rTbzWmns8nUQcrat2LZ59qzvglquiah4WvV1W+ikiRGiS0JO/ecEEj3PH4U7xh4a8faNpF94O0fVLqzl1BFWaGIArcL2HPfjsRVDwR4O8RfBvw2JtK1bQtWutQEc1zpibpZI0K8KWGNpyQcc9Pes4youHvSRpGtTcLtq4z4i6nf6R4bWTTvB01zqbTAySeXlYEGMKBznIP5YrgNf8f2vj1DpTRrZOIdqWkZypkHXggYOa+kv7K8R39zB8RvD2lJZWpgWK4tZrobvOIwcK3J9OlSfDD4Lfs9/EfxBeeL7mw1K017Sb9HnuQY5LOaUHcVC7Ack4yufWnTxlGi7PUiniYQntf0PLrzwF8Yv2cfhjpmnapp9pt8TzR3kEly4xEMZCMW4G4c+uPXNcTpVrffEnxXqLeLrY6bJNMr28cMRESheCOce3P1r60+OXgrVPjNpdrDrGq2otbPUBLdIJFWTyguCVTHYEDaDjmuN8EfA7xTeaXrdrqVlOsVzj+xLq6uIyVjU7gx25xxgZb34Gc1f9o4aV9NTaWK53fkaOK8Gta+EWGlatCL6zB2vK4wEBP3h+Brj/ABJpmi6b4kHilJfM00aqrK2ODFuG5cd+M9K63x5pHhzwt4sb4Z+I9VjhZoo3vdRW53Rxrw2QB1JBxjjk12HjfwL8JvDuh6Noeh6aNUsr+H7RZahLcsxjkHXgHjnPFL6zG3NYwjVV3KzPKvjnrvji28fJ4h0bTZYNEuIElsI0hG0RbRwQOn867XwJ8V/Gtt4ctbCLXIrfTpI2Dwi3G8p1Yb8ZB6dOefz7f4U6foWoWWo3XxC8UQ2+nSWp2WVyVKSAZVixx6dutT6P4i+CHjnQbD4f6Z4ZTSorS5eCyvJLch5F5YuT23EdD06Vz1cVCorcpDxCr6JWPEJPEuv/ABI8ZT3PhW9v5o7Z0e4t5CxVmOEbp+Hb+VfQHw5062tL6PwlZeFrSIJa+dLeT2SP5pPVBkcYq98KNI8J2cOt3euW4a6lUWFg9oQkixI2Q3HXLc59qTxVrC/C7TRc2/hud7+7uQVe4nyJU74PTPWvPr433eWMbP1MJRkrrYo+NPhn8PNa8K3+g6d4WsbcXxZbq8VcmNufmwOlfHvi/wCD2peGoLnxLeok9nBd/ZZLm35jHOAc++BX2z4N+Jfgprh/A+reHpdHvNSDGVLo7i6sOSp7cV85/tLfGcXgj/Z1+FESvoFhclbmZ4Bvu7gPv6nnC7eOeSTXo5Vi8Rzcp0YP626icHdHmngODSNC1O7tNRulWEwkQOsZbPHA/HNeq6JZrceFJJZ9PWLTJIV+x3JkPyv8wY9O/XpxXC2mm3Gja5ZfbLTyJrw7Y7W4i4j5GGJ6YPHFd14507xL8MdV2w308McZjafTZrcGKQEZym7jB9R6171asrK514qqr2ZlfDnxhp3w8KxfYEke5uzFPeI5LiEnqvbP1r1fxR4NfQfFOkal4cj1O5gitQ6ao7b95fB+bsVAOMe1GqP4Ft/CVp4s0vSbeSWW1B1HTYLcGWEHnep6YPfuK1PCPxEsrbwimn6efs8e9p/mJleJcc9c8jrxjpXiYmcrOyPN55y0UToF1iGbw0TrOm3ejjSrkSzXgjKiYgkq6HABXg5XrWT4r8eaaVh0rW9Jb7Devj+2RCptW8xSdjgDgZ798V0sXxC8P+O/A19oWqQ2s5htzNcLp3BVNvMijuDwSOx49643xn4ae9+GNtb2t19ngmmDLiYK7xYJRcY9cHNeVGg51VzdTejSdV8qOP8AFurfCyXwLcC18CQ22s2qrJYazYsVZnDZBJz1/Pisvwl4F+JHjTxZZ+MLLS5XkaPM1zc3CoJcjBJBOevtXSfDr9m/x/400uJ7/VZP7PSMyWttLIjeY56cA/KPxOfavfvgx8IdcsXW68TCW3jt1EcdvFjbke/pX0+EwkaMN7nv4fL4wheepifAn4O+OvDtrdJqusQTW80/mmBVJKE8YH/1q9s0PQYbG2SBkJ2qMgnH6Va0XSRbTOqW+Dn5ee1a8dtsYNIvAXHXjrmulU0ndI7adKNNWRFZ6cEffwqkdAOvvV6G0C/Iwqa2jTywZFOW6YFTwW7bCDkEdsVrojSKVxLa0XA2damS2KygZyD7VYtYwFBZcE/rUogAOWOPQYpJ6l2SIYzEQQw24OOe9aVhFBNkSx/e469Kqx2yoym4AwR8vNXrGKfzDG0Z2kcMhq0yXYnsotmPlwEPzFhgk1qWlnbztulYKmTtVh94+lUYZJApSYEr7nGPetDS185DbmIFc7o5G9aa3HzWWhJHoz2MjlFwsmW27s4IqS1S4t5/OVAuRgmprK581fJPBUnLDkCr0awSgNJyRjJPemr3Bu6KtvK5nM0MgkcD5wOMfX1q/GAWDRs2X7Occ+woe1jlOVwi7edowafHausYMzFkz1PatEySS38ywdftCmSLrsJOelTm1aSNZoCHVz8vzbSvPNRKjSZEkgIx8jt34pVDW6pGwBKjbn1pgXbfiYoRxgY6cU8y27AvGoZd2CMYqEQiBTcMm4kAbf8APWpURo03hBkdEzjJ9KAJPsUbxuIosErjfjkUxorKPEdyzHIxnHX60+OXeApG1iMkZzT/ACROAssZXnJRv6UAD2dtuLK7b85GBkD6UR2dtKnyr8x9R3p0USxgFxginAlpNgbI27gVPSgCOW2nWIpFlvQ5xmmZRQFkTawA3KD0q1IrHn7QxycdeaYYWBwYT9c0ID8ytA+KPgrStTbSJvEdrpN5cWxlKGbAYYJUEjAJI96wrnVLbWZG8aXljPeXjP8AZbebSZD/AKI2QVYkHjIAz7GvM7zTpbrWbfwDrukJpD2OmPPFPfjDFypPJ647Yp/wX8N/Eew8PalqyxSJElwjtcLOyRyKDgNg/wAI9fTHpXyMKE7WizyKUpy1SVjqbjxHrvw81ttU8ZaR/aN1cwNJY+bNvRBwMAdFb5cn3rgPBPxnvdS8W6xqFzpEHmOhJtiwQIQMblB5J4rp7zwl40kv08VXXiGw8mOVpZ42uN3noMjaoPqMVx/xGi8NfEPXk8P+AfhpLY3cQOy5sSRPJIeSCOeM10RwsJP39zHENT0Z6xo1zpnxK8FrHoDpaLcRMdUMco3lV68fUVy/j3wV8P7S1tNB03X5nN3ahjbq48uNV47d+9TfswfDK90W8ltPFFzqFnfLI6fYmiwPL24Jx0JroX/ZWvY7vUJdE8RQtFbXYNitz8hERywIUHlicjr71w1HSo1rRkeVWpOclGDXnqjwHxl8I9eSwh0nT71ET7Qzrdh8CTHI59RW7r/xZ1PS/hkND8Ranfalq8Eey2uUGI4T0DFh3AwOa7yX4SmGw1W38W6rd/bxfIbCG2ZTG8WBlhyQGznI9u9QW2jaX4fuZtZKWt3ZIg89JkyJF6MpH/167faQslN3Rc6dWikptNM5z4UftA6d4r0tfD/xR0+SWUq8Ta2UZ2QbeAAo4I5+bn7w4rrfD114f8AabdawfDKXMV8rGxe6TB3YOBx0J469K8m+IOtfDrwN8SYdS8H6Pd6dbBEmD3sBe2hJwQ4jIyygHpz0wBxXR2HxU8N+IfiRcapdfGOyfT7CzjWwtNQg8r7bM8fzqkOPk+cswJz7k8mnUwVKrFSpqwSwzqxvBHWeI/F0GueALrT9Fg8q+u4932cAny1HU7vrkCn/ALOXw48Y2XhCa48RePn0zT7eRryLRb5xmZlHzSKCeF9exIz7jz79oNba20mIaJrYXUJ5I9v2fIEQbBILjAP4Zrkvh7o+t6zJNp3iLXbm7uYXC26NMzkLn5iBngHviphgbU5O5VPDJK59Sw+IPCFvKPG+meJ7DVJ44XM1iJwEtlZcA4I+Y54GD3rU+H2v2+seFX1Gx8V/bJtRtnube3b5NkCnDj3Oew4rgfgzY3Uc994OtdLtZbe3USSX8kICQjJ4fPU55/A1peHfD/g6y8YaZ4QW+sddvLNz5osmYCKDbvwmODnJ5HY5rx6lBJ2YT5YJ3ZS+IHwV+FnjDQL74g6/ql/BdSKFtobe3Vk8zIxuYjcK5j4V/CnxPol3cacnivTtQtpYA6W8F3uC+/QYIGQceldr8SLHxmX1PVY5EtdBtJN1npiyZI6dR1Y5qE/A7xLKnh/xS3iqDS/tD5KwKFuIkbHY9ePWt6VT2dPlUtDihUvJpMp6R8MfG2ueB9Q1TwBokPiC1hu3fcsoyrY+5s6k5I474rB0G7+Jeo+PdPtX0JdMfSVVbuxltCiKoyhBOMZJBP1Ndda+DPjP8F9cXQfCHiaJbe8vGma6WTYi5bh37A4IJ+tegeNNH+MXj64dvAOqWyl7cDUY5EQszjklW9zn86wniPZ7rcTi1O9jjvGHiTxRYTWi6J4UR5zl3trc4Eca9WJ7imaL8RvFHiFo9RtdFs76bDG2QnzFiK/xBT6fzpfib4X8beEovDeva/dXsuqXMptL23SEqhtsjcvH+NdBd3/hfR/FWmX2gT2tvPpyeVHpySKipGwz+8A5PXPPWs2oz1sXP2lrsxNa8ceGvHfi+zvP+EGaPVILQRnUZ3GxDjDNjH3uw/CsPx1+zB4PvrSy+IOh3D6ZcaW8R1Z7lwRNknMuPXJC4xzn8a6zx/p3hTRNAiUvaWd6ur+fC9uxdLppBwAVJwq9eTgYrDvdB+J9zf39l47s4dqXCbbVSMou7KEc4weeepArWnVlSfNF2ZrCc4LQteDPhB8MLLSbaB7Y63dee0z3N0uFTOCAFySeFB5OM9q5b4yxx+BdY04z+KLPUrS6kZZLG9l8/wCxA+hHKjpgdq9HjF2mtwWiaQlyl3D+9No2WRR3J4x/n1rh/GC/Cvw1fzeAdJ8PPqGp3E7PqWo3cX7yPPIQE9QOOlaU8VW9peTujlkq859zjvEN58PLTQZrYG7EsSGS2urdW2RSH+NSCAVIJGDWN4V8SeE9Rvo57/VGsXSYeXIWwHk6Ak4GB2J/CvR734beH4vBRc6O8M0sbYknl+YjoOOmP8a8X0f4da14h1T+zdNcXkeQkxUhWxnqoz+devhalPFtqO6PYwFKVS6Z7J4Y1NvCniFNQ1S90y2l1C1ksbQQyYZTJja+3oRnAwfXr2r1Pwt4dXxHoUejfEG0s9UfzFMN6luU+UjGMEnJHr6Vg/Cv9miyshZaz4guZb/U1RGWSfHl27Y6IvQkZxk59sV7h4Z8BjSZkmeBpB1JONo59O1brAwUrpnsUMJ7N3ZoeEPDljZ6fFZ2unqkMKCONcc109vpEUIZIW2564HSjTbWM42qFA6DHetGOB2JBGTng9K74RcTu1SIoLdVPB+70J7Vfjtjs3MePSmWUO9sOACOozmtCGGPGDyfU1rqJESREykqvCnFWEXjb5YJ9DT0QEY44qREDfIMfUU7XC9hvCRj5AD1IH1qzFD5+10IyR0p1tApbee3arAt0cDGeT2qGi0RRRSRP80YYFsDjkHFX7KYxQtFIiEkn5h2qHbIxyIicDCj1NTRxsI1lUZw2ACaVwsWLdclWfYwwQys1PSW809Q1jAXh3Y2lsqvf8KfbadCwLSx/OckndzVzTYxPCkVtvVTklQ/3setbRtYlosWMqXkICqBvHzEDoatxxm3hAUBRu5fH3vx7VWvbC8tDHc2WcqP3kY71dsLk3Vqk5Tax+8jH7v41aVxE8Vxbys0LMpcAEgNU0SxncH3bO+P8Kz5bNnuTe6Te/MBiWJUBz+ParsEzPNjO0HrnuKpJICa3ihiK3EiDachQTwKke1VkzFIGG6mKsNwu+ByvYxHvz1pYQ6DIiBHv60wJrRvsyOYyXRsBsjGO+ac15HtLNESmR82OPrS2/mPEwlRFjx0XqaUW9vLEIt2EwfmFAD40hL4TIXGQTzUjARouc4DZbHUj0FVJLdoV3uxyBhVPfsKnhmZlKTx4CAZJPXPpQBOJYZAYpEbpjJ/lSRxOjqsXCgdMdTUbRlh5pyBnp7UsNzexuY1UPHkEEnlT1oAnneGF8OSRkDgetDTqvyxyPgdh2qM5kbzNwyxyQakjYYyIs5PWlcdj8d9D8WnxmreKPiLqdvqd/JCkcUaW+3ywMffIPqa6PW/B3imytZrbUr6S+tJLYSPFbtsSOIdsD27VxvibVEtPiNomk+EdHto4wkZvQ0WVkY8cjuaf8Yrv4geE725bUvFV3NY3MQQwLNhSW6AKMHjv9a+Q1nO8XbU8ShUjZs4rVfilaSfEieys7iO10u3YJDFcnBPOCQSfoPwrU+EHjm7+HnxZuPFGmaZJqhuU8qCPHZj0FcvfeCNB+KniCzsNSuvsU4RVjgkXaox/HuPXjt6969t+F3wi+GfgSMal4s8UWtx9nkQWVtaSFJMAjLnnOAc9O35V3VZRhQV9znq0eb3r6nX6/4xvLm3i8Z6xpAtdYkc28VlC7IV9i3b6+9YFz8WZPCl7ZSzaPdvfQ3RGpRm8DxMuMLtbGTg8kcYwetZfxH+NzyeGtauvB1iy2y3kcNhqV26sWBJU7FYZx159M8dxy1tZax4s0Ox1Pw5NBLcWkZj1a2f727nuckgjnPvXiRwsal3JHGo1ou52nhL4qeG9YAl8RWCxyi5YW8yby5B4Jbnn6iuP8f6b8RPAt9deINdht7zwlqVzmOa2VW2Z6K2B8v/ANaqK+FPGlzFNJpcMVnbC6SJS8pYCQ9MHGVzyOmKrfH9Pij4c+Fp8O+JfD08q2t7HNdalZOXgRCMKhxwCc45xntXZRwkIySi0KrTrSab1ON/aU1DUdcfTLrL29idOX7PcxwkRyY6rn1AIGK8bv8AQEu9UtbfTrjJePPmbsbD9fwrv9W+I/j/AMW+FY/h3cNaz6Osi3FvDKg3Icc4bqO/4k+taHg34f6bYaWZ/EOgLJPL/wAeUvmN8hPbjrx619HQi6FPU9CjelT7GRY+JviJ421Kz8La/qAntrGJIYm8sBEUYGcjAyR365r0bwpqvhfwgssdrB/xMSxgBWMyM6dc1mX2lWnhqxlnu5YYfkC7SR8z+lL4f1j7Dpckstv9lunRXe72gk9sA9hisMRUU1oRVlzvQ6vULrV7Ez6pPOtmJoWSdIXHzowxhx3Pp6V3HwVm8BeA4f7RsZv7U8aayxh0Bbb5VhiOPlbPU5yT7Y9K4Hwn4Ui1H7Rc6xfRvNcKpQtL2253YHtS+I4rTw6ukT215JbXNkxdbyBxuDE8Ef3a8irTi/dOSoo7M9a8Kt4q0b4l33gL4keGftd+6LNEsMgcxKeSdo6j+Wa2bxtA8UeI7jwJdQNPrckbfZUsrn5oUUZbI6AhRn8K8hm+H3xAv9eg8br4quV1CaVfNvFnPmshAzyOSQK7GfxR8LfhV8TYtQ8O6VrN1Y3ln5NxeB8TeYSAXOex598Aj68FXD+8uolCG5Z+K3grxb8TNGg8B+DdRe5gthu1CaO5EbRumU5LHJxnJAz+gryX4uXXxB/Zd8aJouiePH15WslxOsjLHyPmTryQV6+/bpXqeh/Hj4daR4wl8KHV7fSrO4mYzX95Gsflqx7s+ATz29c+9eHftGfFXwd4ovb3R/BVrPf2sF+DZ60IvKDjGGwpGcHqCcfSurB0avPyyheLEqUpVLJaHaad+3Fq/ifwQPDx0C4nvobdt9xcTIVjfP3lycgj8a4zw+9/4ouYruVoZ5p5T9rlkZuc9SSOp/CuA8G2LQubVQImaTJ3nJbPPH+e1em+G9GUaPNb6ZOSI8SF4ztZT14r16mEw1GF4I7JU6aWh3fw58U+OPAOh3Oi6bZw3Gn3FyklsbsGQ24OUyobJPOevAz+FUG8YfELxR4gcah4t33Nnc+ajTRqplK4+VlHDZHG08Dtiup0y+sdd0wpPpgRxFGYmkYMoOBkkccZFY3ifRtR8F/EPwpqsf2S3gnu0hubuOA48t2wwP4bhmvKapznsck422Ol+GvjfxP4s1C4tV1Kw0mS5utl5bhdskqAAhkDE4GMc+1XPiUzajqD+DrLTLa61OLEkUltMGklhPQtg8D+eK07fwb8KpJrueXT5JNba4ZhO0n+rGf4SD0I5xz+Fcn4l8Jf2P4stNW8KyTWd4vEDxybd3HIPrn2rGOGdWryrQ0hSnVsol/w9f6lfaY/h7WoXs5FbYiXY2t0/h5r0T4MfAqLRLGPXL3T0iuJYlQgR9IwcgE5ySTgmqvw2+Bms6/rCeNfHusvczH/AI9LUptXI6HHoK920DTFgs0BC7AoXBHHHGK9jC4KOEi3u2fRYPDOhTV9SHSNHjS3G233FMc9vTiuhtbeIRIgOWbnkdOKitLNwAoiVIx/dOOK0LezkjVXic4/3s5rsSR2CW9vJGgQRA853VMschwi8MDz7VKscyR7nX5h2p63loz5m3RsFGS68DnvWsW76iaJLa3EbkunPHNWlTJ2gZyPWmwRJcsXWRdo5BH8VTpaBwTGeQfT0q7omzHW6lgR09qkihO0F171JFG6uqkY+XOalSLfvRhkY9aXvD90EtSUAVuuDjFPhDQz+RvcYGc54pYba42YVlAz8vvUqwXP+qMKt7hqPUPQlQoSxErjavY9TU0MCdYpssOSm3nFRRwXG5InjYFj1qZbQ20w8xJFkJ4YtxinZCuyxaRxySiS5ibJJCjGAOPTirX2WKwXfZISrnIWQ/cPtUdvbkyCZtw3tgM3PFX7aI207rKSxHCDON1XFx6A7k2maisUXkNFvf8AiyegNW2ME7rEoDAjJBGP881XkSK3f7W8RJJAIAzippDMoDWMQdyclWOBiqvYRPFZx2wxCdowchRjNAjUqqxxndnI5qWKFmcmfCuRgYHWmStfQXkaW6kxt/rDjg1adwHRwiKXc2Pn4BB71Nbi3uWkR8q4/i9aiV3aVlkjAwcoA2Ksx7ZEMsqgFhjimAo8+2IDvuUfez6VLbzW8iFSdoDHAI6ioYzNCwilYnPTjOfxqwsCyHnBGCDx06UASFoT2Dg9B6VHIiynZG4UNyPWoZmksWWTzQ0YbB29s4qNJITcgpvQMu4ken+eaALqLOu1W+b1qQTWz5y/LenY1GJAGXcxHoc5zTXjZJNwQbV6kdaAJAyw4G36471IEjxliVPpiq6SRJ99mK9Mnnn0pwuHxgoePRaVgufk9oV6/wANPEFvdH4bSarcS3JFprTMQIgRySgByMEjJ6cVs6pB4a8fR3+haxoltNf3UG1bifbutnJG1vXAIH5Vh+Mdd8Y+GDBpMfi1Da6tMptUW13S7w3QDnjnr0x1xWlZWMPw+vr3WTqJv5GRYI1ukCyEkbi7NzhecYAz796+DjUcdYvU+ZwsoKLVn958/wB/8IPi5a+ML631rVtRfTYpSg1KLcUYj7qKehb/AGQeKl0oa5eeMzpfhq3Zbiyh+ea6fbKq4+Y88+vFd/8AtE+I/GsHhqK+vPiS+60CjTdL09kdHlLZJdkOOPQg14rpnxCvpNXupNela81C9gcDUZJ9s1vKF+U8DDdgVOMj6V7uEc8TTtKx0OSq3Sex6VZ6X4e8ZpZ6f4nluV1K2uo442FupjeI/elPdj0wCR93vnFegax8FvC2hNba78N/iZey6pBcRqdP1CBY4pIurICDn25zzXkvwh8VaLNpdvY6deIfEmo3LRzxSnl5Ru2Lzwox6d+vavW9H+GGt2yLF488d6VpfkR+ffTSyr8jE/ImSR+mayxUZUnbY4qsqtNPmWhq678ZbDxRb3HgXStNbSPsbiWW1itwPNkTrukxx0NTxfH3T9Usb7Rtc8H206TaM73aTSFkZY05yv8AFxzXi2r/ABU8OWPi/W9AsvFFumh+WC9w2HSWRRkkN2B9vWvIPH3xWvLnx4NR+Fms3UObYwSyucLIrJtddv8AdOSKrD4SUpJ2PVwr542kh3xK+JHhC6D6P4E0YxESlprgcKvzE7FB7DNN0L4o+If7Di0qfXytvBPmK3MQ3fge/Ncbb6BeRzSQywbgpG9hwOetPbSr9pURI1IRuct2r6HkjyKLOqdOjJWZ6cnjTww1szahp897dSjiW4PynuOPbpUXiTx9ZX+g/ZNY0qa2nZoxB5TAoOSQB+Nc/ZzaTHpUtzcyO0xIEIyCOOtYNyuvzai8OqTebAG3RhXwFOOPpWX1amcX1f3/ACO70j4iWvgW/lS80i4vrq5jKskV0qAYHHJB4xXqXwq+JPwN13SLcXTR2+tTxhLyzullkYNn7qALhq+dQwnZXCiSR3KhlYmt/SjHo2pWWvSrN9ps50fMEmxnCnJG7B2nHGcVjXwdKcfMc8LQsfVPj20kvvArvpVrNp9vYyq1tcS3PlvJcEjag3Y6nt71yf7QmsJ4UbRI7fUYNR1H+zY59ZSBOIcfwrjO48HPPBrD+JP7Q/gf4t2Vv4Ki8Iz2Ms1xHI+o3d8AVIUAKo+7yepP5emBLplnNpV4NLaSZrCEs0azEiQDsD9K8mGEqwm+bY43TVN2I/FHiD4dfE3wHH4i1WKP7ba3H2eOFLzy52bap3GPn5Rnr3yfw4g6hY2msQ6DYSreOqh5mQ8R8fdPHJ/Kp9V8KeG/E+i/2jpdk0d1NGSyKMFSuSQTjntz71kWXh3UdGtFlsEIkWRWIkUjd9T6e9evQp00jZRp92dAg0q01RJ7qUK5OFVm5rv/AAxfSaDbrqVibRnnXyoftI4jY/KGOOvPIzx65HFchpnhi0+IupWgnkjjmQhS1uMhjjO3n8sn1rr9N8NxX7XukWlqxMKKsEfOSQcnBHHXHPSssU4pWJlG3U7FtXi/4Riy8P3LF9dt5JEvIQcEHqeRwfoKrwXH/CS+F5PDfiHVHu7vT5lNgWODHuOSCe+KyvDGja3rkOy/U2s+ny7numOC54HIH0+ldV4k8GtoN9bC81W3g+3ReZPsXLuAf4fyryJckdFuzFOm7k3gK31ez0G4MdrJLem4CxSMPlYf3s17B4Y8EWHiHSLEa1PKsqOZgzsWML4wwU+neuW+F+ixO02n3puJYpY1a1lZPlKfXPWvZfCuk28GyJF3hFG3d2rowlGXNztHqYCjS5eYv+F9OvbG433Vys0MCqLQAYOAOp+tdVFOTKsIgYkjJPbmq1lahYQNrB34HycCt21sgi7nHIA59a9Ju56uttB9kzRxASAtnsB71oWyqXCFjx0GP50kEeFBZcjHerkNrE4EqkgnuTTil1B3aHRwpK+5pB05GKligab5prdXAHOR0FOS3lix8mU/vg96sJhAPMRhn0Gack0rodmkQqI0UiOMKi9jxzVm3DFQqDIK54NEcY8zawO08k4qZIXflSXwOOMU1axPvDEaVS37knJwcGrMEUE0Jw3JPPHWo13I37xcEds1PbKVGWwAfQVTdkJK7JIIY1IiV8r3bHSpIUym1EO3GcqOfrToUUgbGyMkdKsWltDJcKJb4Rhjggj2+tQXdrYghtEiG6a9kY52oCORV61EewxvKXP949qlOmRGdSdRj2dEUDvUjafaSymBrzBHoO9WmiHfcLcTJE4nhMi9EI7/AEq3bRuGU3SbWVcBSc5qJrW0sbby5pZWLj5MPkA1JbRsrJHcTs6BcjK4Aq0ktRXLkbzS4lFuFidsMHcce49akWGAZMTAjHQdqcLd/IMtugGBkZPXFEKRsm7ywN2CV96090BwRpWJkIA6qScZPSpbYeWhElwSRwFz0oaK0uRx0U5J9D2qQRWlwSyhkOQWahLULvsSQxW1xGIlZWYcbu5qQ6dtUqOAevPSq6+XI5kijZT0R8dacuoFJDBeQOUXrMhyfbIqgJGt7pDgKH54PWpcPkFgD8/UdvapLQ24BaF2OBnB649qDJB5SxwN82QCD1z1pXFqtxjbJFaN7fyxjqR1pFt/l8tQwxyoHANSyRFCTLOygcnNNAkkTDS7vQj0p2GEcYEYaSJOAcbW75pwLqN4nByORt6Usaw7vuEBT821qUlsBVRTwcgdaAHRx3Rx5MkYU/eVhy1Qixl/gtto9M04yCRdyqRwSM0nnsAFCjj1FAH5HfDvwzrHjfxynivxdrNrrkWkLGklva3CqFbkKoVfunJPbBPPpjF8c+OrrVfGdy9hcQ+ZDA0LQ53xID/dz0f39sZryOb9qTxD8LPiTqnif4TWFtaC4tTDcRSwrNESTuLjd1YMB83uQc12PwH+Fur/ABJFz8SviHqrWNvc23nwTW8mx7mVvuptI5U5yT+vFfNzwEYLnqOyPnI0ZqDcjP8AFhOhaVZ6r4fvbJL6R5Bcxy4Y4zjcQeB+VcD4R+C3jr4hXupnRyioxaViyYLsDnC46555r6I+KXwRu7/w3YwaR4ZiSaKGNrm9kwWPPUjvkcZrA+G3xR0/wrDewS6HcfbtNuo4EaOHCkM2GDHtx+dFPFQpUn7J3Khywi+VamTp37Gev21ho3jCHXrS2vZpQ1zYyXBDRFWGJB78biO2etd/8dNA0LR/BF7q3xCefU5BCIbe5lI2tKQAuMelbXibXdE1D4g6elvBdW1rdWJku5Zk2LayA8Nz/KvI/wBrP4jfDf7Xa/D/AMLa9LeR2z+bfXokbypXIOVUHsDzkVxxqYjF1Up7XOOanVlZHivibSLFLQnSrVDG0X7+F3yCR1YHtzXN2OmR3mr20+nweWFYbo94OK37zVLee68vTYP9GxwT/GT1FUrW4itdRW3g07EzhkUIOQexr62lFxgkz1MMpQjqaK6HPqMM9/8AaBAqSFVRusntio/ElpaRsiRsVBwGTOSM9a6W80yw1eztHtLF7aWK2UXsRl/1hxzJ7H2rAi8Lm0vAdTmEzzuTCjvhSo6cVSabsXzcztYgTwvZJpxjtjKswHmW5Y55+lP1Dw/rcFoI77TGlnnAJjDbc8dMeuK7fSPE2lJpsNpptjHHc7drgj/awefpit/SdCa4xLLYedcwyLL5lwMISemaxqVnB7GM6849DyjTNJsfPSSKIwSlP9WTuwQe49a3Ha4s7A3TW+XVwdpX7w+n0r1nXPhrqvjbUxDoeuaC+oqq/Z9EewEEspK/wPgbzx1JxWBrfwy+IvgaWW1+JHhdNNMUfmLH9ojcsnqPLZhWX1mMtDBYxVHY4W70+21GeLyNGubmC7XKTGPmJgBu6f17V3/w4v4vCOm3o1wyeYybtyFV3IWAxjqcZzxWnoutaTqeiRQR+H4Bb/aB5VzbYWRCP4m9QCf84rj/AB5cIuqSr5imOCUb0U8q44VgeuCDnFZur7SXKNXm7GlJdaJDbLp15b/Yo76RvIlX/VuN3JBHTtXLXM8WnX7aZqd0Z4FciK5iGcr/AHT61R1TWJ4bo6fI/n2wHmxRj/lm56gelbnhLR7TxDPZ3+rWrOqjzGjg43+zVbpumrmjoOCuy78EtMdde1e/hmK28OnySwox/wBcw4G31Pr7CvTfhvbX9n52pTwMx8tBBIhzkOTnj2PFcbpnhEeFWTVtNu/KsfPUeTFLl0bcDkDsO3411NvrXiSwe+kt3WcWIL26RpkSBvmC+uQR+teZiMRzXUThq1ZXtE9A0XRdM0vwvHqd9f24vo7xopId3Lxk53H1OTzQ3hzR/H84nvzceZpLlI0Tqyt1X6VjeN/EP9hanpUtzDH9i13TYJGkkfm1uWA3o2OOG4zXo/wy8NrYyefA/mC4G4yAfeOOv0rno0ZVJ3kjqwVGVaeqNzwZpkOjWVvZxWTR2oXajBchMdq9D8P2MYhW7jILyc7h3FUNG0bFstqsRSMNljt5Jro9IsPJi2SckNlQPT0r2qfLFWPoYw5Y2RpWCOF3SN2wMdq1dNZ3jBdtw5H5Vn2UaFVjZTxkGtS2gZIgmzGDkNmm1fY1RfgSRVGMAkZwe9XreHChQB6tUMCM+xxggLxgc1ZhhZmBZME9CDTQ1a4+PzF4DAAdBjNWrae4dQABgZzz94k02O3vIplMQEiYIUH1p5be3lSWiLno6NTu5Kw20ywFt7hcjjHDZHQ063t4o2zKsgI+6VGc/WmQpcJGHV94P3z0+lTR3BjRVxyOGOaRJMtjdZM63FuV/uHGf1qSPT7tlXy4lYE/wY6k1FJ5SuyxMTlRg7alF/NEPLWGIkpyduDn1FFxWEkhnhbDWz5DYOO1Sp9k3B1tnB4JHpU0F15ux2tAVLjeBJzjODWuuj21wzASsCG3YZs4Haq90XvGVHHZShWkj2kMWHPSr6W8JnSWIMUx80hHWiXSYbe9LS7nTbjdjGCanSyRNluszlMElfxq+WNhXaH3VtHfEKflVjkuD6A4o05btYjaXhyrZCt7VJ9k2qvluQoPGDmrUVuu9Y1ySVJ/GrQio11cadLuk+eFRgAdqvuiiZGUIVK5JHYU3yLaTIZDjbgtjjNMsobm2DxXDDau4x4HReg/z7U0rsC2toXAdSNrH5SDnNIrlkMhXkD5gBTI55ABGRuXaSue3FTR3CtGrugCjqFFWgHR+QUAhPJ52tUV5ZyPcrPBcFVDAvGF4Ydx1qWO4JO9U25J2A85pUvImuDDMh3qT90daAEKo0fyIS6HOOc49OfanO0W4Fwiu3T5sGpN8gIbyiVblht5IprCCeVd5G4cjjt0pWQ7sgs4bqyjEE84ljzlWJJOck4zVxTbytjBBPr0A+lMNvHbxCJFAQfpz/jTLjT0iJSOY5lGN2eaYicbojkYOT2FPSCXd5o6cgkDio9PFzZRC2luyyLnaGXk5/z3qYiaUbYwdoOdo6VLkug0u4jBQfLVgRjDAjmkYZYlVAGeBTt7bVKZB3Zb2xUckbO5eMFwTnczYqkI/mpt3kKm3P3eVAI4IxXr/wAA/H/ijWPib4b8MeKPEUqaWzxWSxJwsMSjjgYz069a8vnght5RZKDndgBV49u/erllFrHhy+ttZhuR5kDCSNB/D+OamrBVqbSOGbhUjqfYPjvxL8TPBM3iW4u7GDXNL8p4dNaW5O6NCAARt749a8k+HXirUda0y8nOhShAPLuLeaQAswBIcn1z+VZXxG+NGs+PLXTovC2pSQwRIj3iOMZlOAR7jrXOalfMNQe70fULu3SWTDWZbh2BxnIxmvM+pOMWtDmcJcrike/eB7nRPGVy1l4h1q8neCNQLWRiWkIAA59M1zP7Z3gT4f2fgjQdS03T47bXftB+129qcoIj0LHpnp+NUfhzrGg+Hpx418U+Kbe2aaQJ5Cy5k8rocxr82AR255zWx8WvHnw78T/DLUPAvgInU7nUZ1eC+kYssA3AsAz/ADZxntxXm/Vq1HEpx2OFYWpTnzXPF/Dnh6915hPZKpijOCEOWU4HJHpWjofgu5bXpjdwKt2IRJAFbjaDyQfyzU+gfDbx7o6eUmo29lbIola9kuxCgx1AZ8ZPt6c9jXTBtV1bw+lvZWwure1lJinBAL5wWTcOQPfFe9Kr7tkzStWlFXRzXieSC1uYY9Q8pmcEOEYg8dfrVuHw14ckaOaEvKQm9pZW4VSOo+lWtav7a90J9IsLuaWFZR51vc7d8DcDG4jn/eHWodNjurXRnCTvawRMUjuZfm2DGSM5578VPNZBTq3hdvU1fDvgvw5rlzZ+GdJ1ZEa4ZiyynDMygtgcZwcHGPU1oavq089xOt2wZbwrGjQD93E8ZwoPPHQc9fWtP4R+Avh/em88VJr982o2rJ9lUKAImcbQ7KMFgcEjsM85rf0DwBY6h4h1G30jVrWaIuktwkMJdEHO47WORk8Z6fWuOtW7s5q2IUXZ6mdrlpLrulWlnqCJ9sf/AFF/I+DER3UjntWdd23jzXPDklxqafbQGMVhezSHMuAc/e6jtk10OvR6V4V1dbS90ua60jUHIuI3H7yz/wBtGHQDiut1XwppOp+D08PaqW2W8vnWt6Mq8SkDaDjqMda4/b+zd2c0J0072seG6D4pttMgl0SXS7mK58zcIwhyFIwQAOwx/Pjmp9X8P3fiawkvrsPbXUZ24kTAcAY5GOnT34r0zWNN0DTLyOO28MTTOY1WTUYVDDDEkdBx0GK5r4iajpT6VEsel6lDqUSlZzEOHi6gkeoz1+tdMK0JNOJ3UakZSVjxp9KaHVUtLyLY6Pz83De/0r1j4VaHHa6upaykgs5bFy5Z/kkkA4UD3zXH22v6Klmbe5t5J/m/cysPmQ56H25r0DSZ01rSbaySXy5LuAvZzCTCI8fv2zwPqa6685Tp2aPWqwi6Om5f8c6JrfhDwDY6zDpOn/Z1vAUljGQ2XHySe/ArT+HnizQPEd41jbtDFciIAxbwd7E/Nz7EmtrTr+PXfh9qXhHWtM3aff2kbeWCA8MqHLN/OtnwR+z74K02+a48OxXMds0263Z8GTbjI+fA/lXlRwsJv3rpnDTwUJu7vcXQ/gppHiS5F4yzXNuJRJ5d225Y3zyFHoO1e1+H9At7Kzit4rZFSJQq84/Cm+FfDdppumRWNqqxiLgRqM/mc81s6jJc6dpz3FlYNdSxJuEQ43EdOgPevQpUFGPKexQoxoRtYs2FvdQgmW1KDIKrnOR0rdtYs4jbIO3jIryb4d/GH4i6n4jfw542+Hhs3M2+GWC98x8E4AK444HrnnpXtenWrygSfZDlgOPaul0nFao6E1LVElrYAKjS4ye2Ola8WlxxsNlx1HTbUdlIEYwTjkD5QV6VoN5WFSOXecdAOc0uUY2BXtnZ2HCj7pGfyrRge0kAaO1IO3ON3vTEgaCMSxONx+9zVmK+2oPNgXJ/jUdfrTswJI0spDseaSCQc/IeCuP8akj0xrmPzUkAzjbkYzmmGCG7H3QS/cGp411SFQJEWSIcDPbFGqAge3utLunjlfKjHKjI/KplaO6zG6gle+Mbqs2N1aR+c0gfLYJEgyakZtJePy5S3zcr8h/nVKz3Js7kVraiQkmQIDx7irQ0VWAkjKgnsWAzTU0mznXfZ6iGBHR1ORj3qaPQbpSJWkjYbOSxocU3ZBdrcij0KZJlVyiBv+Wivn/PNWYbLUokcW8w3fxMJOcVNaadcWxgcwxybFOU3HApsloiKZZ4Mbzztk6D0zSUG3YHJEUqa3IPs4k3KQCrk5IHpV5IL9xG0s4iKr271NBFEIhKkQUqOM9qWeJbhPNtpsOMcHnI6nmttiR0d3IZTELcttx849P6c1eggmSQyo5U9DmoGWMRrsPz7vmI7f41LHMJ9wlBGxgVY9//AK1FgJLSB8GRW4yeMZ702WMGQxAsNiDluc00oy3DlZmxKAAEPQ+oFKzHeySBt47dc+5NOO4DoFV3Ejx7wOOv3TUwjYSYBBz1Oe1NmuooYwlzKsZJ4Oc/jUo+zKQSoBfpIW4/+tVgRMCGBYkNj5cLnbz+tSBvJkE4wwZcF+9K0QYGSKQNgY+VuvPrSsAnPk7Tt4VaBXQ7fdrd72C+UsfC45Y/0p4nWW6VAOSvJYdP/rVHE7YGUYA92PINOKK67pRnnkZwaWwXTJGO1zHCB8xHOeeKJjE84PXeScehpGkRV8xbfbhcZH8zUUVzaTSG3d9h6q5HDH0FMZY+xiZy6zY44AHpSxymNDGBgkc5NLbIpBLTA44IPFSvHDcKGgXkHlR2FS4roKTlbQrGCNlcbSrPgBs09HWBfKToO5NVNY0q/vdRtLuC+MMMMhZwP4hg8VeWPOfKgBX1PemmPW2p/PF490XQbDxGsHh3X4tQhmjyW8kKVOeuPwrLlgmm3RTFysY+Zsdqt3en2LwnVYoDH5xO5vRjyBWVOdRgtvJKmTL7Qg6tz60UlKMbM8fCU3GCUty7Y2twsElxbYYKMw5HcVqQ2+ozG31Nkz5mSpzjbnrVjwpNNP4alubmPzRazBWt41BYLydx9fTNa1pf3F/pZhtjGshXjdCOueSamdVxlZHfOfI9EVb7R7u3BvJtLd/MAETBMn61cL6zpNwL2OwbfZFftUaAbSp6YxkDOfzrU8N3cunyy6Vqurt9laIPBK0e6SJtvUDPK+3apvBvieWGa5gitI5nuoTDNE33Z1z0I7E/pWM5OWrOWpWTVmiv4t1bQ/FNwtulu0cf2VZzmbcGOQCpyeo46fyqzpvjCbQjDc+E7uOKdI/IMAjBOD7YIIzWbY+CbjX7m/itbUWoRZHjimk5DD/lmCOp2/nV34e/DzTb1b+5mu5bK8jiPkzSxExpx8wZeMn+VYydPozjlGlKNonYeFfBfh6aSbxj8VLaKJZwIoxnZC8rH5Qygd+AO1bHiLRbnwbqsdnp3gGwvhfRAW1vdbpPs/y4wArKuCDnnPesjVNTs/C2jW9prn+lulgESRn3JcKfX3HuKfp/jE2yW9pZ+daSQspia8O+Hb0wT6c4xjjtXJJu+hw1YTh8BZtPC9zbXDX91qsOnSJJDC2n2CKML3zjoOMdO9OiHin4Y+IIvH2g6g263keO1sZELLLE/wB5Cc8jv9fStHRdJ1O71mPX7vUdONtqFuyreWw85IpRyIWHUHp27/jWrZTalq9+2meM442REzbXNhZmJNoyCCp4zXPOpyv3jhnCtKfM2kLqljfeK/ANl4n0S6hN7qsTvPYygFZQrcoD/CRj9KxPD/iTWvEGjw6Vrmk3n26HVjJZX7ueoXa0bA9VUD6c10ujeEPDOhxSwaHHr97NAWniintgFAbk+XtPU5qp4FT7dquoLc6yjwp8sdo8e2dMnLKw7Ed/pXNWrqVNpI6Iun9o3dK1W08C2es33h+ye9vb+0Q3cKsCI8cjYp6f/XNcfJceF9Wu21HQtMupLSa6Juftx+aMkfMR7Eg16lo06W2mX9v4JsLCHVLHabgTQea90vUBv9nJHT0Hpmub+Leoavb6No2r6bawDUb4fZporC3KwK2RkEY+tefRqz9po9SqbftNDyrxb8KrW/u7nQNJ1G1juL9vOs4lOMpj7ufU1u/Cj4LeJri1tYtStZraG2jkjWNuGO7kn6cV08PhdPEPijT9Lu/D2owXsMJ/06zgOIj0BIP8Oc+le0+G/B+qWliUe4Mr20O15FX5pGAyTjnH619Php1eS0z6LDRqTjaocj4O+DlvHK08gkKyReU8SkhGwBzj8K9T8KeEBYafDE7ZMQCBSMEADHP5VraPprwRRbIGyEBVv7vtWxb6bIJvP5O85Ppmtmup3xjGOiRU07RHtYyWC8nJKrgt6Vq2+jypFgxEMy5O48r9KtW9qzRbSB/vGrcUOWRc9fXirika8zaItK8O6Rp0zX1ppsUdzMP30ojBd/x69AK2beOAyrIYmA3Dg8jP+eaZZW6MMtlMtjIHFW4grvmJwMH5iBQ2xEqwRy25jbYrySYDDsOtWY9KVrrYkuDj5R2JoshIoeN0jYhMkg1csyj4dZArBMFR2prmYFZ7DVLdmW3h3HqUyMNVmzvbR1+y3kBRQMsQOnsKu2vCC63bgTtPGeKuGFbqDypbYDjKOvfmqs1uBTieyXZd2twRs4EeOCDWhaSQzRgyXK5J+VKjk0y0gRWltRGW6gd6X+zLCdhNJACCDtBPU0mrgWp9OS5QusuH6DoRimR3k9vIYZoFVF43uAQKSPTLAR/uHlhdeiq3FWbORULWrhZW3DcJeAB35oUWhXRKpto4Vu5mi2npt4zSfa5dhnVQik8D1xSXFno7EpE6qVbOBzmpX0+0lOzdt2IBjGMkc5q0tbibTJoLosNs0ZBYde2KWe/ghURPBlcjaMcVEumXLkYuFbCfKD2qVjdYSFBEQcDPpVWSJJ0lXDBQSG6HGBT4YFeNyY8cbc5wW96ht4zds1vBerkcHavGfWnwW18k2PtqyALgAqOo+lAEiQrbMIUHKpyD1/OrVkjSWwLADORwc/56VWf7TI5SXAJPAXqT71Ys0miAWMnOf3i4oAaTJKpaQsUDgK+MdB7fjUxEUMyZmVw4xuI5A96WaLf8xJU/3cfzqQ5kLRr8pUD5yOtCYEeHCBVQOCuQc8ChvKlj23doskUabsZxmpvMSEgsPbJNCRedKxZflAwu8cGrTuARJbCNY7ceUuchR2qRJSFDxx5ZDgP60wRKCyoVwOwHT3pEV4gQsjdeDimJpEjTq8zM+QV5UE57UqnJ3eWQT/ePT2qIGXPmIuWz/F+lSJI9wgSYAFDy3TmgS0YBy8G0n5WPHqD0qP7HatGUSEB1+8e596sW8KyHbuBB9TwKUQ2235QQ54Jz29KBt2IbKW4jhaOVVKq2QT1IqeGc71ByoZs5XimzWzRoskRz6j0oeCfBd0ITGcilqO6YrTW9xfLJFI2yP5nQ9CamZopnMqvgE9PSoIogmwKRtOSxomMisBFKuMdxRoPU/m6vE8RWsKS6lZ3Cwv8AckYHY3OMZHBIPH4VreHdTXR50la2EqKhKhsHDH2NfU/7W/hPXviXdaVo+p3002oXE/mw2wtQoEZ53YXluB3ryLxj8L7hGs/Cmh+G7m6vY5EhYopJk3Hg4XknPGa8/C5tRxEbbHzeFzKlWpcr0ZhN4ytrSOW3stPh33CBfOBIwQOSMY/yKzZpdesNSspL20DRAnzXRMFge5+n9K1PEHh7Um0q9+EniLwXNb+KNN1FBpCwg7gh5ZOMh1Ocg988EY51/DHwh+MK640HifSYLUWtqZLhJLtGCADALbCcfjiux1Kb1PS5qTincwNbvbWaRbyHW0WIACRARk/Q/wBKv+H4brXJJ9V8LRBYoUQXUgXKhsDBz6n09jV7R/2c9b8a2WoyaTrGnyQaehmdi5TcxPCoT94+wrrvDPw+8PeD9L0+PVdH1XULy0PnfZ7NglvIfvFn28tgYHUcA/SsZ1KZz1auHUdWVPCV7f8AiTTptJ1a9is7203SW9znaJOeAw7k4xn8O1dM2jWMekrqIupWurFBcFYJSGdAcMxUjBUYxXO6h4Avdbvj4gsbC5sleUsbd4yGyGyEAzx39eldTo/ww+LcWrQ+JImt4YJ4xARIQcxONrpj6da5Z8j2ZwylRmJoPinwj4z8RnSbvwzP5uoaZIlrcSOGV5AOCmANoz9aypPCGv3XhoeIdO1axuTahoL6xllAltnDED5O+eufQ13fir4f6f8ABw29nPorJp0LZhllmy8bHgMhHIPP5VPefB6zvvDw+I3h618682hr6xuGLM6svDDGSG6A5rllUhG92YSq2dlscb4H8Oaaslxb6A+opdyQRtex3CgW8DdRICOnIPPfNd1pnivUhpEvhfw5dG81S0k331rqTZ+1Qnqyf3e+PasvwZP4u1fST4SttBSPTJPNN7cak+x0G1iokYclc9PQUeFPFkcZOjXNzpsWs2kgtYtTtoyRewdFwTyQvT8K4qkpVLtdDlrSU483Yv8AjS51LwR4aHxB8M2OoxNBIr+Ta3nmpZuP4pU7pgEEehFc38IfEdn8SvibJ4tl8qwguEnn1Z5H+WHheh7hmPH1xXsmj6zeaN5VnfppiXN8Wt5razTEWpBRyWVh1IHODyPSvFvjH8O7e0nk/wCFfaPLplpqM4ePTo5CUNwDlo14+7/dB6Zx6VjQqKV4tav+uxeFaej6/wBdj1n+3rj4fQjUrXTLWW+uVVp7i0xxb4JAIPfpn8K0tc8J638R5YhoNs9zbLELhy6eXtYngrjo1cn8ELfw343/AGebDXP+EuFtr0WrTWzl23AzITiKQEg4ZQDxyc8dK6uDx3rEviyTQodHn8q4iQm6Fq2I324Kg9CM8iuWeHqU8QkdkKUlVSk/Sx6B4Q8HtpWnRnULoveFV8x5X/eMcdD6gYrqbbQE+1C8il2F49sq46+9YPgXRdS1W2UasXMiScyP1I7V6Dp+lpkuwPBwFAxX02F5nH3mfS0ouNNFaz0cxrtTBwoIUDpWhDaKqA5KjoSKt29qI+sQU459xUq27LxvAXsBzXVp1OiKRWtYMr8xIAJABHJq0tirMF3HkZ6VYt7NkYM2AP51bVWxiPAGOlNNLoabkVvbiPYvUe45HNXIbVQm5owUPAIGMVHFA7gNvx7gVMEaOMp5hOeue9Lcze5NDpzSlgsu0r2254qezZzmIopIHzNjmn25DxGVycsuCQfwqzp/mQSMoTzFZeCfWqi3cB8UluLLb5m3b/Dn3rTjVTCu2PdtAK59KydJ+z25ktby3EjH5kOOTk81oWQtvNDC/dJN33XOAKvmaAs30T6jZSRh8MFx1ySadbQQ3FtEsS+WMhfoR1/rRHcJ9oZcZVT97d1OO1WLezMkW4y7d7ZC571VluQ27kEdtcpfyWsdxj5QY329fUVP/Zl2FMtxcCQ5+UbamjRTMN8hLr1UjrxVkwxxKTFnGc4zVXSQWZnyWN5kTxouRyFRKjae+sNrSWXmZ75HFax80IxtJAGZcbiOMUkKyMNrqMDjKjOahsfKUl1RFULdWBUEdiQTVu1aG4UStGACDs4zxT/scD5BAZR1+TkU+LT4YyXDHOOGPYAdKpEvcSCC2VyojA9ABzTbbTZUm89HO8MCDgnj39asLEGgEnmAZHAzz1qSFJA24KcP8u7HT/PFPRgmrkcyFHbcSWzkMBjFSpKXYq8m0OBgKOc/Wg2kjTJmXOQcnoOO9PI+ztteJjgY3qMj1oTswGbmm5eTJ3YxU+9Gfasm4HtmoZldpY1ZGC4JLjoKV0mcFWmKksMHHUfhT0YEySKQqAKvXHHJxS+WB8jNvO7IYnpTfKk7OMKPlOfmNSRiNstFkOQN47U7JAPG0gln6DkDrQqT8Fj8vY5yR+FMeKbyyr/Jk8bOpob90CzsTgcbe9MLXHtK5wJCWZT8zbcCnDLAYIA/iFMjYzW4ljcBX/vCneXIQFYKOOAe9BNu4gWMkiNiA2Mn0qWEozldhbZ0OehqOFvNctKnA9KbLakPvtHQMwywY1KepRfcxRDFxB94dSe9NiCS28ginLKv3Sf5VVhNy0kZlOBGCXB5yPb2pQVijBtWYF2xszweaoGyxDDDJaiR1G8dMHpz1pyWMUi7vNT3xzTDcSNbmIwYYfKfX/PFRtZxSYZX28YIxQTZn5Q+JfDkT6NpV/eawTqWmQt9mvEui9xMi9IcnO5enHX3rC1Hx7YtaxxaHqkEWrylW2yRcoW6qcjjqeK39F8H+LjdNqXj3Q47aTTdMEUF3aEtA5UHBB6c9zXO+OLPwDb3MWs+Jp54NRaJZIFt3GZOn3v89q/P6cFTny/kfl9KU6U7PT+vM53Xv7L8N6rBJ4zikvdVuoJ71dSWTcxwx/doxIPBxkZ6GtV/jTqlx4Mk8M6q02rw38qtFfrCqRsCOEwAGBHcGuM+L0c2qeK9GubSZ/KtrAySoP4QWOMDtkEVc+F+mWOtQ63DdO01jp+y5uIreXaofoMt2GR2r3KSSppn0NP2sqKktjQ02aWxgnOq6Td2UsSFrKOB1jhx1OFxyx9a3vhnrfiEXMOo2bSyv5zBFQhSYOpB45J4H0zSXN95fxFsbqfTo3tX0kLBBcsGzKVJV8dfTmqukaJqVvqbRaA8trJeSbtIvZG2p9pzkqPpj8c1lOTcrIwqJOVnodNqU95qkN9cSyWkmqqWMdvFIT5MbcKZMcbutPsfENrc+IYLNtRjuNSsdOVJ7GC7LQRuvUnjr61gwa340utf03w74j8HQ6XfpKLnV57aLy/tcY5XIbjdyOPrVvbfeE/H9x4tstJjuXeyuYYY4I/kYSoRulA7jNYy9onqzSMJP3fxL0Pja58RTX1p4q03z9QBIto2Xcmzs/uq/wBBWLodx8QP+FtR6Lp+bn7daKsstvdmONYxyWPpjH9Ki0W18QHwv4e0/wAUWl34f1S0tJoLXVGRyt3Dn5RIz9T1xnORjmu1/wCERnN/baHoOo215e/2PFc6lKVAe4tfvMIwOSMgceuDXNUdldkzp8jtuzq/BPweGieOJdNurmTWrpGkhOnJKFiEMg6vuxuO05/L6V4j8Z/hJ4g+BHxHhuby7it4WkaS0eFt6BNxO36gcEZr6L0XVodY0ubxnBOIVO23ju7a53yRkDG2b0JA4J615p8evA48b+EI9R0jTb6aSOYpcyxZPloRw5GOme/T1qKOIafK1oKNNy0a0OG8AeJtQ134w6Lr/iXWZprRNRSTTo5iFBYY3qpAx07e/WvQrfxd4f8AEmn6fqmpn7Kk0UqS+XyUb5gshxyCGAzXizadqtlHpnhTT38+WydpbS4jPzQyMw59gCAfw6V7h4O+Guo+LLSaysw9jdw6mdysu8SRsoO8A4xk7sgZx6nOa9WnQlJ3R6lHCVJK8I6dzhPDPwR1jSpbufwn4hNzFfXCyTWCQZRJlYlHJJwzAEjPXntxj6C+FfgDxdHBG+tX43gFSASy5I57V2vw5+GNt4e0qO1lMZ+X51Cd+p7D1rtNH0a306PZEoxkkfLjFej7GmknJL7j26GHjGOq1KmheG00uL7OXBKn7xBHPrWwkDAKiv8ANu4YVLHA0i4Ug4657VNFbKwBRuOxxW8VHodaSSsRW8DSqUL/AHTyT3qe1ikQEMMrnCDtUgcK3llSQOpxUiKOCF59Kqw1oAVsZdBt7fWpY4vk3Bhz1GOlMV2RiAvP1qVZGyAyZJPFPldim2Fuwhk2P901chhUBlf5s96hkt1KKXU55Jx2FTJCVRVQk5p+6SDFoAZFPyjsK07J4J44/KOGdsHP86qLFboyqoJBHzHHAqeKxuLRZCcFY8MNvXmqiotibsT67YTw2sN5Bw9vJtL46gnnNa1vbWtzNI72oaN8cv2x6Go7W6trlDHOcMw+dic4NWfJEC5jmBVfU5Ip6XDWw1NKgefbdWwdR0XfgkfhU66VaJKPs80iAjCgNnH509VfAuSrFvY9RjtUivCB8o+Y/wALcZNXeFibMqGwvAu6G8YjkHeQO/tUkcGpWiFZNsoxkFe1XLaBnjxnGD0I+7zz9asRQtu2q3OPvY4ositSpC7xJvIzkdR0pBM4BfymIDcjOD0/WrThUZoVjGTjkjmgWrkkRSHDEBiRkGpaSQk9RkM1sg2xgMzYZlIxUyssatFEQQ3O41Bc2altzLja2MrTkt5BuKncCOK0SVhWuydtzRKwblR0U9fwp8SKyKAxG4lh64zioYDcIxikgAA6skoJA+lSQ7clYIicH5WbsKGuwrWZJGWcAsxJQkA98U4Rod0calQ45yc800vNPHtQg89QuCe9BuwjCTyyADgj147UktQJZV80hXkKqvYdzTJgzNtik+Ujr6GnAShf3hDfoadI0ZcQeV93ncR1+lC3AbGhjQM0gOO5HWnFVGyVGwM9B0p4KOCqDIHWkUxLIVD9sjHarAAreWElk5XrgUu2Tk8EHoD2pTsPOevc0hDbcbuR/Dn9aAI4RLFEIQM46bj+tSPufClsBerDvRM0k7q4lK7fQYFEcSpGYQ/uuT0NJgQNeXMVyqxBCnfJ7/SrJUZAaH5tvzEHIqC80mDVAgvHZdgziOTbzVm0t2jtljE24LlRk5J70k7sBouZNx4bkYAxwKkkn+0RplSHU8Mq9qYojVv3yZGeM+tOP2XzjKRsOAAtUJq4sslyCXEnOcqz/wBaiGoStzc2Shv9hxgj1qyYU8x4wwOzqaie1+Y4P50DR+aGnau1rfCGG8h1W1s7LFvaR3e5M46t7j09q828deFdQ8b+JLXxFNoNwtymJls5CMbNw3/h6fhWpd+IfAPhS2F1fpJbXgi23MFq+ZJAOmAOn1rI8J+MzrlvLqOvTajZLdXxWwnSNvKWEAADee+c5B61+fwU4VG4n5fBYhzfKjF1bVfBV3qmreHfEnhecQ3AxZX0kuxraReMMvUqccVtfCn4f2Oo/Cu98O+DdPa307V7uRdT127OwzBASFVeyKRjOeTzVHxZ4m8I6R8VJ/CXj5rfWbO4tQVuNNXMqORlM+vHWun8MXVz4f8AD9z4M8PalHPZ3G6S3+2xFo4Y2GdrDqMDrXpqtUUFdHtUatWNLlkeOaO+t6Z4zi1DxDqr6hp+mShbPEokLBTwqn0r2Xw5pfhzxzDbRaPF9ktdMmM6JcEqFY7j9498k/Q0/wAERXHh23nS18HaHqzXMgaBUX5X2t8yxZ6NnBGeeK3k+IUetaLe6PqelW+nJNqCebHPArRxptA3ueCiqw69OtclbFTqOy0sZ1K8J6S1INbvr3VL+5sTpdvrzXWyB4FkUGBFHVGz1A5/Crvw4B0Hxde6hFfRKunLE1upyXUcblOep6+tU/CvhzVtB8a3GoXeq2kljdWbIknyqFIGNyEcOp9c9DXa2uj+E9GsB4qvoraae42Jayw7mTOejY4ycYGa4quImtC4yh7O60ML4l+JfFniDU9QvL7Xl1HS4ZFjg0zUI9wJbHzLjuK890xpo/Eja3oBvLe88N27T2kisFeRxy6YIJEYDEAYO7J7Hn6A13R5JdM2vpltaXrEb0ZPNVQeD8vG47cgDPBOK4bSNH0zwx8SF1bxjLo8umT6JLm6a1K+e2dqxOhOVIJb8h9aUJ1JvUmnGbk22ebaV4007SPiPqXiTR766XSNZtRJeW4iAEknXcFHGVJ78/TpXougatY3er21ta3Esou7bbEASPNU5446464pPHreDdCcK/gHTjqP2Ytpd1aBTJLH1CggjOB/KqOgatqeq+ItCvNDuLdNMgcyXsl3Cd9u4G4IR159RRKnKWh3UXSbs3c9D0r4b+F9X1SXxLDpEP2gwJb3QdBuG1gSVH8OcdR1716VoPhuwhjjuIbUA7flOMkD0FeNeDPHz/8ACZX1pf6m8U8tw5tyylYpImIIQHHv1r27QpjbJBHI+C68RJyCPY17uWOcIcrPoMKoRjaJtWFkN21RtOOuKvQQeUQzAnHYdadbIy265HvyKliDAHjgt1/CvajqtTuSSHIFkAUDGex60LH+82Ac06MSbiNoA7E96liUO3OMg9RVjERHVSXOe1PG2PhUzmnRxOoaPpk5yaVEBHzHk9DQV7o0wq0mRLz6Ypy2UzPsx1PFS+SUfy1O4sM9KfDEfMO7gjtT5nYTYsUDpC6yAErkEg1Ygh3oADyB1PekESNEyox3H71TRoqR8HJHUUgQ5rGeS0Zo2G5QQq+pq9YxtNbBbiPBZQHPuDUZsDbDzobgoSAPnIOKmtIr21lNsQJFLfeUc/8A16uDsyWrklnBG1zIqqEyxIPqMVPZy21zGysFDKxVhIcD60ptmtb+K5Vt0aKHlV++cj9KvPZoshkgQYKgDC/KDVWbGiwqERYY5wByO9IQzr5DQ+/NMXR4YGDW7yqzfeAfOanaxiDgGRgAuGyev1oswEit4lAMZYAZxzwfrUoV4wJAQCCG2LTDCQMCcY7+hpZLaaTiGbDHGARxVoCc28Zja4klCEn7mM/lVWS5uoFLQttJHC7utTRG6jlMF3B94DZhulNNwJC+EOF4LMuPypNXQrEsc4uI/lX5+ASzfnSiRljKKfmD4x+FRpHHLGHIXg556n6UpgUSkBuFweeSKpXtYl3RIBjcrA+Y4xgDt9adGxjhOVOQ2BnkgcDFJGTdRlQNpTqc9c0ogCohGQd2JMHtRcRLt2p5UTsB0/CmpbKMIGbgcEHpUZlaJjHHGhXfjaRzmpBJJFhCck9WprcCSe2kmiyz5x/FihkSYYIOVHB6Ux78QyMzofn/ABFPbbNsdgwJHCg8Gla7AxfGvjnT/BmmNOyrJdSgraW5B/eP6cVqaJdahe6TaXWr2XkXU1usk8AH+rY9qfe21vdiKK5t4yUYGNmQEgjnIz0NTpcbXLZ3gnkk8mrAa8UjL+8x8x4wOnNU7q8WC/W2JIOxnYLyWA7D86sT6gkEAd1K7pAFwc5OcYqF4C+tLcSuiBUK5bggHrQAsLMyYlIGTlEkPP0qyksbS+YVDAD5gBmmjT4zK17zIV4HP6VahQta4VMHOWOOg/xpO3UCJY3O5oQG47jGKWKOOJAFjwcZJPOaI2JfyypHXl+/p9aeWKHDRkgDgqODRbsAsLpL8rxbQBklhTmhifaY4xkPwWH61JAylVDR8N2Y0wEqSYwW+bnd/SmA1rG4Z2JXLMxJIqO5urq2cQrBOQF6ouQathJpVLRS/Mp6Z6g1Xbe/LJg+maSvcD8j9b8M+GX8T6xrskaw26usgvbk4jnUqPlQ46EkCvM/FH7SGnavo134B8L2dw1hJ81wrRgrDKjDBhxyAQOSRzivR/iD8Rbm68BXvhHwnro8UXRtBbRQw6bi3MarljjOVO0E8c5+teIfDPQE0fR9Y13Q7KJn01FmnuSu+SMbvukHv2/D618vhMLGTcpxd+h8Nh6TTam39yMGWDxCNTXxjZajFfosgeYq2JYjnjcMfy4r3X4a+O5W8P3vi7U7MX1rCIYnhhYZkDthwpzgkDJx7c1U8Oa8nje2u5dB0O0tLTUJNspkslWPGPmRvbOeneuw0HwP4P0C5s/DnhfwjZSaa0iyaoZLuQyKxI+4pOBk9Oa3xVSkqbi0dE53XK1odb4a8ArJp8PifRnmeyt7z7RpqW8eZAhAATHY9j6c88VynxI8Ya/FfT6zdS6a4j1EWlxLa2u+d7MglvMxxt4x0Jz39PRpfEGm6BrF54Mt5ZIY4rOKWGxt4yy+W+ScgH72O3rWTJB4DsLO61fwnpc16omV3iubRYXUr0Hl5Jb1Bz19K+aliYQnseZVspWXU4tU1O68PaPLK6XEN5eeXZp9nP8AotuThVZT92vWPiCxm8C6dpHw8jtHtbW5VNW8iMbjKBlTz1A56e1athoGk6lLDr+opas1/pxf7HdSkLDnnJXsRjGf5Vz/AMXYZbbQLDXvDcEtoj3DRi6jty1qBt6dzk4zuJHHrWHtVVqaj5ORaO/9epLL8QJRp0F/fTXscsDrDciWIYzu2jnjdxzxzxXC6z4Qi0bXpNATVWv7bWw00VjLIS0JB53HtyQc98+tOs9Z1TX9QuvCfim4luFFoWgR4vMZJgm4SIR1Ur6+ldXpt5K3w0X7PBNNdxoJJxHIC7Op9TyBgDgHFdEVKDunc6qb5lZnl0Xi3UbTxBoXw58Q6NZz3OnXMi215BO5MUeOFYjrx2969O8D3sV5aPNHokP2eWVo1ZmJIA/i/Ppn0rkrN/h5408RW2tXXgufS9ZjnSJ2kkcq+eC55x+le7fDHwBplvGLmaISqx4+U4Y54P616VCh7dp2PYwmHdRaLRGj8NvhzNZaX513PDIlywkkt5oVfy2ByCCRwe1eg6b4etLN2lUEu3Klu3+elSaZaxxRLEqgDHQCr8EZDfM+AOQcda+goUlTR79KnywSJY9zpuHTOKkWIn5tp2g9hRbwOXyGAB6g1OBiLeq/gRXRZXNhAqo4XJBcZANO2EEgMOexp6yqwKtCFbsQOMU6K3gkbPmkORwD0pqwncjcHyg7q25R1xwealhgbAJxgjIyOtAsimR5o44yKliCRNGjW5YDPOaN2MZCUMuGjB2pgkVNLtQjyXxkA01PLiJ2RYMjYPOe9WYbE3LuySAbBzkcUWtuA63gunh+0+XkMDz680W8OXkt8HzNm4nP3fSltZJI4VgDkqsm4gfyrTga2RJJSdkjPnex46dKaWoEEVzG4j3oJGVArEAjnOaswzyw3qTqm5SDlc4waclst3A13ayAMrchFGHqxHAJJopJYf8AW5XAH3cd6dkgL8DWt9bACUplCRhufpinJE1vIIhKSFAJz3NUojLb3P2QKVQZ7ck/WrwneWJYhGCem0AZq/eFdEtvG5ZsM2XJOcdKkzOzCyR9yY69Dn60yPJcpgDHUHkGnxLGJFkYthc4VWq0u4m+w1rUsf3Qw4wDg8AZ606NzExxtOOhPUe9OjyhMgQsSSC7LgD6fnTkWMjYsXzFfvE++KfuiuxfOdX3dSO4PamtMhfKIWz1DGkLsXYSJsO7B7g0vlxrJuMv6Ue6F2EBjVvNFucHpz3pQFgG5wd7NnA/SpVUlxNDIVGeVPQ8dRUuWRsA8fSlewXbII2dJCVjAVjyCOpxmpXw8WQcH6cCkcISI/L6k5PrQrS+f8pATGCG70WbECti4YOyjplse1OkiZYzhgDjgsKQhFO0qNrcHFEbSMzRbTlehJzkU1oAgP7hflBJ6k805ixZYxECT/FnpSNwqOqfKzEH61Hb3nnXslpg/ugCzduelDt0AnRzGMN87Z79BRJunQiIgZ447Uq/aVkJLKIz2NNdLhgTAiqScZzkD3qlsA2a1tJEjluHLGIh9oXkkdKgaWC8jZvJ5Jy5JyQKfLFMoLeYxZRjCjrUkKuVAkdSFHKr3NLW5Wg6FxsBiOFAHHrU3mIxDqNueDk9eKjZotwQwnkZyak3QEYVO3B9KHbqSOSN2G1ImY55IPH8qWVmgf7NFGenIPQD61DLKYXjdJpFw2RsGfzp32yJiZFfeADtB9aFcCTeE/gyAMDihZbjBSKHALfNluDSwzRrEjLEFyMsA3SnNNG3yC3wDgsN/Woblcr3RE3xy7huXC8AjOamgWRo93lMeepQ0wOfKCmZQCSPx60zyGJJabac9GfFCcmwsj8M9I+IEugWg1hNagsBbZi8q2kJm3Z2k4HIOeeRzmpfAVq1nrb6jpF0gh1dmj1C2eISLJHncysv8IPOD7/hUXjHxJ4MsPhtqPh650vStL1u4uWli1CHTPPa5bIzHuALRqVJIKjG48npngPAOu61LfQ+HZL/AA7xugmk689Ac+wxXGlaD0Pk4UqtWDex9RTfCrwpp2lnwr4Nk1DSodSiSYWFxbmRIpx0aOQc8471LN4ejGp6bpPinTVg868UrLbvmSTZgsXwAQuRyccZ7VyXwV8ceKdL8Gaoun6jdSPpIEkVmtx5YlU/eT5/4fcc16Pp+r+H/El+dTh8K2oujaxPqUU0pk2hgPl35BG1ievFeBjpzTfU4MVSxEbXd0Pl13VbfxTquow2U93PgyAWrBGjgACiNQBgqByB1rP8I6xefGTVn1jwrcJDeacQWbUYiMxJ1Q+nI5rT1+eLw9oV1pekeFRZ3a27SiW3mdpXOTlQSTkYPAGOgqwU0DwB4Tsr+5v0S51KNS1kuWnDNywYjr1rxZKTu+Uw+GFkaQ1ubWPCs2s3uvrBfRXpjBtbcSArnHAP8Ndx4Rtl8T+C5tI1O+F4tz/rLQxlY2C9TnseuOlcP4Cu/D6Wj6YdIMXnyuS8UnKsRlcg9uMV0Wg6sItf+y2ly2kCFNstsh3RSggZbnkH/wCvXn8lVSuyqUJX1S/E529uNL+D2uxaX4e1eaW5uF8xWntvMaGHdgJk9R/Uc1mS+O9I1TVpFtLQ2yyy4CqvlMzHrlenXNS/Eu38Q6rqVzNe6jHdRyOVtoLhxGkMPRlVgM5PX6mqXw0+E3iPU5ptfk0RpbXTr1TCLy6DHGOSOPmxXqUqaaUrnrU42smeh/DPwjp0WoW01/piTSsTvZmDcZ4J9O1ez6RaxQW6w20QVBwAOwrzv4fNYrrIeLRbiKeZgG8yEqCo9jXpmlkBEbySvPQjpX0eCg4wR9Dgko09DTs4AigEbc9KvxxgEb+g61FAiSRrKuCADhsVYit1c8sBx3PevUin1OsFt0CmQMOenrUkBljO9cM3q3pSpYyyZEPJXgAd6ljhufL8uSAqBxn369KoBYiJQJ8YOMfjmpUUynbI4Oc/w1FAsoO0qQp9R0qVWeNwgQ4P8VAAIFVfLjcL6E8gVPHGY40NyxZiCEwuM0W8YlO08L3I7VLYR208nkszKCxwxXIHHWgeliERFAX8zJxmrFjHcXFrIV4UEcnv9KmTw/czWiPa3Cu5Ztwx97jjFOtbC8sp1heB8kZG3kU+ViK/2WSOIpE653jcM9PyrVSA36bHkyQpwWGM8dKrQwxRSNYYZGnLYBXIHHU1dsLO6tZlgEwbYmN7Dr9KtAQaXbXFmjBpRjOcHjHatWK0mhlSUThlAztH1qO4gWbTd2GLFsYx15qwIYJEQxSkCEBcAdeKdmAtzYmfOZDkjIXPSmqDbQgNIwZRxtHNN8m4il85LnKZ5TZ0/Wr5BmjLOecfKxPSrSkQ7Eccgu8K8TJJtyw9vWrsUIfa6HoMDAx9ao2kE8rFfNGF+9xjd7Crccggk2kBV7gHpTux2VhI5JQzx+WCpP3M56VMChRZEbAA7j9KYpjD5TPmE5U54IxUVwMKsEhywfccUWYe6SSqpBknY+wohQlsu2OPlP8AeHWmAGU7kUleQOelRp9ohLJMwfngjjFITt0LPlx/67nOMZJ6UsLttEpGFPQep6VXW8TaGP3i2GH9atxhXA2jlSeaE0nqFmNilZZGV4T8wwp9OD1qQo3lhSu5Y1wR6mmF2wH6kHDewqQIVKyhzkggemDTuxWIYJFb5yBtXsuTzTmmQZZQeOpKUltaLZu+xi7McuzHJ+lK7mHMcknL/cyKbd0A5tiwM24nbyVpkWHjafcD5g5B/KkmwQA+1i6FTgdKdbARRCCJegwM1AD5N7lQrKCRjNNLuVWJCTIDyc4AFSAoAbkMpVQAPXPf8Kj+WaKU7AAG5bGSPetFcBiz3HJV14bAI6VYSAOhENwu9jgAetV7e3W2i2g/7pbnPvUoVpY1eB8gsctjmjUbtYElbLRzISR3FSAwk4iUlNueRio45BIpEcZGGwN3U1IHbdtER9DjtSbEKfKXAUFUP3gDnHvStBbsVLOGVcnAXuaXamMqSQP4MdKBKgOWUlfQetK7AYvlW2eMDoFI7mnxAMWEmFIAwPWkklQ8ngH2qRIYJ4i3lZYLuRiOMjNNrQBil2l8oYPHGKkBMP7s7TjucVDCvzbmyHxye3/1qfIwRsRFGGOST3/KpWjC5//Z;rounded=1;" parent="1" vertex="1">
                    <mxGeometry x="760" y="280" width="200" height="112.15" as="geometry"/>
                </mxCell>
            </root>
        </mxGraphModel>
    </diagram>
    <diagram id="oj01yfjUfmiqW-biaFMn" name="old">
        <mxGraphModel dx="324" dy="424" grid="1" gridSize="10" guides="1" tooltips="1" connect="1" arrows="1" fold="1" page="1" pageScale="1" pageWidth="1169" pageHeight="827" math="0" shadow="0">
            <root>
                <mxCell id="0"/>
                <mxCell id="1" parent="0"/>
                <mxCell id="6" style="edgeStyle=none;html=1;exitX=1;exitY=0.5;exitDx=0;exitDy=0;entryX=0;entryY=0.5;entryDx=0;entryDy=0;fontSize=24;shadow=0;" parent="1" source="2" target="5" edge="1">
                    <mxGeometry relative="1" as="geometry"/>
                </mxCell>
                <mxCell id="2" value="&lt;font style=&quot;font-size: 30px;&quot;&gt;ROAD-RIVER&lt;br&gt;pix2pix&lt;/font&gt;" style="rounded=1;whiteSpace=wrap;html=1;fillColor=#ffe6cc;strokeColor=#d79b00;shadow=0;" parent="1" vertex="1">
                    <mxGeometry x="320" y="40" width="280" height="200" as="geometry"/>
                </mxCell>
                <mxCell id="4" style="edgeStyle=none;html=1;exitX=1;exitY=0.5;exitDx=0;exitDy=0;entryX=0;entryY=0.5;entryDx=0;entryDy=0;fontSize=24;shadow=0;" parent="1" source="3" target="2" edge="1">
                    <mxGeometry relative="1" as="geometry"/>
                </mxCell>
                <mxCell id="3" value="DomainA&lt;br&gt;Image" style="whiteSpace=wrap;html=1;aspect=fixed;fontSize=24;fillColor=#f5f5f5;strokeColor=#666666;fontColor=#333333;shadow=0;" parent="1" vertex="1">
                    <mxGeometry x="40" y="40" width="200" height="200" as="geometry"/>
                </mxCell>
                <mxCell id="9" style="edgeStyle=orthogonalEdgeStyle;html=1;exitX=1;exitY=0.5;exitDx=0;exitDy=0;entryX=1;entryY=0.5;entryDx=0;entryDy=0;fontSize=24;startArrow=none;startFill=0;shadow=0;endArrow=none;endFill=0;" parent="1" source="5" target="7" edge="1">
                    <mxGeometry relative="1" as="geometry">
                        <Array as="points">
                            <mxPoint x="920" y="140"/>
                            <mxPoint x="920" y="460"/>
                        </Array>
                    </mxGeometry>
                </mxCell>
                <mxCell id="5" value="Generated&lt;br&gt;DomainB&lt;br&gt;Image" style="whiteSpace=wrap;html=1;aspect=fixed;fontSize=24;fillColor=#d0cee2;strokeColor=#56517e;shadow=0;" parent="1" vertex="1">
                    <mxGeometry x="680" y="40" width="200" height="200" as="geometry"/>
                </mxCell>
                <mxCell id="7" value="Real&lt;br&gt;DomainB&lt;br&gt;Image" style="whiteSpace=wrap;html=1;aspect=fixed;fontSize=24;fillColor=#bac8d3;strokeColor=#23445d;shadow=0;" parent="1" vertex="1">
                    <mxGeometry x="680" y="360" width="200" height="200" as="geometry"/>
                </mxCell>
                <mxCell id="18" style="edgeStyle=orthogonalEdgeStyle;html=1;exitX=0;exitY=0.5;exitDx=0;exitDy=0;shadow=0;fontSize=24;startArrow=classic;startFill=1;endArrow=none;endFill=0;" parent="1" source="16" edge="1">
                    <mxGeometry relative="1" as="geometry">
                        <mxPoint x="920" y="299.90909090909076" as="targetPoint"/>
                    </mxGeometry>
                </mxCell>
                <mxCell id="16" value="Discriminator" style="rounded=1;whiteSpace=wrap;html=1;shadow=0;fontSize=24;fillColor=#f8cecc;strokeColor=#b85450;align=center;" parent="1" vertex="1">
                    <mxGeometry x="960" y="240" width="160" height="120" as="geometry"/>
                </mxCell>
            </root>
        </mxGraphModel>
    </diagram>
</mxfile>